<?xml version="1.0" encoding="utf-8"?>
<!-- Generator: Adobe Illustrator 24.0.1, SVG Export Plug-In . SVG Version: 6.00 Build 0)  -->
<svg version="1.1" id="Capa_1" xmlns="http://www.w3.org/2000/svg" xmlns:xlink="http://www.w3.org/1999/xlink" x="0px" y="0px"
	 viewBox="0 0 512 512" style="enable-background:new 0 0 512 512;" xml:space="preserve">
<g>
	<g>
		<path d="M257,200.3c-30.2,0-54.7,24.5-54.7,54.7s24.5,54.7,54.7,54.7s54.7-24.5,54.7-54.7S287.1,200.3,257,200.3z"/>
	</g>
</g>
<g>
	<g>
		<path d="M0,0v512h512V0H0z M384.6,346.2c-24.6,0-46.4-12.4-59.6-31.1c-16.8,19-40.9,31.1-68.1,31.1c-50.3,0-91.2-40.9-91.2-91.2
			s40.9-91.2,91.2-91.2c20.5,0,39.4,7.2,54.7,18.7V182c0-10.1,8.1-18.2,18.2-18.2c10.1,0,18.2,8.1,18.2,18.2c0,40.6,0,50.5,0,91.2
			c0,20.1,16.4,36.5,36.5,36.5s36.5-16.4,36.5-36.5c0-122.1-80.7-182.3-164.1-182.3c-90.5,0-164.1,73.6-164.1,164.1
			S166.5,419.1,257,419.1c36.5,0,71-11.7,99.8-33.8c19.2-14.7,41.2,14.3,22.3,28.9c-35.2,27.1-77.5,41.4-122,41.4
			c-110.6,0-200.6-90-200.6-200.6S146.4,54.4,257,54.4c100.8,0,200.6,74.3,200.6,218.8C457.6,313.5,424.9,346.2,384.6,346.2z"/>
	</g>
</g>
</svg>
