<?xml version="1.0" encoding="utf-8"?>
<!-- Generator: Adobe Illustrator 24.0.1, SVG Export Plug-In . SVG Version: 6.00 Build 0)  -->
<svg version="1.1" id="Capa_1" xmlns="http://www.w3.org/2000/svg" xmlns:xlink="http://www.w3.org/1999/xlink" x="0px" y="0px"
	 viewBox="0 0 512 512" style="enable-background:new 0 0 512 512;" xml:space="preserve">
<g>
	<g>
		<path d="M257,197.7c-31.6,0-57.3,25.7-57.3,57.3s25.7,57.3,57.3,57.3s57.3-25.7,57.3-57.3S288.5,197.7,257,197.7z"/>
	</g>
</g>
<g>
	<g>
		<path d="M0,0v512h512V0H0z M390.6,350.5c-25.8,0-48.6-13-62.4-32.6c-17.6,19.9-42.8,32.6-71.3,32.6c-52.7,0-95.5-42.8-95.5-95.5
			s42.8-95.5,95.5-95.5c21.5,0,41.2,7.5,57.3,19.6v-0.5c0-10.6,8.5-19.1,19.1-19.1s19.1,8.5,19.1,19.1c0,42.5,0,52.9,0,95.5
			c0,21,17.2,38.2,38.2,38.2s38.2-17.2,38.2-38.2c0-127.8-84.5-190.9-171.8-190.9c-94.7,0-171.8,77.1-171.8,171.8
			S162.3,426.8,257,426.8c38.2,0,74.3-12.2,104.5-35.4c20.1-15.4,43.1,15,23.3,30.3c-36.9,28.4-81.1,43.3-127.7,43.3
			c-115.8,0-210-94.2-210-210S141.2,45,257,45c105.5,0,210,77.8,210,229.1C467,316.2,432.8,350.5,390.6,350.5z"/>
	</g>
</g>
</svg>
