<?xml version="1.0" encoding="utf-8"?>
<!-- Generator: Adobe Illustrator 24.0.1, SVG Export Plug-In . SVG Version: 6.00 Build 0)  -->
<svg version="1.1" id="Capa_1" xmlns="http://www.w3.org/2000/svg" xmlns:xlink="http://www.w3.org/1999/xlink" x="0px" y="0px"
	 viewBox="0 0 512 512" style="enable-background:new 0 0 512 512;" xml:space="preserve">
<path d="M256,0C114.8,0,0,114.8,0,256s114.8,256,256,256c45,0,89.3-11.8,128-34.3l-32-55.4c-29,16.8-62.2,25.7-96,25.7
	c-105.9,0-192-86.1-192-192S150.1,64,256,64s192,86.1,192,192v27.9c0,20.9-13.5,36.1-32,36.1c-17.6,0-32-14.4-32-32V160h-44.2
	c-22.5-19.7-51.6-32-83.8-32c-70.6,0-128,57.4-128,128s57.4,128,128,128c33.6,0,64-13.3,86.9-34.6c17.6,20.9,43.7,34.6,73.1,34.6
	c53.8,0,96-44,96-100.1V256C512,114.8,397.2,0,256,0z M256,320c-35.3,0-64-28.7-64-64c0-35.3,28.7-64,64-64c35.3,0,64,28.7,64,64
	C320,291.3,291.3,320,256,320z"/>
</svg>
