<?xml version="1.0" encoding="utf-8"?>
<!-- Generator: Adobe Illustrator 24.0.1, SVG Export Plug-In . SVG Version: 6.00 Build 0)  -->
<svg version="1.1" id="Capa_1" xmlns="http://www.w3.org/2000/svg" xmlns:xlink="http://www.w3.org/1999/xlink" x="0px" y="0px"
	 viewBox="0 0 400 400" style="enable-background:new 0 0 400 400;" xml:space="preserve">
<path d="M400,0H0v400h400V0z M226.6,38.4c10-2,20.2,2.6,22.8,10.1l19.3,56.3l19.3-56.3c2.6-7.6,12.8-12.1,22.8-10.1
	s16,9.8,13.4,17.3l-37.5,109c-2.1,6.3-9.7,10.6-18.1,10.6c-8.5,0-16-4.4-18.1-11.6l-37.5-109C210.6,48.2,216.6,40.4,226.6,38.4
	L226.6,38.4z M75.1,56.9c0-10.4,11.2-19,25-19h43.8c27.3,0,49,19.2,42.6,40.9c0,0.1-0.1,0.2-0.1,0.2c-20,15.6-39.8-2.1-35.3-12.6
	h-38.5v85.3H151c-6.1-14.3,16.8-27,35.2-12.6c0,0,0.1,0.1,0.1,0.2c6.5,21.6-15.1,40.9-42.6,40.9H100c-13.7,0-25-8.5-25-19V56.9H75.1
	z M313.5,369.7H70.9c-0.2,0-0.6,0-0.8-0.1C33,355,55.9,336.5,88.5,336.5h242.6c0.2,0,0.6,0,0.8,0.1
	C369,351.2,346.1,369.7,313.5,369.7z M322.6,311.8H139.2c-0.2,0-0.4,0-0.6-0.1c-28.1-14.6-10.8-33.2,13.9-33.2h183.3
	c0.2,0,0.4,0,0.6,0.1C364.7,293.4,347.3,311.8,322.6,311.8z M246.1,252.9H62.5c-0.1,0-0.3,0-0.4-0.1c-21.5-14.6-8.3-33.1,10.7-33.1
	h183.6c0.1,0,0.3,0,0.4,0.1C278.2,234.4,265.1,252.9,246.1,252.9z"/>
</svg>
