<?xml version="1.0" encoding="utf-8"?>
<!-- Generator: Adobe Illustrator 24.0.1, SVG Export Plug-In . SVG Version: 6.00 Build 0)  -->
<svg version="1.1" id="Capa_1" xmlns="http://www.w3.org/2000/svg" xmlns:xlink="http://www.w3.org/1999/xlink" x="0px" y="0px"
	 viewBox="0 0 360 422" style="enable-background:new 0 0 360 422;" xml:space="preserve">
<path d="M400,0H0v422h400V0z M220.6,40.5c8.9-2.1,18,2.7,20.3,10.7l17.2,59.4l17.2-59.4c2.3-8,11.4-12.8,20.3-10.7
	s14.2,10.3,11.9,18.3l-33.3,115c-1.9,6.6-8.6,11.2-16.1,11.2c-7.6,0-14.2-4.6-16.1-12.2l-33.3-115C206.3,50.8,211.7,42.6,220.6,40.5
	L220.6,40.5z M85.9,60c0-11,10-20,22.2-20H147c24.3,0,43.6,20.3,37.9,43.1c0,0.1-0.1,0.2-0.1,0.2C167,99.8,149.4,81.1,153.4,70
	h-34.2v90h34.2c-5.4-15.1,14.9-28.5,31.3-13.3c0,0,0.1,0.1,0.1,0.2c5.8,22.8-13.4,43.1-37.9,43.1h-38.9c-12.2,0-22.2-9-22.2-20V60z
	 M309.9,390H85.1c-0.2,0-0.6,0-0.7-0.1C50,374.5,71.2,355,101.4,355h224.8c0.2,0,0.6,0,0.7,0.1C361.3,370.5,340.1,390,309.9,390z
	 M318.3,329H148.4c-0.2,0-0.4,0-0.6-0.1c-26-15.4-10-35,12.9-35h169.9c0.2,0,0.4,0,0.6,0.1C357.3,309.5,341.2,329,318.3,329z
	 M247.4,266.8H77.3c-0.1,0-0.3,0-0.4-0.1c-19.9-15.4-7.7-34.9,9.9-34.9h170.1c0.1,0,0.3,0,0.4,0.1
	C277.2,247.3,265,266.8,247.4,266.8z"/>
</svg>
