<?xml version="1.0" encoding="utf-8"?>
<!-- Generator: Adobe Illustrator 24.0.1, SVG Export Plug-In . SVG Version: 6.00 Build 0)  -->
<svg version="1.1" id="Слой_1" xmlns="http://www.w3.org/2000/svg" xmlns:xlink="http://www.w3.org/1999/xlink" x="0px" y="0px"
	 viewBox="0 0 400 400" style="enable-background:new 0 0 400 400;" xml:space="preserve">
<path d="M124.7,138c16.2,0,29.4-12.9,29.4-28.9c0-16-13.1-28.9-29.4-28.9s-29.4,12.9-29.4,28.9C95.4,125,108.5,138,124.7,138z"/>
<path d="M310.1,85.1H400L294.2,0v72.8c0,6.8,7.1,12.3,15.8,12.3H310.1z"/>
<path d="M181.6,221.1c0-25.7-21.6-46.5-47.7-46.5h-18.6c-26.1,0-47.2,20.8-47.2,46.5v4.4h113.6V221.1z"/>
<path d="M275.6,74.7V0H0v400h400V100h-91.9C290.2,100,275.6,88.7,275.6,74.7L275.6,74.7z M124.7,65.6c24.4,0,44.2,19.5,44.2,43.5
	c0,24-19.8,43.5-44.2,43.5s-44.2-19.5-44.2-43.5C80.6,85.1,100.4,65.6,124.7,65.6z M53.3,221.1c-0.1-33.6,27.5-61,61.7-61.1h18.9
	c34.4-0.1,62.4,27.2,62.5,61.1v11.5c0,4-3.8,7.4-7.8,7.4H60.7c-4.1-0.1-7.4-3.4-7.4-7.4V221.1z M62.6,283.6h160.3
	c5.1,0,9.3,3.3,9.3,7.3s-4.2,7.3-9.3,7.3H62.6c-5.1,0-9.3-3.3-9.3-7.3S57.4,283.6,62.6,283.6z M339.6,340c0,4-4.2,7.3-9.3,7.3H62.6
	c-5.1,0-9.3-3.3-9.3-7.3s4.2-7.3,9.3-7.3h267.7C335.4,332.7,339.6,336,339.6,340z"/>
</svg>
