<?xml version="1.0" encoding="utf-8"?>
<!-- Generator: Adobe Illustrator 24.0.1, SVG Export Plug-In . SVG Version: 6.00 Build 0)  -->
<svg version="1.1" id="Layer_1" xmlns="http://www.w3.org/2000/svg" xmlns:xlink="http://www.w3.org/1999/xlink" x="0px" y="0px"
	 viewBox="0 0 390.1 512" style="enable-background:new 0 0 390.1 512;" xml:space="preserve">
<path d="M340.5,0h-291C22.3,0,0.1,22.2,0.1,49.5c0,368.3-0.4,346.1,0.9,349.8c0.8,2.5,2.3,4.7,4,6.4c1,1,101.3,101.4,102.8,102.5
	c6.5,5-3.5,3.4,232.9,3.4c27.3,0,49.5-22.2,49.5-49.5V49.5C390.1,22.2,367.9,0,340.5,0z M101.2,455.4l-44.8-44.8h44.8V455.4z
	 M357.1,462.2c0,9.1-7.4,16.5-16.5,16.5H134.2v-84.6c0-9.1-7.4-16.5-16.5-16.5H33.1V49.5c0-9.1,7.4-16.5,16.5-16.5h291
	c9.1,0,16.5,7.4,16.5,16.5V462.2z M304.4,333.3c0,9.1-7.4,16.5-16.5,16.5H101.2c-9.1,0-16.5-7.4-16.5-16.5c0-9.1,7.4-16.5,16.5-16.5
	h186.8C297,316.8,304.4,324.1,304.4,333.3z M304.4,417.9c0,9.1-7.4,16.5-16.5,16.5H181.7c-9.1,0-16.5-7.4-16.5-16.5
	s7.4-16.5,16.5-16.5h106.3C297,401.4,304.4,408.8,304.4,417.9z M194.4,173.4c30.6,0,55.6-24.9,55.6-55.6S225,62.3,194.4,62.3
	s-55.6,24.9-55.6,55.6S163.8,173.4,194.4,173.4L194.4,173.4z M194.4,95.3c12.4,0,22.5,10.1,22.5,22.5s-10.1,22.5-22.5,22.5
	s-22.5-10.1-22.5-22.5S182,95.3,194.4,95.3L194.4,95.3z M110.8,254.3v-22.6c0-14.3,8.4-27.3,21.5-33.1l26.2-11.7
	c4.4-2,1.3-1.4,64.8-1.4c4.6,0,4.5,0.4,32.9,13.1c13,5.8,21.5,18.8,21.5,33.1v22.6c0,9.1-7.4,16.5-16.5,16.5
	c-9.1,0-16.5-7.4-16.5-16.5v-22.6c0-1.3-0.7-2.4-1.9-2.9l-23-10.3h-51l-23,10.3c-1.2,0.5-1.9,1.7-1.9,2.9v22.6
	c0,9.1-7.4,16.5-16.5,16.5S110.8,263.4,110.8,254.3L110.8,254.3z"/>
</svg>
