<?xml version="1.0" encoding="utf-8"?>
<!-- Generator: Adobe Illustrator 24.0.1, SVG Export Plug-In . SVG Version: 6.00 Build 0)  -->
<svg version="1.1" id="Layer_1" xmlns="http://www.w3.org/2000/svg" xmlns:xlink="http://www.w3.org/1999/xlink" x="0px" y="0px"
	 viewBox="0 0 390.2 512" style="enable-background:new 0 0 390.2 512;" xml:space="preserve">
<path d="M0,377.8L134.2,512l0,0V377.8H0z M390.2,0H0v363.8l148.1,0l0,148.1h242V0z M194.4,52c30.7,0,55.6,24.9,55.6,55.6
	c0,31.5-26.4,57-58.2,55.5c-28.5-1.3-51.5-24.4-52.9-52.9C137.4,78.4,162.9,52,194.4,52L194.4,52z M110.8,221.4
	c0-14.3,8.4-27.3,21.5-33.1c28.8-12.9,28.4-13.1,32.9-13.1h58.1c4.6,0,4.5,0.4,32.9,13.1c13,5.8,21.5,18.8,21.5,33.1v22.6
	c0,9.1-7.4,16.5-16.5,16.5H127.3c-9.1,0-16.5-7.4-16.5-16.5L110.8,221.4z M288,434.6h-95.6c-8.3,0-16.1-6.7-16.8-15
	c-0.8-9.8,6.8-18,16.5-18h95.6c8.3,0,16.1,6.7,16.8,15C305.3,426.4,297.6,434.6,288,434.6z M288,339.6H101.5
	c-8.3,0-16.1-6.7-16.8-15c-0.8-9.8,6.8-18,16.5-18l186.4,0c8.3,0,16.1,6.7,16.8,15C305.3,331.4,297.6,339.6,288,339.6z"/>
</svg>
