<?xml version="1.0" encoding="utf-8"?>
<!-- Generator: Adobe Illustrator 24.0.1, SVG Export Plug-In . SVG Version: 6.00 Build 0)  -->
<svg version="1.1" id="Capa_1" xmlns="http://www.w3.org/2000/svg" xmlns:xlink="http://www.w3.org/1999/xlink" x="0px" y="0px"
	 viewBox="0 0 512 512" style="enable-background:new 0 0 512 512;" xml:space="preserve">
<path d="M507.5,208.2c-0.9-4.8-5.1-8.2-10-8.2H261.4c-5.6,0-10.1,4.5-10.1,10.1v97.3c0,5.6,4.5,10.1,10.1,10.1h116
	c-11.8,23.1-30.1,42.7-52.7,56C304,385.6,280.2,392,256,392c-56.4,0-107.6-35.5-127.4-88.3c-5.7-15.2-8.6-31.3-8.6-47.7
	c0-15.1,2.5-30,7.3-44.2C146.2,156.9,197.9,120,256,120c25.5,0,50.4,7.1,71.9,20.6c3.7,2.3,8.4,2,11.8-0.8l79.6-65.2
	c2.3-1.9,3.7-4.8,3.7-7.8c0-3-1.3-5.9-3.7-7.8C373.6,20.9,315.6,0,256,0C114.8,0,0,114.8,0,256c0,42.3,10.6,84.3,30.5,121.3
	C75.3,460.4,161.7,512,256,512c59,0,116.6-20.6,162.1-57.9c44.9-36.8,76.3-88.2,88.3-144.7C510.1,292,512,274,512,256
	C512,239.9,510.5,223.8,507.5,208.2z M256,20.3c50.7,0,100.3,16.5,140.8,46.6l-64.4,52.7c-23.2-13-49.5-19.9-76.4-19.9
	c-61.9,0-117.5,36.5-142.6,92.2l-62.8-51.5C91.1,68.8,168,20.3,256,20.3z M20.3,256c0-34.6,7.5-67.5,20.9-97.1L106,212
	c-4.2,14.3-6.3,29-6.3,44c0,16.4,2.5,32.5,7.5,47.9l-64.4,52.7C28,325.4,20.3,290.8,20.3,256z M256,491.7
	c-84.1,0-161.3-44.5-203.6-116.8l62.7-51.3c11.5,24,28.9,44.6,50.9,60.1c26.4,18.6,57.5,28.5,90,28.5c25.4,0,50.4-6.2,72.7-17.9
	l64.9,53.1C353.7,476.1,305.4,491.7,256,491.7z M486.6,305.2c-10.6,50.1-37.8,95.8-76.7,129.4L347,383.1
	c25.1-18,44.6-43.2,55.4-72.2c1.2-3.1,0.7-6.6-1.2-9.3c-1.9-2.7-5-4.4-8.3-4.4H271.5v-77H489c1.8,11.8,2.7,23.8,2.7,35.8
	C491.7,272.6,490,289.2,486.6,305.2z"/>
</svg>
