<?xml version="1.0" encoding="utf-8"?>
<!-- Generator: Adobe Illustrator 24.0.1, SVG Export Plug-In . SVG Version: 6.00 Build 0)  -->
<svg version="1.1" id="Capa_1" xmlns="http://www.w3.org/2000/svg" xmlns:xlink="http://www.w3.org/1999/xlink" x="0px" y="0px"
	 viewBox="0 0 15.3 27" style="enable-background:new 0 0 15.3 27;" xml:space="preserve">
<g>
	<path d="M13.3,0H2C0.9,0,0,0.9,0,2V25c0,1.1,0.9,2,2,2h11.4c1.1,0,2-0.9,2-2V2C15.3,0.9,14.4,0,13.3,0z M4.8,1.2h5.6
		c0.1,0,0.3,0.2,0.3,0.5s-0.1,0.5-0.3,0.5H4.8c-0.1,0-0.3-0.2-0.3-0.5C4.6,1.4,4.7,1.2,4.8,1.2z M7.6,25.1c-0.7,0-1.3-0.6-1.3-1.3
		c0-0.7,0.6-1.3,1.3-1.3c0.7,0,1.3,0.6,1.3,1.3S8.3,25.1,7.6,25.1z M13.8,20.8H1.5V3.3h12.3C13.8,3.3,13.8,20.8,13.8,20.8z"/>
</g>
</svg>
