<?xml version="1.0" encoding="utf-8"?>
<!-- Generator: Adobe Illustrator 24.0.1, SVG Export Plug-In . SVG Version: 6.00 Build 0)  -->
<svg version="1.1" id="Layer_1" xmlns="http://www.w3.org/2000/svg" xmlns:xlink="http://www.w3.org/1999/xlink" x="0px" y="0px"
	 viewBox="0 0 455 455" style="enable-background:new 0 0 455 455;" xml:space="preserve">
<style type="text/css">
	.st0{fill-rule:evenodd;clip-rule:evenodd;}
</style>
<g>
	<path class="st0" d="M0,0v455h455V0H0z M384.8,100.7l-53.5,257.1c-1.3,6.1-8.4,8.8-13.4,5.2l-73-53c-4.4-3.2-10.5-3-14.7,0.4
		l-40.5,33c-4.7,3.8-11.8,1.7-13.6-4.1L148.1,249l-72.6-27.1c-7.4-2.8-7.4-13.2-0.1-16L373.4,91C379.7,88.5,386.2,94,384.8,100.7z"
		/>
	<path class="st0" d="M313.6,147.2l-141.9,87.4c-5.4,3.4-8,9.9-6.2,16.1l15.3,53.9c1.1,3.8,6.6,3.4,7.2-0.5l4-29.6
		c0.8-5.6,3.4-10.7,7.5-14.5l117.1-108.8C318.7,149.1,316.1,145.6,313.6,147.2z"/>
</g>
</svg>
