<svg id="Слой_1" data-name="Слой 1" xmlns="http://www.w3.org/2000/svg" viewBox="0 0 41.94 32.08"><defs><style>.cls-1{fill:#fff;}</style></defs><title>Монтажная область 1</title><path class="cls-1" d="M9.21,16s1.31-.5,1.46-2.74A3.6,3.6,0,0,0,8.53,9.75a2.85,2.85,0,0,0-1.32-.31H0V23H7.77A3.71,3.71,0,0,0,11.1,19.2C11.18,16.46,9.21,16,9.21,16Zm-2.64-.86H2.88V11.91l3.7,0C8.27,12.17,8.13,15.11,6.57,15.14Zm.32,5.77h-4V17.25h4C8.74,17.55,8.58,20.88,6.89,20.91Z"/><path class="cls-1" d="M21.28,18.05a4,4,0,0,0,2.88-1.23,4.51,4.51,0,0,0-1-7.07,3.32,3.32,0,0,0-1.43-.31H14V23h3.28V18.05Zm-.22-2.45H17.23V11.89H21C22.92,12.17,22.8,15.57,21.06,15.6Z"/><polygon class="cls-1" points="32.81 6.11 31.8 8.19 38.98 22.97 41.03 22.97 32.81 6.11"/><polygon class="cls-1" points="29.28 18.46 30.95 15.15 29.73 12.71 24.61 22.97 27.08 22.97 28.32 20.51 33.58 20.5 32.56 18.46 29.28 18.46"/><path class="cls-1" d="M41.13,28.71l-2.57,1.41c.8,1.54,1.73,2.49,2.89,1.66C42.22,31.23,42.07,30.17,41.13,28.71Z"/><path class="cls-1" d="M34,15.14c-.56-1.14-1.14-2.35-1.73-3.57l-1-2.14C29.33,5.58,27.44,1.87,25.85,0a6.05,6.05,0,0,0,0,2.4c1.47,3,3,6,4.42,8.93.37.75.74,1.49,1.09,2.22,3.26,6.66,6,12.55,6.8,15.56l2.45-1.41A138.72,138.72,0,0,1,34,15.14Z"/></svg>