<?xml version="1.0" encoding="utf-8"?>
<!-- Generator: Adobe Illustrator 24.0.1, SVG Export Plug-In . SVG Version: 6.00 Build 0)  -->
<svg version="1.1" id="Слой_1" xmlns="http://www.w3.org/2000/svg" xmlns:xlink="http://www.w3.org/1999/xlink" x="0px" y="0px"
	 viewBox="0 0 81.5 71.3" style="enable-background:new 0 0 81.5 71.3;" xml:space="preserve">
<style type="text/css">
	.st0{fill:#FFFFFF;}
</style>
<path class="st0" d="M59.9,71.3h-7.1c-1.4,0-2.5-1.1-2.5-2.5s1.1-2.5,2.5-2.5l0,0h5.7l17.7-30.7L58.5,5H23.1l-5,8.7
	c-0.7,1.2-2.2,1.6-3.4,0.9c-1.2-0.7-1.6-2.2-0.9-3.4l5.7-9.9C19.9,0.5,20.7,0,21.6,0h38.3c0.9,0,1.7,0.5,2.1,1.2l19.2,33.2
	c0.4,0.8,0.4,1.7,0,2.5L62,70C61.6,70.8,60.8,71.2,59.9,71.3z"/>
<path class="st0" d="M43.6,71.3h-22c-0.9,0-1.7-0.5-2.2-1.3L0.3,36.9c-0.4-0.8-0.4-1.7,0-2.5l8.8-15.3c0.7-1.2,2.2-1.6,3.4-0.9
	c1.2,0.7,1.6,2.2,0.9,3.4l0,0L5.4,35.6l17.7,30.7h20.6c1.4,0,2.5,1.1,2.5,2.5S45,71.3,43.6,71.3L43.6,71.3z"/>
<path class="st0" d="M53.2,59.7H28.3c-0.9,0-1.7-0.5-2.1-1.2l-3-5.3c-0.7-1.2-0.3-2.7,0.9-3.4c1.2-0.7,2.7-0.3,3.4,0.9l2.3,4h22
	l11-19.1l-3.3-5.7c-0.7-1.2-0.3-2.7,0.9-3.4s2.7-0.3,3.4,0.9l4,7c0.4,0.8,0.4,1.7,0,2.5L55.3,58.4C54.9,59.2,54.1,59.7,53.2,59.7z"
	/>
<path class="st0" d="M21,47c-0.9,0-1.7-0.5-2.2-1.2l-5.1-8.9c-0.4-0.8-0.4-1.7,0-2.5l12.5-21.5c0.4-0.8,1.3-1.2,2.1-1.2h24.9
	c0.9,0,1.7,0.5,2.2,1.2l4.1,7.2c0.7,1.2,0.3,2.7-0.9,3.4s-2.7,0.3-3.4-0.9l0,0l-3.4-5.9h-22l-11,19.1l4.4,7.7c0.7,1.2,0.2,2.7-1,3.4
	C21.9,46.9,21.4,47,21,47z"/>
<path class="st0" d="M46.8,48.5h-12c-0.9,0-1.7-0.5-2.2-1.2l-6-10.4c-0.4-0.8-0.4-1.7,0-2.5l6-10.4c0.4-0.8,1.3-1.2,2.2-1.2H38
	c1.4,0,2.5,1.1,2.5,2.5s-1.1,2.5-2.5,2.5h-1.8l-4.6,8l4.6,8h9.2l0.5-1c0.7-1.2,2.2-1.6,3.4-0.9s1.6,2.2,0.9,3.4l-1.3,2.2
	C48.5,48.1,47.7,48.6,46.8,48.5z"/>
<path class="st0" d="M51.3,40.7c-0.4,0-0.9-0.1-1.2-0.3c-1.2-0.7-1.6-2.2-0.9-3.4l0.8-1.3l-4.6-8h-0.6c-1.4,0-2.5-1.1-2.5-2.5
	s1.1-2.5,2.5-2.5l0,0h2c0.9,0,1.7,0.5,2.2,1.2l6,10.4c0.4,0.8,0.4,1.7,0,2.5l-1.5,2.6C53,40.1,52.2,40.6,51.3,40.7z"/>
</svg>
