<svg xmlns="http://www.w3.org/2000/svg" viewBox="0 0 281.76 71.25" width="281.76" height="71.25" fill="#fff">
    <path d="M59.89 71.25h-7.08a2.48 2.48 0 1 1 0-5h5.65l17.7-30.66L58.46 5H23.05l-5 8.7a2.48 2.48 0 1 1-4.3-2.49l5.74-9.94A2.47 2.47 0 0 1 21.62 0h38.27A2.47 2.47 0 0 1 62 1.24l19.18 33.15a2.49 2.49 0 0 1 0 2.48L62 70a2.47 2.47 0 0 1-2.11 1.25z"/>
    <path d="M43.63 71.25h-22A2.47 2.47 0 0 1 19.47 70L.33 36.87a2.51 2.51 0 0 1 0-2.49L9.16 19.1a2.48 2.48 0 0 1 4.3 2.48L5.35 35.63l17.7 30.66h20.58a2.48 2.48 0 1 1 0 5z"/>
    <path d="M53.19 59.65H28.32a2.47 2.47 0 0 1-2.15-1.24l-3.05-5.28a2.48 2.48 0 1 1 4.3-2.48l2.33 4h22l11-19.06-3.3-5.73a2.48 2.48 0 0 1 4.3-2.48l4 7a2.47 2.47 0 0 1 0 2.49L55.34 58.41a2.47 2.47 0 0 1-2.15 1.24z"/>
    <path d="M21 47a2.5 2.5 0 0 1-2.16-1.24l-5.15-8.93a2.47 2.47 0 0 1 0-2.49l12.48-21.5a2.47 2.47 0 0 1 2.15-1.24h24.87a2.47 2.47 0 0 1 2.15 1.24L59.48 20a2.48 2.48 0 1 1-4.3 2.48l-3.42-5.92h-22l-11 19.07 4.44 7.68A2.48 2.48 0 0 1 21 47z"/>
    <path d="M46.78 48.55H34.73a2.47 2.47 0 0 1-2.15-1.24l-6-10.44a2.51 2.51 0 0 1 0-2.49l6-10.44a2.49 2.49 0 0 1 2.15-1.24H38a2.49 2.49 0 1 1 0 5h-1.84l-4.59 8 4.59 7.95h9.19l.55-1a2.48 2.48 0 0 1 4.3 2.48l-1.27 2.21a2.47 2.47 0 0 1-2.15 1.21z"/>
    <path d="M51.33 40.67a2.53 2.53 0 0 1-1.24-.33 2.5 2.5 0 0 1-.91-3.4l.76-1.31-4.59-8h-.62a2.49 2.49 0 1 1 0-5h2.05a2.49 2.49 0 0 1 2.15 1.24l6 10.44a2.51 2.51 0 0 1 0 2.49l-1.48 2.56a2.49 2.49 0 0 1-2.12 1.31z"/>
    <path d="M109.83 24.13c6.14 0 9.51 4.5 9.51 10.18a17.88 17.88 0 0 1-.17 2.06H104.4a6.09 6.09 0 0 0 6.44 5.68 10.14 10.14 0 0 0 6.16-2.36l2.1 3.83a13.52 13.52 0 0 1-8.62 3.07c-7.11 0-11.57-5.13-11.57-11.23-.02-6.61 4.48-11.23 10.92-11.23zm4.17 8.58c0-2.86-1.89-4.54-4.29-4.54a5.13 5.13 0 0 0-5.17 4.54z"/>
    <path d="M123.79 24.63h5.13v2.53a14.19 14.19 0 0 1-.08 1.51h.08a8.32 8.32 0 0 1 7.62-4.54c4.75 0 7.49 2.48 7.49 8.16v13.8h-5.35V33.38c0-2.61-.67-4.37-3.36-4.37-3.79 0-6.19 3.15-6.19 7v10.08h-5.34z"/>
    <path d="M159.17 24.13c6.14 0 9.51 4.5 9.51 10.18a17.88 17.88 0 0 1-.17 2.06h-14.77a6.09 6.09 0 0 0 6.44 5.68 10.16 10.16 0 0 0 6.14-2.36l2.1 3.83a13.52 13.52 0 0 1-8.62 3.07c-7.11 0-11.57-5.13-11.57-11.23 0-6.61 4.5-11.23 10.94-11.23zm4.16 8.58c0-2.86-1.89-4.54-4.29-4.54a5.13 5.13 0 0 0-5.17 4.54z"/>
    <path d="M173.8 39.9a9.4 9.4 0 0 0 6.1 2.36c1.9 0 3-.8 3-2.15 0-3.36-10.64-2.52-10.64-9.55 0-4.2 3.7-6.43 8.2-6.43a11 11 0 0 1 7.24 2.44l-2 3.74a9.08 9.08 0 0 0-5.43-1.85c-1.85 0-3 .72-3 2.06 0 3.41 10.64 2.44 10.64 9.47 0 3.78-3.2 6.6-8.12 6.6a12.27 12.27 0 0 1-8.41-3.15z"/>
    <path d="M202.7 24.13a11.38 11.38 0 0 1 8.3 3.19L208.55 31a8.18 8.18 0 0 0-5.55-2.33 6.37 6.37 0 0 0-6.52 6.65 6.5 6.5 0 0 0 6.68 6.73 9.61 9.61 0 0 0 6.32-2.74l2.06 3.79a12.38 12.38 0 0 1-8.84 3.49c-7.11 0-11.65-5-11.65-11.23s4.54-11.23 11.65-11.23z"/>
    <path d="M226.26 32.62h.92v-.29c0-2.82-1.81-3.79-4-3.79a11 11 0 0 0-6 2.07l-2-3.83a14.73 14.73 0 0 1 8.42-2.65c5.59 0 8.92 3.11 8.92 8.54v13.42h-5v-1.81a9.08 9.08 0 0 1 .13-1.56h-.09a7.85 7.85 0 0 1-6.77 3.87c-3.87 0-7.07-2.52-7.07-6.43.04-6.44 7.78-7.54 12.54-7.54zm-4 9.89c3 0 4.92-3 4.92-5.64v-.59h-.92c-2.69 0-7.24.38-7.24 3.41a2.92 2.92 0 0 0 3.28 2.82z"/>
    <path d="M236.79 24.63h4.88v1.6c0 .8-.08 1.51-.08 1.51h.08a7.87 7.87 0 0 1 6.9-3.61c5.81 0 9.51 4.58 9.51 11.23 0 6.81-4.16 11.23-9.8 11.23a7.78 7.78 0 0 1-6.19-3H242a12.12 12.12 0 0 1 .13 1.85v9.06h-5.35zm10.52 17.46c2.95 0 5.39-2.4 5.39-6.65 0-4.08-2.19-6.73-5.3-6.73-2.82 0-5.43 2-5.43 6.78.03 3.32 1.85 6.6 5.34 6.6z"/>
    <path d="M272.25 24.13c6.15 0 9.51 4.5 9.51 10.18a15.89 15.89 0 0 1-.17 2.06h-14.76c.33 3.74 3.19 5.68 6.43 5.68a10.16 10.16 0 0 0 6.15-2.36l2.1 3.83a13.55 13.55 0 0 1-8.63 3.07c-7.1 0-11.56-5.13-11.56-11.23 0-6.61 4.5-11.23 10.93-11.23zm4.17 8.58c0-2.86-1.89-4.54-4.29-4.54a5.14 5.14 0 0 0-5.13 4.54z"/>
</svg>
