<svg xmlns="http://www.w3.org/2000/svg" viewBox="0 0 177 42" width="177" height="42" fill="#fff"><g data-name="Group 12"><g data-name="Group 10"><path data-name="Path 58" class="cls-1" d="M16.611 29.057a2.047 2.047 0 0 0-.943-1.713 17.483 17.483 0 0 0-2.427-1.427l-3.195-1.541a19.161 19.161 0 0 1-2.884-1.656 11.876 11.876 0 0 1-2.483-2.311A11.262 11.262 0 0 1 2.91 17.24a12.316 12.316 0 0 1-.685-4.337 12.822 12.822 0 0 1 .97-4.967 13.019 13.019 0 0 1 2.683-4.111 12.593 12.593 0 0 1 9.19-3.824 17.207 17.207 0 0 1 3.825.429 25.218 25.218 0 0 1 3.511 1.055 27.8 27.8 0 0 1 2.969 1.343 18.277 18.277 0 0 1 2.2 1.342l-5.079 8.9a8.369 8.369 0 0 0-1.171-.741c-.553-.3-1.16-.6-1.828-.885a18.168 18.168 0 0 0-2.083-.742 7.129 7.129 0 0 0-1.939-.314 2.082 2.082 0 0 0-1.4.514 1.848 1.848 0 0 0-.6 1.484 1.725 1.725 0 0 0 .627 1.456 11.35 11.35 0 0 0 1.942 1.113l4.509 2.283a14.535 14.535 0 0 1 5.309 4.4 11.1 11.1 0 0 1 1.942 6.68 13.739 13.739 0 0 1-1 5.28 13.277 13.277 0 0 1-2.739 4.224 12.615 12.615 0 0 1-4.139 2.826 13.05 13.05 0 0 1-5.195 1.028 19.48 19.48 0 0 1-4.624-.543 31.431 31.431 0 0 1-4.168-1.312 25.474 25.474 0 0 1-3.453-1.656Q.97 37.28.001 36.595l5.708-9.476a8.111 8.111 0 0 0 1.2.828q.969.6 2.283 1.256a20.092 20.092 0 0 0 2.8 1.141 9.007 9.007 0 0 0 2.8.485 2.088 2.088 0 0 0 1.228-.428 1.535 1.535 0 0 0 .591-1.344zm-10.1 5.251a15.264 15.264 0 0 0 3.339 1.485 15.011 15.011 0 0 0 4.824.741 8.969 8.969 0 0 0 3-.513 7.379 7.379 0 0 0 2.568-1.541 7.737 7.737 0 0 0 1.8-2.541 8.412 8.412 0 0 0 .685-3.511q0-4.339-4.452-6.794l-6.337-3.481a6.681 6.681 0 0 1-2.682-2.4 6.105 6.105 0 0 1-.8-3.14 7.832 7.832 0 0 1 .428-2.6 6.275 6.275 0 0 1 1.284-2.169 6.464 6.464 0 0 1 2.084-1.512 6.775 6.775 0 0 1 2.882-.571 9.454 9.454 0 0 1 1.8.171c.589.113 1.141.238 1.656.371a8.722 8.722 0 0 1 1.342.456 9.313 9.313 0 0 1 .855.429l.514-.971a22.838 22.838 0 0 0-2.283-.913 10.667 10.667 0 0 0-3.6-.571 9.1 9.1 0 0 0-3.512.628 7.139 7.139 0 0 0-2.541 1.741 7.339 7.339 0 0 0-1.541 2.569 9.13 9.13 0 0 0-.514 3.054 7.153 7.153 0 0 0 .914 3.568 7.831 7.831 0 0 0 3.2 2.882l6.28 3.426q3.88 2.114 3.881 5.88a7.311 7.311 0 0 1-.572 3 6.719 6.719 0 0 1-1.541 2.2 6.4 6.4 0 0 1-2.226 1.37 7.59 7.59 0 0 1-2.625.456 13.512 13.512 0 0 1-4.426-.713 18.564 18.564 0 0 1-3.168-1.34z"></path><path data-name="Path 59" class="cls-1" d="M31.02.57h24.617v10.733H43.692v4.051h11.376v10.391H43.692v4.053h12.516V40.53H31.02zm6.907 5.938h13.258V5.481h-14.4v30.14h14.971v-1.026H37.927v-13.53h12.688v-1.028H37.927z"></path><path data-name="Path 60" class="cls-1" d="M101.599.57v39.96H88.925v-5.366q0-2.568.086-5.194t.371-5.2l-.227-.057q-.687 1.257-1.8 2.97t-2.312 3.366l-3.71 5.252h-.571l-3.6-5.079q-1.2-1.656-2.4-3.484t-1.825-3.025l-.23.057q.229 2 .341 4.767t.115 5.11v5.879H60.499V.566h10.219l10.218 14.329h.23L91.384.566zm-5.766 35.05V5.481h-1.028L81.047 24.775 67.291 5.481h-1.028v30.14h1.143V7.535l13.641 19.124L94.692 7.535V35.62z"></path><path data-name="Path 61" class="cls-1" d="M128.916.57l15.412 39.96h-13.014l-1.315-3.767h-11.416l-1.312 3.767h-12.73L119.784.57zm-14.158 31.627h19.18l1.314 3.423h1.255L124.919 5.194h-1.141L112.246 35.62h1.256zm9.648-25.233l9.133 24.2h-18.381l9.019-24.2zm-2.741 20.835h5.309l-2.683-7.763z"></path><path data-name="Path 62" class="cls-1" d="M145.142 40.53l12.957-29.114h-12.268L142.063.57h33.795l-13.016 29.111H177v10.846zm27.4-5.936h-17.863l13.016-29.113h-17.526l-.4 1.028h16.273l-12.959 29.112h19.459z"></path></g></g></svg>
