<?xml version="1.0" encoding="utf-8"?>
<!-- Generator: Adobe Illustrator 24.0.1, SVG Export Plug-In . SVG Version: 6.00 Build 0)  -->
<svg version="1.1" id="Layer_1" xmlns="http://www.w3.org/2000/svg" xmlns:xlink="http://www.w3.org/1999/xlink" x="0px" y="0px"
	 viewBox="0 0 2852.7 1800.9" style="enable-background:new 0 0 2852.7 1800.9;" xml:space="preserve">
<style type="text/css">
	.st0{fill:url(#bg_1_);}
	.st1{opacity:8.000000e-02;fill:#E5EDD4;enable-background:new    ;}
	.st2{fill:#FFFFFF;}
	.st3{opacity:0.11;}
	.st4{fill:#812E52;}
	.st5{fill:#B34070;}
	.st6{fill:#75294A;}
	.st7{fill:#FA798D;}
	.st8{opacity:0.75;}
	.st9{opacity:0.42;fill:none;stroke:#FFFFFF;stroke-width:4;stroke-linecap:round;stroke-miterlimit:10;enable-background:new    ;}
	.st10{fill:#672140;}
	.st11{fill:#531331;}
	.st12{fill:#3F0021;}
</style>
<g>
	
		<linearGradient id="bg_1_" gradientUnits="userSpaceOnUse" x1="1426.2915" y1="-742.5237" x2="1426.2915" y2="530.924" gradientTransform="matrix(1 0 0 1 0 1009.512)">
		<stop  offset="0" style="stop-color:#7C4A74"/>
		<stop  offset="1" style="stop-color:#FA798D"/>
	</linearGradient>
	<polygon id="bg" class="st0" points="2852.6,1800.8 0.2,1800.9 0,0 2852.4,0 	"/>
	<g id="Sun_1_">
		<circle id="Sun02" class="st1" cx="1412.2" cy="911.4" r="597.2"/>
		<circle id="Sun01" class="st1" cx="1412.2" cy="911.4" r="429.7"/>
		<circle id="Sun" class="st2" cx="1412.2" cy="911.4" r="316.8"/>
	</g>
	<g id="Clouds" class="st3">
		<g>
			<path class="st2" d="M637.1,647.1c-21-18.9-55.5-20.4-78-3.4c11.9-32.4-3.5-70.7-30.8-91.8c-27.3-21.1-63.9-27.3-98.3-24.1
				c-74.4,6.9-143.3,56.9-172.9,125.5c-20.8-19.3-53.5-24.4-79.2-12.5s-42.9,40.2-41.7,68.5l512.4,15
				C663.1,700.2,658.1,666,637.1,647.1z"/>
		</g>
		<g>
			<path class="st2" d="M2417.8,889.8c-26.5-16.7-70.3-18-98.8-3c15.1-28.6-4.4-62.3-39-81c-34.6-18.7-80.9-24.1-124.4-21.3
				c-94.2,6.1-181.5,50.2-218.9,110.7c-26.3-17-67.7-21.5-100.3-11c-32.6,10.5-54.4,35.4-52.8,60.4l648.8,13.3
				C2450.7,936.6,2444.3,906.4,2417.8,889.8z"/>
		</g>
		<g>
			<path class="st2" d="M2579.5,591.8c-19.9-11.1-47.2-6.5-62.4,10.5c3.8-57.8-49-110.8-106.8-114.3c-57.9-3.5-113.5,37-135.3,90.7
				c-33.8-26.5-91.5-11-107.4,28.9c-11-18.2-38.1-20.8-56.6-10.5c-18.5,10.3-30,29.8-38.5,49.3l531,4.1
				C2609.8,628.6,2599.4,602.9,2579.5,591.8z"/>
		</g>
		<g>
			<path class="st2" d="M1161.5,913.1c-12.2-10.4-29-6-38.3,9.8c2.3-54-30.1-103.4-65.6-106.7c-35.5-3.3-69.7,34.5-83.1,84.6
				c-20.8-24.8-56.2-10.3-66,27c-6.7-17-23.4-19.4-34.8-9.8c-11.4,9.6-18.4,27.8-23.7,46l326.1,3.8
				C1180.1,947.5,1173.7,923.5,1161.5,913.1z"/>
		</g>
		<g>
			<path class="st2" d="M1954.7,266.6c-17-10-40.2-8.4-55.6,3.9c-3.7-49.6-51.9-91.4-101.5-88.2c-48.6,3.2-86.6,41.7-119.5,77.6
				c-13.9-22.8-43.9-32.1-70.1-27.3c-26.2,4.8-48.9,21.4-67.3,40.6c-8.2-12.1-27.1-12.4-39.3-4.4c-12.3,8-19.4,21.6-26.1,34.6
				l503,13.7C1981.6,297.6,1971.8,276.6,1954.7,266.6z"/>
		</g>
		<g>
			<path class="st2" d="M2612.3,301.5c-13.1-3.2-27.1,1.9-37.7,10.3c7.8-23.8-7.2-51.2-29.8-62.1c-22.6-10.9-50.1-7.4-72.5,3.9
				s-40.4,29.6-56.7,48.6c-3.9-16.9-25.8-24.2-42.4-18.8c-16.5,5.4-28.6,19.3-39.8,32.6l299.7,15.5
				C2636.1,318.3,2625.4,304.7,2612.3,301.5z"/>
		</g>
		<g>
			<path class="st2" d="M2697.7,957.9c-2.2-7.4-9.4-13.9-16.9-12.4c-5.7,1.1-11.1,6.3-16.4,4c0-19.8-2-43.3-19.1-53.4
				c-16.5-9.8-38.2-0.9-52.5,12.1c-12.5,11.3-22.2,25.5-28.3,41.1c-10.9-9.6-31.4-1.9-33.2,12.5l165.3,18.9
				C2698.3,973.2,2699.9,965.3,2697.7,957.9z"/>
		</g>
		<g>
			<path class="st2" d="M682.2,160.4c-18.3-6.9-41.2,5-46.2,23.9c-4.9-39.4-13.9-85.1-49.5-102.8c-29.3-14.6-65.9-2.9-90.7,18.4
				c-24.8,21.3-41,50.7-59.1,77.9c-1.4,2.1-3,4.3-5.4,5c-5.5,1.6-9.2-5.2-13.1-9.3c-8.6-8.9-24.7-5.2-32.7,4.3
				c-8,9.4-10.2,22.4-12,34.6l327.7-3.6C709.9,191.4,700.5,167.3,682.2,160.4z"/>
		</g>
	</g>
	<g id="MountainMain">
		<g>
			<path class="st4" d="M2306.7,855.2c-86.2,31.3-166.1,113.8-225,120.5s-92.5-78.1-180.8-49.1c-88.3,29-342.8,180.8-485.8,187.5
				c-143,6.7-584.7-290.2-681.5-312.5c-80.5-18.6-314.2,71.5-390.3,102.2v-0.6c-35.2,13.7-71,26-107.2,36.9
				c-42.7,12.9-77.4,16.8-115.9,7.8C55.3,933,16.2,880.8,0.2,855.8c0,180.5,0,361,0,541.6c950.8,0.1,1901.6,0.2,2852.4,0.3
				c0-94.5,0-188.9,0-283.4C2852.6,1114.2,2392.9,823.9,2306.7,855.2z"/>
		</g>
		<g>
			<path class="st5" d="M1900.8,926.6c-88.3,29-342.8,180.8-485.8,187.5c-142.4,6.7-580.9-287.6-680.1-312.2
				c0,0,558.7,396.7,701.1,390.1c143-6.7,339.4-164,419.4-211.5c23.1-13.7,85.7-59.8,85.7-59.8
				C1928.9,920.1,1915.7,921.7,1900.8,926.6z"/>
		</g>
		<g>
			<path class="st5" d="M2306.7,855.2c-81.8,29.7-158,105.6-215.9,118.9c0,0,94.2-20.9,167.3-68.1c17.9-11.6,57.4-52.8,57.4-52.8
				C2312.2,853.6,2309.3,854.2,2306.7,855.2z"/>
		</g>
		<g>
			<path class="st6" d="M2512.8,1164.5c-13.9-2.4-28,1.3-41.4,5.7c-107.2,35.5-203.4,121.2-315.9,110.8
				c-112.9-10.5-213.2-118-322.5-87.7c-40.4,11.2-77.4,41.1-119,35.9c-14.1-1.7-27.3-7.5-40.9-11.2c-68.7-18.5-139.2,15-204.2,44
				c-64.9,29-142.1,53.8-204.7,20c-18.8-10.2-36.3-25.6-57.6-26.6c-23.4-1.1-47.4,15.6-68.8,6.1c-10.8-4.8-17.8-15.3-24-25.4
				c-22.8-37.2-42.8-76.9-73.6-107.8c-30.8-30.9-75.7-52.2-118-41.6c-26.7,6.7-52.4,25.6-79.2,19.1c-17.4-4.2-30.4-18.4-42.2-31.8
				c-32.4-36.8-64.8-73.6-97.2-110.5c-8.5-9.6-17.5-19.6-29.5-24.2c-14.5-5.6-30.8-2.3-45.7,1.9c-81.5,22.8-153.9,69.2-230.6,105
				c-44.3,20.7-144.2,68.5-245.3,39c-67.8-19.8-129-60.6-152.3-90.9v403l2852.4,0.3c0,0-59.2-79.7-186.6-167.9
				C2640.8,1212.3,2543,1169.7,2512.8,1164.5z"/>
		</g>
	</g>
	<g id="Water">
		<path id="GlareHorizontal" class="st7" d="M0.2,1397.3c950.8,0.1,1901.6,0.2,2852.4,0.3c0,134.4,0,268.8,0,403.2
			c-950.8,0-1901.6,0-2852.4,0C0.2,1666.4,0.2,1531.9,0.2,1397.3z"/>
		<g id="glareVertical" class="st8">
			<g class="st8">
				<path class="st2" d="M1299.9,1623.3c-57.6,21.4-117.2,37.5-177.8,48.1c-13.1,2.3-16.8,19.3-5.7,26.8c10.6,7.2,23.4,11.9,36,14.7
					c22.7,5,46.4,5.6,68.4,13.2c9.7,3.4,20.2,9.9,21,20.2c-73.9,28.5-154.5,33.3-230.8,54.6l811.9-1c-3.2-7.2-10.9-13.7-18.3-17.5
					c-71.9-36.9-165.1-10.3-235.2-50.6c40.9-11,81.8-22,122.7-33c9.1-2.4,20.2-7.2,20.3-16.7c0.1-10-12-14.8-21.8-16.8
					c-66.9-13.5-134.5-23.5-202.4-30.1c43.9-8.4,87.7-16.8,131.6-25.2c8.9-1.7,20.4-7.1,18.2-15.9c-1.7-6.8-10.3-8.6-17.2-9.3
					c-46.8-4.6-93.1-15.4-137.1-32c16.9-16.1,46.5-15.5,66.7-24.7c9.2-4.2,6.2-18-3.9-18.2c-34.8-0.8-69.7-1.5-104.5-2.3
					c-7.1-0.2-16.7-2.8-15.3-10.4c0.6-3.2,3-5.7,6-6.8c24-8.5,48-16.9,72-25.4c3.8-1.3,6.4-5,6-9c-0.4-4.6-4.4-5.9-7.9-6.8
					c-15.4-4.1-30.8-8.3-46.1-12.4c0.2-6.5,5.9-11.2,10.1-16.2c5.2-6.1,8.2-17.1-2.7-19.6c-1.4-0.3-2.8-0.4-4.2-0.3
					c-24.7,0.9-25-0.4-17.5-3h-63.8c-2.7,2.7-23,2.2-23.6,5c-1.1,5.5,13.6,14.8,7.9,16.2c-12.3,3.1-27.5,6.4-33.7,9.3
					c-2.5,1.2-5.1,2.5-6.5,4.8c-6.1,10.1,15.8,17.5,15.3,29.3c-0.4,8-10.3,11.2-18.2,12.3c-10.8,1.5-21.6,3-32.4,4.5
					c-11.9,1.7-27.4,7.4-23.1,21c2.6,8.2,11.1,12.9,19.6,11.7c11.2-1.6,33.4,7.3,26.8,20.5c-1.3,2.6-3.5,4.7-6.1,6
					c-21.1,10.4-44.1,16.9-67.5,19c-11.3,1-26.8,5.5-25,16.8c1.6,10.1,15.4,11.3,25.6,11.3c24.4-0.2,48.7,7.5,68.6,21.7
					c1.8,1.3,3.1,3.1,3.6,5.2C1310.9,1618.2,1304.9,1621.4,1299.9,1623.3z"/>
			</g>
			<g>
				<g class="st8">
					<path class="st2" d="M1480.1,1484.8c-13.5-1.3-27-0.3-40.5,0.6h-0.1c-3.8,0.2-3.8,5.9,0,6.1c1.8,0.1,3.6,0.2,5.4,0.2
						c12,0.2,24.1-0.3,35.6-3.5C1482.3,1487.7,1482.1,1485,1480.1,1484.8L1480.1,1484.8z"/>
				</g>
				<g class="st8">
					<path class="st2" d="M1445.5,1424.9c-0.1-0.3-0.5-0.5-0.8-0.5c-7.9-1.9-13.8-1.9-21.7-0.2c-3.1,0.6-6.5,1.6-7.3,3
						c-0.2,0.3-0.3,0.6-0.1,0.9c0.2,0.2,0.5,0.3,0.8,0.3c8.3,1.1,17,2.1,25-0.6c1.3-0.4,2.6-1,3.7-1.9
						C1445.4,1425.6,1445.7,1425.3,1445.5,1424.9z"/>
				</g>
				<g class="st8">
					<path class="st2" d="M1628.5,1515.4c-2.8-1.6-6.8-3.8-10-3.9c-15.4-0.8-31,2.2-45,8.7c-0.7,0.3-1.5,0.8-1.4,1.6
						c0,0.8,1,1.3,1.8,1.5c12.6,3.5,25.7,4.9,38.8,4.2c6-0.3,12.3-1.2,16.9-5.1c1-0.8,2-2,2-3.3
						C1631.4,1517.5,1629.9,1516.2,1628.5,1515.4z"/>
				</g>
				<g class="st8">
					<path class="st2" d="M1703.4,1646.2c-0.3-1.3-1.3-2.2-2.4-2.9c-6-4-13.4-5.1-20.5-5.9c-22.4-2.5-57.2-2.6-79.6,0.1h0.2
						c-1,0.1-2,0.2-3,0.3c-1.1,0.1-2.2,0.3-3,1c-1.6,1.4-1.1,4.2,0.5,5.6c1.6,1.4,3.7,1.9,5.8,2.2c31.5,5.4,63.7,6.9,95.5,4.2
						C1700,1650.7,1704,1649.1,1703.4,1646.2z"/>
				</g>
				<g class="st8">
					<path class="st2" d="M1242.6,1437.6c-2-2-2.7-2.3-4.4-3c-9.6-2.1-19.6-2.3-29.3-0.5c-1.9,0.3-3.9,0.9-4.9,2.5
						c-1,1.8-0.2,4.2,1.4,5.5s3.6,1.8,5.6,2.2c10,1.8,20.5,0.8,30.1-2.7c1.1-0.4,2.3-1.1,2.4-2.2
						C1243.5,1438.7,1243.1,1438.1,1242.6,1437.6z"/>
				</g>
				<g class="st8">
					<path class="st2" d="M1127.6,1572L1127.6,1572L1127.6,1572c-0.1,0-0.2,0-0.3,0c-22.7-1.9-44.5-3.5-66.8,1.2
						c-1.7,0.4-3.5,0.8-4.5,2.2c-1.4,1.9-0.4,4.8,1.6,6.3c1.9,1.4,4.4,1.8,6.8,2c19.6,2,39.4,1,58.7-2.8c2.8-0.5,5.9-1.4,7.1-4
						C1131.2,1574.8,1129.4,1572.2,1127.6,1572z"/>
				</g>
				<g class="st8">
					<path class="st2" d="M1129.4,1631.9c-0.5-0.7-1.4-1-2.2-1.2c-4.5-1-7.3-0.4-12.2-0.5h0.7c-5.6-0.3-11.2,0.2-16.7,1.3
						c-2.2,0.5-4.8,1.4-5.4,3.6c-0.9,3.3,3.1,5.7,6.4,6.3c9.3,1.8,19.3-0.2,27.3-5.3C1128.7,1635.2,1130.3,1633.4,1129.4,1631.9z"/>
				</g>
				<g class="st8">
					<path class="st2" d="M964.9,1750.3c-7,0.8-14.6,2-19,7.7c-0.5,0.7-0.9,1.6-0.9,2.5c0,2.6,2.7,3.5,5,3.8
						c11.9,1.8,24,0.5,35.9-1.3c28-4.1,55.6-10.7,82.4-19.5c0.6-0.2,1-0.7,1.2-1.2l0,0c0.3-1.2-0.6-2.3-1.9-2.2
						C1039.2,1742.5,992.1,1747.1,964.9,1750.3z"/>
				</g>
			</g>
		</g>
		<g>
			<line class="st9" x1="741.9" y1="1467.7" x2="826.6" y2="1467.7"/>
			<line class="st9" x1="940" y1="1467.7" x2="1260.9" y2="1467.7"/>
			<line class="st9" x1="1406.7" y1="1467.7" x2="1519.8" y2="1467.7"/>
			<line class="st9" x1="1689.2" y1="1467.7" x2="1885.4" y2="1467.7"/>
			<line class="st9" x1="2096.6" y1="1467.7" x2="2220" y2="1467.7"/>
			<line class="st9" x1="2300.2" y1="1467.7" x2="2338.8" y2="1467.7"/>
			<line class="st9" x1="376.2" y1="1467.7" x2="414.8" y2="1467.7"/>
			<line class="st9" x1="502.5" y1="1467.7" x2="641.2" y2="1467.7"/>
			<line class="st9" x1="597.5" y1="1505.6" x2="724.6" y2="1505.6"/>
			<line class="st9" x1="982.4" y1="1505.6" x2="1012.1" y2="1505.6"/>
			<line class="st9" x1="1250" y1="1505.6" x2="1334" y2="1505.6"/>
			<line class="st9" x1="1074.2" y1="1758.2" x2="1103.9" y2="1758.2"/>
			<line class="st9" x1="1341.8" y1="1758.2" x2="1425.8" y2="1758.2"/>
			<line class="st9" x1="1501.9" y1="1505.6" x2="1537.6" y2="1505.6"/>
			<line class="st9" x1="1839.7" y1="1505.6" x2="1980.4" y2="1505.6"/>
			<line class="st9" x1="2158.3" y1="1505.6" x2="2192.9" y2="1505.6"/>
			<line class="st9" x1="713.1" y1="1543.5" x2="741.9" y2="1543.5"/>
			<line class="st9" x1="798.8" y1="1543.5" x2="892.7" y2="1543.5"/>
			<line class="st9" x1="1105.7" y1="1543.5" x2="1145" y2="1543.5"/>
			<line class="st9" x1="1460.5" y1="1543.5" x2="1593.4" y2="1543.5"/>
			<line class="st9" x1="1720.9" y1="1543.5" x2="1748.4" y2="1543.5"/>
			<line class="st9" x1="1946.2" y1="1543.5" x2="2014.6" y2="1543.5"/>
			<line class="st9" x1="741.9" y1="1581.3" x2="803.8" y2="1581.3"/>
			<line class="st9" x1="1578.8" y1="1581.3" x2="1664.7" y2="1581.3"/>
			<line class="st9" x1="1839.7" y1="1581.3" x2="1875.4" y2="1581.3"/>
			<line class="st9" x1="1432.7" y1="1581.3" x2="1468.5" y2="1581.3"/>
			<line class="st9" x1="1056.9" y1="1581.3" x2="1338.5" y2="1581.3"/>
			<line class="st9" x1="1043" y1="1704" x2="957.1" y2="1704"/>
			<line class="st9" x1="1189" y1="1704" x2="1153.2" y2="1704"/>
			<line class="st9" x1="1564.9" y1="1704" x2="1283.2" y2="1704"/>
			<line class="st9" x1="871.8" y1="1619.2" x2="1072.5" y2="1619.2"/>
			<line class="st9" x1="1132.6" y1="1619.2" x2="1199.5" y2="1619.2"/>
			<line class="st9" x1="1725.4" y1="1619.2" x2="1741.6" y2="1619.2"/>
			<line class="st9" x1="1296.3" y1="1619.2" x2="1604.9" y2="1619.2"/>
			<line class="st9" x1="1013.7" y1="1657.1" x2="1338.5" y2="1657.1"/>
			<line class="st9" x1="1392.6" y1="1657.1" x2="1460.5" y2="1657.1"/>
			<line class="st9" x1="1581.9" y1="1657.1" x2="1604.9" y2="1657.1"/>
		</g>
	</g>
	<g id="MountainSmallCenter">
		<g>
			<path class="st10" d="M0.2,1406.7c30-69,84.6-119.1,141.4-159.1c248.1-174.7,561.5-191.6,841.3-103.8
				c152.3,47.8,300.3,126.8,414.9,253.3"/>
		</g>
		<g>
			<path class="st10" d="M337.5,1144.6c4-10.2,8.1-20.4,12.1-30.6c0.6-1.5,1.8-3.3,3.1-2.6c0.6,0.3,0.9,1.1,1.2,1.8
				c3.2,8.3,6.3,16.6,9.5,25c12-29.8,25.2-59,39.5-87.4c8.7,23.6,15.5,48.1,20.3,73.1c3-7.3,6.1-14.6,9.1-21.9
				c0.4-0.9,0.8-1.8,1.4-2.3c2.4-1.9,5,2.2,5.9,5.4c1.2,4.6,2.5,9.2,3.7,13.8c3.7-9.3,7.4-18.5,11-27.8c3.4,8,5.6,16.7,6.5,25.6"/>
		</g>
		<g>
			<path class="st10" d="M753.3,1099.9c2-6.9,5.4-13.2,9.9-18.2c2.5,9.5,5.1,19,7.6,28.4c13-26.3,27.7-51.5,44.1-75.1
				c5.4,17.3,9.5,35.3,12.1,53.5c2.2-5.7,5.3-10.9,9.1-15.2c1.3,6.8,2.7,13.7,4,20.5c4.6-4.5,9.3-9,13.9-13.5
				c4.1,16,6.7,32.6,7.6,49.3c6.2-10,12.5-20,18.7-30c3.9,6.3,6.2,14,6.3,21.8c4.3-4,8.5-8,12.8-12c3.4,9.5,5.8,19.4,7.1,29.5"/>
		</g>
		<g>
			<path class="st10" d="M1090.2,1184.7c2.7-10.9,6.3-21.4,10.8-31.5c0.6,12.6,2.6,25,5.8,37c2.1-6.7,5-13.1,8.4-19
				c5.3,9.2-1.8,24.5,5.7,31.3c5.9-23.1,13.5-45.7,22.7-67.4c1.1-2.5,3.4-5.5,5.4-3.9c4.9,31.7,8.3,63.7,10.2,95.8
				c4.9-12.2,9.7-24.3,14.6-36.5c2.5,12.5,4.4,25.3,5.5,38.1c3.9-6.9,7.9-13.7,11.8-20.6c1.9,9.8,2.6,20,2,30.1"/>
		</g>
	</g>
	<g id="Back">
		<g id="RightMountBack">
			<path class="st11" d="M2760.2,1188.9c-42.2,27.8-70.2,53.4-96.5,77.5c-31.6,29-71.6,69.3-113.9,121.8
				c-25.3,7-188,53.2-305.4,123.4c-50,29.9-116,78.7-140.7,96.9c-7,5.2-14.3,10.8-22.1,17c-9.1,7.3-15.6,13-16.8,14
				c-10.9,9.3-64.4,51.9-203.3,161.1c58.3,0,116.7,0,175,0h42.3h774c0-220.8,0-441.6,0-662.6
				C2828.1,1149.2,2795.8,1165.5,2760.2,1188.9z"/>
			<g>
				<path class="st11" d="M2175,1560.1c-4.1-3.6-9.7-5.1-15.1-5.1c-5.4,0-10.8,1.3-16.1,2.7c8.7-4.3,18.1-7.3,27.7-8.9
					c-6-10.6-17.9-16.1-29.1-20.9c13.1-0.2,26.2,3.6,37.2,10.8c-2-7.3-5.2-14.4-9.3-20.8c11.2,7.1,20.7,17,27.2,28.6"/>
			</g>
		</g>
		<g id="LeftMountBack">
			<g>
				<path class="st11" d="M962.6,1800.9c-70.4-54.1-140.8-138-211.3-192.1c-7.4-5.7-15-11.5-23.8-14.5c-8.6-3-18-3.3-27.1-3.5
					c-30.6-0.9-141.3,1.1-202-13.3c-25.4-6.1-60.5-19-99.5-49.7c-186.7-203.5-245.2-313-260.9-376.2c-3.7-14.7-15.5-69-57.2-122.3
					c-27.4-35.3-58.3-57.7-80.5-71.3c0,281,0,562,0,843C321,1800.9,641.9,1800.9,962.6,1800.9z"/>
			</g>
			<g>
				<g>
					<path class="st11" d="M744.8,1595.3c9.4-17.8,12.3-38.9,8-58.5c8.8,6.2,14.3,16.4,16.9,26.9c2.6,10.5,2.8,21.4,2.9,32.2
						c9.4-8.1,17.2-18,22.9-29c0.5,17.8-6.4,35.7-18.9,48.4c8.3-1.7,16.7-2.7,25.2-2.9c-7.3,5.7-14.6,11.4-21.9,17.1l-50.9-2.7
						c7.2-5.6,10.4-15.3,10-24.4c-0.4-9.1-4.2-17.8-8.9-25.6C737.2,1580.5,742.7,1587.4,744.8,1595.3z"/>
				</g>
			</g>
			<g>
				<g>
					<path class="st11" d="M111,1046c4.6-9.4,12.7-17,22.3-21.2c-5.3-1.8-11.3-1-16.5,1c-5.2,2-9.9,5.3-14.5,8.6
						c0.6-6.4,2.4-12.7,5.3-18.5c-7.7,5.2-13.1,13.6-14.7,22.7c-1.8-4-3.9-7.9-6.4-11.5c-0.1,3-0.2,6-0.4,9
						c6.2,9.6,12.4,19.2,18.6,28.8c-0.1-0.7-1.1-8.6,5-14.3c5.6-5.2,12.6-4.2,13.5-4C119.5,1044.7,114.9,1044.5,111,1046z"/>
				</g>
			</g>
		</g>
	</g>
	<g id="Front">
		<path id="LeftMountFront" class="st12" d="M0.1,1124.1c17.3,6.6,43.2,19,66.5,42.7c39,39.7,44.5,84.5,63.7,143.6
			c11.6,36,31.9,88.2,68.5,149.1c18.7,35.9,37.5,71.7,56.2,107.6c40.6,19,81.2,38,121.8,57c111.7,12,223.5,22.3,335.5,30.9
			c182.7,14,365.7,23.5,549.2,28.5c94.9,39.1,189.9,78.2,284.8,117.3c-515.4,0-1030.7,0-1546.2,0C0.2,1575.3,0.2,1349.6,0.1,1124.1z
			"/>
		<g id="RightMountainFront">
			<path class="st12" d="M2650.2,1503.9c-30.6,33.1-34.5,44.7-53,51.4c-27,9.7-44.7-5.7-97.3-16.6c0,0-26.5-5.5-87.8-7.9
				c-109.5-4.3-184.7,81.2-322.8,120.3c-50.9,14.4-100,26.3-147.1,36.1c-58.6-6.5-170.4-17.1-292.8-15.8
				c-47.6,0.5-113.1,3.1-178.8,32.6c-14.9,6.7-30.1,13.9-36.4,18.3c-36.4,26.2-72.8,52.4-109.2,78.5h203.5h199.5h168.7h956v-429.1
				c-18.8,7-38.9,15.6-60,26.1c-30.9,15.4-57.5,31.8-79.9,47.5C2697.8,1457.4,2675.1,1477,2650.2,1503.9z"/>
			<g>
				<path class="st12" d="M1727.3,1681.2c-1.9-8.7-5.2-17.2-9.6-24.9c9,4.8,17,11.6,23.3,19.7c-0.5-21-10.7-40.4-14.4-61.1
					c8.9,7.8,14.9,18.5,18.7,29.7s5.6,23,7.4,34.7c1-13,2-26.4,7.9-38c0.4,11.2,1.4,22.4,3.1,33.5c1.2-8.7,5.2-17,11.3-23.3
					c-1.8,12.6-2.5,25.4-2.2,38.2"/>
			</g>
			<g id="Tree">
				<g>
					<path class="st12" d="M1828.6,1662.1c-3.9-1.2-7.7-2.3-11.6-3.5c-0.9-0.3-1.9-0.6-2.5-1.3c-0.5-0.5-0.8-1.3-1-2
						c-1.4-3.9-2.9-7.8-4.3-11.8c3.2-0.5,6.3-1.6,9.1-3.3c-3.6-1.3-8.6-1.8-12.2-3.1c0,0-24.3-30.5-36.2-42.3
						c9.1,1.2,18,3.3,26.7,6.3c2.7,0.9,12.8,4.2,12.8,4.2s-2.3,5.2-3.6,7.7c2.2-1.1,4.4-2.2,6.5-3.3c0.7-0.4,2.4-1.3,2.4-1.3
						s1.6,1.4,2.3,2.1c8.4,8.3,14.5,18.7,20.4,28.9c1.6,2.7,3.3,6,2.1,9c1.8,0.5,3.7,0.5,5.4-0.1c3.1,9.6,4.6,19.8,4.6,29.9
						c-5.3-7.2-12.6-12.9-20.8-16.4"/>
				</g>
				<g>
					<g>
						<path class="st12" d="M1840.8,1664.9c6.6,12.4,11.1,25.7,13.4,39.6c0.5,2.7,4.5,1.5,4-1.1c-2.4-14.2-7.1-27.8-13.9-40.6
							C1843.1,1660.4,1839.5,1662.5,1840.8,1664.9L1840.8,1664.9z"/>
					</g>
				</g>
				<g>
					<path class="st12" d="M1846.3,1575.5c-2.6,3.8-5.2,14-6.2,18.5c1.6,1.2,3,2.5,4.4,4c-2,0.6-4.1,0.8-6.2,0.6
						c-0.2,4.6-0.5,9.3-0.7,13.9c-0.1,2.3,0,8.9,0,8.9s3.3,2,5.6,2.1c-1.5,0.8-3,1.5-4.5,2.3c2.6,11,6.8,21.6,12.4,31.3
						c4.4-6.9,8.5-22.7,8.5-22.7l1.7-7l-4.9-4.2h5.8C1865.6,1607.2,1859.2,1585.4,1846.3,1575.5"/>
				</g>
				<g>
					<g>
						<path class="st12" d="M1850,1614.9c-1.1,14.3-2.6,28.7-2.4,43c0.2,13.7,2.3,27.3,6,40.4c0.7,2.6,4.8,1.5,4-1.1
							c-3.7-13.5-5.8-27.3-5.9-41.3c-0.1-13.7,1.3-27.4,2.4-41.1C1854.4,1612.2,1850.2,1612.2,1850,1614.9L1850,1614.9z"/>
					</g>
				</g>
				<g>
					<g>
						<path class="st12" d="M1857.1,1697c5.8-28.1,19.6-58.3,43.3-75.6c2.2-1.6,0.1-5.2-2.1-3.6c-24.7,18-39.2,48.9-45.2,78.2
							C1852.5,1698.5,1856.5,1699.6,1857.1,1697L1857.1,1697z"/>
					</g>
				</g>
				<g>
					<path class="st12" d="M1906.1,1635.2c5.8-8.3,10.9-17.1,15.8-25.8c-6.1-0.6-12.3,0.2-18.2,2c-0.7,1.8-1.5,3.6-0.6,5.4
						c-0.8-1.6-1.2-3.2-1.8-4.5c-4.9,1.8-9.7,4.2-14.1,7c-4.8,3.1-9.4,6.7-13,11c-0.9,1-1.7,2.1-2.5,3.3c0.9,1.9,2.5,3.7,3.4,5.6
						c-1.9,0-3.9-0.7-5.8-1.6c-0.9,1.7-1.7,3.4-2.4,5.2c-2.9,8-5.7,20-5.4,28.5l0.7,1.7c7.3-4.1,14.7-8.2,21.3-13.3
						c0.3-0.2,0.5-0.4,0.7-0.6c-0.7-1.5-1.7-2.7-0.7-4.6c0,2.1,1.5,2.5,2.9,2.8c6.4-5.4,12-11.7,17-18.5c-2.1-0.9-3.5-4-5.9-4
						C1900.4,1635,1903.3,1634.3,1906.1,1635.2z"/>
				</g>
			</g>
		</g>
	</g>
</g>
</svg>
