<?xml version="1.0" encoding="UTF-8"?><!DOCTYPE svg PUBLIC "-//W3C//DTD SVG 1.1//EN" "http://www.w3.org/Graphics/SVG/1.1/DTD/svg11.dtd"><svg xmlns="http://www.w3.org/2000/svg" xmlns:xlink="http://www.w3.org/1999/xlink"><symbol id="svg-arrow" viewBox="0 0 257 451">
    <path d="M248.3 248.3L54 442.6c-12.4 12.4-32.4 12.4-44.8 0-12.4-12.4-12.4-32.4 0-44.7L181.1 226 9.3 54C-3.1 41.7-3.1 21.6 9.3 9.3 21.6-3.1 41.7-3.1 54 9.3l194.3 194.3c6.2 6.2 9.3 14.3 9.3 22.4 0 8-3.1 16.1-9.3 22.3z"/>
</symbol><symbol id="svg-arrowBig" viewBox="0 0 492 408">
    <path d="M464.3 165.7l.8.2H135.9L239.4 62.2c5.1-5.1 7.8-11.9 7.8-19.1 0-7.2-2.8-14-7.8-19.1L223.3 7.9c-5.1-5.1-11.8-7.9-19-7.9-7.2 0-14 2.8-19 7.8L7.8 185.2c-5 5.1-7.8 11.9-7.8 19.1 0 7.2 2.8 14 7.8 19.1l177.4 177.4c5.1 5.1 11.8 7.8 19 7.8 7.2 0 13.9-2.8 19-7.8l16.1-16.1c5.1-5.1 7.8-11.8 7.8-19 0-7.2-2.8-13.6-7.8-18.7L134.7 242.7h330c14.8 0 27.3-12.8 27.3-27.6v-22.8c0-14.8-12.8-26.6-27.7-26.6z"/>
</symbol><symbol id="svg-check" viewBox="0 0 45 33">
    <path d="M20.4 32c-2 2-5.4 2-7.4 0L1.5 20.6c-2-2-2-5.3 0-7.4 2-2 5.3-2 7.4 0l6.8 6.8c.5.5 1.4.5 1.9 0L36.1 1.5c2-2 5.3-2 7.4 0 1 1 1.5 2.3 1.5 3.7s-.6 2.7-1.5 3.7L20.4 32z"/>
</symbol><symbol id="svg-facebook" viewBox="0 0 52 96">
    <path d="M50 0H37.5c-14 0-23.1 9.3-23.1 23.7v10.9H2c-1.1 0-2 .9-2 2v15.8c0 1.1.9 2 2 2h12.5v39.9c0 1.1.9 2 2 2h16.4c1.1 0 2-.9 2-2v-40h14.7c1.1 0 2-.9 2-2V36.5c0-.5-.2-1-.6-1.4s-.9-.6-1.4-.6H34.8v-9.2c0-4.4 1.1-6.7 6.8-6.7H50c1.1 0 2-.9 2-2V2c0-1.1-.9-2-2-2z"/>
</symbol><symbol id="svg-google" viewBox="0 0 512 512">
    <path d="M507.5 208.2c-.9-4.8-5.1-8.2-10-8.2H261.4c-5.6 0-10.1 4.5-10.1 10.1v97.3c0 5.6 4.5 10.1 10.1 10.1h116c-11.8 23.1-30.1 42.7-52.7 56C304 385.6 280.2 392 256 392c-56.4 0-107.6-35.5-127.4-88.3-5.7-15.2-8.6-31.3-8.6-47.7 0-15.1 2.5-30 7.3-44.2C146.2 156.9 197.9 120 256 120c25.5 0 50.4 7.1 71.9 20.6 3.7 2.3 8.4 2 11.8-.8l79.6-65.2c2.3-1.9 3.7-4.8 3.7-7.8s-1.3-5.9-3.7-7.8C373.6 20.9 315.6 0 256 0 114.8 0 0 114.8 0 256c0 42.3 10.6 84.3 30.5 121.3C75.3 460.4 161.7 512 256 512c59 0 116.6-20.6 162.1-57.9 44.9-36.8 76.3-88.2 88.3-144.7C510.1 292 512 274 512 256c0-16.1-1.5-32.2-4.5-47.8zM256 20.3c50.7 0 100.3 16.5 140.8 46.6l-64.4 52.7c-23.2-13-49.5-19.9-76.4-19.9-61.9 0-117.5 36.5-142.6 92.2l-62.8-51.5C91.1 68.8 168 20.3 256 20.3zM20.3 256c0-34.6 7.5-67.5 20.9-97.1L106 212c-4.2 14.3-6.3 29-6.3 44 0 16.4 2.5 32.5 7.5 47.9l-64.4 52.7C28 325.4 20.3 290.8 20.3 256zM256 491.7c-84.1 0-161.3-44.5-203.6-116.8l62.7-51.3c11.5 24 28.9 44.6 50.9 60.1 26.4 18.6 57.5 28.5 90 28.5 25.4 0 50.4-6.2 72.7-17.9l64.9 53.1c-39.9 28.7-88.2 44.3-137.6 44.3zm230.6-186.5c-10.6 50.1-37.8 95.8-76.7 129.4L347 383.1c25.1-18 44.6-43.2 55.4-72.2 1.2-3.1.7-6.6-1.2-9.3-1.9-2.7-5-4.4-8.3-4.4H271.5v-77H489c1.8 11.8 2.7 23.8 2.7 35.8 0 16.6-1.7 33.2-5.1 49.2z"/>
</symbol><symbol id="svg-linkedin" viewBox="0 0 310 309">
    <path d="M72.2 99.4H9.9c-2.8 0-5 2.2-5 5v199.9c0 2.8 2.2 5 5 5h62.2c2.8 0 5-2.2 5-5V104.4c.1-2.8-2.2-5-4.9-5z"/>
    <path d="M41.1 0C18.4 0 0 18.4 0 41s18.4 41 41.1 41c22.6 0 41-18.4 41-41S63.7 0 41.1 0z"/>
    <path d="M230.5 94.4c-25 0-43.5 10.7-54.7 23v-13c0-2.8-2.2-5-5-5h-59.6c-2.8 0-5 2.2-5 5v199.9c0 2.8 2.2 5 5 5h62.1c2.8 0 5-2.2 5-5v-98.9c0-33.3 9.1-46.3 32.3-46.3 25.3 0 27.3 20.8 27.3 48v97.2c0 2.8 2.2 5 5 5H305c2.8 0 5-2.2 5-5V194.7c0-49.6-9.5-100.3-79.5-100.3z"/>
</symbol><symbol id="svg-phone" viewBox="0 0 15 27">
    <path d="M13.3 0H2C.9 0 0 .9 0 2v23c0 1.1.9 2 2 2h11.4c1.1 0 2-.9 2-2V2c-.1-1.1-1-2-2.1-2zM4.8 1.2h5.6c.1 0 .3.2.3.5s-.1.5-.3.5H4.8c-.1 0-.3-.2-.3-.5.1-.3.2-.5.3-.5zm2.8 23.9c-.7 0-1.3-.6-1.3-1.3 0-.7.6-1.3 1.3-1.3.7 0 1.3.6 1.3 1.3s-.6 1.3-1.3 1.3zm6.2-4.3H1.5V3.3h12.3v17.5z"/>
</symbol><symbol id="svg-telegram" viewBox="0 0 24 20">
    <path d="M9.4 13.2L9 18.8c.6 0 .8-.2 1.1-.5l2.7-2.5 5.5 4c1 .6 1.7.3 2-.9l3.6-17c.3-1.5-.5-2.1-1.5-1.7L1.1 8.3C-.3 8.8-.3 9.6.9 10l5.4 1.7L19 3.8c.6-.4 1.1-.2.7.2L9.4 13.2z"/>
</symbol><symbol id="svg-at" viewBox="0 0 490 490">
    <path d="M420.95 61.8C376.25 20.6 320.65 0 254.25 0c-69.8 0-129.3 23.4-178.4 70.3s-73.7 105.2-73.7 175c0 66.9 23.4 124.4 70.1 172.6 46.9 48.2 109.9 72.3 189.2 72.3 47.8 0 94.7-9.8 140.7-29.5 15-6.4 22.3-23.6 16.2-38.7-6.3-15.6-24.1-22.8-39.6-16.2-40 17.2-79.2 25.8-117.4 25.8-60.8 0-107.9-18.5-141.3-55.6-33.3-37-50-80.5-50-130.4 0-54.2 17.9-99.4 53.6-135.7 35.6-36.2 79.5-54.4 131.5-54.4 47.9 0 88.4 14.9 121.4 44.7s49.5 67.3 49.5 112.5c0 30.9-7.6 56.7-22.7 77.2-15.1 20.6-30.8 30.8-47.1 30.8-8.8 0-13.2-4.7-13.2-14.2 0-7.7.6-16.7 1.7-27.1l18.6-152.1h-64l-4.1 14.9c-16.3-13.3-34.2-20-53.6-20-30.8 0-57.2 12.3-79.1 36.8-22 24.5-32.9 56.1-32.9 94.7 0 37.7 9.7 68.2 29.2 91.3 19.5 23.2 42.9 34.7 70.3 34.7 24.5 0 45.4-10.3 62.8-30.8 13.1 19.7 32.4 29.5 57.9 29.5 37.5 0 69.9-16.3 97.2-49 27.3-32.6 41-72 41-118.1 0-58.4-22.3-108.3-67.1-149.5zm-147.4 230.1c-11.3 15.2-24.8 22.9-40.5 22.9-10.7 0-19.3-5.6-25.8-16.8-6.6-11.2-9.9-25.1-9.9-41.8 0-20.6 4.6-37.2 13.8-49.8s20.6-19 34.2-19c11.8 0 22.3 4.7 31.5 14.2s13.8 22.1 13.8 37.9c-.1 19.7-5.8 37.1-17.1 52.4z"/>
</symbol><symbol id="svg-bycicle" viewBox="0 0 491 329">
    <path d="M381.6 101c-.9 0-1.8.1-2.6.1l-15-87.3c-.8-4.7-3.6-8.8-7.7-11.4-4.1-2.5-9-3.2-13.6-1.8l-45 13.6c-8.8 2.7-13.8 12-11.1 20.8 2.7 8.8 12 13.8 20.8 11.1l26.9-8.2 6.2 35.9H198.9v-7.1l17.4-4.4c6.9-1.7 11.8-8.2 11.4-15.6-.5-8.4-7.6-14.8-16-14.3l-64.3 3.7c-1.3.1-2.7.3-4 .6-11.4 3.1-18.3 14.7-15.4 26.2 2.9 11.4 14.5 18.3 25.9 15.5l11.7-3v10.8l-13.7 23.6c-13-5.6-27.1-8.7-42-8.7C49.3 101 0 152.2 0 215.2c0 63 49.3 114.2 109.9 114.2 55.1 0 100.7-42.5 108.5-97.5h17.8c4.7 0 9.2-2 12.4-5.5l24.4-27.3c-.7 5.3-1.2 10.7-1.2 16.2 0 63 49.3 114.2 109.9 114.2 60.5 0 109.8-51.2 109.8-114.2-.1-63.1-49.4-114.3-109.9-114.3zM109.9 296.1c-42.2 0-76.5-36.3-76.5-80.9 0-44.6 34.3-80.9 76.5-80.9 8.8 0 17.1 1.9 25 4.8l-39.4 67.7c-3 5.1-3 11.5 0 16.7 3 5.2 8.5 8.4 14.4 8.4h74.8c-7.3 36.6-38.1 64.2-74.8 64.2zm74.8-97.6h-45.9l24.1-41.4c10.8 11.1 18.6 25.3 21.8 41.4zm44 0h-10.3c-4-28.4-18-53.4-38.3-71l11.7-20.2h118.5l-81.6 91.2zm152.9 97.6c-42.2 0-76.5-36.3-76.5-80.9 0-33.5 19.4-62.3 46.9-74.5l13.2 77.4c1.4 8.1 8.4 13.8 16.4 13.8.9 0 1.9-.1 2.8-.2 9.1-1.6 15.2-10.2 13.6-19.2l-13.3-77.7c40.7 1.8 73.4 37.1 73.4 80.5-.1 44.5-34.4 80.8-76.5 80.8z"/>
</symbol><symbol id="svg-code" viewBox="0 0 94 71">
    <path d="M93.9 34.5L69.8 10.4c-.8-.8-2.1-.8-2.8 0l-5.2 5.2c-.8.8-.8 2 0 2.8l17.5 17.5-17.6 17.5c-.8.8-.8 2 0 2.8l5.2 5.2c.4.4.9.6 1.4.6.5 0 1-.2 1.4-.6l24.1-24.1c.9-.7.9-2 .1-2.8z"/>
    <path d="M32.8 53.4L15.3 35.9l17.5-17.5c.4-.4.6-.9.6-1.4 0-.5-.2-1-.6-1.4l-5.2-5.2c-.4-.4-.9-.6-1.4-.6-.5 0-1 .2-1.4.6L.6 34.5c-.8.8-.8 2 0 2.8l24.1 24.1c.4.4.9.6 1.4.6.5 0 1-.2 1.4-.6l5.2-5.2c.8-.7.8-2 .1-2.8z"/>
    <path d="M61 2.3c-.3-.5-.7-.8-1.2-1L55.6 0c-1.1-.3-2.2.3-2.5 1.4L33.4 68.1c-.2.5-.1 1.1.2 1.5.3.5.7.8 1.2 1l4.2 1.3c.2.1.4.1.6.1.9 0 1.7-.6 1.9-1.4L61.1 3.8c.2-.5.1-1-.1-1.5z"/>
</symbol><symbol id="svg-cog" viewBox="0 0 54 54">
    <path d="M51.22 21h-5.052c-.812 0-1.481-.447-1.792-1.197s-.153-1.54.42-2.114l3.572-3.571a2.763 2.763 0 00.814-1.966c0-.743-.289-1.441-.814-1.967l-4.553-4.553c-1.05-1.05-2.881-1.052-3.933 0l-3.571 3.571c-.574.573-1.366.733-2.114.421A1.885 1.885 0 0133 7.832V2.78A2.783 2.783 0 0030.22 0h-6.44A2.783 2.783 0 0021 2.78v5.052c0 .812-.447 1.481-1.197 1.792-.748.313-1.54.152-2.114-.421l-3.571-3.571c-1.052-1.052-2.883-1.05-3.933 0l-4.553 4.553a2.764 2.764 0 00-.814 1.967c0 .742.289 1.44.814 1.966l3.572 3.571c.573.574.73 1.364.42 2.114S8.644 21 7.832 21H2.78A2.783 2.783 0 000 23.78v6.439A2.783 2.783 0 002.78 33h5.052c.812 0 1.481.447 1.792 1.197s.153 1.54-.42 2.114l-3.572 3.571a2.763 2.763 0 00-.814 1.966c0 .743.289 1.441.814 1.967l4.553 4.553c1.051 1.051 2.881 1.053 3.933 0l3.571-3.572a1.887 1.887 0 012.114-.42c.75.311 1.197.98 1.197 1.792v5.052A2.783 2.783 0 0023.78 54h6.439a2.783 2.783 0 002.78-2.78v-5.052c0-.812.447-1.481 1.197-1.792a1.885 1.885 0 012.114.42l3.571 3.572c1.052 1.052 2.883 1.05 3.933 0l4.553-4.553a2.764 2.764 0 00.814-1.967c0-.742-.289-1.44-.814-1.966l-3.572-3.571c-.573-.574-.73-1.364-.42-2.114S45.356 33 46.168 33h5.052A2.783 2.783 0 0054 30.22v-6.44A2.783 2.783 0 0051.22 21zm.78 9.22c0 .43-.35.78-.78.78h-5.052a3.879 3.879 0 00-3.64 2.432 3.877 3.877 0 00.854 4.294l3.572 3.571a.78.78 0 010 1.104l-4.553 4.553a.78.78 0 01-1.104 0l-3.571-3.572c-1.149-1.149-2.794-1.474-4.294-.854A3.879 3.879 0 0031 46.168v5.052c0 .43-.35.78-.78.78h-6.44c-.43 0-.78-.35-.78-.78v-5.052a3.879 3.879 0 00-2.432-3.64 3.985 3.985 0 00-1.533-.311c-1.014 0-1.997.4-2.761 1.164l-3.571 3.572a.78.78 0 01-1.104 0L7.046 42.4a.78.78 0 010-1.104l3.572-3.571a3.879 3.879 0 00.854-4.294A3.88 3.88 0 007.832 31H2.78c-.43 0-.78-.35-.78-.78v-6.44c0-.43.35-.78.78-.78h5.052a3.879 3.879 0 003.64-2.432 3.877 3.877 0 00-.854-4.294l-3.572-3.571a.78.78 0 010-1.104l4.553-4.553a.78.78 0 011.104 0l3.571 3.571a3.88 3.88 0 004.294.854A3.876 3.876 0 0023 7.832V2.78c0-.43.35-.78.78-.78h6.439c.431 0 .781.35.781.78v5.052c0 1.624.932 3.019 2.432 3.64a3.878 3.878 0 004.294-.854l3.571-3.571a.78.78 0 011.104 0l4.553 4.553a.78.78 0 010 1.104l-3.572 3.571a3.879 3.879 0 00-.854 4.294 3.879 3.879 0 003.64 2.432h5.052a.78.78 0 01.78.779v6.44z"/>
    <path d="M27 18c-4.963 0-9 4.037-9 9s4.037 9 9 9 9-4.037 9-9-4.037-9-9-9zm0 16c-3.859 0-7-3.141-7-7s3.141-7 7-7 7 3.141 7 7-3.141 7-7 7z"/>
</symbol><symbol id="svg-cv" viewBox="0 0 45 45">
    <path d="M19.558 25.389a1.524 1.524 0 01-.264.455c-.108.129-.24.229-.396.301a1.358 1.358 0 01-.57.107c-.313 0-.572-.068-.78-.203a1.507 1.507 0 01-.498-.541 2.606 2.606 0 01-.27-.756 4.252 4.252 0 01-.084-.852c0-.289.027-.572.084-.853.056-.281.146-.533.27-.756.124-.225.29-.404.498-.541.208-.137.468-.203.78-.203.271 0 .494.051.666.154.172.105.31.225.414.361.104.137.176.273.216.414.04.139.068.25.084.33h2.568c-.112-1.08-.49-1.914-1.135-2.502-.644-.588-1.558-.887-2.741-.895-.664 0-1.263.107-1.794.324-.532.215-.988.52-1.368.912-.38.392-.672.863-.876 1.416a5.262 5.262 0 00-.307 1.836c0 .631.097 1.223.288 1.77.192.549.475 1.021.847 1.422s.825.717 1.361.949c.536.23 1.152.348 1.849.348.624 0 1.18-.105 1.668-.312.487-.209.897-.482 1.229-.822s.584-.723.756-1.146c.172-.422.259-.852.259-1.283h-2.593c-.039.2-.092.391-.161.566z"/>
    <path d="M26.62 24.812h-.024l-1.404-5.196h-2.664l2.556 8.568h2.952l2.677-8.568H28z"/>
    <path d="M33.431 0H5.179v45.057h34.699V6.251L33.431 0zm3.447 42.056H8.179V3h23.706v4.76h4.992l.001 34.296z"/>
</symbol><symbol id="svg-earphones" viewBox="0 0 57 60">
    <path d="M31.9 18.1c.4-.9.5-1.9.3-2.9-.1-.7-.2-1.4-.2-2.2s.1-1.5.2-2.2c.2-.9.1-2-.3-2.9C29.9 3.1 25.2 0 20 0c-2.8 0-5 2.2-5 5v1h-2v14h2v1c0 2.8 2.2 5 5 5 5.2 0 9.9-3.1 11.9-7.9z"/>
    <path d="M42 27c0-2.8-2.2-5-5-5-5.2 0-9.9 3.1-11.9 7.9-.4.9-.5 1.9-.3 2.9.2.7.2 1.5.2 2.2s-.1 1.5-.2 2.2c-.2 1-.1 2 .3 2.9 2 4.8 6.7 7.9 11.9 7.9 2.8 0 5-2.2 5-5v-1h2V28h-2v-1z"/>
    <path d="M0 15v16.3C0 32.8 1.2 34 2.7 34H4v26h2V34h1.3c1.5 0 2.7-1.2 2.7-2.7V20.7c0-.4.3-.7.7-.7h.3V6H9c-5 0-9 4-9 9z"/>
    <path d="M48 28h-2v14h.3c.4 0 .7.3.7.7v10.6c0 1.5 1.2 2.7 2.7 2.7H51v4h2v-4h1.3c1.5 0 2.7-1.2 2.7-2.7V37c0-5-4-9-9-9z"/>
</symbol><symbol id="svg-education2" viewBox="0 0 512 308">
    <path d="M507.5 111.7L259.1.7c-2-.9-4.2-.9-6.2 0l-100.7 45c-3.8 1.7-5.5 6.2-3.8 10s6.2 5.5 10 3.8L256 15.9l89.4 40v55.8C297.9 94.3 258 93 256.2 92.9h-.4c-1.9.1-47.7 1.6-99.6 22.7-20.7 8.4-39.6 19-56.2 31.2-1.2.9-2.1 2.2-2.6 3.6l-71.2-31.9L126 74c3.8-1.7 5.5-6.2 3.8-10-1.7-3.8-6.2-5.5-10-3.8L4.5 111.7c-2.7 1.3-4.5 4-4.5 7s1.8 5.7 4.5 6.9L97 167v36.3c0 4.2 3.4 7.6 7.6 7.6 4.2 0 7.6-3.4 7.6-7.6V157c14.8-10.6 31.6-19.7 49.8-27.2 47.5-19.4 90.7-21.5 94.1-21.6 3.3.1 43.7 2.1 89.4 19.7v75.3c-11.1 3.3-19.2 13.5-19.2 25.7 0 11.1 6.8 20.7 16.6 24.7l-5.3 13.9c-34.6 5.9-61.9 14.1-81.4 24.4-44.9-23.6-120.2-30.3-143.9-31.8v-21.2c0-4.2-3.4-7.6-7.6-7.6-4.2 0-7.6 3.4-7.6 7.6v28.4c0 4.1 3.2 7.4 7.2 7.6 1 0 99.4 4.6 148.1 32.3 1.2.7 2.5 1 3.7 1 1.3 0 2.6-.3 3.7-1 16.4-9.3 40.9-17.2 71.4-23.1l-4.5 11.8c-.9 2.3-.6 4.9.8 7 1.4 2 3.7 3.3 6.2 3.3h38.4c2.5 0 4.8-1.2 6.2-3.3 1.4-2.1 1.7-4.7.8-7l-6.8-18c20.6-2.4 35.3-3 35.4-3 4.1-.2 7.2-3.5 7.2-7.6v-28.4c0-4.2-3.4-7.6-7.6-7.6-4.2 0-7.6 3.4-7.6 7.6V260c-7.1.5-18.8 1.4-33.1 3.1l-3.7-9.6c9.7-4 16.6-13.6 16.6-24.7 0-12.1-8.1-22.4-19.2-25.7v-68.8c14.2 6.5 27.4 14.1 39.4 22.6v46.3c0 4.2 3.4 7.6 7.6 7.6 4.2 0 7.6-3.4 7.6-7.6v-36.3l92.5-41.4c2.7-1.2 4.5-3.9 4.5-6.9.1-2.9-1.7-5.6-4.4-6.9zM344.7 290.8l8.2-21.6 8.2 21.6h-16.4zm19.9-62.1c0 6.4-5.2 11.6-11.6 11.6-6.4 0-11.6-5.2-11.6-11.6 0-6.4 5.2-11.6 11.6-11.6 6.3 0 11.6 5.2 11.6 11.6zm50-78.2c-.5-1.4-1.4-2.7-2.6-3.6-15.3-11.3-32.6-21.2-51.5-29.2V62.6l125.4 56.1-71.3 31.8z"/>
</symbol><symbol id="svg-fishing" viewBox="0 0 415 424">
    <path d="M121 207.9c8 20.9 22.1 38.9 40.4 51.7C180.5 239 191 212 191 184c-.5-14.7-3.4-29.2-8.7-42.9L91.8 131l29.2 76.9zm30-47.9h16v16h-16v-16z"/>
    <path d="M294.4 331c-1.2 3-4.2 5-7.4 5h-16c-17.7 0-32 14.3-32 32h48c4.4 0 8 3.6 8 8v48c17.7 0 32-14.3 32-32v-16c0-4.4 3.6-8 8-8 41.1-.1 75.4-31.1 79.6-72H308.4l-14 35z"/>
    <path d="M106 213.6l-29.3-76.9c-2.6-7.1-10.4-10.7-17.5-8s-10.7 10.4-8 17.5l5.1 13.8H71v16h-8.7l17.1 46.4c12.8 34.5 45.7 57.5 82.6 57.6h2.1c-26.7-14.6-47.2-38.1-58.1-66.4z"/>
    <path d="M294.9 153.7l-95-10.6c4.3 13.2 6.7 27 7.1 40.9.1 30.9-11.1 60.8-31.5 83.9 15.6 7.9 32.8 12 50.2 12.1h189.1c-3.9-65.7-54.5-119-119.9-126.3zM287 248c0 4.4-3.6 8-8 8-.4 0-.9 0-1.3-.1l-48-8 2.6-15.8 38.7 6.4v-45.1l-38.7 6.4-2.6-15.8 48-8c4.4-.7 8.5 2.2 9.2 6.6.1.4.1.9.1 1.4v64z"/>
    <path d="M47 96h340c15.5 0 28-12.5 28-28s-12.5-28-28-28H107c-6.6 0-12-5.4-12-12s5.4-12 12-12h148V0H107C91.5 0 79 12.5 79 28s12.5 28 28 28h280c6.6 0 12 5.4 12 12s-5.4 12-12 12H47c-26.5.6-47.5 22.5-47 49 .5 25 20.2 45.4 45.1 46.9l-6.3-17.1c-17-4.4-27.3-21.8-22.8-38.9C19.6 105.8 32.4 96 47 96z"/>
    <path d="M271 0h16v16h-16V0z"/>
    <path d="M303 0h16v16h-16V0z"/>
</symbol><symbol id="svg-gamepad" viewBox="0 0 53 35">
    <path d="M48.8 6.3C41.7-5.4 31.1 2.7 31.1 2.7c-.7.5-2 1-2.8 1h-2.9c-.9 0-2.1-.4-2.8-1 0 0-10.7-8.1-17.8 3.5C-2.3 17.8.6 30.5.6 30.5c.5 3.1 2.1 5.2 5.3 4.9 3.1-.3 9.8-8.4 9.8-8.4.6-.7 1.7-1.2 2.6-1.2h17.1c.9 0 2 .5 2.6 1.2 0 0 6.7 8.1 9.8 8.4 3.1.3 4.8-1.8 5.3-4.9 0 .1 2.8-12.6-4.3-24.2zm-28.4 9.5h-3.7v3.5s-.8.6-2 .6-1.7-.6-1.7-.6v-3.5H9.5s-.4-.4-.5-1.6c-.2-1.2.4-2.2.4-2.2h3.7V8.4s.8-.4 1.8-.4c1.1 0 1.9.4 1.9.4V12h3.5s.6.8.7 1.7c0 1-.6 2.1-.6 2.1zm16.8 4c-1.6 0-2.9-1.3-2.9-2.9 0-1.6 1.3-2.9 2.9-2.9 1.6 0 2.9 1.3 2.9 2.9 0 1.6-1.3 2.9-2.9 2.9zm0-8c-1.6 0-2.9-1.3-2.9-2.9 0-1.6 1.3-2.9 2.9-2.9 1.6 0 2.9 1.3 2.9 2.9 0 1.6-1.3 2.9-2.9 2.9zm7.3 4.3c-1.6 0-2.9-1.3-2.9-2.9 0-1.6 1.3-2.9 2.9-2.9 1.6 0 2.9 1.3 2.9 2.9 0 1.6-1.3 2.9-2.9 2.9z"/>
</symbol><symbol id="svg-gamepad2" viewBox="0 0 110 66">
    <path d="M23.6 22.7c.3.4.5.9.5 1.3v4.6c0 .9-.7 1.6-1.6 1.6H19c-.9 0-1.6-.7-1.6-1.6V24c0-.5.3-1.2.7-1.5l2.2-2.4c.2-.2.6-.2.8 0l2.5 2.6zm-4-4.5L17 15.8c-.4-.3-.9-.5-1.3-.5h-4.6c-.9 0-1.6.7-1.6 1.6v3.5c0 .9.7 1.6 1.6 1.6h4.6c.5 0 1.2-.3 1.5-.7l2.4-2.2c.3-.3.3-.6 0-.9zm23.9-.4h23.8c1.2 0 2.1-1 2.1-2.1V3.2c0-1.2-1-2.1-2.1-2.1H43.5c-1.2 0-2.1 1-2.1 2.1v12.4c-.1 1.3.9 2.2 2.1 2.2zm-23.1 0c.2.2.6.2.8 0l2.4-2.6c.3-.4.5-.9.5-1.3V9.2c0-.9-.7-1.6-1.6-1.6H19c-.9 0-1.6.7-1.6 1.6v4.6c0 .5.3 1.2.7 1.5l2.3 2.5zm77.7-3c2 0 3.6 1.6 3.6 3.6s-1.6 3.6-3.6 3.6-3.6-1.6-3.6-3.6 1.6-3.6 3.6-3.6zm0 1.2c-1.3 0-2.4 1.1-2.4 2.4s1.1 2.4 2.4 2.4c1.3 0 2.4-1.1 2.4-2.4 0-1.3-1.1-2.4-2.4-2.4zm-9.9-4.1h3.5l-1.7-3-1.8 3zm5.4-1.3c0 2-1.6 3.6-3.6 3.6s-3.6-1.6-3.6-3.6S87.9 7 90 7c2 0 3.6 1.6 3.6 3.6zm-1.1 1.7L90 8l-2.5 4.3h5zm3.7 6.1c0 1.1.9 1.9 1.9 1.9s1.9-.9 1.9-1.9c0-1.1-.9-1.9-1.9-1.9s-1.9.8-1.9 1.9zm-2.6 7.9c0 2-1.6 3.6-3.6 3.6s-3.6-1.6-3.6-3.6 1.6-3.6 3.6-3.6 3.6 1.6 3.6 3.6zm-3.1 0l1.7-1.7-.4-.4-1.7 1.7-1.7-1.7-.4.4 1.7 1.7-1.8 1.7.4.4 1.7-1.7 1.7 1.7.4-.4-1.6-1.7zm20.2 29.1c0 3.6-.8 6.1-4.4 9-6.1 4.7-14.4 1.6-16.1-.9-1.8-2.6-3.2-6.6-4.4-10.1-1-2.8-1.9-5.7-2.9-8.5-.3-.9-1.1-1.2-1.8-1.6-.1 0-.3.1-.4.1-4.2 3.1-9.6 3-13.7-.2-.2-.2-.5-.3-.8-.3H44.6c-.3 0-.6.1-.8.3-4.1 3.2-9.5 3.3-13.7.2-.1-.1-.3-.2-.4-.1-.8.3-1.5.7-1.8 1.6-.9 2.8-1.9 5.7-2.9 8.5-1.2 3.5-2.7 7.5-4.4 10.1-1.8 2.6-10 5.7-16.1.9C1 61.5.2 59 .1 55.4c0-2.7.1-5.5.4-8.2C1 41.7 2 36.3 3.2 30.8c1-5.3 2.3-10.6 3.9-15.8.7-2.4 1.6-4.7 2.9-6.7 1.1-1.6 2.1-3.3 3.2-4.9.2-.3.6-.5.9-.7.2-.1.4-.2.4-.6 0-.2.2-.4.3-.5.2-.2.5-.3.8-.4C19.5-.4 23.4-.5 27.3 1c.3.1.5.4.5.7 0 .5.2.8.7.9h.1c.9.5 1.9.6 2.9.6h8.7v12.3c0 1.8 1.4 3.2 3.2 3.2h23.8c1.8 0 3.2-1.4 3.2-3.2V3.3h8.7c1 0 2-.2 2.9-.6h.1c.5 0 .8-.3.7-.9 0-.3.2-.6.5-.7 3.9-1.5 7.8-1.4 11.7.2.3.1.5.3.8.4.2.1.4.3.4.5 0 .3.2.4.4.6.3.2.7.4.9.7 1.1 1.6 2.2 3.2 3.2 4.9 1.4 2.1 2.2 4.4 2.9 6.7 1.6 5.2 2.8 10.5 3.9 15.8 1.1 5.4 2.1 10.9 2.7 16.4.4 2.6.6 5.4.5 8.1zM34.3 11.7c0 1.2 1 2.2 2.2 2.2s2.2-1 2.2-2.2V7.1c0-1.2-1-2.2-2.2-2.2-1.2 0-2.2 1-2.2 2.2v4.6zm-.9 7c0-6.9-5.6-12.5-12.5-12.5C14 6.1 8.4 11.8 8.4 18.7S14 31.2 20.9 31.2s12.5-5.6 12.5-12.5zm10.1 18.5c0-3.6-2.9-6.5-6.5-6.5s-6.5 2.9-6.5 6.5 2.9 6.5 6.5 6.5 6.5-2.9 6.5-6.5zm11.5.1h.4c.4 0 .7-.2.9-.6.1-.2.2-.5.1-.8 0-.6-.5-1-1.1-1H50h-.1v.3c0 .1 0 .1.1.1h4.8c.3 0 .5.2.6.5v.4c0 .4-.3.6-.6.6H51c-.6 0-1.1.5-1.1 1v1.4c0 .1 0 .1.1.1h.8c.1 0 .1 0 .1-.1v-1.1-.3c0-.3.2-.6.6-.6 1.1.1 2.3.1 3.5.1zm7.3-2.4h-3.1c-.3 0-.6.2-.8.4-.2.2-.2.5-.2.7v2.1c0 .4-.2.7-.7.7H55h-.1c-.1 0-.1 0-.1.1v.3c0 .1 0 .1.1.1h3c.3 0 .5-.1.7-.2.3-.2.5-.6.5-1v-2-.3c0-.3.2-.4.4-.5h2.7s.1 0 .1-.1v-.3zm9.6-23.2c0 1.2 1 2.2 2.2 2.2 1.2 0 2.2-1 2.2-2.2V7.1c0-1.2-1-2.2-2.2-2.2-1.2 0-2.2 1-2.2 2.2v4.6zm8.4 25.5c0-3.6-2.9-6.5-6.5-6.5s-6.5 2.9-6.5 6.5 2.9 6.5 6.5 6.5 6.5-2.9 6.5-6.5zm22.1-18.5c0-6.9-5.6-12.5-12.5-12.5s-12.5 5.6-12.5 12.5S83 31.2 89.9 31.2s12.5-5.6 12.5-12.5zm-16.7-.2c0 2-1.6 3.6-3.6 3.6s-3.6-1.6-3.6-3.6 1.6-3.6 3.6-3.6c2-.1 3.6 1.5 3.6 3.6zM84 16.4h-4v4h4v-4zm-53.6-1.1h-4.6c-.5 0-.9.2-1.3.5l-2.6 2.4c-.2.2-.2.6 0 .8l2.4 2.2c.4.4 1 .7 1.5.7h4.6c.9 0 1.6-.7 1.6-1.6v-3.5c0-.8-.7-1.5-1.6-1.5zm53.2 1.6h-3.1V20h3.1v-3.1z"/>
</symbol><symbol id="svg-github" viewBox="0 0 512 490">
    <path d="M256 0C114.6 0 0 112.6 0 251.6 0 362.7 73.3 457 175 490.2c12.8 2.4 17.5-5.4 17.5-12.1 0-6-.2-21.8-.3-42.8-71.2 15.2-86.2-33.7-86.2-33.7-11.6-29-28.5-36.8-28.5-36.8-23.2-15.6 1.8-15.3 1.8-15.3 25.7 1.7 39.2 25.9 39.2 25.9 22.8 38.5 59.9 27.3 74.6 20.9 2.3-16.3 8.9-27.3 16.2-33.6-56.9-6.3-116.6-27.9-116.6-124.3 0-27.5 9.9-49.9 26.3-67.5-2.9-6.4-11.5-31.9 2.2-66.6 0 0 21.4-6.7 70.4 25.8 20.5-5.6 42.2-8.4 64-8.5 21.8.1 43.5 2.9 64 8.5 48.6-32.5 70.1-25.8 70.1-25.8 13.8 34.6 5.1 60.2 2.6 66.6 16.3 17.6 26.2 40 26.2 67.5 0 96.6-59.8 117.9-116.8 124.1 9 7.6 17.3 23 17.3 46.5 0 33.7-.3 60.7-.3 68.9 0 6.6 4.5 14.5 17.6 11.9C438.7 456.9 512 362.6 512 251.6 512 112.6 397.4 0 256 0z"/>
</symbol><symbol id="svg-origami" viewBox="0 0 357 314">
    <path d="M246.4 211.7l-38.3 15.4-108.5-37v-73.9l146.8 95.5zm-108 90.1l126.2-55.5-45.7-15.6 43.5-17.5-4.9-3.2-47.4-136.9h59.2l72.2 138.8-88.6 102.5-114.5-12.6zM357.8 65.7H207.5l-.5-1.4L255.3 0l102.5 65.7zM244.2 247.2l-120.5 53-81.1-11L0 164l244.2 83.2z"/>
</symbol><symbol id="svg-phone2" viewBox="0 0 348 347">
    <path d="M340.3 274.7l-53.8-53.8c-10.7-10.7-28.4-10.3-39.5.7l-27.1 27.1c-1.7-.9-3.5-1.9-5.3-3-17.1-9.5-40.5-22.5-65.1-47.1-24.7-24.7-37.7-48.1-47.2-65.3-1-1.8-2-3.6-2.9-5.2l18.2-18.1 8.9-8.9c11.1-11.1 11.4-28.8.7-39.5L73.4 7.8C62.7-2.9 45-2.6 33.9 8.5L18.7 23.8l.4.4c-5.1 6.5-9.3 14-12.5 22-2.9 7.7-4.7 15-5.6 22.3-7 58.9 19.9 112.7 92.9 185.6C194.7 355 276 347.4 279.5 347c7.6-.9 15-2.7 22.4-5.6 8-3.1 15.5-7.4 21.9-12.4l.3.3 15.3-15c11.2-11.2 11.6-28.9.9-39.6z"/>
</symbol><symbol id="svg-pin" viewBox="0 0 370 512">
    <path d="M185.4 0C83.2 0 0 83.2 0 185.4c0 126.9 165.9 313.2 173 321 6.6 7.4 18.2 7.4 24.8 0 7.1-7.9 173-194.1 173-321C370.9 83.2 287.7 0 185.4 0zm0 278.7c-51.4 0-93.3-41.9-93.3-93.3s41.9-93.3 93.3-93.3 93.3 41.9 93.3 93.3-41.8 93.3-93.3 93.3z"/>
</symbol><symbol id="svg-puzzle" viewBox="0 0 512 457">
    <path d="M448.3 329.2l63.7-63.7-63.7-63.7 10.3-10.3c17.8-17.8 17.8-46.7 0-64.4-8.6-8.6-20-13.3-32.2-13.3-12.2 0-23.6 4.7-32.2 13.3l-10.3 10.3-63.7-63.7-18.8 18.8v29.7c33.3 7.9 58.1 37.9 58.1 73.5 0 35.7-24.8 65.6-58.1 73.5v92.2h-55.2l-11 11 85 84.9 63.7-63.7 8.8 8.9c17.8 17.8 46.7 17.8 64.4 0s17.8-46.7 0-64.4l-8.8-8.9z"/>
    <path d="M271.3 331.4v-90.1h12.5c25.1 0 45.6-20.4 45.6-45.6 0-25.1-20.4-45.6-45.6-45.6h-12.5v-90h-90.1V45.6c0-25.1-20.4-45.6-45.6-45.6C110.5 0 90 20.4 90 45.6v14.5H0v90.1h12.5c22 0 40.5 15.7 44.7 36.6 1.8 2.5 2.9 5.6 2.9 9s-1.1 6.5-2.9 9c-4.2 20.8-22.6 36.6-44.7 36.6H0v90.1h90.1V317c0-25.1 20.4-45.6 45.6-45.6 25.1 0 45.6 20.4 45.6 45.6v14.5h90z"/>
</symbol><symbol id="svg-qr" viewBox="0 0 640 640">
    <style>
        .st0{fill-opacity:0}
    </style>
    <path id="a" d="M22.1 0v22.1H0V0h22.1z"/>
    <path id="a_1_" class="st0" d="M22.1 0v22.1H0V0h22.1z"/>
    <path id="b" d="M22.1 22.1v22.1H0V22.1h22.1z"/>
    <path id="b_1_" class="st0" d="M22.1 22.1v22.1H0V22.1h22.1z"/>
    <path id="c" d="M22.1 44.1v22.1H0V44.1h22.1z"/>
    <path id="c_1_" class="st0" d="M22.1 44.1v22.1H0V44.1h22.1z"/>
    <path id="d" d="M22.1 66.2v22.1H0V66.2h22.1z"/>
    <path id="d_1_" class="st0" d="M22.1 66.2v22.1H0V66.2h22.1z"/>
    <path id="e" d="M22.1 88.3v22.1H0V88.3h22.1z"/>
    <path id="e_1_" class="st0" d="M22.1 88.3v22.1H0V88.3h22.1z"/>
    <path id="f" d="M22.1 110.3v22.1H0v-22.1h22.1z"/>
    <path id="f_1_" class="st0" d="M22.1 110.3v22.1H0v-22.1h22.1z"/>
    <path id="g" d="M22.1 132.4v22.1H0v-22.1h22.1z"/>
    <path id="g_1_" class="st0" d="M22.1 132.4v22.1H0v-22.1h22.1z"/>
    <path id="h" d="M22.1 176.6v22.1H0v-22.1h22.1z"/>
    <path id="h_1_" class="st0" d="M22.1 176.6v22.1H0v-22.1h22.1z"/>
    <path id="i" d="M22.1 220.7v22.1H0v-22.1h22.1z"/>
    <path id="i_1_" class="st0" d="M22.1 220.7v22.1H0v-22.1h22.1z"/>
    <path id="j" d="M22.1 264.8v22.1H0v-22.1h22.1z"/>
    <path id="j_1_" class="st0" d="M22.1 264.8v22.1H0v-22.1h22.1z"/>
    <path id="k" d="M22.1 286.9V309H0v-22.1h22.1z"/>
    <path id="k_1_" class="st0" d="M22.1 286.9V309H0v-22.1h22.1z"/>
    <path id="l" d="M22.1 331v22.1H0V331h22.1z"/>
    <path id="l_1_" class="st0" d="M22.1 331v22.1H0V331h22.1z"/>
    <path id="m" d="M22.1 353.1v22.1H0v-22.1h22.1z"/>
    <path id="m_1_" class="st0" d="M22.1 353.1v22.1H0v-22.1h22.1z"/>
    <path id="n" d="M22.1 375.2v22.1H0v-22.1h22.1z"/>
    <path id="n_1_" class="st0" d="M22.1 375.2v22.1H0v-22.1h22.1z"/>
    <path id="o" d="M22.1 419.3v22.1H0v-22.1h22.1z"/>
    <path id="o_1_" class="st0" d="M22.1 419.3v22.1H0v-22.1h22.1z"/>
    <path id="p" d="M22.1 441.4v22.1H0v-22.1h22.1z"/>
    <path id="p_1_" class="st0" d="M22.1 441.4v22.1H0v-22.1h22.1z"/>
    <path id="q" d="M22.1 485.5v22.1H0v-22.1h22.1z"/>
    <path id="q_1_" class="st0" d="M22.1 485.5v22.1H0v-22.1h22.1z"/>
    <path id="r" d="M22.1 507.6v22.1H0v-22.1h22.1z"/>
    <path id="r_1_" class="st0" d="M22.1 507.6v22.1H0v-22.1h22.1z"/>
    <path id="s" d="M22.1 529.7v22.1H0v-22.1h22.1z"/>
    <path id="s_1_" class="st0" d="M22.1 529.7v22.1H0v-22.1h22.1z"/>
    <path id="t" d="M22.1 551.7v22.1H0v-22.1h22.1z"/>
    <path id="t_1_" class="st0" d="M22.1 551.7v22.1H0v-22.1h22.1z"/>
    <path id="u" d="M22.1 573.8v22.1H0v-22.1h22.1z"/>
    <path id="u_1_" class="st0" d="M22.1 573.8v22.1H0v-22.1h22.1z"/>
    <path id="v" d="M22.1 595.9V618H0v-22.1h22.1z"/>
    <path id="v_1_" class="st0" d="M22.1 595.9V618H0v-22.1h22.1z"/>
    <path id="w" d="M22.1 617.9V640H0v-22.1h22.1z"/>
    <path id="w_1_" class="st0" d="M22.1 617.9V640H0v-22.1h22.1z"/>
    <path id="x" d="M44.1 0v22.1h-22V0h22z"/>
    <path id="x_1_" class="st0" d="M44.1 0v22.1h-22V0h22z"/>
    <path id="y" d="M44.1 132.4v22.1h-22v-22.1h22z"/>
    <path id="y_1_" class="st0" d="M44.1 132.4v22.1h-22v-22.1h22z"/>
    <path id="z" d="M44.1 176.6v22.1h-22v-22.1h22z"/>
    <path id="z_1_" class="st0" d="M44.1 176.6v22.1h-22v-22.1h22z"/>
    <path id="A" d="M44.1 198.6v22.1h-22v-22.1h22z"/>
    <path id="A_1_" class="st0" d="M44.1 198.6v22.1h-22v-22.1h22z"/>
    <path id="B" d="M44.1 264.8v22.1h-22v-22.1h22z"/>
    <path id="B_1_" class="st0" d="M44.1 264.8v22.1h-22v-22.1h22z"/>
    <path id="C" d="M44.1 309v22h-22v-22h22z"/>
    <path id="C_1_" class="st0" d="M44.1 309v22h-22v-22h22z"/>
    <path id="D" d="M44.1 353.1v22.1h-22v-22.1h22z"/>
    <path id="D_1_" class="st0" d="M44.1 353.1v22.1h-22v-22.1h22z"/>
    <path id="E" d="M44.1 397.2v22.1h-22v-22.1h22z"/>
    <path id="E_1_" class="st0" d="M44.1 397.2v22.1h-22v-22.1h22z"/>
    <path id="F" d="M44.1 419.3v22.1h-22v-22.1h22z"/>
    <path id="F_1_" class="st0" d="M44.1 419.3v22.1h-22v-22.1h22z"/>
    <path id="G" d="M44.1 485.5v22.1h-22v-22.1h22z"/>
    <path id="G_1_" class="st0" d="M44.1 485.5v22.1h-22v-22.1h22z"/>
    <path id="H" d="M44.1 617.9V640h-22v-22.1h22z"/>
    <path id="H_1_" class="st0" d="M44.1 617.9V640h-22v-22.1h22z"/>
    <path id="I" d="M66.2 0v22.1H44.1V0h22.1z"/>
    <path id="I_1_" class="st0" d="M66.2 0v22.1H44.1V0h22.1z"/>
    <path id="J" d="M66.2 44.1v22.1H44.1V44.1h22.1z"/>
    <path id="J_1_" class="st0" d="M66.2 44.1v22.1H44.1V44.1h22.1z"/>
    <path id="K" d="M66.2 66.2v22.1H44.1V66.2h22.1z"/>
    <path id="K_1_" class="st0" d="M66.2 66.2v22.1H44.1V66.2h22.1z"/>
    <path id="L" d="M66.2 88.3v22.1H44.1V88.3h22.1z"/>
    <path id="L_1_" class="st0" d="M66.2 88.3v22.1H44.1V88.3h22.1z"/>
    <path id="M" d="M66.2 132.4v22.1H44.1v-22.1h22.1z"/>
    <path id="M_1_" class="st0" d="M66.2 132.4v22.1H44.1v-22.1h22.1z"/>
    <path id="N" d="M66.2 176.6v22.1H44.1v-22.1h22.1z"/>
    <path id="N_1_" class="st0" d="M66.2 176.6v22.1H44.1v-22.1h22.1z"/>
    <path id="O" d="M66.2 220.7v22.1H44.1v-22.1h22.1z"/>
    <path id="O_1_" class="st0" d="M66.2 220.7v22.1H44.1v-22.1h22.1z"/>
    <path id="P" d="M66.2 264.8v22.1H44.1v-22.1h22.1z"/>
    <path id="P_1_" class="st0" d="M66.2 264.8v22.1H44.1v-22.1h22.1z"/>
    <path id="Q" d="M66.2 286.9V309H44.1v-22.1h22.1z"/>
    <path id="Q_1_" class="st0" d="M66.2 286.9V309H44.1v-22.1h22.1z"/>
    <path id="R" d="M66.2 353.1v22.1H44.1v-22.1h22.1z"/>
    <path id="R_1_" class="st0" d="M66.2 353.1v22.1H44.1v-22.1h22.1z"/>
    <path id="S" d="M66.2 397.2v22.1H44.1v-22.1h22.1z"/>
    <path id="S_1_" class="st0" d="M66.2 397.2v22.1H44.1v-22.1h22.1z"/>
    <path id="T" d="M66.2 419.3v22.1H44.1v-22.1h22.1z"/>
    <path id="T_1_" class="st0" d="M66.2 419.3v22.1H44.1v-22.1h22.1z"/>
    <path id="U" d="M66.2 485.5v22.1H44.1v-22.1h22.1z"/>
    <path id="U_1_" class="st0" d="M66.2 485.5v22.1H44.1v-22.1h22.1z"/>
    <path id="V" d="M66.2 529.7v22.1H44.1v-22.1h22.1z"/>
    <path id="V_1_" class="st0" d="M66.2 529.7v22.1H44.1v-22.1h22.1z"/>
    <path id="W" d="M66.2 551.7v22.1H44.1v-22.1h22.1z"/>
    <path id="W_1_" class="st0" d="M66.2 551.7v22.1H44.1v-22.1h22.1z"/>
    <path id="X" d="M66.2 573.8v22.1H44.1v-22.1h22.1z"/>
    <path id="X_1_" class="st0" d="M66.2 573.8v22.1H44.1v-22.1h22.1z"/>
    <path id="Y" d="M66.2 617.9V640H44.1v-22.1h22.1z"/>
    <path id="Y_1_" class="st0" d="M66.2 617.9V640H44.1v-22.1h22.1z"/>
    <path id="Z" d="M88.3 0v22.1H66.2V0h22.1z"/>
    <path id="Z_1_" class="st0" d="M88.3 0v22.1H66.2V0h22.1z"/>
    <path id="aa" d="M88.3 44.1v22.1H66.2V44.1h22.1z"/>
    <path id="aa_1_" class="st0" d="M88.3 44.1v22.1H66.2V44.1h22.1z"/>
    <path id="ab" d="M88.3 66.2v22.1H66.2V66.2h22.1z"/>
    <path id="ab_1_" class="st0" d="M88.3 66.2v22.1H66.2V66.2h22.1z"/>
    <path id="ac" d="M88.3 88.3v22.1H66.2V88.3h22.1z"/>
    <path id="ac_1_" class="st0" d="M88.3 88.3v22.1H66.2V88.3h22.1z"/>
    <path id="ad" d="M88.3 132.4v22.1H66.2v-22.1h22.1z"/>
    <path id="ad_1_" class="st0" d="M88.3 132.4v22.1H66.2v-22.1h22.1z"/>
    <path id="ae" d="M88.3 176.6v22.1H66.2v-22.1h22.1z"/>
    <path id="ae_1_" class="st0" d="M88.3 176.6v22.1H66.2v-22.1h22.1z"/>
    <path id="af" d="M88.3 198.6v22.1H66.2v-22.1h22.1z"/>
    <path id="af_1_" class="st0" d="M88.3 198.6v22.1H66.2v-22.1h22.1z"/>
    <path id="ag" d="M88.3 220.7v22.1H66.2v-22.1h22.1z"/>
    <path id="ag_1_" class="st0" d="M88.3 220.7v22.1H66.2v-22.1h22.1z"/>
    <path id="ah" d="M88.3 242.8v22.1H66.2v-22.1h22.1z"/>
    <path id="ah_1_" class="st0" d="M88.3 242.8v22.1H66.2v-22.1h22.1z"/>
    <path id="ai" d="M88.3 331v22.1H66.2V331h22.1z"/>
    <path id="ai_1_" class="st0" d="M88.3 331v22.1H66.2V331h22.1z"/>
    <path id="aj" d="M88.3 397.2v22.1H66.2v-22.1h22.1z"/>
    <path id="aj_1_" class="st0" d="M88.3 397.2v22.1H66.2v-22.1h22.1z"/>
    <path id="ak" d="M88.3 419.3v22.1H66.2v-22.1h22.1z"/>
    <path id="ak_1_" class="st0" d="M88.3 419.3v22.1H66.2v-22.1h22.1z"/>
    <path id="al" d="M88.3 441.4v22.1H66.2v-22.1h22.1z"/>
    <path id="al_1_" class="st0" d="M88.3 441.4v22.1H66.2v-22.1h22.1z"/>
    <path id="am" d="M88.3 485.5v22.1H66.2v-22.1h22.1z"/>
    <path id="am_1_" class="st0" d="M88.3 485.5v22.1H66.2v-22.1h22.1z"/>
    <path id="an" d="M88.3 529.7v22.1H66.2v-22.1h22.1z"/>
    <path id="an_1_" class="st0" d="M88.3 529.7v22.1H66.2v-22.1h22.1z"/>
    <path id="ao" d="M88.3 551.7v22.1H66.2v-22.1h22.1z"/>
    <path id="ao_1_" class="st0" d="M88.3 551.7v22.1H66.2v-22.1h22.1z"/>
    <path id="ap" d="M88.3 573.8v22.1H66.2v-22.1h22.1z"/>
    <path id="ap_1_" class="st0" d="M88.3 573.8v22.1H66.2v-22.1h22.1z"/>
    <path id="aq" d="M88.3 617.9V640H66.2v-22.1h22.1z"/>
    <path id="aq_1_" class="st0" d="M88.3 617.9V640H66.2v-22.1h22.1z"/>
    <path id="ar" d="M110.3 0v22.1h-22V0h22z"/>
    <path id="ar_1_" class="st0" d="M110.3 0v22.1h-22V0h22z"/>
    <path id="as" d="M110.3 44.1v22.1h-22V44.1h22z"/>
    <path id="as_1_" class="st0" d="M110.3 44.1v22.1h-22V44.1h22z"/>
    <path id="at" d="M110.3 66.2v22.1h-22V66.2h22z"/>
    <path id="at_1_" class="st0" d="M110.3 66.2v22.1h-22V66.2h22z"/>
    <path id="au" d="M110.3 88.3v22.1h-22V88.3h22z"/>
    <path id="au_1_" class="st0" d="M110.3 88.3v22.1h-22V88.3h22z"/>
    <path id="av" d="M110.3 132.4v22.1h-22v-22.1h22z"/>
    <path id="av_1_" class="st0" d="M110.3 132.4v22.1h-22v-22.1h22z"/>
    <path id="aw" d="M110.3 242.8v22.1h-22v-22.1h22z"/>
    <path id="aw_1_" class="st0" d="M110.3 242.8v22.1h-22v-22.1h22z"/>
    <path id="ax" d="M110.3 286.9V309h-22v-22.1h22z"/>
    <path id="ax_1_" class="st0" d="M110.3 286.9V309h-22v-22.1h22z"/>
    <path id="ay" d="M110.3 309v22h-22v-22h22z"/>
    <path id="ay_1_" class="st0" d="M110.3 309v22h-22v-22h22z"/>
    <path id="az" d="M110.3 331v22.1h-22V331h22z"/>
    <path id="az_1_" class="st0" d="M110.3 331v22.1h-22V331h22z"/>
    <path id="aA" d="M110.3 441.4v22.1h-22v-22.1h22z"/>
    <path id="aA_1_" class="st0" d="M110.3 441.4v22.1h-22v-22.1h22z"/>
    <path id="aB" d="M110.3 485.5v22.1h-22v-22.1h22z"/>
    <path id="aB_1_" class="st0" d="M110.3 485.5v22.1h-22v-22.1h22z"/>
    <path id="aC" d="M110.3 529.7v22.1h-22v-22.1h22z"/>
    <path id="aC_1_" class="st0" d="M110.3 529.7v22.1h-22v-22.1h22z"/>
    <path id="aD" d="M110.3 551.7v22.1h-22v-22.1h22z"/>
    <path id="aD_1_" class="st0" d="M110.3 551.7v22.1h-22v-22.1h22z"/>
    <path id="aE" d="M110.3 573.8v22.1h-22v-22.1h22z"/>
    <path id="aE_1_" class="st0" d="M110.3 573.8v22.1h-22v-22.1h22z"/>
    <path id="aF" d="M110.3 617.9V640h-22v-22.1h22z"/>
    <path id="aF_1_" class="st0" d="M110.3 617.9V640h-22v-22.1h22z"/>
    <path id="aG" d="M132.4 0v22.1h-22.1V0h22.1z"/>
    <path id="aG_1_" class="st0" d="M132.4 0v22.1h-22.1V0h22.1z"/>
    <path id="aH" d="M132.4 132.4v22.1h-22.1v-22.1h22.1z"/>
    <path id="aH_1_" class="st0" d="M132.4 132.4v22.1h-22.1v-22.1h22.1z"/>
    <path id="aI" d="M132.4 198.6v22.1h-22.1v-22.1h22.1z"/>
    <path id="aI_1_" class="st0" d="M132.4 198.6v22.1h-22.1v-22.1h22.1z"/>
    <path id="aJ" d="M132.4 242.8v22.1h-22.1v-22.1h22.1z"/>
    <path id="aJ_1_" class="st0" d="M132.4 242.8v22.1h-22.1v-22.1h22.1z"/>
    <path id="aK" d="M132.4 264.8v22.1h-22.1v-22.1h22.1z"/>
    <path id="aK_1_" class="st0" d="M132.4 264.8v22.1h-22.1v-22.1h22.1z"/>
    <path id="aL" d="M132.4 441.4v22.1h-22.1v-22.1h22.1z"/>
    <path id="aL_1_" class="st0" d="M132.4 441.4v22.1h-22.1v-22.1h22.1z"/>
    <path id="aM" d="M132.4 485.5v22.1h-22.1v-22.1h22.1z"/>
    <path id="aM_1_" class="st0" d="M132.4 485.5v22.1h-22.1v-22.1h22.1z"/>
    <path id="aN" d="M132.4 617.9V640h-22.1v-22.1h22.1z"/>
    <path id="aN_1_" class="st0" d="M132.4 617.9V640h-22.1v-22.1h22.1z"/>
    <path id="aO" d="M154.5 0v22.1h-22.1V0h22.1z"/>
    <path id="aO_1_" class="st0" d="M154.5 0v22.1h-22.1V0h22.1z"/>
    <path id="aP" d="M154.5 22.1v22.1h-22.1V22.1h22.1z"/>
    <path id="aP_1_" class="st0" d="M154.5 22.1v22.1h-22.1V22.1h22.1z"/>
    <path id="aQ" d="M154.5 44.1v22.1h-22.1V44.1h22.1z"/>
    <path id="aQ_1_" class="st0" d="M154.5 44.1v22.1h-22.1V44.1h22.1z"/>
    <path id="aR" d="M154.5 66.2v22.1h-22.1V66.2h22.1z"/>
    <path id="aR_1_" class="st0" d="M154.5 66.2v22.1h-22.1V66.2h22.1z"/>
    <path id="aS" d="M154.5 88.3v22.1h-22.1V88.3h22.1z"/>
    <path id="aS_1_" class="st0" d="M154.5 88.3v22.1h-22.1V88.3h22.1z"/>
    <path id="aT" d="M154.5 110.3v22.1h-22.1v-22.1h22.1z"/>
    <path id="aT_1_" class="st0" d="M154.5 110.3v22.1h-22.1v-22.1h22.1z"/>
    <path id="aU" d="M154.5 132.4v22.1h-22.1v-22.1h22.1z"/>
    <path id="aU_1_" class="st0" d="M154.5 132.4v22.1h-22.1v-22.1h22.1z"/>
    <path id="aV" d="M154.5 176.6v22.1h-22.1v-22.1h22.1z"/>
    <path id="aV_1_" class="st0" d="M154.5 176.6v22.1h-22.1v-22.1h22.1z"/>
    <path id="aW" d="M154.5 220.7v22.1h-22.1v-22.1h22.1z"/>
    <path id="aW_1_" class="st0" d="M154.5 220.7v22.1h-22.1v-22.1h22.1z"/>
    <path id="aX" d="M154.5 264.8v22.1h-22.1v-22.1h22.1z"/>
    <path id="aX_1_" class="st0" d="M154.5 264.8v22.1h-22.1v-22.1h22.1z"/>
    <path id="aY" d="M154.5 309v22h-22.1v-22h22.1z"/>
    <path id="aY_1_" class="st0" d="M154.5 309v22h-22.1v-22h22.1z"/>
    <path id="aZ" d="M154.5 353.1v22.1h-22.1v-22.1h22.1z"/>
    <path id="aZ_1_" class="st0" d="M154.5 353.1v22.1h-22.1v-22.1h22.1z"/>
    <path id="ba" d="M154.5 397.2v22.1h-22.1v-22.1h22.1z"/>
    <path id="ba_1_" class="st0" d="M154.5 397.2v22.1h-22.1v-22.1h22.1z"/>
    <path id="bb" d="M154.5 441.4v22.1h-22.1v-22.1h22.1z"/>
    <path id="bb_1_" class="st0" d="M154.5 441.4v22.1h-22.1v-22.1h22.1z"/>
    <path id="bc" d="M154.5 485.5v22.1h-22.1v-22.1h22.1z"/>
    <path id="bc_1_" class="st0" d="M154.5 485.5v22.1h-22.1v-22.1h22.1z"/>
    <path id="bd" d="M154.5 507.6v22.1h-22.1v-22.1h22.1z"/>
    <path id="bd_1_" class="st0" d="M154.5 507.6v22.1h-22.1v-22.1h22.1z"/>
    <path id="be" d="M154.5 529.7v22.1h-22.1v-22.1h22.1z"/>
    <path id="be_1_" class="st0" d="M154.5 529.7v22.1h-22.1v-22.1h22.1z"/>
    <path id="bf" d="M154.5 551.7v22.1h-22.1v-22.1h22.1z"/>
    <path id="bf_1_" class="st0" d="M154.5 551.7v22.1h-22.1v-22.1h22.1z"/>
    <path id="bg" d="M154.5 573.8v22.1h-22.1v-22.1h22.1z"/>
    <path id="bg_1_" class="st0" d="M154.5 573.8v22.1h-22.1v-22.1h22.1z"/>
    <path id="bh" d="M154.5 595.9V618h-22.1v-22.1h22.1z"/>
    <path id="bh_1_" class="st0" d="M154.5 595.9V618h-22.1v-22.1h22.1z"/>
    <path id="bi" d="M154.5 617.9V640h-22.1v-22.1h22.1z"/>
    <path id="bi_1_" class="st0" d="M154.5 617.9V640h-22.1v-22.1h22.1z"/>
    <path id="bj" d="M176.6 198.6v22.1h-22.1v-22.1h22.1z"/>
    <path id="bj_1_" class="st0" d="M176.6 198.6v22.1h-22.1v-22.1h22.1z"/>
    <path id="bk" d="M176.6 309v22h-22.1v-22h22.1z"/>
    <path id="bk_1_" class="st0" d="M176.6 309v22h-22.1v-22h22.1z"/>
    <path id="bl" d="M176.6 331v22.1h-22.1V331h22.1z"/>
    <path id="bl_1_" class="st0" d="M176.6 331v22.1h-22.1V331h22.1z"/>
    <path id="bm" d="M176.6 441.4v22.1h-22.1v-22.1h22.1z"/>
    <path id="bm_1_" class="st0" d="M176.6 441.4v22.1h-22.1v-22.1h22.1z"/>
    <path id="bn" d="M198.6 0v22.1h-22.1V0h22.1z"/>
    <path id="bn_1_" class="st0" d="M198.6 0v22.1h-22.1V0h22.1z"/>
    <path id="bo" d="M198.6 44.1v22.1h-22.1V44.1h22.1z"/>
    <path id="bo_1_" class="st0" d="M198.6 44.1v22.1h-22.1V44.1h22.1z"/>
    <path id="bp" d="M198.6 66.2v22.1h-22.1V66.2h22.1z"/>
    <path id="bp_1_" class="st0" d="M198.6 66.2v22.1h-22.1V66.2h22.1z"/>
    <path id="bq" d="M198.6 88.3v22.1h-22.1V88.3h22.1z"/>
    <path id="bq_1_" class="st0" d="M198.6 88.3v22.1h-22.1V88.3h22.1z"/>
    <path id="br" d="M198.6 132.4v22.1h-22.1v-22.1h22.1z"/>
    <path id="br_1_" class="st0" d="M198.6 132.4v22.1h-22.1v-22.1h22.1z"/>
    <path id="bs" d="M198.6 176.6v22.1h-22.1v-22.1h22.1z"/>
    <path id="bs_1_" class="st0" d="M198.6 176.6v22.1h-22.1v-22.1h22.1z"/>
    <path id="bt" d="M198.6 220.7v22.1h-22.1v-22.1h22.1z"/>
    <path id="bt_1_" class="st0" d="M198.6 220.7v22.1h-22.1v-22.1h22.1z"/>
    <path id="bu" d="M198.6 242.8v22.1h-22.1v-22.1h22.1z"/>
    <path id="bu_1_" class="st0" d="M198.6 242.8v22.1h-22.1v-22.1h22.1z"/>
    <path id="bv" d="M198.6 286.9V309h-22.1v-22.1h22.1z"/>
    <path id="bv_1_" class="st0" d="M198.6 286.9V309h-22.1v-22.1h22.1z"/>
    <path id="bw" d="M198.6 397.2v22.1h-22.1v-22.1h22.1z"/>
    <path id="bw_1_" class="st0" d="M198.6 397.2v22.1h-22.1v-22.1h22.1z"/>
    <path id="bx" d="M198.6 419.3v22.1h-22.1v-22.1h22.1z"/>
    <path id="bx_1_" class="st0" d="M198.6 419.3v22.1h-22.1v-22.1h22.1z"/>
    <path id="by" d="M198.6 463.5v22.1h-22.1v-22.1h22.1z"/>
    <path id="by_1_" class="st0" d="M198.6 463.5v22.1h-22.1v-22.1h22.1z"/>
    <path id="bz" d="M198.6 551.7v22.1h-22.1v-22.1h22.1z"/>
    <path id="bz_1_" class="st0" d="M198.6 551.7v22.1h-22.1v-22.1h22.1z"/>
    <path id="bA" d="M198.6 573.8v22.1h-22.1v-22.1h22.1z"/>
    <path id="bA_1_" class="st0" d="M198.6 573.8v22.1h-22.1v-22.1h22.1z"/>
    <path id="bB" d="M198.6 595.9V618h-22.1v-22.1h22.1z"/>
    <path id="bB_1_" class="st0" d="M198.6 595.9V618h-22.1v-22.1h22.1z"/>
    <path id="bC" d="M198.6 617.9V640h-22.1v-22.1h22.1z"/>
    <path id="bC_1_" class="st0" d="M198.6 617.9V640h-22.1v-22.1h22.1z"/>
    <path id="bD" d="M220.7 0v22.1h-22.1V0h22.1z"/>
    <path id="bD_1_" class="st0" d="M220.7 0v22.1h-22.1V0h22.1z"/>
    <path id="bE" d="M220.7 66.2v22.1h-22.1V66.2h22.1z"/>
    <path id="bE_1_" class="st0" d="M220.7 66.2v22.1h-22.1V66.2h22.1z"/>
    <path id="bF" d="M220.7 88.3v22.1h-22.1V88.3h22.1z"/>
    <path id="bF_1_" class="st0" d="M220.7 88.3v22.1h-22.1V88.3h22.1z"/>
    <path id="bG" d="M220.7 110.3v22.1h-22.1v-22.1h22.1z"/>
    <path id="bG_1_" class="st0" d="M220.7 110.3v22.1h-22.1v-22.1h22.1z"/>
    <path id="bH" d="M220.7 154.5v22.1h-22.1v-22.1h22.1z"/>
    <path id="bH_1_" class="st0" d="M220.7 154.5v22.1h-22.1v-22.1h22.1z"/>
    <path id="bI" d="M220.7 198.6v22.1h-22.1v-22.1h22.1z"/>
    <path id="bI_1_" class="st0" d="M220.7 198.6v22.1h-22.1v-22.1h22.1z"/>
    <path id="bJ" d="M220.7 264.8v22.1h-22.1v-22.1h22.1z"/>
    <path id="bJ_1_" class="st0" d="M220.7 264.8v22.1h-22.1v-22.1h22.1z"/>
    <path id="bK" d="M220.7 309v22h-22.1v-22h22.1z"/>
    <path id="bK_1_" class="st0" d="M220.7 309v22h-22.1v-22h22.1z"/>
    <path id="bL" d="M220.7 331v22.1h-22.1V331h22.1z"/>
    <path id="bL_1_" class="st0" d="M220.7 331v22.1h-22.1V331h22.1z"/>
    <path id="bM" d="M220.7 353.1v22.1h-22.1v-22.1h22.1z"/>
    <path id="bM_1_" class="st0" d="M220.7 353.1v22.1h-22.1v-22.1h22.1z"/>
    <path id="bN" d="M220.7 375.2v22.1h-22.1v-22.1h22.1z"/>
    <path id="bN_1_" class="st0" d="M220.7 375.2v22.1h-22.1v-22.1h22.1z"/>
    <path id="bO" d="M220.7 397.2v22.1h-22.1v-22.1h22.1z"/>
    <path id="bO_1_" class="st0" d="M220.7 397.2v22.1h-22.1v-22.1h22.1z"/>
    <path id="bP" d="M220.7 419.3v22.1h-22.1v-22.1h22.1z"/>
    <path id="bP_1_" class="st0" d="M220.7 419.3v22.1h-22.1v-22.1h22.1z"/>
    <path id="bQ" d="M220.7 441.4v22.1h-22.1v-22.1h22.1z"/>
    <path id="bQ_1_" class="st0" d="M220.7 441.4v22.1h-22.1v-22.1h22.1z"/>
    <path id="bR" d="M220.7 485.5v22.1h-22.1v-22.1h22.1z"/>
    <path id="bR_1_" class="st0" d="M220.7 485.5v22.1h-22.1v-22.1h22.1z"/>
    <path id="bS" d="M220.7 551.7v22.1h-22.1v-22.1h22.1z"/>
    <path id="bS_1_" class="st0" d="M220.7 551.7v22.1h-22.1v-22.1h22.1z"/>
    <path id="bT" d="M242.8 88.3v22.1h-22.1V88.3h22.1z"/>
    <path id="bT_1_" class="st0" d="M242.8 88.3v22.1h-22.1V88.3h22.1z"/>
    <path id="bU" d="M242.8 132.4v22.1h-22.1v-22.1h22.1z"/>
    <path id="bU_1_" class="st0" d="M242.8 132.4v22.1h-22.1v-22.1h22.1z"/>
    <path id="bV" d="M242.8 286.9V309h-22.1v-22.1h22.1z"/>
    <path id="bV_1_" class="st0" d="M242.8 286.9V309h-22.1v-22.1h22.1z"/>
    <path id="bW" d="M242.8 353.1v22.1h-22.1v-22.1h22.1z"/>
    <path id="bW_1_" class="st0" d="M242.8 353.1v22.1h-22.1v-22.1h22.1z"/>
    <path id="bX" d="M242.8 441.4v22.1h-22.1v-22.1h22.1z"/>
    <path id="bX_1_" class="st0" d="M242.8 441.4v22.1h-22.1v-22.1h22.1z"/>
    <path id="bY" d="M242.8 463.5v22.1h-22.1v-22.1h22.1z"/>
    <path id="bY_1_" class="st0" d="M242.8 463.5v22.1h-22.1v-22.1h22.1z"/>
    <path id="bZ" d="M242.8 551.7v22.1h-22.1v-22.1h22.1z"/>
    <path id="bZ_1_" class="st0" d="M242.8 551.7v22.1h-22.1v-22.1h22.1z"/>
    <path id="ca" d="M242.8 617.9V640h-22.1v-22.1h22.1z"/>
    <path id="ca_1_" class="st0" d="M242.8 617.9V640h-22.1v-22.1h22.1z"/>
    <path id="cb" d="M264.8 44.1v22.1h-22.1V44.1h22.1z"/>
    <path id="cb_1_" class="st0" d="M264.8 44.1v22.1h-22.1V44.1h22.1z"/>
    <path id="cc" d="M264.8 66.2v22.1h-22.1V66.2h22.1z"/>
    <path id="cc_1_" class="st0" d="M264.8 66.2v22.1h-22.1V66.2h22.1z"/>
    <path id="cd" d="M264.8 88.3v22.1h-22.1V88.3h22.1z"/>
    <path id="cd_1_" class="st0" d="M264.8 88.3v22.1h-22.1V88.3h22.1z"/>
    <path id="ce" d="M264.8 154.5v22.1h-22.1v-22.1h22.1z"/>
    <path id="ce_1_" class="st0" d="M264.8 154.5v22.1h-22.1v-22.1h22.1z"/>
    <path id="cf" d="M264.8 176.6v22.1h-22.1v-22.1h22.1z"/>
    <path id="cf_1_" class="st0" d="M264.8 176.6v22.1h-22.1v-22.1h22.1z"/>
    <path id="cg" d="M264.8 198.6v22.1h-22.1v-22.1h22.1z"/>
    <path id="cg_1_" class="st0" d="M264.8 198.6v22.1h-22.1v-22.1h22.1z"/>
    <path id="ch" d="M264.8 220.7v22.1h-22.1v-22.1h22.1z"/>
    <path id="ch_1_" class="st0" d="M264.8 220.7v22.1h-22.1v-22.1h22.1z"/>
    <path id="ci" d="M264.8 264.8v22.1h-22.1v-22.1h22.1z"/>
    <path id="ci_1_" class="st0" d="M264.8 264.8v22.1h-22.1v-22.1h22.1z"/>
    <path id="cj" d="M264.8 353.1v22.1h-22.1v-22.1h22.1z"/>
    <path id="cj_1_" class="st0" d="M264.8 353.1v22.1h-22.1v-22.1h22.1z"/>
    <path id="ck" d="M264.8 375.2v22.1h-22.1v-22.1h22.1z"/>
    <path id="ck_1_" class="st0" d="M264.8 375.2v22.1h-22.1v-22.1h22.1z"/>
    <path id="cl" d="M264.8 419.3v22.1h-22.1v-22.1h22.1z"/>
    <path id="cl_1_" class="st0" d="M264.8 419.3v22.1h-22.1v-22.1h22.1z"/>
    <path id="cm" d="M264.8 441.4v22.1h-22.1v-22.1h22.1z"/>
    <path id="cm_1_" class="st0" d="M264.8 441.4v22.1h-22.1v-22.1h22.1z"/>
    <path id="cn" d="M264.8 463.5v22.1h-22.1v-22.1h22.1z"/>
    <path id="cn_1_" class="st0" d="M264.8 463.5v22.1h-22.1v-22.1h22.1z"/>
    <path id="co" d="M264.8 485.5v22.1h-22.1v-22.1h22.1z"/>
    <path id="co_1_" class="st0" d="M264.8 485.5v22.1h-22.1v-22.1h22.1z"/>
    <path id="cp" d="M264.8 507.6v22.1h-22.1v-22.1h22.1z"/>
    <path id="cp_1_" class="st0" d="M264.8 507.6v22.1h-22.1v-22.1h22.1z"/>
    <path id="cq" d="M264.8 529.7v22.1h-22.1v-22.1h22.1z"/>
    <path id="cq_1_" class="st0" d="M264.8 529.7v22.1h-22.1v-22.1h22.1z"/>
    <path id="cr" d="M264.8 595.9V618h-22.1v-22.1h22.1z"/>
    <path id="cr_1_" class="st0" d="M264.8 595.9V618h-22.1v-22.1h22.1z"/>
    <path id="cs" d="M286.9 44.1v22.1h-22.1V44.1h22.1z"/>
    <path id="cs_1_" class="st0" d="M286.9 44.1v22.1h-22.1V44.1h22.1z"/>
    <path id="ct" d="M286.9 66.2v22.1h-22.1V66.2h22.1z"/>
    <path id="ct_1_" class="st0" d="M286.9 66.2v22.1h-22.1V66.2h22.1z"/>
    <path id="cu" d="M286.9 132.4v22.1h-22.1v-22.1h22.1z"/>
    <path id="cu_1_" class="st0" d="M286.9 132.4v22.1h-22.1v-22.1h22.1z"/>
    <path id="cv" d="M286.9 154.5v22.1h-22.1v-22.1h22.1z"/>
    <path id="cv_1_" class="st0" d="M286.9 154.5v22.1h-22.1v-22.1h22.1z"/>
    <path id="cw" d="M286.9 220.7v22.1h-22.1v-22.1h22.1z"/>
    <path id="cw_1_" class="st0" d="M286.9 220.7v22.1h-22.1v-22.1h22.1z"/>
    <path id="cx" d="M286.9 242.8v22.1h-22.1v-22.1h22.1z"/>
    <path id="cx_1_" class="st0" d="M286.9 242.8v22.1h-22.1v-22.1h22.1z"/>
    <path id="cy" d="M286.9 264.8v22.1h-22.1v-22.1h22.1z"/>
    <path id="cy_1_" class="st0" d="M286.9 264.8v22.1h-22.1v-22.1h22.1z"/>
    <path id="cz" d="M286.9 286.9V309h-22.1v-22.1h22.1z"/>
    <path id="cz_1_" class="st0" d="M286.9 286.9V309h-22.1v-22.1h22.1z"/>
    <path id="cA" d="M286.9 353.1v22.1h-22.1v-22.1h22.1z"/>
    <path id="cA_1_" class="st0" d="M286.9 353.1v22.1h-22.1v-22.1h22.1z"/>
    <path id="cB" d="M286.9 375.2v22.1h-22.1v-22.1h22.1z"/>
    <path id="cB_1_" class="st0" d="M286.9 375.2v22.1h-22.1v-22.1h22.1z"/>
    <path id="cC" d="M286.9 397.2v22.1h-22.1v-22.1h22.1z"/>
    <path id="cC_1_" class="st0" d="M286.9 397.2v22.1h-22.1v-22.1h22.1z"/>
    <path id="cD" d="M286.9 507.6v22.1h-22.1v-22.1h22.1z"/>
    <path id="cD_1_" class="st0" d="M286.9 507.6v22.1h-22.1v-22.1h22.1z"/>
    <path id="cE" d="M286.9 529.7v22.1h-22.1v-22.1h22.1z"/>
    <path id="cE_1_" class="st0" d="M286.9 529.7v22.1h-22.1v-22.1h22.1z"/>
    <path id="cF" d="M286.9 573.8v22.1h-22.1v-22.1h22.1z"/>
    <path id="cF_1_" class="st0" d="M286.9 573.8v22.1h-22.1v-22.1h22.1z"/>
    <path id="cG" d="M309 0v22.1h-22.1V0H309z"/>
    <path id="cG_1_" class="st0" d="M309 0v22.1h-22.1V0H309z"/>
    <path id="cH" d="M309 44.1v22.1h-22.1V44.1H309z"/>
    <path id="cH_1_" class="st0" d="M309 44.1v22.1h-22.1V44.1H309z"/>
    <path id="cI" d="M309 66.2v22.1h-22.1V66.2H309z"/>
    <path id="cI_1_" class="st0" d="M309 66.2v22.1h-22.1V66.2H309z"/>
    <path id="cJ" d="M309 88.3v22.1h-22.1V88.3H309z"/>
    <path id="cJ_1_" class="st0" d="M309 88.3v22.1h-22.1V88.3H309z"/>
    <path id="cK" d="M309 198.6v22.1h-22.1v-22.1H309z"/>
    <path id="cK_1_" class="st0" d="M309 198.6v22.1h-22.1v-22.1H309z"/>
    <path id="cL" d="M309 220.7v22.1h-22.1v-22.1H309z"/>
    <path id="cL_1_" class="st0" d="M309 220.7v22.1h-22.1v-22.1H309z"/>
    <path id="cM" d="M309 242.8v22.1h-22.1v-22.1H309z"/>
    <path id="cM_1_" class="st0" d="M309 242.8v22.1h-22.1v-22.1H309z"/>
    <path id="cN" d="M309 264.8v22.1h-22.1v-22.1H309z"/>
    <path id="cN_1_" class="st0" d="M309 264.8v22.1h-22.1v-22.1H309z"/>
    <path id="cO" d="M309 353.1v22.1h-22.1v-22.1H309z"/>
    <path id="cO_1_" class="st0" d="M309 353.1v22.1h-22.1v-22.1H309z"/>
    <path id="cP" d="M309 397.2v22.1h-22.1v-22.1H309z"/>
    <path id="cP_1_" class="st0" d="M309 397.2v22.1h-22.1v-22.1H309z"/>
    <path id="cQ" d="M309 463.5v22.1h-22.1v-22.1H309z"/>
    <path id="cQ_1_" class="st0" d="M309 463.5v22.1h-22.1v-22.1H309z"/>
    <path id="cR" d="M309 507.6v22.1h-22.1v-22.1H309z"/>
    <path id="cR_1_" class="st0" d="M309 507.6v22.1h-22.1v-22.1H309z"/>
    <path id="cS" d="M309 529.7v22.1h-22.1v-22.1H309z"/>
    <path id="cS_1_" class="st0" d="M309 529.7v22.1h-22.1v-22.1H309z"/>
    <path id="cT" d="M309 551.7v22.1h-22.1v-22.1H309z"/>
    <path id="cT_1_" class="st0" d="M309 551.7v22.1h-22.1v-22.1H309z"/>
    <path id="cU" d="M309 573.8v22.1h-22.1v-22.1H309z"/>
    <path id="cU_1_" class="st0" d="M309 573.8v22.1h-22.1v-22.1H309z"/>
    <path id="cV" d="M309 617.9V640h-22.1v-22.1H309z"/>
    <path id="cV_1_" class="st0" d="M309 617.9V640h-22.1v-22.1H309z"/>
    <path id="cW" d="M331 22.1v22.1h-22V22.1h22z"/>
    <path id="cW_1_" class="st0" d="M331 22.1v22.1h-22V22.1h22z"/>
    <path id="cX" d="M331 44.1v22.1h-22V44.1h22z"/>
    <path id="cX_1_" class="st0" d="M331 44.1v22.1h-22V44.1h22z"/>
    <path id="cY" d="M331 66.2v22.1h-22V66.2h22z"/>
    <path id="cY_1_" class="st0" d="M331 66.2v22.1h-22V66.2h22z"/>
    <path id="cZ" d="M331 88.3v22.1h-22V88.3h22z"/>
    <path id="cZ_1_" class="st0" d="M331 88.3v22.1h-22V88.3h22z"/>
    <path id="da" d="M331 110.3v22.1h-22v-22.1h22z"/>
    <path id="da_1_" class="st0" d="M331 110.3v22.1h-22v-22.1h22z"/>
    <path id="db" d="M331 132.4v22.1h-22v-22.1h22z"/>
    <path id="db_1_" class="st0" d="M331 132.4v22.1h-22v-22.1h22z"/>
    <path id="dc" d="M331 242.8v22.1h-22v-22.1h22z"/>
    <path id="dc_1_" class="st0" d="M331 242.8v22.1h-22v-22.1h22z"/>
    <path id="dd" d="M331 264.8v22.1h-22v-22.1h22z"/>
    <path id="dd_1_" class="st0" d="M331 264.8v22.1h-22v-22.1h22z"/>
    <path id="de" d="M331 286.9V309h-22v-22.1h22z"/>
    <path id="de_1_" class="st0" d="M331 286.9V309h-22v-22.1h22z"/>
    <path id="df" d="M331 309v22h-22v-22h22z"/>
    <path id="df_1_" class="st0" d="M331 309v22h-22v-22h22z"/>
    <path id="dg" d="M331 397.2v22.1h-22v-22.1h22z"/>
    <path id="dg_1_" class="st0" d="M331 397.2v22.1h-22v-22.1h22z"/>
    <path id="dh" d="M331 441.4v22.1h-22v-22.1h22z"/>
    <path id="dh_1_" class="st0" d="M331 441.4v22.1h-22v-22.1h22z"/>
    <path id="di" d="M331 529.7v22.1h-22v-22.1h22z"/>
    <path id="di_1_" class="st0" d="M331 529.7v22.1h-22v-22.1h22z"/>
    <path id="dj" d="M331 551.7v22.1h-22v-22.1h22z"/>
    <path id="dj_1_" class="st0" d="M331 551.7v22.1h-22v-22.1h22z"/>
    <path id="dk" d="M331 595.9V618h-22v-22.1h22z"/>
    <path id="dk_1_" class="st0" d="M331 595.9V618h-22v-22.1h22z"/>
    <path id="dl" d="M353.1 88.3v22.1H331V88.3h22.1z"/>
    <path id="dl_1_" class="st0" d="M353.1 88.3v22.1H331V88.3h22.1z"/>
    <path id="dm" d="M353.1 154.5v22.1H331v-22.1h22.1z"/>
    <path id="dm_1_" class="st0" d="M353.1 154.5v22.1H331v-22.1h22.1z"/>
    <path id="dn" d="M353.1 176.6v22.1H331v-22.1h22.1z"/>
    <path id="dn_1_" class="st0" d="M353.1 176.6v22.1H331v-22.1h22.1z"/>
    <path id="do" d="M353.1 242.8v22.1H331v-22.1h22.1z"/>
    <path id="do_1_" class="st0" d="M353.1 242.8v22.1H331v-22.1h22.1z"/>
    <path id="dp" d="M353.1 264.8v22.1H331v-22.1h22.1z"/>
    <path id="dp_1_" class="st0" d="M353.1 264.8v22.1H331v-22.1h22.1z"/>
    <path id="dq" d="M353.1 286.9V309H331v-22.1h22.1z"/>
    <path id="dq_1_" class="st0" d="M353.1 286.9V309H331v-22.1h22.1z"/>
    <path id="dr" d="M353.1 353.1v22.1H331v-22.1h22.1z"/>
    <path id="dr_1_" class="st0" d="M353.1 353.1v22.1H331v-22.1h22.1z"/>
    <path id="ds" d="M353.1 375.2v22.1H331v-22.1h22.1z"/>
    <path id="ds_1_" class="st0" d="M353.1 375.2v22.1H331v-22.1h22.1z"/>
    <path id="dt" d="M353.1 397.2v22.1H331v-22.1h22.1z"/>
    <path id="dt_1_" class="st0" d="M353.1 397.2v22.1H331v-22.1h22.1z"/>
    <path id="du" d="M353.1 419.3v22.1H331v-22.1h22.1z"/>
    <path id="du_1_" class="st0" d="M353.1 419.3v22.1H331v-22.1h22.1z"/>
    <path id="dv" d="M353.1 441.4v22.1H331v-22.1h22.1z"/>
    <path id="dv_1_" class="st0" d="M353.1 441.4v22.1H331v-22.1h22.1z"/>
    <path id="dw" d="M353.1 551.7v22.1H331v-22.1h22.1z"/>
    <path id="dw_1_" class="st0" d="M353.1 551.7v22.1H331v-22.1h22.1z"/>
    <path id="dx" d="M353.1 617.9V640H331v-22.1h22.1z"/>
    <path id="dx_1_" class="st0" d="M353.1 617.9V640H331v-22.1h22.1z"/>
    <path id="dy" d="M375.2 0v22.1h-22.1V0h22.1z"/>
    <path id="dy_1_" class="st0" d="M375.2 0v22.1h-22.1V0h22.1z"/>
    <path id="dz" d="M375.2 88.3v22.1h-22.1V88.3h22.1z"/>
    <path id="dz_1_" class="st0" d="M375.2 88.3v22.1h-22.1V88.3h22.1z"/>
    <path id="dA" d="M375.2 132.4v22.1h-22.1v-22.1h22.1z"/>
    <path id="dA_1_" class="st0" d="M375.2 132.4v22.1h-22.1v-22.1h22.1z"/>
    <path id="dB" d="M375.2 154.5v22.1h-22.1v-22.1h22.1z"/>
    <path id="dB_1_" class="st0" d="M375.2 154.5v22.1h-22.1v-22.1h22.1z"/>
    <path id="dC" d="M375.2 176.6v22.1h-22.1v-22.1h22.1z"/>
    <path id="dC_1_" class="st0" d="M375.2 176.6v22.1h-22.1v-22.1h22.1z"/>
    <path id="dD" d="M375.2 198.6v22.1h-22.1v-22.1h22.1z"/>
    <path id="dD_1_" class="st0" d="M375.2 198.6v22.1h-22.1v-22.1h22.1z"/>
    <path id="dE" d="M375.2 286.9V309h-22.1v-22.1h22.1z"/>
    <path id="dE_1_" class="st0" d="M375.2 286.9V309h-22.1v-22.1h22.1z"/>
    <path id="dF" d="M375.2 331v22.1h-22.1V331h22.1z"/>
    <path id="dF_1_" class="st0" d="M375.2 331v22.1h-22.1V331h22.1z"/>
    <path id="dG" d="M375.2 375.2v22.1h-22.1v-22.1h22.1z"/>
    <path id="dG_1_" class="st0" d="M375.2 375.2v22.1h-22.1v-22.1h22.1z"/>
    <path id="dH" d="M375.2 397.2v22.1h-22.1v-22.1h22.1z"/>
    <path id="dH_1_" class="st0" d="M375.2 397.2v22.1h-22.1v-22.1h22.1z"/>
    <path id="dI" d="M375.2 419.3v22.1h-22.1v-22.1h22.1z"/>
    <path id="dI_1_" class="st0" d="M375.2 419.3v22.1h-22.1v-22.1h22.1z"/>
    <path id="dJ" d="M375.2 441.4v22.1h-22.1v-22.1h22.1z"/>
    <path id="dJ_1_" class="st0" d="M375.2 441.4v22.1h-22.1v-22.1h22.1z"/>
    <path id="dK" d="M375.2 463.5v22.1h-22.1v-22.1h22.1z"/>
    <path id="dK_1_" class="st0" d="M375.2 463.5v22.1h-22.1v-22.1h22.1z"/>
    <path id="dL" d="M375.2 485.5v22.1h-22.1v-22.1h22.1z"/>
    <path id="dL_1_" class="st0" d="M375.2 485.5v22.1h-22.1v-22.1h22.1z"/>
    <path id="dM" d="M375.2 507.6v22.1h-22.1v-22.1h22.1z"/>
    <path id="dM_1_" class="st0" d="M375.2 507.6v22.1h-22.1v-22.1h22.1z"/>
    <path id="dN" d="M375.2 551.7v22.1h-22.1v-22.1h22.1z"/>
    <path id="dN_1_" class="st0" d="M375.2 551.7v22.1h-22.1v-22.1h22.1z"/>
    <path id="dO" d="M375.2 573.8v22.1h-22.1v-22.1h22.1z"/>
    <path id="dO_1_" class="st0" d="M375.2 573.8v22.1h-22.1v-22.1h22.1z"/>
    <path id="dP" d="M375.2 595.9V618h-22.1v-22.1h22.1z"/>
    <path id="dP_1_" class="st0" d="M375.2 595.9V618h-22.1v-22.1h22.1z"/>
    <path id="dQ" d="M397.2 0v22.1h-22.1V0h22.1z"/>
    <path id="dQ_1_" class="st0" d="M397.2 0v22.1h-22.1V0h22.1z"/>
    <path id="dR" d="M397.2 66.2v22.1h-22.1V66.2h22.1z"/>
    <path id="dR_1_" class="st0" d="M397.2 66.2v22.1h-22.1V66.2h22.1z"/>
    <path id="dS" d="M397.2 88.3v22.1h-22.1V88.3h22.1z"/>
    <path id="dS_1_" class="st0" d="M397.2 88.3v22.1h-22.1V88.3h22.1z"/>
    <path id="dT" d="M397.2 110.3v22.1h-22.1v-22.1h22.1z"/>
    <path id="dT_1_" class="st0" d="M397.2 110.3v22.1h-22.1v-22.1h22.1z"/>
    <path id="dU" d="M397.2 154.5v22.1h-22.1v-22.1h22.1z"/>
    <path id="dU_1_" class="st0" d="M397.2 154.5v22.1h-22.1v-22.1h22.1z"/>
    <path id="dV" d="M397.2 176.6v22.1h-22.1v-22.1h22.1z"/>
    <path id="dV_1_" class="st0" d="M397.2 176.6v22.1h-22.1v-22.1h22.1z"/>
    <path id="dW" d="M397.2 198.6v22.1h-22.1v-22.1h22.1z"/>
    <path id="dW_1_" class="st0" d="M397.2 198.6v22.1h-22.1v-22.1h22.1z"/>
    <path id="dX" d="M397.2 220.7v22.1h-22.1v-22.1h22.1z"/>
    <path id="dX_1_" class="st0" d="M397.2 220.7v22.1h-22.1v-22.1h22.1z"/>
    <path id="dY" d="M397.2 264.8v22.1h-22.1v-22.1h22.1z"/>
    <path id="dY_1_" class="st0" d="M397.2 264.8v22.1h-22.1v-22.1h22.1z"/>
    <path id="dZ" d="M397.2 286.9V309h-22.1v-22.1h22.1z"/>
    <path id="dZ_1_" class="st0" d="M397.2 286.9V309h-22.1v-22.1h22.1z"/>
    <path id="ea" d="M397.2 375.2v22.1h-22.1v-22.1h22.1z"/>
    <path id="ea_1_" class="st0" d="M397.2 375.2v22.1h-22.1v-22.1h22.1z"/>
    <path id="eb" d="M397.2 419.3v22.1h-22.1v-22.1h22.1z"/>
    <path id="eb_1_" class="st0" d="M397.2 419.3v22.1h-22.1v-22.1h22.1z"/>
    <path id="ec" d="M397.2 441.4v22.1h-22.1v-22.1h22.1z"/>
    <path id="ec_1_" class="st0" d="M397.2 441.4v22.1h-22.1v-22.1h22.1z"/>
    <path id="ed" d="M397.2 485.5v22.1h-22.1v-22.1h22.1z"/>
    <path id="ed_1_" class="st0" d="M397.2 485.5v22.1h-22.1v-22.1h22.1z"/>
    <path id="ee" d="M397.2 529.7v22.1h-22.1v-22.1h22.1z"/>
    <path id="ee_1_" class="st0" d="M397.2 529.7v22.1h-22.1v-22.1h22.1z"/>
    <path id="ef" d="M397.2 551.7v22.1h-22.1v-22.1h22.1z"/>
    <path id="ef_1_" class="st0" d="M397.2 551.7v22.1h-22.1v-22.1h22.1z"/>
    <path id="eg" d="M397.2 573.8v22.1h-22.1v-22.1h22.1z"/>
    <path id="eg_1_" class="st0" d="M397.2 573.8v22.1h-22.1v-22.1h22.1z"/>
    <path id="eh" d="M419.3 0v22.1h-22.1V0h22.1z"/>
    <path id="eh_1_" class="st0" d="M419.3 0v22.1h-22.1V0h22.1z"/>
    <path id="ei" d="M419.3 22.1v22.1h-22.1V22.1h22.1z"/>
    <path id="ei_1_" class="st0" d="M419.3 22.1v22.1h-22.1V22.1h22.1z"/>
    <path id="ej" d="M419.3 110.3v22.1h-22.1v-22.1h22.1z"/>
    <path id="ej_1_" class="st0" d="M419.3 110.3v22.1h-22.1v-22.1h22.1z"/>
    <path id="ek" d="M419.3 132.4v22.1h-22.1v-22.1h22.1z"/>
    <path id="ek_1_" class="st0" d="M419.3 132.4v22.1h-22.1v-22.1h22.1z"/>
    <path id="el" d="M419.3 154.5v22.1h-22.1v-22.1h22.1z"/>
    <path id="el_1_" class="st0" d="M419.3 154.5v22.1h-22.1v-22.1h22.1z"/>
    <path id="em" d="M419.3 176.6v22.1h-22.1v-22.1h22.1z"/>
    <path id="em_1_" class="st0" d="M419.3 176.6v22.1h-22.1v-22.1h22.1z"/>
    <path id="en" d="M419.3 198.6v22.1h-22.1v-22.1h22.1z"/>
    <path id="en_1_" class="st0" d="M419.3 198.6v22.1h-22.1v-22.1h22.1z"/>
    <path id="eo" d="M419.3 242.8v22.1h-22.1v-22.1h22.1z"/>
    <path id="eo_1_" class="st0" d="M419.3 242.8v22.1h-22.1v-22.1h22.1z"/>
    <path id="ep" d="M419.3 286.9V309h-22.1v-22.1h22.1z"/>
    <path id="ep_1_" class="st0" d="M419.3 286.9V309h-22.1v-22.1h22.1z"/>
    <path id="eq" d="M419.3 309v22h-22.1v-22h22.1z"/>
    <path id="eq_1_" class="st0" d="M419.3 309v22h-22.1v-22h22.1z"/>
    <path id="er" d="M419.3 331v22.1h-22.1V331h22.1z"/>
    <path id="er_1_" class="st0" d="M419.3 331v22.1h-22.1V331h22.1z"/>
    <path id="es" d="M419.3 353.1v22.1h-22.1v-22.1h22.1z"/>
    <path id="es_1_" class="st0" d="M419.3 353.1v22.1h-22.1v-22.1h22.1z"/>
    <path id="et" d="M419.3 397.2v22.1h-22.1v-22.1h22.1z"/>
    <path id="et_1_" class="st0" d="M419.3 397.2v22.1h-22.1v-22.1h22.1z"/>
    <path id="eu" d="M419.3 441.4v22.1h-22.1v-22.1h22.1z"/>
    <path id="eu_1_" class="st0" d="M419.3 441.4v22.1h-22.1v-22.1h22.1z"/>
    <path id="ev" d="M419.3 485.5v22.1h-22.1v-22.1h22.1z"/>
    <path id="ev_1_" class="st0" d="M419.3 485.5v22.1h-22.1v-22.1h22.1z"/>
    <path id="ew" d="M419.3 507.6v22.1h-22.1v-22.1h22.1z"/>
    <path id="ew_1_" class="st0" d="M419.3 507.6v22.1h-22.1v-22.1h22.1z"/>
    <path id="ex" d="M419.3 595.9V618h-22.1v-22.1h22.1z"/>
    <path id="ex_1_" class="st0" d="M419.3 595.9V618h-22.1v-22.1h22.1z"/>
    <path id="ey" d="M441.4 0v22.1h-22.1V0h22.1z"/>
    <path id="ey_1_" class="st0" d="M441.4 0v22.1h-22.1V0h22.1z"/>
    <path id="ez" d="M441.4 88.3v22.1h-22.1V88.3h22.1z"/>
    <path id="ez_1_" class="st0" d="M441.4 88.3v22.1h-22.1V88.3h22.1z"/>
    <path id="eA" d="M441.4 110.3v22.1h-22.1v-22.1h22.1z"/>
    <path id="eA_1_" class="st0" d="M441.4 110.3v22.1h-22.1v-22.1h22.1z"/>
    <path id="eB" d="M441.4 176.6v22.1h-22.1v-22.1h22.1z"/>
    <path id="eB_1_" class="st0" d="M441.4 176.6v22.1h-22.1v-22.1h22.1z"/>
    <path id="eC" d="M441.4 198.6v22.1h-22.1v-22.1h22.1z"/>
    <path id="eC_1_" class="st0" d="M441.4 198.6v22.1h-22.1v-22.1h22.1z"/>
    <path id="eD" d="M441.4 264.8v22.1h-22.1v-22.1h22.1z"/>
    <path id="eD_1_" class="st0" d="M441.4 264.8v22.1h-22.1v-22.1h22.1z"/>
    <path id="eE" d="M441.4 286.9V309h-22.1v-22.1h22.1z"/>
    <path id="eE_1_" class="st0" d="M441.4 286.9V309h-22.1v-22.1h22.1z"/>
    <path id="eF" d="M441.4 309v22h-22.1v-22h22.1z"/>
    <path id="eF_1_" class="st0" d="M441.4 309v22h-22.1v-22h22.1z"/>
    <path id="eG" d="M441.4 441.4v22.1h-22.1v-22.1h22.1z"/>
    <path id="eG_1_" class="st0" d="M441.4 441.4v22.1h-22.1v-22.1h22.1z"/>
    <path id="eH" d="M441.4 485.5v22.1h-22.1v-22.1h22.1z"/>
    <path id="eH_1_" class="st0" d="M441.4 485.5v22.1h-22.1v-22.1h22.1z"/>
    <path id="eI" d="M441.4 551.7v22.1h-22.1v-22.1h22.1z"/>
    <path id="eI_1_" class="st0" d="M441.4 551.7v22.1h-22.1v-22.1h22.1z"/>
    <path id="eJ" d="M441.4 573.8v22.1h-22.1v-22.1h22.1z"/>
    <path id="eJ_1_" class="st0" d="M441.4 573.8v22.1h-22.1v-22.1h22.1z"/>
    <path id="eK" d="M441.4 595.9V618h-22.1v-22.1h22.1z"/>
    <path id="eK_1_" class="st0" d="M441.4 595.9V618h-22.1v-22.1h22.1z"/>
    <path id="eL" d="M441.4 617.9V640h-22.1v-22.1h22.1z"/>
    <path id="eL_1_" class="st0" d="M441.4 617.9V640h-22.1v-22.1h22.1z"/>
    <path id="eM" d="M463.5 22.1v22.1h-22.1V22.1h22.1z"/>
    <path id="eM_1_" class="st0" d="M463.5 22.1v22.1h-22.1V22.1h22.1z"/>
    <path id="eN" d="M463.5 66.2v22.1h-22.1V66.2h22.1z"/>
    <path id="eN_1_" class="st0" d="M463.5 66.2v22.1h-22.1V66.2h22.1z"/>
    <path id="eO" d="M463.5 110.3v22.1h-22.1v-22.1h22.1z"/>
    <path id="eO_1_" class="st0" d="M463.5 110.3v22.1h-22.1v-22.1h22.1z"/>
    <path id="eP" d="M463.5 132.4v22.1h-22.1v-22.1h22.1z"/>
    <path id="eP_1_" class="st0" d="M463.5 132.4v22.1h-22.1v-22.1h22.1z"/>
    <path id="eQ" d="M463.5 198.6v22.1h-22.1v-22.1h22.1z"/>
    <path id="eQ_1_" class="st0" d="M463.5 198.6v22.1h-22.1v-22.1h22.1z"/>
    <path id="eR" d="M463.5 309v22h-22.1v-22h22.1z"/>
    <path id="eR_1_" class="st0" d="M463.5 309v22h-22.1v-22h22.1z"/>
    <path id="eS" d="M463.5 331v22.1h-22.1V331h22.1z"/>
    <path id="eS_1_" class="st0" d="M463.5 331v22.1h-22.1V331h22.1z"/>
    <path id="eT" d="M463.5 353.1v22.1h-22.1v-22.1h22.1z"/>
    <path id="eT_1_" class="st0" d="M463.5 353.1v22.1h-22.1v-22.1h22.1z"/>
    <path id="eU" d="M463.5 375.2v22.1h-22.1v-22.1h22.1z"/>
    <path id="eU_1_" class="st0" d="M463.5 375.2v22.1h-22.1v-22.1h22.1z"/>
    <path id="eV" d="M463.5 397.2v22.1h-22.1v-22.1h22.1z"/>
    <path id="eV_1_" class="st0" d="M463.5 397.2v22.1h-22.1v-22.1h22.1z"/>
    <path id="eW" d="M463.5 441.4v22.1h-22.1v-22.1h22.1z"/>
    <path id="eW_1_" class="st0" d="M463.5 441.4v22.1h-22.1v-22.1h22.1z"/>
    <path id="eX" d="M463.5 463.5v22.1h-22.1v-22.1h22.1z"/>
    <path id="eX_1_" class="st0" d="M463.5 463.5v22.1h-22.1v-22.1h22.1z"/>
    <path id="eY" d="M463.5 485.5v22.1h-22.1v-22.1h22.1z"/>
    <path id="eY_1_" class="st0" d="M463.5 485.5v22.1h-22.1v-22.1h22.1z"/>
    <path id="eZ" d="M463.5 507.6v22.1h-22.1v-22.1h22.1z"/>
    <path id="eZ_1_" class="st0" d="M463.5 507.6v22.1h-22.1v-22.1h22.1z"/>
    <path id="fa" d="M463.5 529.7v22.1h-22.1v-22.1h22.1z"/>
    <path id="fa_1_" class="st0" d="M463.5 529.7v22.1h-22.1v-22.1h22.1z"/>
    <path id="fb" d="M463.5 595.9V618h-22.1v-22.1h22.1z"/>
    <path id="fb_1_" class="st0" d="M463.5 595.9V618h-22.1v-22.1h22.1z"/>
    <path id="fc" d="M463.5 617.9V640h-22.1v-22.1h22.1z"/>
    <path id="fc_1_" class="st0" d="M463.5 617.9V640h-22.1v-22.1h22.1z"/>
    <path id="fd" d="M485.5 176.6v22.1h-22.1v-22.1h22.1z"/>
    <path id="fd_1_" class="st0" d="M485.5 176.6v22.1h-22.1v-22.1h22.1z"/>
    <path id="fe" d="M485.5 198.6v22.1h-22.1v-22.1h22.1z"/>
    <path id="fe_1_" class="st0" d="M485.5 198.6v22.1h-22.1v-22.1h22.1z"/>
    <path id="ff" d="M485.5 220.7v22.1h-22.1v-22.1h22.1z"/>
    <path id="ff_1_" class="st0" d="M485.5 220.7v22.1h-22.1v-22.1h22.1z"/>
    <path id="fg" d="M485.5 353.1v22.1h-22.1v-22.1h22.1z"/>
    <path id="fg_1_" class="st0" d="M485.5 353.1v22.1h-22.1v-22.1h22.1z"/>
    <path id="fh" d="M485.5 375.2v22.1h-22.1v-22.1h22.1z"/>
    <path id="fh_1_" class="st0" d="M485.5 375.2v22.1h-22.1v-22.1h22.1z"/>
    <path id="fi" d="M485.5 397.2v22.1h-22.1v-22.1h22.1z"/>
    <path id="fi_1_" class="st0" d="M485.5 397.2v22.1h-22.1v-22.1h22.1z"/>
    <path id="fj" d="M485.5 419.3v22.1h-22.1v-22.1h22.1z"/>
    <path id="fj_1_" class="st0" d="M485.5 419.3v22.1h-22.1v-22.1h22.1z"/>
    <path id="fk" d="M485.5 441.4v22.1h-22.1v-22.1h22.1z"/>
    <path id="fk_1_" class="st0" d="M485.5 441.4v22.1h-22.1v-22.1h22.1z"/>
    <path id="fl" d="M485.5 529.7v22.1h-22.1v-22.1h22.1z"/>
    <path id="fl_1_" class="st0" d="M485.5 529.7v22.1h-22.1v-22.1h22.1z"/>
    <path id="fm" d="M485.5 551.7v22.1h-22.1v-22.1h22.1z"/>
    <path id="fm_1_" class="st0" d="M485.5 551.7v22.1h-22.1v-22.1h22.1z"/>
    <g>
        <path id="fn" d="M485.5 617.9V640h-22.1v-22.1h22.1z"/>
        <path id="fn_1_" class="st0" d="M485.5 617.9V640h-22.1v-22.1h22.1z"/>
    </g>
    <g>
        <path id="fo" d="M507.6 0v22.1h-22.1V0h22.1z"/>
        <path id="fo_1_" class="st0" d="M507.6 0v22.1h-22.1V0h22.1z"/>
    </g>
    <g>
        <path id="fp" d="M507.6 22.1v22.1h-22.1V22.1h22.1z"/>
        <path id="fp_1_" class="st0" d="M507.6 22.1v22.1h-22.1V22.1h22.1z"/>
    </g>
    <g>
        <path id="fq" d="M507.6 44.1v22.1h-22.1V44.1h22.1z"/>
        <path id="fq_1_" class="st0" d="M507.6 44.1v22.1h-22.1V44.1h22.1z"/>
    </g>
    <g>
        <path id="fr" d="M507.6 66.2v22.1h-22.1V66.2h22.1z"/>
        <path id="fr_1_" class="st0" d="M507.6 66.2v22.1h-22.1V66.2h22.1z"/>
    </g>
    <g>
        <path id="fs" d="M507.6 88.3v22.1h-22.1V88.3h22.1z"/>
        <path id="fs_1_" class="st0" d="M507.6 88.3v22.1h-22.1V88.3h22.1z"/>
    </g>
    <g>
        <path id="ft" d="M507.6 110.3v22.1h-22.1v-22.1h22.1z"/>
        <path id="ft_1_" class="st0" d="M507.6 110.3v22.1h-22.1v-22.1h22.1z"/>
    </g>
    <g>
        <path id="fu" d="M507.6 132.4v22.1h-22.1v-22.1h22.1z"/>
        <path id="fu_1_" class="st0" d="M507.6 132.4v22.1h-22.1v-22.1h22.1z"/>
    </g>
    <g>
        <path id="fv" d="M507.6 198.6v22.1h-22.1v-22.1h22.1z"/>
        <path id="fv_1_" class="st0" d="M507.6 198.6v22.1h-22.1v-22.1h22.1z"/>
    </g>
    <g>
        <path id="fw" d="M507.6 242.8v22.1h-22.1v-22.1h22.1z"/>
        <path id="fw_1_" class="st0" d="M507.6 242.8v22.1h-22.1v-22.1h22.1z"/>
    </g>
    <g>
        <path id="fx" d="M507.6 286.9V309h-22.1v-22.1h22.1z"/>
        <path id="fx_1_" class="st0" d="M507.6 286.9V309h-22.1v-22.1h22.1z"/>
    </g>
    <g>
        <path id="fy" d="M507.6 419.3v22.1h-22.1v-22.1h22.1z"/>
        <path id="fy_1_" class="st0" d="M507.6 419.3v22.1h-22.1v-22.1h22.1z"/>
    </g>
    <g>
        <path id="fz" d="M507.6 441.4v22.1h-22.1v-22.1h22.1z"/>
        <path id="fz_1_" class="st0" d="M507.6 441.4v22.1h-22.1v-22.1h22.1z"/>
    </g>
    <g>
        <path id="fA" d="M507.6 485.5v22.1h-22.1v-22.1h22.1z"/>
        <path id="fA_1_" class="st0" d="M507.6 485.5v22.1h-22.1v-22.1h22.1z"/>
    </g>
    <g>
        <path id="fB" d="M507.6 529.7v22.1h-22.1v-22.1h22.1z"/>
        <path id="fB_1_" class="st0" d="M507.6 529.7v22.1h-22.1v-22.1h22.1z"/>
    </g>
    <g>
        <path id="fC" d="M529.7 0v22.1h-22.1V0h22.1z"/>
        <path id="fC_1_" class="st0" d="M529.7 0v22.1h-22.1V0h22.1z"/>
    </g>
    <g>
        <path id="fD" d="M529.7 132.4v22.1h-22.1v-22.1h22.1z"/>
        <path id="fD_1_" class="st0" d="M529.7 132.4v22.1h-22.1v-22.1h22.1z"/>
    </g>
    <g>
        <path id="fE" d="M529.7 198.6v22.1h-22.1v-22.1h22.1z"/>
        <path id="fE_1_" class="st0" d="M529.7 198.6v22.1h-22.1v-22.1h22.1z"/>
    </g>
    <g>
        <path id="fF" d="M529.7 375.2v22.1h-22.1v-22.1h22.1z"/>
        <path id="fF_1_" class="st0" d="M529.7 375.2v22.1h-22.1v-22.1h22.1z"/>
    </g>
    <g>
        <path id="fG" d="M529.7 397.2v22.1h-22.1v-22.1h22.1z"/>
        <path id="fG_1_" class="st0" d="M529.7 397.2v22.1h-22.1v-22.1h22.1z"/>
    </g>
    <g>
        <path id="fH" d="M529.7 419.3v22.1h-22.1v-22.1h22.1z"/>
        <path id="fH_1_" class="st0" d="M529.7 419.3v22.1h-22.1v-22.1h22.1z"/>
    </g>
    <g>
        <path id="fI" d="M529.7 441.4v22.1h-22.1v-22.1h22.1z"/>
        <path id="fI_1_" class="st0" d="M529.7 441.4v22.1h-22.1v-22.1h22.1z"/>
    </g>
    <g>
        <path id="fJ" d="M529.7 529.7v22.1h-22.1v-22.1h22.1z"/>
        <path id="fJ_1_" class="st0" d="M529.7 529.7v22.1h-22.1v-22.1h22.1z"/>
    </g>
    <g>
        <path id="fK" d="M529.7 551.7v22.1h-22.1v-22.1h22.1z"/>
        <path id="fK_1_" class="st0" d="M529.7 551.7v22.1h-22.1v-22.1h22.1z"/>
    </g>
    <g>
        <path id="fL" d="M529.7 573.8v22.1h-22.1v-22.1h22.1z"/>
        <path id="fL_1_" class="st0" d="M529.7 573.8v22.1h-22.1v-22.1h22.1z"/>
    </g>
    <g>
        <path id="fM" d="M529.7 617.9V640h-22.1v-22.1h22.1z"/>
        <path id="fM_1_" class="st0" d="M529.7 617.9V640h-22.1v-22.1h22.1z"/>
    </g>
    <g>
        <path id="fN" d="M551.7 0v22.1h-22.1V0h22.1z"/>
        <path id="fN_1_" class="st0" d="M551.7 0v22.1h-22.1V0h22.1z"/>
    </g>
    <g>
        <path id="fO" d="M551.7 44.1v22.1h-22.1V44.1h22.1z"/>
        <path id="fO_1_" class="st0" d="M551.7 44.1v22.1h-22.1V44.1h22.1z"/>
    </g>
    <g>
        <path id="fP" d="M551.7 66.2v22.1h-22.1V66.2h22.1z"/>
        <path id="fP_1_" class="st0" d="M551.7 66.2v22.1h-22.1V66.2h22.1z"/>
    </g>
    <g>
        <path id="fQ" d="M551.7 88.3v22.1h-22.1V88.3h22.1z"/>
        <path id="fQ_1_" class="st0" d="M551.7 88.3v22.1h-22.1V88.3h22.1z"/>
    </g>
    <g>
        <path id="fR" d="M551.7 132.4v22.1h-22.1v-22.1h22.1z"/>
        <path id="fR_1_" class="st0" d="M551.7 132.4v22.1h-22.1v-22.1h22.1z"/>
    </g>
    <g>
        <path id="fS" d="M551.7 176.6v22.1h-22.1v-22.1h22.1z"/>
        <path id="fS_1_" class="st0" d="M551.7 176.6v22.1h-22.1v-22.1h22.1z"/>
    </g>
    <g>
        <path id="fT" d="M551.7 198.6v22.1h-22.1v-22.1h22.1z"/>
        <path id="fT_1_" class="st0" d="M551.7 198.6v22.1h-22.1v-22.1h22.1z"/>
    </g>
    <g>
        <path id="fU" d="M551.7 309v22h-22.1v-22h22.1z"/>
        <path id="fU_1_" class="st0" d="M551.7 309v22h-22.1v-22h22.1z"/>
    </g>
    <g>
        <path id="fV" d="M551.7 331v22.1h-22.1V331h22.1z"/>
        <path id="fV_1_" class="st0" d="M551.7 331v22.1h-22.1V331h22.1z"/>
    </g>
    <g>
        <path id="fW" d="M551.7 353.1v22.1h-22.1v-22.1h22.1z"/>
        <path id="fW_1_" class="st0" d="M551.7 353.1v22.1h-22.1v-22.1h22.1z"/>
    </g>
    <g>
        <path id="fX" d="M551.7 397.2v22.1h-22.1v-22.1h22.1z"/>
        <path id="fX_1_" class="st0" d="M551.7 397.2v22.1h-22.1v-22.1h22.1z"/>
    </g>
    <g>
        <path id="fY" d="M551.7 441.4v22.1h-22.1v-22.1h22.1z"/>
        <path id="fY_1_" class="st0" d="M551.7 441.4v22.1h-22.1v-22.1h22.1z"/>
    </g>
    <g>
        <path id="fZ" d="M551.7 463.5v22.1h-22.1v-22.1h22.1z"/>
        <path id="fZ_1_" class="st0" d="M551.7 463.5v22.1h-22.1v-22.1h22.1z"/>
    </g>
    <g>
        <path id="ga" d="M551.7 485.5v22.1h-22.1v-22.1h22.1z"/>
        <path id="ga_1_" class="st0" d="M551.7 485.5v22.1h-22.1v-22.1h22.1z"/>
    </g>
    <g>
        <path id="gb" d="M551.7 507.6v22.1h-22.1v-22.1h22.1z"/>
        <path id="gb_1_" class="st0" d="M551.7 507.6v22.1h-22.1v-22.1h22.1z"/>
    </g>
    <g>
        <path id="gc" d="M551.7 529.7v22.1h-22.1v-22.1h22.1z"/>
        <path id="gc_1_" class="st0" d="M551.7 529.7v22.1h-22.1v-22.1h22.1z"/>
    </g>
    <g>
        <path id="gd" d="M551.7 551.7v22.1h-22.1v-22.1h22.1z"/>
        <path id="gd_1_" class="st0" d="M551.7 551.7v22.1h-22.1v-22.1h22.1z"/>
    </g>
    <g>
        <path id="ge" d="M551.7 595.9V618h-22.1v-22.1h22.1z"/>
        <path id="ge_1_" class="st0" d="M551.7 595.9V618h-22.1v-22.1h22.1z"/>
    </g>
    <g>
        <path id="gf" d="M573.8 0v22.1h-22.1V0h22.1z"/>
        <path id="gf_1_" class="st0" d="M573.8 0v22.1h-22.1V0h22.1z"/>
    </g>
    <g>
        <path id="gg" d="M573.8 44.1v22.1h-22.1V44.1h22.1z"/>
        <path id="gg_1_" class="st0" d="M573.8 44.1v22.1h-22.1V44.1h22.1z"/>
    </g>
    <g>
        <path id="gh" d="M573.8 66.2v22.1h-22.1V66.2h22.1z"/>
        <path id="gh_1_" class="st0" d="M573.8 66.2v22.1h-22.1V66.2h22.1z"/>
    </g>
    <g>
        <path id="gi" d="M573.8 88.3v22.1h-22.1V88.3h22.1z"/>
        <path id="gi_1_" class="st0" d="M573.8 88.3v22.1h-22.1V88.3h22.1z"/>
    </g>
    <g>
        <path id="gj" d="M573.8 132.4v22.1h-22.1v-22.1h22.1z"/>
        <path id="gj_1_" class="st0" d="M573.8 132.4v22.1h-22.1v-22.1h22.1z"/>
    </g>
    <g>
        <path id="gk" d="M573.8 176.6v22.1h-22.1v-22.1h22.1z"/>
        <path id="gk_1_" class="st0" d="M573.8 176.6v22.1h-22.1v-22.1h22.1z"/>
    </g>
    <g>
        <path id="gl" d="M573.8 264.8v22.1h-22.1v-22.1h22.1z"/>
        <path id="gl_1_" class="st0" d="M573.8 264.8v22.1h-22.1v-22.1h22.1z"/>
    </g>
    <g>
        <path id="gm" d="M573.8 353.1v22.1h-22.1v-22.1h22.1z"/>
        <path id="gm_1_" class="st0" d="M573.8 353.1v22.1h-22.1v-22.1h22.1z"/>
    </g>
    <g>
        <path id="gn" d="M573.8 375.2v22.1h-22.1v-22.1h22.1z"/>
        <path id="gn_1_" class="st0" d="M573.8 375.2v22.1h-22.1v-22.1h22.1z"/>
    </g>
    <g>
        <path id="go" d="M573.8 441.4v22.1h-22.1v-22.1h22.1z"/>
        <path id="go_1_" class="st0" d="M573.8 441.4v22.1h-22.1v-22.1h22.1z"/>
    </g>
    <g>
        <path id="gp" d="M573.8 463.5v22.1h-22.1v-22.1h22.1z"/>
        <path id="gp_1_" class="st0" d="M573.8 463.5v22.1h-22.1v-22.1h22.1z"/>
    </g>
    <g>
        <path id="gq" d="M573.8 485.5v22.1h-22.1v-22.1h22.1z"/>
        <path id="gq_1_" class="st0" d="M573.8 485.5v22.1h-22.1v-22.1h22.1z"/>
    </g>
    <g>
        <path id="gr" d="M573.8 507.6v22.1h-22.1v-22.1h22.1z"/>
        <path id="gr_1_" class="st0" d="M573.8 507.6v22.1h-22.1v-22.1h22.1z"/>
    </g>
    <g>
        <path id="gs" d="M573.8 551.7v22.1h-22.1v-22.1h22.1z"/>
        <path id="gs_1_" class="st0" d="M573.8 551.7v22.1h-22.1v-22.1h22.1z"/>
    </g>
    <g>
        <path id="gt" d="M573.8 595.9V618h-22.1v-22.1h22.1z"/>
        <path id="gt_1_" class="st0" d="M573.8 595.9V618h-22.1v-22.1h22.1z"/>
    </g>
    <g>
        <path id="gu" d="M573.8 617.9V640h-22.1v-22.1h22.1z"/>
        <path id="gu_1_" class="st0" d="M573.8 617.9V640h-22.1v-22.1h22.1z"/>
    </g>
    <g>
        <path id="gv" d="M595.9 0v22.1h-22.1V0h22.1z"/>
        <path id="gv_1_" class="st0" d="M595.9 0v22.1h-22.1V0h22.1z"/>
    </g>
    <g>
        <path id="gw" d="M595.9 44.1v22.1h-22.1V44.1h22.1z"/>
        <path id="gw_1_" class="st0" d="M595.9 44.1v22.1h-22.1V44.1h22.1z"/>
    </g>
    <g>
        <path id="gx" d="M595.9 66.2v22.1h-22.1V66.2h22.1z"/>
        <path id="gx_1_" class="st0" d="M595.9 66.2v22.1h-22.1V66.2h22.1z"/>
    </g>
    <g>
        <path id="gy" d="M595.9 88.3v22.1h-22.1V88.3h22.1z"/>
        <path id="gy_1_" class="st0" d="M595.9 88.3v22.1h-22.1V88.3h22.1z"/>
    </g>
    <g>
        <path id="gz" d="M595.9 132.4v22.1h-22.1v-22.1h22.1z"/>
        <path id="gz_1_" class="st0" d="M595.9 132.4v22.1h-22.1v-22.1h22.1z"/>
    </g>
    <g>
        <path id="gA" d="M595.9 176.6v22.1h-22.1v-22.1h22.1z"/>
        <path id="gA_1_" class="st0" d="M595.9 176.6v22.1h-22.1v-22.1h22.1z"/>
    </g>
    <g>
        <path id="gB" d="M595.9 220.7v22.1h-22.1v-22.1h22.1z"/>
        <path id="gB_1_" class="st0" d="M595.9 220.7v22.1h-22.1v-22.1h22.1z"/>
    </g>
    <g>
        <path id="gC" d="M595.9 264.8v22.1h-22.1v-22.1h22.1z"/>
        <path id="gC_1_" class="st0" d="M595.9 264.8v22.1h-22.1v-22.1h22.1z"/>
    </g>
    <g>
        <path id="gD" d="M595.9 286.9V309h-22.1v-22.1h22.1z"/>
        <path id="gD_1_" class="st0" d="M595.9 286.9V309h-22.1v-22.1h22.1z"/>
    </g>
    <g>
        <path id="gE" d="M595.9 309v22h-22.1v-22h22.1z"/>
        <path id="gE_1_" class="st0" d="M595.9 309v22h-22.1v-22h22.1z"/>
    </g>
    <g>
        <path id="gF" d="M595.9 375.2v22.1h-22.1v-22.1h22.1z"/>
        <path id="gF_1_" class="st0" d="M595.9 375.2v22.1h-22.1v-22.1h22.1z"/>
    </g>
    <g>
        <path id="gG" d="M595.9 397.2v22.1h-22.1v-22.1h22.1z"/>
        <path id="gG_1_" class="st0" d="M595.9 397.2v22.1h-22.1v-22.1h22.1z"/>
    </g>
    <g>
        <path id="gH" d="M595.9 419.3v22.1h-22.1v-22.1h22.1z"/>
        <path id="gH_1_" class="st0" d="M595.9 419.3v22.1h-22.1v-22.1h22.1z"/>
    </g>
    <g>
        <path id="gI" d="M595.9 441.4v22.1h-22.1v-22.1h22.1z"/>
        <path id="gI_1_" class="st0" d="M595.9 441.4v22.1h-22.1v-22.1h22.1z"/>
    </g>
    <g>
        <path id="gJ" d="M595.9 463.5v22.1h-22.1v-22.1h22.1z"/>
        <path id="gJ_1_" class="st0" d="M595.9 463.5v22.1h-22.1v-22.1h22.1z"/>
    </g>
    <g>
        <path id="gK" d="M595.9 529.7v22.1h-22.1v-22.1h22.1z"/>
        <path id="gK_1_" class="st0" d="M595.9 529.7v22.1h-22.1v-22.1h22.1z"/>
    </g>
    <g>
        <path id="gL" d="M595.9 573.8v22.1h-22.1v-22.1h22.1z"/>
        <path id="gL_1_" class="st0" d="M595.9 573.8v22.1h-22.1v-22.1h22.1z"/>
    </g>
    <g>
        <path id="gM" d="M617.9 0v22.1h-22.1V0h22.1z"/>
        <path id="gM_1_" class="st0" d="M617.9 0v22.1h-22.1V0h22.1z"/>
    </g>
    <g>
        <path id="gN" d="M617.9 132.4v22.1h-22.1v-22.1h22.1z"/>
        <path id="gN_1_" class="st0" d="M617.9 132.4v22.1h-22.1v-22.1h22.1z"/>
    </g>
    <g>
        <path id="gO" d="M617.9 220.7v22.1h-22.1v-22.1h22.1z"/>
        <path id="gO_1_" class="st0" d="M617.9 220.7v22.1h-22.1v-22.1h22.1z"/>
    </g>
    <g>
        <path id="gP" d="M617.9 286.9V309h-22.1v-22.1h22.1z"/>
        <path id="gP_1_" class="st0" d="M617.9 286.9V309h-22.1v-22.1h22.1z"/>
    </g>
    <g>
        <path id="gQ" d="M617.9 309v22h-22.1v-22h22.1z"/>
        <path id="gQ_1_" class="st0" d="M617.9 309v22h-22.1v-22h22.1z"/>
    </g>
    <g>
        <path id="gR" d="M617.9 331v22.1h-22.1V331h22.1z"/>
        <path id="gR_1_" class="st0" d="M617.9 331v22.1h-22.1V331h22.1z"/>
    </g>
    <g>
        <path id="gS" d="M617.9 353.1v22.1h-22.1v-22.1h22.1z"/>
        <path id="gS_1_" class="st0" d="M617.9 353.1v22.1h-22.1v-22.1h22.1z"/>
    </g>
    <g>
        <path id="gT" d="M617.9 375.2v22.1h-22.1v-22.1h22.1z"/>
        <path id="gT_1_" class="st0" d="M617.9 375.2v22.1h-22.1v-22.1h22.1z"/>
    </g>
    <g>
        <path id="gU" d="M617.9 463.5v22.1h-22.1v-22.1h22.1z"/>
        <path id="gU_1_" class="st0" d="M617.9 463.5v22.1h-22.1v-22.1h22.1z"/>
    </g>
    <g>
        <path id="gV" d="M617.9 485.5v22.1h-22.1v-22.1h22.1z"/>
        <path id="gV_1_" class="st0" d="M617.9 485.5v22.1h-22.1v-22.1h22.1z"/>
    </g>
    <g>
        <path id="gW" d="M617.9 507.6v22.1h-22.1v-22.1h22.1z"/>
        <path id="gW_1_" class="st0" d="M617.9 507.6v22.1h-22.1v-22.1h22.1z"/>
    </g>
    <g>
        <path id="gX" d="M617.9 529.7v22.1h-22.1v-22.1h22.1z"/>
        <path id="gX_1_" class="st0" d="M617.9 529.7v22.1h-22.1v-22.1h22.1z"/>
    </g>
    <g>
        <path id="gY" d="M617.9 551.7v22.1h-22.1v-22.1h22.1z"/>
        <path id="gY_1_" class="st0" d="M617.9 551.7v22.1h-22.1v-22.1h22.1z"/>
    </g>
    <g>
        <path id="gZ" d="M617.9 595.9V618h-22.1v-22.1h22.1z"/>
        <path id="gZ_1_" class="st0" d="M617.9 595.9V618h-22.1v-22.1h22.1z"/>
    </g>
    <g>
        <path id="ha" d="M617.9 617.9V640h-22.1v-22.1h22.1z"/>
        <path id="ha_1_" class="st0" d="M617.9 617.9V640h-22.1v-22.1h22.1z"/>
    </g>
    <g>
        <path id="hb" d="M640 0v22.1h-22.1V0H640z"/>
        <path id="hb_1_" class="st0" d="M640 0v22.1h-22.1V0H640z"/>
    </g>
    <g>
        <path id="hc" d="M640 22.1v22.1h-22.1V22.1H640z"/>
        <path id="hc_1_" class="st0" d="M640 22.1v22.1h-22.1V22.1H640z"/>
    </g>
    <g>
        <path id="hd" d="M640 44.1v22.1h-22.1V44.1H640z"/>
        <path id="hd_1_" class="st0" d="M640 44.1v22.1h-22.1V44.1H640z"/>
    </g>
    <g>
        <path id="he" d="M640 66.2v22.1h-22.1V66.2H640z"/>
        <path id="he_1_" class="st0" d="M640 66.2v22.1h-22.1V66.2H640z"/>
    </g>
    <g>
        <path id="hf" d="M640 88.3v22.1h-22.1V88.3H640z"/>
        <path id="hf_1_" class="st0" d="M640 88.3v22.1h-22.1V88.3H640z"/>
    </g>
    <g>
        <path id="hg" d="M640 110.3v22.1h-22.1v-22.1H640z"/>
        <path id="hg_1_" class="st0" d="M640 110.3v22.1h-22.1v-22.1H640z"/>
    </g>
    <g>
        <path id="hh" d="M640 132.4v22.1h-22.1v-22.1H640z"/>
        <path id="hh_1_" class="st0" d="M640 132.4v22.1h-22.1v-22.1H640z"/>
    </g>
    <g>
        <path id="hi" d="M640 176.6v22.1h-22.1v-22.1H640z"/>
        <path id="hi_1_" class="st0" d="M640 176.6v22.1h-22.1v-22.1H640z"/>
    </g>
    <g>
        <path id="hj" d="M640 198.6v22.1h-22.1v-22.1H640z"/>
        <path id="hj_1_" class="st0" d="M640 198.6v22.1h-22.1v-22.1H640z"/>
    </g>
    <g>
        <path id="hk" d="M640 242.8v22.1h-22.1v-22.1H640z"/>
        <path id="hk_1_" class="st0" d="M640 242.8v22.1h-22.1v-22.1H640z"/>
    </g>
    <g>
        <path id="hl" d="M640 286.9V309h-22.1v-22.1H640z"/>
        <path id="hl_1_" class="st0" d="M640 286.9V309h-22.1v-22.1H640z"/>
    </g>
    <g>
        <path id="hm" d="M640 309v22h-22.1v-22H640z"/>
        <path id="hm_1_" class="st0" d="M640 309v22h-22.1v-22H640z"/>
    </g>
    <g>
        <path id="hn" d="M640 463.5v22.1h-22.1v-22.1H640z"/>
        <path id="hn_1_" class="st0" d="M640 463.5v22.1h-22.1v-22.1H640z"/>
    </g>
    <g>
        <path id="ho" d="M640 507.6v22.1h-22.1v-22.1H640z"/>
        <path id="ho_1_" class="st0" d="M640 507.6v22.1h-22.1v-22.1H640z"/>
    </g>
    <g>
        <path id="hp" d="M640 551.7v22.1h-22.1v-22.1H640z"/>
        <path id="hp_1_" class="st0" d="M640 551.7v22.1h-22.1v-22.1H640z"/>
    </g>
    <g>
        <path id="hq" d="M640 573.8v22.1h-22.1v-22.1H640z"/>
        <path id="hq_1_" class="st0" d="M640 573.8v22.1h-22.1v-22.1H640z"/>
    </g>
</symbol><symbol id="svg-skills" viewBox="0 0 474 440">
    <path d="M474.2 163.1l-7.6-2.5-2.6-7.6-1.5.5 2.6-3.8-19.8-13.6-9.1 13.1L449 158l-43.8 15.1c-4.8-7.3-12.4-12.3-21-13.9s-17.4.5-24.5 5.7l-96.3-79.1c2-4.2 3-8.8 3.1-13.4-.1-14.6-9.9-27.2-24-30.9V15.9l15.8 10.9 9.1-13.2L247.7 0l-5.1 7.4V.6h-16V13l-7.7-11.2-19.8 13.6 9.1 13.2 18.4-12.7v25.9c-8.5 2-15.7 7.5-20 15.1-4.3 7.6-5.2 16.7-2.5 25L80.8 157c-6.8-6.6-16.2-9.9-25.7-8.9s-18 6.2-23.2 14.2l-11.8-4.1 10.2-7-9-13.2-19.7 13.6 2.8 4L0 168.2l26.9 9.3c-.1.8-.2 1.6-.2 2.5 0 17.7 14.3 32 32 32 2.8 0 5.7-.5 8.4-1.3l65.3 113.8c-11.8 11.4-13 30-2.6 42.7l-36.2 48.3-3.3-10.2-15.3 4.9 7.4 22.8 6.2-2 8.5 6.4 45.4-60.6c15.9 6.6 34.2-.7 41.3-16.4L307 381.8c.8 10.2 6.4 19.4 15.1 24.7 8.7 5.3 19.4 6.2 28.8 2.3l11.8 15.8h-10.1v16h24v-6.4l8.5-6.4-21.5-28.7c6.1-7.5 8.4-17.3 6.4-26.8-2.1-9.4-8.3-17.4-17-21.6l27-127.9c17.1-.8 30.5-14.8 30.6-31.9 0-.8-.2-1.6-.3-2.5l43.7-15.1-2.5 7.6 15.2 4.9 7.5-22.7zM58.6 196c-8.8 0-16-7.2-16-16s7.2-16 16-16 16 7.2 16 16-7.2 16-16 16zm291.1-18.4c-2 4.2-3 8.8-3.1 13.4 0 .8.2 1.7.2 2.5l-104.2 36v-126c3.9-1 7.5-2.7 10.8-5.1l96.3 79.2zm-115.1-121c8.8 0 16 7.2 16 16s-7.2 16-16 16-16-7.2-16-16 7.2-16 16-16zm-22.2 39c4 3.8 8.9 6.6 14.2 7.9v125.9l-136.3-47c.1-.8.3-1.6.3-2.5 0-3.1-.6-6.2-1.5-9.2l123.3-75.1zm-57.8 267.7c-8.8 0-16-7.2-16-16s7.2-16 16-16 16 7.2 16 16-7.2 16-16 16zm12.2-45.6c-3.9-1.6-8-2.4-12.2-2.4-2.8 0-5.7.5-8.4 1.3L80.9 202.8c1.6-1.6 3.1-3.3 4.3-5.2l136.4 47-54.8 73.1zm142.7 48.4l-123.2-21.4c-.5-6.3-2.9-12.3-6.8-17.3l55.1-73.4 79.1 105.5c-1.7 2-3.1 4.2-4.2 6.6zm45.1 13.2c0 8.8-7.2 16-16 16s-16-7.2-16-16 7.2-16 16-16 16 7.2 16 16zm-17.4-31.8c-3.7.1-7.3.9-10.8 2.3l-78.8-105.1 104.4-36c3.1 4.6 7.4 8.4 12.4 10.9l-27.2 127.9zM378.6 207c-8.8 0-16-7.2-16-16s7.2-16 16-16 16 7.2 16 16-7.2 16-16 16z"/>
    <path d="M392.5 363.7l7.4-22.8 15.2 4.9-7.4 22.8-15.2-4.9z"/>
    <path d="M407.3 318l7.4-22.8 15.2 4.9-7.4 22.8-15.2-4.9z"/>
    <path d="M377.7 409.4l7.4-22.8 15.2 4.9-7.4 22.8-15.2-4.9z"/>
    <path d="M422.1 272.4l7.4-22.8 15.2 4.9-7.4 22.8-15.2-4.9z"/>
    <path d="M436.8 226.7l7.4-22.8 15.2 4.9-7.4 22.8-15.2-4.9z"/>
    <path d="M357.2 94.9l9.1-13.2L386 95.4l-9.1 13.2-19.7-13.7z"/>
    <path d="M45.4 318.9l15.2-4.9 7.4 22.8-15.2 4.9-7.4-22.8z"/>
    <path d="M159.6 42.7L179.4 29l9.1 13.2-19.8 13.6-9.1-13.1z"/>
    <path d="M120.1 69.9l19.8-13.6 9.1 13.2-19.8 13.6-9.1-13.2z"/>
    <path d="M60.2 364.6l15.2-4.9 7.4 22.8-15.2 4.9-7.4-22.8z"/>
    <path d="M41.1 124.4l19.8-13.6L70 124l-19.8 13.6-9.1-13.2z"/>
    <path d="M278.2 40.4l9.1-13.2L307 40.9 297.9 54l-19.7-13.6z"/>
    <path d="M396.7 122.1l9.1-13.2 19.8 13.6-9.1 13.2-19.8-13.6z"/>
    <path d="M317.7 67.6l9.1-13.2L346.6 68l-9.1 13.2-19.8-13.6z"/>
    <path d="M1.1 181.9l15.2-4.9 7.4 22.8-15.2 4.9-7.4-22.8z"/>
    <path d="M208.5 424.6h24v16h-24v-16z"/>
    <path d="M160.5 424.6h24v16h-24v-16z"/>
    <path d="M256.5 424.6h24v16h-24v-16z"/>
    <path d="M30.6 273.3l15.2-4.9 7.4 22.8-15.2 4.9-7.4-22.8z"/>
    <path d="M112.5 424.6h24v16h-24v-16z"/>
    <path d="M304.5 424.6h24v16h-24v-16z"/>
    <path d="M15.9 227.6l15.2-4.9 7.4 22.8-15.2 4.9-7.4-22.8z"/>
    <path d="M80.6 97.2l19.8-13.6 9.1 13.2-19.8 13.6-9.1-13.2z"/>
</symbol><symbol id="svg-technologies" viewBox="0 0 512 512">
    <path d="M306 83c-5.52 0-10 4.48-10 10s4.48 10 10 10 10-4.48 10-10-4.48-10-10-10z"/>
    <path d="M206 83c-5.52 0-10 4.48-10 10s4.48 10 10 10 10-4.48 10-10-4.48-10-10-10z"/>
    <path d="M473.123 298.882C481.706 286 486 269.927 486 256c0-20.996-9.327-40.503-25.332-53.731C464.21 193.805 466 185.002 466 176c0-27.855-16.256-53.803-40.425-65.92 3.667-30.414-16.151-58.292-45.52-65.403C368.56 18.104 342.975 0 316 0c-25.11 0-47.631 14.646-60 36.016C243.63 14.646 221.109 0 196 0c-26.977 0-52.562 18.104-64.055 44.678-29.545 7.156-49.177 35.173-45.52 65.402C62.257 122.196 46 148.145 46 176c0 9.002 1.79 17.805 5.332 26.269C35.327 215.498 26 235.004 26 256c0 14 4.33 30.052 12.877 42.881C30.525 310.671 26 324.644 26 339c0 18.616 7.548 36.35 20.899 49.518C40.035 430.01 73.125 472 116 472c.31 0 .615-.005.914-.014C131.129 496.508 157.515 512 186 512c29.688 0 56.216-17.82 70-43.494C269.784 494.18 296.312 512 326 512c28.485 0 54.871-15.492 69.086-40.014.3.009.604.014.914.014 37.944 0 70-33.43 70-73 0-3.369-.296-6.834-.899-10.482C478.452 375.35 486 357.617 486 339c0-14.356-4.525-28.329-12.877-40.118zM246 151.381A39.741 39.741 0 00226 146c-5.523 0-10 4.477-10 10s4.477 10 10 10c11.028 0 20 8.972 20 20v190.169C231.329 359.528 209.877 349 186 349c-5.523 0-10 4.477-10 10s4.477 10 10 10c33.084 0 60 26.916 60 60 0 34.149-27.477 63-60 63-23.152 0-44.465-13.691-54.299-34.88a10.005 10.005 0 00-10.2-5.726c-.707.081-1.41.175-2.113.271-28.46 3.892-60.51-28.335-51.834-64.387a9.999 9.999 0 00-3.326-10.025C52.644 367.614 46 353.671 46 339c0-9.071 2.565-17.948 7.338-25.732C65.332 323.098 80.251 329 96 329c5.523 0 10-4.477 10-10s-4.477-10-10-10c-27.139 0-50-24.77-50-53 0-17.125 8.729-32.879 23.352-42.142a10 10 0 003.347-13.38C68.254 192.639 66 184.403 66 176c0-26.99 22.002-53 50-53 26.636 0 50 24.767 50 53 0 5.523 4.477 10 10 10s10-4.477 10-10c0-39.57-32.056-73-70-73-3.348 0-6.678.271-9.975.784-.005-.263-.025-.519-.025-.784 0-22.317 18.117-40 40-40 10.682 0 20.73 4.161 28.292 11.715 3.907 3.903 10.238 3.899 14.142-.007 3.903-3.908 3.9-10.239-.007-14.142-9.123-9.113-20.662-14.925-33.167-16.851C164.079 30.624 178.744 20 196 20c26.636 0 50 24.766 50 53v78.381zM416 329c15.75 0 30.669-5.903 42.663-15.729C463.435 321.054 466 329.93 466 339c0 14.671-6.644 28.614-18.227 38.253a9.997 9.997 0 00-3.326 10.025c1.06 4.403 1.553 8.128 1.553 11.721 0 31.04-28.075 56.126-53.387 52.666a92.449 92.449 0 00-2.114-.271 9.993 9.993 0 00-10.199 5.726C370.466 478.309 349.151 492 326 492c-32.523 0-60-28.851-60-63 0-33.084 26.916-60 60-60 5.522 0 10-4.477 10-10s-4.478-10-10-10c-23.877 0-45.329 10.528-60 27.169V186c0-11.028 8.972-20 20-20 5.522 0 10-4.477 10-10s-4.478-10-10-10a39.741 39.741 0 00-20 5.381V73c0-28.234 23.364-53 50-53 17.256 0 31.92 10.624 40.739 23.714-12.504 1.926-24.042 7.738-33.166 16.851-3.908 3.903-3.912 10.234-.009 14.142 3.903 3.908 10.236 3.911 14.142.008C345.271 67.161 355.318 63 366 63c21.993 0 40 17.787 40 40 0 .264-.02.521-.025.784A64.843 64.843 0 00396 103c-37.944 0-70 33.43-70 73 0 5.523 4.478 10 10 10s10-4.477 10-10c0-28.233 23.364-53 50-53 27.982 0 50 25.997 50 53 0 8.403-2.254 16.639-6.699 24.478a10 10 0 003.348 13.38C457.271 223.121 466 238.875 466 256c0 28.331-22.941 53-50 53-5.522 0-10 4.477-10 10s4.478 10 10 10z"/>
    <path d="M223.453 214.053c-3.682-4.116-10.003-4.468-14.12-.786C177.265 241.952 126 219.027 126 176c0-5.523-4.477-10-10-10s-10 4.477-10 10c0 34.715 25.407 63.595 58.6 69.057C160.75 257.185 149.386 266 136 266c-5.523 0-10 4.477-10 10s4.477 10 10 10c24.357 0 44.69-17.51 49.102-40.602a69.883 69.883 0 0037.565-17.225c4.116-3.682 4.468-10.004.786-14.12z"/>
    <path d="M116 389c-5.523 0-10 4.477-10 10s4.477 10 10 10c26.636 0 50 24.767 50 53 0 5.523 4.477 10 10 10s10-4.477 10-10c0-39.57-32.056-73-70-73z"/>
    <path d="M196 309c-33.886 0-62.98 18.585-78.3 45.608-2.723 4.805-1.036 10.908 3.768 13.631 4.805 2.723 10.907 1.037 13.631-3.768C147.034 343.415 169.68 329 196 329c5.523 0 10-4.477 10-10s-4.477-10-10-10z"/>
    <path d="M376 266c-13.386 0-24.75-8.815-28.6-20.943C380.593 239.595 406 210.715 406 176c0-5.523-4.478-10-10-10s-10 4.477-10 10c0 27.57-22.43 50-50 50a49.934 49.934 0 01-33.333-12.733c-4.115-3.682-10.438-3.331-14.12.786-3.683 4.116-3.33 10.438.786 14.12a69.886 69.886 0 0037.565 17.225C331.31 268.49 351.643 286 376 286c5.522 0 10-4.477 10-10s-4.478-10-10-10z"/>
    <path d="M396 389c-37.944 0-70 33.43-70 73 0 5.523 4.478 10 10 10s10-4.477 10-10c0-28.233 23.364-53 50-53 5.522 0 10-4.477 10-10s-4.478-10-10-10z"/>
    <path d="M394.3 354.609C379.018 327.65 349.964 309 316 309c-5.522 0-10 4.477-10 10s4.478 10 10 10c26.301 0 48.964 14.411 60.899 35.471 2.727 4.811 8.834 6.489 13.631 3.769 4.805-2.723 6.492-8.826 3.77-13.631z"/>
</symbol><symbol id="svg-website" viewBox="0 0 512 512">
    <path d="M363.662 141.402c-29.191 6.095-60.465 9.703-92.692 10.561v89.007h105.493c-.972-35.058-5.346-68.763-12.801-99.568z"/>
    <path d="M105.465 240.97c.989-37.418 5.671-73.529 13.695-106.674-26.277-7.376-50.319-16.912-71.169-28.373C19.434 145.329 2.815 191.843 0 240.97h105.465z"/>
    <path d="M105.465 270.97H0c2.815 49.127 19.434 95.641 47.99 135.047 20.85-11.461 44.893-20.997 71.17-28.373-8.024-33.145-12.707-69.256-13.695-106.674z"/>
    <path d="M299.107 17.335c-9.172-7.759-18.59-12.986-28.136-15.667V121.96c29.455-.82 57.95-4.05 84.514-9.45-4.875-14.9-10.541-28.895-16.97-41.752-11.55-23.098-24.809-41.073-39.408-53.423z"/>
    <path d="M127.222 406.48c-21.959 6.167-42.139 13.943-59.866 23.18a264.398 264.398 0 007.3 7.625c28.837 28.837 63.333 49.956 100.984 62.327-10.547-12.466-20.301-27.521-29.047-45.013-7.401-14.802-13.874-30.937-19.371-48.119z"/>
    <path d="M173.426 70.758c-6.428 12.857-12.095 26.852-16.97 41.752 26.564 5.4 55.059 8.63 84.514 9.45V1.668c-9.547 2.682-18.964 7.908-28.136 15.667-14.6 12.35-27.858 30.325-39.408 53.423z"/>
    <path d="M406.476 270.97c-.989 37.418-5.671 73.529-13.695 106.674 26.277 7.376 50.32 16.912 71.17 28.373 28.556-39.406 45.174-85.919 47.99-135.047H406.476z"/>
    <path d="M384.719 105.46c21.959-6.167 42.139-13.943 59.865-23.18a261.73 261.73 0 00-7.3-7.624C408.448 45.82 373.951 24.701 336.3 12.329c10.547 12.466 20.301 27.521 29.047 45.012 7.401 14.802 13.875 30.938 19.372 48.119z"/>
    <path d="M338.514 441.183c6.429-12.857 12.095-26.853 16.97-41.753-26.564-5.4-55.059-8.63-84.514-9.45v120.292c9.547-2.681 18.964-7.907 28.136-15.667 14.6-12.35 27.859-30.323 39.408-53.422z"/>
    <path d="M392.781 134.297c8.024 33.145 12.706 69.256 13.695 106.674h105.465c-2.815-49.127-19.434-95.641-47.99-135.046-20.85 11.46-44.893 20.996-71.17 28.372z"/>
    <path d="M270.97 270.97v89.007c32.227.858 63.5 4.466 92.692 10.561 7.455-30.806 11.829-64.51 12.801-99.568H270.97z"/>
    <path d="M240.97 240.97v-89.007c-32.227-.858-63.5-4.466-92.692-10.561-7.455 30.806-11.829 64.51-12.801 99.568H240.97z"/>
    <path d="M127.222 105.46c5.496-17.182 11.97-33.317 19.371-48.119 8.746-17.491 18.5-32.547 29.047-45.012-37.65 12.372-72.147 33.491-100.984 62.328a263.07 263.07 0 00-7.3 7.624c17.727 9.236 37.907 17.012 59.866 23.179z"/>
    <path d="M384.719 406.48c-5.496 17.182-11.97 33.317-19.371 48.119-8.746 17.491-18.5 32.547-29.047 45.013 37.65-12.371 72.147-33.49 100.984-62.327a261.82 261.82 0 007.3-7.625c-17.727-9.237-37.907-17.013-59.866-23.18z"/>
    <path d="M240.97 270.97H135.477c.972 35.059 5.346 68.763 12.801 99.568 29.191-6.095 60.465-9.703 92.692-10.561V270.97z"/>
    <path d="M212.834 494.606c9.172 7.759 18.59 12.985 28.136 15.667V389.981c-29.455.82-57.95 4.05-84.514 9.45 4.875 14.9 10.541 28.896 16.97 41.753 11.55 23.098 24.808 41.071 39.408 53.422z"/>
</symbol><symbol id="svg-website21" viewBox="0 0 430 430">
    <path d="M215 0C96.451 0 0 96.451 0 215s96.451 215 215 215 215-96.451 215-215S333.549 0 215 0zm169.91 285.943c-21.135 50.439-64.104 89.547-117.032 105.441a169.291 169.291 0 002.757-5.344c4.547-9.202 9.325-15.69 17.344-22.161 6.137-4.956 18.186-12.632 16.216-22.311-1.421-6.995-9.407-9.865-15.442-11.575-9.575-2.713-19.818-3.416-29.699-4.1-8.557-.598-17.443-.293-25.797-2.424-12.502-3.182-15.32-14.004-16.111-25.412-.705-10.141-.554-20.567-5.541-29.744-6.422-11.811-21.202-15.17-33.458-16.297-10.346-.947-20.679-.448-30.969-2.172-9.9-1.658-19.276-5.135-29.442-4.741-13.175.508-19.092 9.438-24.712 19.765-2.774 5.1-20.296 44.321-30.591 53.115-17.752-26.207-28.919-57.215-31.143-90.632a23.352 23.352 0 004.361-1.664c5.728-2.844 9.741-7.978 15.974-10.011 5.943-1.936 13.621-.219 19.693.376 6.042.591 12.178 1.217 18.225.394 12.071-1.649 18.467-9.987 20.395-21.627 1.146-6.953.252-13.945.459-20.946.327-10.909 7.486-14.823 17.351-15.751 18.634-1.75 62.101 3.188 62.981-25.49.375-12.267-14.225-18.598-23.734-21.872-18.516-6.37-38.747-4.146-57.685-8.571-10.073-2.354-18.569-8.637-25.693-16.063C117.061 52.047 163.598 30.864 215 30.864c10.994 0 21.755.97 32.219 2.828-5.35.994-10.631 2.406-15.769 4.481-27.107 10.929-27.923 41.682-16.075 64.785 7.348 14.328 19.248 26.332 31.678 36.314 12.033 9.659 25.181 15.367 38.523 22.694 17.701 9.733 15.564 35.151 20.042 52.277 3.777 14.443 12.847 26.627 27.143 31.627 8.643 3.02 18.795.663 26.363 6.685 6.5 5.157 8.027 15.714 11.742 22.809 3.7 7.079 8.625 10.059 14.044 10.579z"/>
</symbol><symbol id="svg-workExperience" viewBox="0 0 512 510">
    <path d="M97.3 510c4.1 0 7.5-3.4 7.5-7.5V311.8c0-11.2-9.1-20.3-20.3-20.3H20.3C9.1 291.5 0 300.6 0 311.8v190.6c0 4.1 3.4 7.5 7.5 7.5h89.8zM15 311.8c0-2.9 2.4-5.3 5.3-5.3h64.1c2.9 0 5.3 2.4 5.3 5.3V495H15V311.8z"/>
    <path d="M156.1 241.2c-11.2 0-20.3 9.1-20.3 20.3v240.9c0 4.1 3.4 7.5 7.5 7.5H233c4.1 0 7.5-3.4 7.5-7.5V261.5c0-11.2-9.1-20.3-20.3-20.3h-64.1zm69.4 20.3V495h-74.8V261.5c0-2.9 2.4-5.3 5.3-5.3h64.1c3 0 5.4 2.4 5.4 5.3z"/>
    <path d="M376.3 502.5V211.2c0-11.2-9.1-20.3-20.3-20.3h-64.1c-11.2 0-20.3 9.1-20.3 20.3v291.2c0 4.1 3.4 7.5 7.5 7.5h89.8c4 .1 7.4-3.3 7.4-7.4zm-15-7.5h-74.8V211.2c0-2.9 2.4-5.3 5.3-5.3h64.1c2.9 0 5.3 2.4 5.3 5.3l.1 283.8z"/>
    <path d="M414.7 510h89.8c4.1 0 7.5-3.4 7.5-7.5V161c0-11.2-9.1-20.3-20.3-20.3h-64.1c-11.2 0-20.3 9.1-20.3 20.3v341.5c-.1 4.1 3.2 7.5 7.4 7.5zm7.5-349c0-2.9 2.4-5.3 5.3-5.3h64.1c2.9 0 5.3 2.4 5.3 5.3v334h-74.8V161z"/>
    <path d="M442.6 104.5c3.4 4.9 9.2 7.4 15.1 6.6 5.9-.9 10.7-4.9 12.6-10.6l25.6-77c1.6-4.7.8-9.8-2-13.9s-7.3-6.5-12.3-6.7L400.5 0c-6-.2-11.4 2.9-14.3 8.1-2.9 5.2-2.5 11.5.9 16.4l8.5 12.2c-43.8 25.3-147.2 76.4-288 91.3-4.1.4-7.1 4.1-6.7 8.3.4 3.9 3.7 6.7 7.4 6.7h.8C261 126.9 370.3 69.5 410.2 45.6c3.7-2.2 4.7-7.2 2.3-10.7 0 0-12.9-18.5-13.1-18.8-.3-.5 0-1 .6-1 0 0 80.8 2.9 81.1 2.9.4 0 .7.4.6.9 0 0-25.6 76.9-25.6 77-.2.5-.9.6-1.2.2l-11.6-16.7a7.47 7.47 0 00-10.1-2.1c-17.5 10.7-46.8 27-86.8 44.1-3.8 1.6-5.6 6-4 9.8 1.6 3.8 6 5.6 9.8 4 36.6-15.6 64.4-30.6 82.7-41.4l7.7 10.7z"/>
    <path d="M78.9 145.6c4.1-.3 7.3-3.8 7-8-.3-4.1-3.8-7.3-8-7-16.3 1.1-32.7 1.6-48.7 1.6-4.1 0-7.5 3.4-7.5 7.5v53.9c0 4.1 3.4 7.5 7.5 7.5 124.2 0 227.8-29.4 292.9-54 3.9-1.5 5.8-5.8 4.4-9.7-1.5-3.9-5.8-5.8-9.7-4.4-62.6 23.7-161.5 51.8-280 53v-38.9c13.8 0 28-.6 42.1-1.5z"/>
</symbol></svg>