<svg  xmlns="http://www.w3.org/2000/svg" viewBox="0 0 43 28" width="43" height="28" fill="#fff"><path fill-rule="evenodd" clip-rule="evenodd" d="M22.6393 27.8253C16.4858 27.787 11.5935 26.716 7.15988 23.9619C4.10222 22.0493 1.65609 19.563 0.929894 15.9291C0.0125961 11.1477 2.2294 7.66682 5.82216 4.91273C9.60601 2.00562 14.0396 0.666823 18.7026 0.246058C24.9325 -0.32771 30.895 0.628573 36.3223 3.95644C39.1507 5.716 41.4439 7.97283 42.4377 11.2625C43.6989 15.4701 41.9408 19.869 37.7747 23.0056C33.0353 26.563 27.4933 27.8253 22.6393 27.8253ZM5.1724 10.8034C5.48888 10.7733 5.75783 10.7609 5.99563 10.75C6.36093 10.7333 6.65276 10.7199 6.93056 10.6504C8.34473 10.3827 9.75889 10.1149 11.1348 9.69415C12.7401 9.23513 14.0396 9.7324 14.8805 11.0329C15.8242 12.517 16.5895 14.0904 17.36 15.6742L17.5238 16.0108L17.6706 16.3116C17.8999 16.7451 18.0613 17.2126 18.2227 17.6801C18.3034 17.9139 18.384 18.1477 18.4732 18.3772C18.6261 18.339 18.779 18.3007 18.8937 18.2625C19.2489 16.8405 18.6765 15.5277 18.1216 14.255C18.0197 14.0213 17.9183 13.789 17.8235 13.5575C17.3718 12.4674 16.7909 11.4327 16.1834 10.3506C15.9169 9.87604 15.6454 9.39234 15.3774 8.89087C16.1265 8.81436 16.8634 8.73786 17.6003 8.66136C18.7054 8.54663 19.8112 8.43183 20.9576 8.31709C21.1348 11.5801 21.2791 14.58 21.421 17.5302L21.4212 17.5325L21.4213 17.5342L21.4545 18.2242C21.6456 18.2242 21.8367 18.2242 22.0278 18.1859C22.1806 14.973 22.3335 11.7595 22.5246 8.27884C23.8362 8.4303 25.0646 8.5651 26.3415 8.70522L26.3434 8.70544C27.0009 8.77759 27.6712 8.85114 28.3724 8.92912C26.1174 11.8745 24.8561 14.8581 24.7414 18.2625C25.1488 17.9488 25.3507 17.5837 25.5576 17.2094C25.603 17.1274 25.6489 17.0444 25.697 16.9619C25.9351 16.4852 26.1689 16.0041 26.403 15.5224C27.1457 13.9938 27.8919 12.4581 28.7928 11.0329C29.5573 9.8089 30.8568 9.27338 32.4238 9.7324C33.838 10.1532 35.2904 10.4209 36.7428 10.6887C37.0347 10.7374 37.3421 10.7241 37.7143 10.708C37.9269 10.6988 38.1605 10.6887 38.4245 10.6887C38.2707 10.3809 38.1527 10.0987 38.0462 9.84392C37.8615 9.40217 37.7114 9.04298 37.469 8.77611C37.126 8.42406 36.7891 8.05984 36.4517 7.69514L36.4509 7.69429C35.3224 6.4743 34.1887 5.24863 32.806 4.45371C26.3849 0.743327 19.6581 0.552069 12.8166 3.30617C9.95 4.49196 7.50387 6.28977 5.86038 9.04387C5.72278 9.31928 5.6127 9.62224 5.48061 9.9858C5.39255 10.2282 5.29471 10.4974 5.1724 10.8034ZM17.403 25.798C17.4394 25.592 17.4795 25.409 17.5162 25.2418C17.5954 24.8812 17.6585 24.5936 17.6324 24.3062C17.3648 21.2078 16.4093 18.339 14.6129 15.8144C13.0841 13.634 10.982 12.869 8.38295 13.175C5.82216 13.481 4.82841 15.0111 5.51639 17.4974C6.05148 19.4865 7.42743 20.9018 8.95626 22.1258C11.3259 24.0767 14.0778 25.2624 17.403 25.798ZM26.1938 25.645C26.4081 25.645 26.5903 25.6556 26.7504 25.665C27.0189 25.6808 27.2254 25.6929 27.4169 25.645C30.5892 24.8417 33.6087 23.5411 35.8255 21.0548C36.8574 19.9455 37.6601 18.492 38.1569 17.0767C38.7685 15.4318 38.0423 14.2078 36.5517 13.5575C34.2966 12.563 31.3919 13.1368 29.7101 14.9728C27.264 17.6122 26.3085 20.8635 25.9263 24.3444C25.9263 24.5632 25.9888 24.7944 26.0566 25.0453C26.1074 25.2332 26.1611 25.4321 26.1938 25.645Z"></path>
</svg>
