<svg xmlns="http://www.w3.org/2000/svg" width="153" height="52" viewBox="0 0 152.927 52.294">
    <defs>
        <linearGradient id="a" y1="1.119" x2=".958" y2=".286" gradientUnits="objectBoundingBox">
            <stop offset="0" stop-color="#fff"/>
            <stop offset=".343" stop-color="#fff"/>
            <stop offset=".452" stop-color="#fff"/>
            <stop offset=".619" stop-color="#fff"/>
            <stop offset="1" stop-color="#fff"/>
        </linearGradient>
    </defs>
    <g transform="translate(-156.785 -138.677)" fill-rule="evenodd" fill="url(#a)">
        <path d="M248.7 190.309c7.6 1.559 9.008-4.991 13.976-9.186 1.373-1.16 4.5 1.34 4.923 2.593.842 2.474-.968 4.241-.46 6.685.263 1.268 6.217.383 6.855-2.3 3.675-15.449 5.058-30.179 19.6-29.137s9.75 29.241.759 28.679c-.976-.06-4.621-1.729-5.625-2.22 1.961-2.067 3.908-3.255 5.418-6.966 1.639-4.024.154-10.159 3.934-13.113 1.235-2.352-.483-2.866-2.484-2.1-10.838 5.152-5.9 17.55-9.726 20.909-11.7-2.866-12.939 7.82-4.907 5.983 1.985-1.153 2.433-1.7 4.417-.491 1.583.965 5.885.983 7.8.7 20.773-3.055 22.835-33.063 1.243-34.454a18.824 18.824 0 0 0-13.492 4.861c-1.36 1.3.32-1.943.448-3.646-8.241-1.762-11.519 11.5-17.325 17.741-7.4-.418-13.862-.657-16.08-9.677 1.294 13.376 12.16 12.464 12.7 14.656-1.473 2.361-4.743 7.854-7.592 7.434-2.3-.339.325-2.565-.886-4.617-2-1.762-9.392 6.458-3.494 7.668zm12.867-40.833l.91 2.865 2.963-.006-2.4 1.765.92 2.861-2.393-1.774-2.393 1.774.921-2.861-2.4-1.765 2.962.006.91-2.865zm-31.357-10.8l.91 2.865 2.963-.006-2.4 1.765.921 2.861-2.394-1.774-2.394 1.774.921-2.861-2.4-1.765 2.962.006.91-2.865zm10.352.982l.91 2.865 2.963-.006-2.4 1.765.921 2.861-2.394-1.774-2.393 1.774.921-2.861-2.4-1.765 2.962.006.91-2.865zm10.952 3.226l.909 2.865 2.963-.006-2.4 1.765.921 2.861-2.394-1.774-2.393 1.774.92-2.861-2.4-1.765 2.963.006.91-2.865zm4.083 28.7l6 .631c-.772-20.455-38.169-28.534-58.6-8.414 17.721-11.939 46.736-15.946 52.591 7.783zm-11.113-2.559l.863-4.8c-13.239-10.086-30.474-5.8-41.445 4 12.515-9.267 37.061-9.1 40.582.806zm-86.371 19.753c10.061 8.291 14.892-14.03 17.024-23.053.625 3.476 3.406 18.04 3.461 24.767 5.334-.214 5.364.05 7.409-5.427 2.913-7.8 4.2-21.663 7.276-22.963 8.159.044 2.6-9.318-1.738-3.115-2.964 4.819-4.968 18.719-6.705 23.052-1.459-8.953-3.974-18.721-3.767-24.894-1.924-.122-4.189-.325-5.751.982-.86 2.622-9.08 40.048-13.448 26.229-1.516-3.349-7.788.728-3.76 4.421zm38.563 1.709c2.825.645 6.059-1.4 8.437-4.821 3.073 2.185 5.774 1.323 7.193-1.361a38.158 38.158 0 0 0-.5 5.708c2.62.414 3.563.139 6.109-.23-.974-7.449 1.6-12.98 7.247-15.556-.124 5.255-3.2 12.958-3 15.615 2.507.425 2.981-.012 5.355-.509 2-3.24 1.341-12.536 8.518-14.17.458 3.249-2.933 7.4-2.278 12.506.874 6.8 12.526-.27 12.756-5.155.014-.315-.615-.3-.615-.3-1.652 0-1.479 3.408-5.654 4.1-1.565-3 6.389-15.249-1.244-15.952-3.7.795-4.326 3.928-7.523 4.558-1.073-.732.6-3.393-2.462-4.394-4.122-1.347-6.862 5.438-9.271 5.482-1.172.021 5.968-4.826.391-5.353-3.63-.344-6.063 5.218-7.319 10.929l-.389-.474c-1.019 2.249-3.861 4.091-5.4 3.138-1.824-2.571 3.828-9.344.491-13.537-16.97-3.381-20.619 18.809-10.844 19.779zm7.4-18.426c-6.307-.932-8.029 14.643-4.141 14.656 7.85-1.02-2.894-7.06 4.141-14.656zm61.841 3.263c2.674-3.293 3.785-6.49 6.235-9.419-.334 4.184-1.523 7.324-1.91 11.546l-4.233-2.24"/>
        <path d="M248.7 190.309c7.6 1.559 9.008-4.991 13.976-9.186 1.373-1.16 4.5 1.34 4.923 2.593.842 2.474-.968 4.241-.46 6.685.263 1.268 6.217.383 6.855-2.3 3.675-15.449 5.058-30.179 19.6-29.137s9.75 29.241.759 28.679c-.976-.06-4.621-1.729-5.625-2.22 1.961-2.067 3.908-3.255 5.418-6.966 1.639-4.024.154-10.159 3.934-13.113 1.235-2.352-.483-2.866-2.484-2.1-10.838 5.152-5.9 17.55-9.726 20.909-11.7-2.866-12.939 7.82-4.907 5.983 1.985-1.153 2.433-1.7 4.417-.491 1.583.965 5.885.983 7.8.7 20.773-3.055 22.835-33.063 1.243-34.454a18.824 18.824 0 0 0-13.492 4.861c-1.36 1.3.32-1.943.448-3.646-8.241-1.762-11.519 11.5-17.325 17.741-7.4-.418-13.862-.657-16.08-9.677 1.294 13.376 12.16 12.464 12.7 14.656-1.473 2.361-4.743 7.854-7.592 7.434-2.3-.339.325-2.565-.886-4.617-2-1.762-9.392 6.458-3.494 7.668zm12.867-40.833l.91 2.865 2.963-.006-2.4 1.765.92 2.861-2.393-1.774-2.393 1.774.921-2.861-2.4-1.765 2.962.006.91-2.865zm-31.357-10.8l.91 2.865 2.963-.006-2.4 1.765.921 2.861-2.394-1.774-2.394 1.774.921-2.861-2.4-1.765 2.962.006.91-2.865zm10.352.982l.91 2.865 2.963-.006-2.4 1.765.921 2.861-2.394-1.774-2.393 1.774.921-2.861-2.4-1.765 2.962.006.91-2.865zm10.952 3.226l.909 2.865 2.963-.006-2.4 1.765.921 2.861-2.394-1.774-2.393 1.774.92-2.861-2.4-1.765 2.963.006.91-2.865zm4.083 28.7c-5.855-23.728-34.871-19.721-52.591-7.783 20.426-20.12 57.823-12.041 58.6 8.414l-6-.631zm-11.113-2.559c-3.521-9.9-28.067-10.073-40.582-.806 10.971-9.795 28.206-14.083 41.445-4l-.863 4.8zm-86.371 19.753c10.061 8.291 14.892-14.03 17.024-23.053.625 3.476 3.406 18.04 3.461 24.767 5.334-.214 5.364.05 7.409-5.427 2.913-7.8 4.2-21.663 7.276-22.963 8.159.044 2.6-9.318-1.738-3.115-2.964 4.819-4.968 18.719-6.705 23.052-1.459-8.953-3.974-18.721-3.767-24.894-1.924-.122-4.189-.325-5.751.982-.86 2.622-9.08 40.048-13.448 26.229-1.516-3.349-7.788.728-3.76 4.421zm38.563 1.709c-9.775-.97-6.126-23.16 10.844-19.779 3.337 4.193-2.315 10.966-.491 13.537 1.539.953 4.381-.889 5.4-3.138l.389.474c1.256-5.711 3.688-11.272 7.319-10.929 5.578.527-1.563 5.374-.391 5.353 2.409-.044 5.149-6.829 9.271-5.482 3.063 1 1.388 3.662 2.462 4.394 3.2-.631 3.824-3.764 7.523-4.558 7.633.7-.322 12.948 1.244 15.952 4.175-.694 4-4.1 5.654-4.1 0 0 .629-.012.615.3-.23 4.885-11.882 11.959-12.756 5.155-.655-5.106 2.736-9.256 2.278-12.506-7.177 1.634-6.515 10.93-8.518 14.17-2.374.5-2.848.934-5.355.509-.2-2.657 2.878-10.359 3-15.615-5.647 2.577-8.221 8.107-7.247 15.556-2.547.37-3.49.644-6.109.23a38.158 38.158 0 0 1 .5-5.708c-1.419 2.685-4.121 3.546-7.193 1.361-2.378 3.423-5.612 5.466-8.437 4.821zm7.4-18.426c-6.307-.932-8.029 14.643-4.141 14.656 7.85-1.02-2.894-7.06 4.141-14.656zm61.841 3.263c2.674-3.293 3.785-6.49 6.235-9.419-.334 4.184-1.523 7.324-1.91 11.546l-4.233-2.24z"/>
    </g>
</svg>
