<svg xmlns="http://www.w3.org/2000/svg" viewBox="0 0 127 28">
  <defs>
    <filter id="shadow">
      <feDropShadow dx="0" dy="0" stdDeviation="1" flood-color="#E45956" flood-opacity="0.75"/>
    </filter>
  </defs>
  <path fill="#fff" d="M10.25 17.822c-.618 0-1.141-.187-1.57-.54-.427-.35-.618-.867-.618-1.57v-4.714h3.568V7.176H8.062V2.18l-5.28 1.665v3.306H0v3.823h2.783v4.737c0 1.97.523 3.517 1.57 4.643 1.046 1.102 2.568 1.665 4.566 1.665 1.117 0 2.021-.14 2.735-.422v-3.963c-.595.117-1.07.187-1.404.187zM22.285 6.824c-.976 0-1.856.235-2.617.727-.784.47-1.331 1.173-1.688 2.064l-.333-2.439H12.7c.167 1.22.238 2.626.238 4.198v10.412h5.28v-7.34c0-2.087 1.117-3.143 3.33-3.143.784 0 1.593.188 2.425.586V7.13c-.404-.211-.951-.305-1.688-.305zM24.639 0v4.69h5.518V0h-5.518zm.143 7.176v14.61h5.28V7.176h-5.28zM44.973 7.34c-.808-.398-1.712-.586-2.687-.586-1.094 0-2.07.234-2.925.727-.857.492-1.475 1.149-1.832 1.946l-.285-2.274h-4.97c.142 1.219.237 2.626.237 4.197v16.627h5.28v-8.09c.428.68 1.046 1.195 1.831 1.57.809.376 1.689.563 2.664.563 1.284 0 2.426-.305 3.425-.914.998-.61 1.76-1.501 2.306-2.627.143-.305.286-.633.405-.985L44.973 7.34zm-2.14 9.873c-.476.61-1.213.914-2.164.914-.952 0-1.69-.328-2.188-.961-.5-.633-.762-1.548-.762-2.744 0-1.22.262-2.157.761-2.79.5-.633 1.237-.962 2.189-.962.927 0 1.64.329 2.14.985.5.657.737 1.595.737 2.814.024 1.22-.214 2.134-.713 2.744zm5.184-6.73a6.788 6.788 0 00-1.546-2.111l2.355 6.965c.024-.258.024-.54.024-.821 0-1.524-.286-2.86-.833-4.034zM67.353 11.796a.658.658 0 00-.428-.47l-.738-.234a7.936 7.936 0 00-.69 2.955l1.665-1.642a.664.664 0 00.19-.61zm8.942 5.933a5.668 5.668 0 01-1.998.375c-1.117 0-1.95-.305-2.544-.938-.595-.633-.88-1.548-.88-2.767 0-1.22.285-2.11.88-2.744.594-.61 1.427-.914 2.52-.914a5.89 5.89 0 012.022.375c.69.258 1.308.586 1.831 1.008l1.332-3.588c-.618-.54-1.45-.961-2.52-1.29a10.642 10.642 0 00-3.211-.469c-1.641 0-3.068.329-4.329.962-1.141.586-2.045 1.383-2.711 2.415l.547.188c.57.187.999.656 1.142 1.22a1.653 1.653 0 01-.452 1.594l-2.403 2.368c.12 1.314.5 2.44 1.142 3.377.262.399.57.75.928 1.102.285.258.594.516.903.727 1.308.868 2.973 1.29 4.995 1.29 1.213 0 2.33-.164 3.4-.469 1.07-.305 1.903-.727 2.545-1.29l-1.331-3.54c-.5.421-1.118.75-1.808 1.008zm-8.942-5.933a.658.658 0 00-.428-.47l-.738-.234a7.936 7.936 0 00-.69 2.955l1.665-1.642a.664.664 0 00.19-.61zM80.48.61v21.175h5.28V.61h-5.28zM88.068 0v4.69h5.517V0h-5.517zm.142 7.176v14.61h5.28V7.176h-5.28zM106.095 17.729a5.67 5.67 0 01-1.998.375c-1.118 0-1.95-.305-2.545-.938-.594-.633-.88-1.548-.88-2.767 0-1.22.286-2.11.88-2.744.595-.61 1.427-.914 2.521-.914.643 0 1.308.117 2.022.375.69.258 1.308.586 1.831 1.008l1.332-3.588c-.618-.54-1.451-.961-2.497-1.29a10.646 10.646 0 00-3.211-.469c-1.641 0-3.068.329-4.328.962a7.013 7.013 0 00-2.902 2.72c-.69 1.173-1.046 2.533-1.046 4.057 0 2.322.713 4.15 2.14 5.487 1.427 1.337 3.377 2.017 5.898 2.017 1.213 0 2.331-.164 3.401-.469 1.071-.305 1.903-.727 2.545-1.29l-1.332-3.54c-.523.421-1.141.75-1.831 1.008zM120.935 14.187l5.827-6.988h-6.255l-4.97 6.074V.609h-5.28v21.176h5.28v-6.308l5.042 6.308H127l-6.065-7.598z"/>
  <path style="fill:#E45956; filter:url(#shadow);" d="M67.947 21.902a.636.636 0 01-.19.446l-4.138 4.057a.654.654 0 01-.452.187.654.654 0 01-.452-.187l-4.9-4.831-4.423 4.338a.655.655 0 01-.452.188c-.047 0-.095 0-.142-.024a.66.66 0 01-.476-.422l-3.52-10.388L46.448 8.3l-1.023-3.025a.627.627 0 01.167-.657.654.654 0 01.451-.187c.072 0 .143 0 .214.023l19.93 6.566.738.235a.62.62 0 01.428.469.65.65 0 01-.167.586l-1.665 1.642-2.663 2.696 4.9 4.831c.118.094.19.258.19.422z"/>
  <path fill="#fff" d="M56.508 14.047a2.214 2.214 0 00-.833-.962 2.344 2.344 0 00-1.212-.328c-.357 0-.666.07-.952.211-.285.14-.5.328-.666.563v-2.955h-1.902v7.575h1.879v-.704c.142.258.356.446.665.587a2.2 2.2 0 00.975.21c.452 0 .857-.117 1.213-.351.357-.235.643-.563.833-.962.214-.422.309-.89.309-1.43-.024-.563-.119-1.032-.31-1.454zm-1.879 2.439c-.166.234-.428.351-.761.351s-.595-.117-.785-.351c-.19-.235-.261-.563-.261-1.009 0-.422.095-.75.261-.985.19-.234.452-.328.785-.328s.594.117.785.328c.166.235.261.54.261.962 0 .469-.095.797-.285 1.032z"/>
  <path fill="#fff" d="M60.955 12.92l-1.236 3.026-1.19-3.025h-1.974l2.165 4.878-.143.281c-.119.258-.31.469-.547.633-.238.14-.618.282-1.094.375l.428 1.43c.714-.093 1.308-.28 1.784-.609.475-.328.88-.844 1.213-1.548l2.425-5.417h-1.83v-.023z"/>
</svg>
