<svg version="1" xmlns="http://www.w3.org/2000/svg" width="346.667" height="346.667" viewBox="0 0 260.000000 260.000000"><path d="M3.9 61.9c-.1 2.1-.1 136 0 138.3.1 1.7 1.7 1.8 19.6 1.8H43l.1-3.3v-16.5L43 169l3.8-.1c6.8-.1 15.7-.1 17.4 0 1.8.1 2.2.9 11.4 21.8l4.9 11.3h23.2c12.8 0 23.3-.2 23.3-.4s-2.1-4.8-4.6-10.3c-2.5-5.4-5.5-11.8-6.6-14.3-1.2-2.5-3.2-6.7-4.4-9.3-1.3-2.7-2.4-5.2-2.4-5.7 0-.4 1.8-2.7 4-5 5-5.3 10.3-16.2 12.3-25.3 1.9-8.7 2-25.2.1-34.2-3.2-15.4-12.4-28.5-24-34.1l-5.9-2.8-45.7-.2c-41.7-.1-45.8 0-45.9 1.5zm81.5 45c2.9 2.9 2.8 12.3-.1 15.2-1.9 2-3.1 2.1-20.4 2.1-10.1 0-19.2-.1-20.1-.1-1.6-.1-1.8-1.2-1.6-9.2.1-7.7.4-9.2 1.9-9.7 1-.4 10-.6 20.1-.5 16.5.3 18.4.5 20.2 2.2z"/><path d="M111.5 61.9c.3.8 6.6 12.1 13.9 25.1 17 30 17.3 30.4 20.9 37 1.6 3 3.3 5.9 3.7 6.5.4.5 2 3.2 3.5 6 1.6 2.7 4.6 8.1 6.8 12l3.9 7 .1 23.3V202l19.6-.2 19.6-.3v-46l4.3-7.3c2.3-4.1 4.2-7.6 4.2-7.9 0-.3.8-1.7 1.9-3.1 1-1.5 3.3-5.4 5-8.7 1.8-3.3 3.6-6.7 4.1-7.5 1.9-2.9 11-19.2 11-19.5 0-.2 1.9-3.6 4.3-7.7 2.4-4 5.7-9.8 7.4-12.8 1.7-3 4.9-8.7 7.2-12.7 2.2-4 4.1-7.4 4.1-7.6 0-.7-43.8-.5-44.8.2-.6.4-7 11.7-14.2 25.1-7.2 13.5-13.4 24.8-13.8 25.2-.4.4-2.3-2.3-4.2-6-1.9-3.7-5.3-10.1-7.6-14.2-2.2-4.1-6.7-12.5-9.9-18.5-3.2-6.1-6.2-11.3-6.7-11.6-.6-.4-10.9-.6-22.9-.6-19.5 0-21.9.2-21.4 1.6z"/></svg>