<?xml version="1.0" encoding="utf-8"?>
<!-- Generator: Adobe Illustrator 24.0.1, SVG Export Plug-In . SVG Version: 6.00 Build 0)  -->
<svg version="1.1" id="Capa_1" xmlns="http://www.w3.org/2000/svg" xmlns:xlink="http://www.w3.org/1999/xlink" x="0px" y="0px"
	 viewBox="0 0 491.4 329.4" style="enable-background:new 0 0 491.4 329.4;" xml:space="preserve">
<path id="XMLID_188_" d="M381.6,101c-0.9,0-1.8,0.1-2.6,0.1L364,13.8c-0.8-4.7-3.6-8.8-7.7-11.4c-4.1-2.5-9-3.2-13.6-1.8l-45,13.6
	c-8.8,2.7-13.8,12-11.1,20.8c2.7,8.8,12,13.8,20.8,11.1l26.9-8.2l6.2,35.9H198.9v-7.1l17.4-4.4c6.9-1.7,11.8-8.2,11.4-15.6
	c-0.5-8.4-7.6-14.8-16-14.3l-64.3,3.7c-1.3,0.1-2.7,0.3-4,0.6C132,39.8,125.1,51.4,128,62.9c2.9,11.4,14.5,18.3,25.9,15.5l11.7-3
	v10.8l-13.7,23.6c-13-5.6-27.1-8.7-42-8.7C49.3,101,0,152.2,0,215.2c0,63,49.3,114.2,109.9,114.2c55.1,0,100.7-42.5,108.5-97.5h17.8
	c4.7,0,9.2-2,12.4-5.5l24.4-27.3c-0.7,5.3-1.2,10.7-1.2,16.2c0,63,49.3,114.2,109.9,114.2c60.5,0,109.8-51.2,109.8-114.2
	C491.4,152.2,442.1,101,381.6,101z M109.9,296.1c-42.2,0-76.5-36.3-76.5-80.9c0-44.6,34.3-80.9,76.5-80.9c8.8,0,17.1,1.9,25,4.8
	l-39.4,67.7c-3,5.1-3,11.5,0,16.7c3,5.2,8.5,8.4,14.4,8.4h74.8C177.4,268.5,146.6,296.1,109.9,296.1z M184.7,198.5h-45.9l24.1-41.4
	C173.7,168.2,181.5,182.4,184.7,198.5z M228.7,198.5h-10.3c-4-28.4-18-53.4-38.3-71l11.7-20.2h118.5L228.7,198.5z M381.6,296.1
	c-42.2,0-76.5-36.3-76.5-80.9c0-33.5,19.4-62.3,46.9-74.5l13.2,77.4c1.4,8.1,8.4,13.8,16.4,13.8c0.9,0,1.9-0.1,2.8-0.2
	c9.1-1.6,15.2-10.2,13.6-19.2l-13.3-77.7c40.7,1.8,73.4,37.1,73.4,80.5C458,259.8,423.7,296.1,381.6,296.1z"/>
</svg>
