<?xml version="1.0" encoding="iso-8859-1"?>

<svg version="1.1" id="Capa_1" xmlns="http://www.w3.org/2000/svg" xmlns:xlink="http://www.w3.org/1999/xlink" x="0px" y="0px"
	 viewBox="0 0 393.524 393.524" style="enable-background:new 0 0 393.524 393.524;"
	 xml:space="preserve">
	<path d="M319.743,167.026c-8.515,0-16.657,1.525-24.283,4.194l-24.908-45.261V107.6h27.406c3.963,0,7.182,3.212,7.182,7.167
		c0,3.967-3.219,7.185-7.182,7.185c-6.785,0-12.298,5.5-12.298,12.298c0,6.786,5.513,12.298,12.298,12.298
		c17.522,0,31.777-14.255,31.777-31.781c0-15.495-11.169-28.388-25.868-31.162c-1.153-0.363-2.342-0.6-3.604-0.6h-42.009
		c-6.798,0-12.298,5.506-12.298,12.297v21.521h-91.349l-5.983-13.318h19.432c6.794,0,12.298-5.513,12.298-12.298
		c0-6.797-5.504-12.298-12.298-12.298h-38.671c-0.012,0-0.036,0-0.048,0H91.201c-6.789,0-12.298,5.5-12.298,12.298
		c0,6.785,5.509,12.298,12.298,12.298h30.468l6.906,15.384c-1.661,1.081-3.087,2.507-4.071,4.296l-26.445,48.042
		c-7.614-2.669-15.76-4.194-24.271-4.194C33.102,167.033,0,200.134,0,240.822s33.102,73.787,73.787,73.787
		c36.488,0,66.797-26.649,72.67-61.489h50.272c0.012,0,0.023,0.012,0.036,0.012c0.528,0,1.071-0.096,1.6-0.168
		c0.301-0.035,0.616-0.035,0.898-0.096c0.141-0.036,0.288-0.096,0.429-0.132c0.24-0.061,0.469-0.156,0.721-0.229
		c0.418-0.126,0.853-0.24,1.262-0.42c0.035-0.024,0.084-0.024,0.123-0.036c0.252-0.12,0.453-0.276,0.693-0.402
		c0.228-0.126,0.471-0.24,0.693-0.379c0.192-0.119,0.391-0.228,0.595-0.359c0.336-0.24,0.636-0.517,0.931-0.781
		c0.252-0.216,0.528-0.396,0.769-0.637c0.042-0.035,0.078-0.102,0.126-0.144c0.288-0.301,0.528-0.625,0.78-0.949
		c0.229-0.3,0.48-0.576,0.685-0.889c0.108-0.192,0.211-0.372,0.324-0.564c0.036-0.071,0.097-0.126,0.139-0.192l50.716-92.137
		l15.679,28.478c-17.023,13.52-27.977,34.356-27.977,57.733c0,40.682,33.104,73.786,73.787,73.786
		c40.688,0,73.787-33.104,73.787-73.786C393.524,200.14,360.432,167.026,319.743,167.026z M237.441,141.41l-39.556,71.868
		l-32.234-71.868H237.441z M140.417,145.269l37.35,83.244h-31.309c-3.089-18.314-12.901-34.332-26.854-45.429L140.417,145.269z"/>

</svg>
