<?xml version="1.0" encoding="utf-8"?>
<!-- Generator: Adobe Illustrator 24.0.1, SVG Export Plug-In . SVG Version: 6.00 Build 0)  -->
<svg version="1.1" id="Слой_1" xmlns="http://www.w3.org/2000/svg" xmlns:xlink="http://www.w3.org/1999/xlink" x="0px" y="0px"
	 viewBox="0 0 512 390" style="enable-background:new 0 0 512 390;" xml:space="preserve">
<path d="M437,390H75c-41.4,0-75-33.6-75-75c0-8.3,6.7-15,15-15h482c8.3,0,15,6.7,15,15C512,356.4,478.4,390,437,390z"/>
<path d="M456,210c-12.5,0-18,3.3-25.6,7.9c-9,5.4-20.2,12.1-41.1,12.1s-32.1-6.7-41.1-12.1c-7.6-4.6-13.1-7.9-25.6-7.9
	c-12.5,0-18,3.3-25.6,7.9c-9,5.4-20.2,12.1-41.1,12.1c-20.8,0-32-6.7-41-12.1c-7.6-4.6-13.1-7.9-25.6-7.9c-12.5,0-18,3.3-25.6,7.9
	c-9,5.4-20.2,12.1-41,12.1s-32-6.7-41-12.1C74,213.3,68.5,210,56,210c-6.4,0-11,0.9-15,2.3V270h430v-57.6
	C467,210.9,462.4,210,456,210z"/>
<path d="M41,150v31.3c4.4-0.8,9.3-1.3,15-1.3c20.8,0,32,6.7,41,12.1c7.6,4.6,13.1,7.9,25.6,7.9c12.5,0,18-3.3,25.6-7.9
	c9-5.4,20.2-12.1,41-12.1c20.8,0,32,6.7,41,12.1c7.6,4.6,13.1,7.9,25.6,7.9c12.5,0,18-3.3,25.6-7.9c9-5.4,20.2-12.1,41.1-12.1
	c20.8,0,32.1,6.7,41.1,12.1c7.6,4.6,13.1,7.9,25.6,7.9c12.5,0,18-3.3,25.6-7.9c9-5.4,20.2-12.1,41.1-12.1c5.7,0,10.6,0.5,15,1.3V150
	H41z"/>
<path d="M471.1,120c-0.8-19.5-5.6-46.5-22.5-73C437.3,29,422.3,14,404.1,2.4c-3.9-2.5-8.7-3.1-13.1-1.5L53.4,120H471.1z"/>
</svg>
