<?xml version="1.0" encoding="utf-8"?>
<!-- Generator: Adobe Illustrator 24.0.1, SVG Export Plug-In . SVG Version: 6.00 Build 0)  -->
<svg version="1.1" id="Capa_1" xmlns="http://www.w3.org/2000/svg" xmlns:xlink="http://www.w3.org/1999/xlink" x="0px" y="0px"
	 viewBox="0 0 94.5 71.9" style="enable-background:new 0 0 94.5 71.9;" xml:space="preserve">
<g>
	<g>
		<path d="M93.9,34.5L69.8,10.4c-0.8-0.8-2.1-0.8-2.8,0l-5.2,5.2c-0.8,0.8-0.8,2,0,2.8l17.5,17.5L61.7,53.4c-0.8,0.8-0.8,2,0,2.8
			l5.2,5.2c0.4,0.4,0.9,0.6,1.4,0.6c0.5,0,1-0.2,1.4-0.6l24.1-24.1C94.7,36.6,94.7,35.3,93.9,34.5z"/>
		<path d="M32.8,53.4L15.3,35.9l17.5-17.5c0.4-0.4,0.6-0.9,0.6-1.4c0-0.5-0.2-1-0.6-1.4l-5.2-5.2c-0.4-0.4-0.9-0.6-1.4-0.6
			c-0.5,0-1,0.2-1.4,0.6L0.6,34.5c-0.8,0.8-0.8,2,0,2.8l24.1,24.1c0.4,0.4,0.9,0.6,1.4,0.6c0.5,0,1-0.2,1.4-0.6l5.2-5.2
			C33.5,55.5,33.5,54.2,32.8,53.4z"/>
		<path d="M61,2.3c-0.3-0.5-0.7-0.8-1.2-1l-4.2-1.3c-1.1-0.3-2.2,0.3-2.5,1.4L33.4,68.1c-0.2,0.5-0.1,1.1,0.2,1.5
			c0.3,0.5,0.7,0.8,1.2,1l4.2,1.3c0.2,0.1,0.4,0.1,0.6,0.1c0.9,0,1.7-0.6,1.9-1.4L61.1,3.8C61.3,3.3,61.2,2.8,61,2.3z"/>
	</g>
</g>
</svg>
