<?xml version="1.0" encoding="utf-8"?>
<!-- Generator: Adobe Illustrator 24.0.1, SVG Export Plug-In . SVG Version: 6.00 Build 0)  -->
<svg version="1.1" id="Capa_1" xmlns="http://www.w3.org/2000/svg" xmlns:xlink="http://www.w3.org/1999/xlink" x="0px" y="0px"
	 viewBox="0 0 512 512" style="enable-background:new 0 0 512 512;" xml:space="preserve">
<g>
	<g>
		<path d="M251.7,105.8c-25.2,0-47.3,20.5-47.3,45.8s22.1,45.8,47.3,45.8s47.3-20.5,47.3-45.8S276.9,105.8,251.7,105.8z"/>
	</g>
</g>
<g>
	<g>
		<path d="M251.7,243c-63.1,0-115.9,54.4-115.9,117.4V372c0,6.2,5,11.3,11.3,11.3h209.3c6.2,0,11.3-5,11.3-11.3v-11.6
			C367.6,297.4,314.7,243,251.7,243z"/>
	</g>
</g>
<g>
	<g>
		<path d="M512,0H0v512h512V0z M413.3,360.4v57.4c0,6.2-5,11.3-11.3,11.3H101.3c-6.2,0-11.3-5-11.3-11.3v-57.4
			c0-59.5,32.8-113.8,81.1-141.7c5.6-3.3,7.2-10.7,3.5-16.1c-10-14.6-16-32.2-16-51.2c0-50.5,42.6-91.5,93-91.5s93,41,93,91.5
			c0,19-6,36.6-16,51.2c-3.7,5.4-2.1,12.8,3.5,16.1C380.5,246.7,413.3,301,413.3,360.4z"/>
	</g>
</g>
<path d="M97.8,422"/>
</svg>
