<?xml version="1.0" encoding="utf-8"?>
<!-- Generator: Adobe Illustrator 24.0.1, SVG Export Plug-In . SVG Version: 6.00 Build 0)  -->
<svg version="1.1" id="Capa_1" xmlns="http://www.w3.org/2000/svg" xmlns:xlink="http://www.w3.org/1999/xlink" x="0px" y="0px"
	 viewBox="0 0 57 60" style="enable-background:new 0 0 57 60;" xml:space="preserve">
<g>
	<path d="M31.9,18.1c0.4-0.9,0.5-1.9,0.3-2.9C32.1,14.5,32,13.8,32,13s0.1-1.5,0.2-2.2c0.2-0.9,0.1-2-0.3-2.9C29.9,3.1,25.2,0,20,0
		c-2.8,0-5,2.2-5,5v1h-2v14h2v1c0,2.8,2.2,5,5,5C25.2,26,29.9,22.9,31.9,18.1z"/>
	<path d="M42,27c0-2.8-2.2-5-5-5c-5.2,0-9.9,3.1-11.9,7.9c-0.4,0.9-0.5,1.9-0.3,2.9c0.2,0.7,0.2,1.5,0.2,2.2s-0.1,1.5-0.2,2.2
		c-0.2,1-0.1,2,0.3,2.9C27.1,44.9,31.8,48,37,48c2.8,0,5-2.2,5-5v-1h2V28h-2V27z"/>
	<path d="M0,15v16.3C0,32.8,1.2,34,2.7,34H4v26h2V34h1.3c1.5,0,2.7-1.2,2.7-2.7V20.7c0-0.4,0.3-0.7,0.7-0.7H11V6H9C4,6,0,10,0,15z"
		/>
	<path d="M48,28h-2v14h0.3c0.4,0,0.7,0.3,0.7,0.7v10.6c0,1.5,1.2,2.7,2.7,2.7H51v4h2v-4h1.3c1.5,0,2.7-1.2,2.7-2.7V37
		C57,32,53,28,48,28z"/>
</g>
</svg>
