<?xml version="1.0" encoding="utf-8"?>
<!-- Generator: Adobe Illustrator 24.0.1, SVG Export Plug-In . SVG Version: 6.00 Build 0)  -->
<svg version="1.1" id="Слой_1" xmlns="http://www.w3.org/2000/svg" xmlns:xlink="http://www.w3.org/1999/xlink" x="0px" y="0px"
	 viewBox="0 0 512 308" style="enable-background:new 0 0 512 308;" xml:space="preserve">
<path d="M507.5,111.7L259.1,0.7c-2-0.9-4.2-0.9-6.2,0l-100.7,45c-3.8,1.7-5.5,6.2-3.8,10s6.2,5.5,10,3.8L256,15.9l89.4,40v55.8
	C297.9,94.3,258,93,256.2,92.9c-0.1,0-0.3,0-0.4,0c-1.9,0.1-47.7,1.6-99.6,22.7c-20.7,8.4-39.6,19-56.2,31.2
	c-1.2,0.9-2.1,2.2-2.6,3.6l-71.2-31.9L126,74c3.8-1.7,5.5-6.2,3.8-10c-1.7-3.8-6.2-5.5-10-3.8L4.5,111.7C1.8,113,0,115.7,0,118.7
	c0,3,1.8,5.7,4.5,6.9l92.5,41.4v36.3c0,4.2,3.4,7.6,7.6,7.6c4.2,0,7.6-3.4,7.6-7.6v-41c0,0,0,0,0,0v-5.3
	c14.8-10.6,31.6-19.7,49.8-27.2c47.5-19.4,90.7-21.5,94.1-21.6c3.3,0.1,43.7,2.1,89.4,19.7v75.3c-11.1,3.3-19.2,13.5-19.2,25.7
	c0,11.1,6.8,20.7,16.6,24.7l-5.3,13.9c-34.6,5.9-61.9,14.1-81.4,24.4c-44.9-23.6-120.2-30.3-143.9-31.8v-21.2c0-4.2-3.4-7.6-7.6-7.6
	c-4.2,0-7.6,3.4-7.6,7.6v28.4c0,4.1,3.2,7.4,7.2,7.6c1,0,99.4,4.6,148.1,32.3c1.2,0.7,2.5,1,3.7,1c1.3,0,2.6-0.3,3.7-1
	c16.4-9.3,40.9-17.2,71.4-23.1l-4.5,11.8c-0.9,2.3-0.6,4.9,0.8,7c1.4,2,3.7,3.3,6.2,3.3h38.4c2.5,0,4.8-1.2,6.2-3.3
	c1.4-2.1,1.7-4.7,0.8-7l-6.8-18c20.6-2.4,35.3-3,35.4-3c4.1-0.2,7.2-3.5,7.2-7.6v-28.4c0-4.2-3.4-7.6-7.6-7.6
	c-4.2,0-7.6,3.4-7.6,7.6V260c-7.1,0.5-18.8,1.4-33.1,3.1l-3.7-9.6c9.7-4,16.6-13.6,16.6-24.7c0-12.1-8.1-22.4-19.2-25.7v-68.8
	c14.2,6.5,27.4,14.1,39.4,22.6v5.3v0v41c0,4.2,3.4,7.6,7.6,7.6c4.2,0,7.6-3.4,7.6-7.6v-36.3l92.5-41.4c2.7-1.2,4.5-3.9,4.5-6.9
	C512,115.7,510.2,113,507.5,111.7z M344.7,290.8l8.2-21.6l8.2,21.6H344.7z M364.6,228.7c0,6.4-5.2,11.6-11.6,11.6
	c-6.4,0-11.6-5.2-11.6-11.6c0-6.4,5.2-11.6,11.6-11.6C359.3,217.1,364.6,222.3,364.6,228.7z M414.6,150.5c-0.5-1.4-1.4-2.7-2.6-3.6
	c-15.3-11.3-32.6-21.2-51.5-29.2V62.6l125.4,56.1L414.6,150.5z"/>
</svg>
