<?xml version="1.0" encoding="utf-8"?>
<!-- Generator: Adobe Illustrator 24.0.1, SVG Export Plug-In . SVG Version: 6.00 Build 0)  -->
<svg version="1.1" id="Solid" xmlns="http://www.w3.org/2000/svg" xmlns:xlink="http://www.w3.org/1999/xlink" x="0px" y="0px"
	 viewBox="0 0 415 424" style="enable-background:new 0 0 415 424;" xml:space="preserve">
<path d="M121,207.9c8,20.9,22.1,38.9,40.4,51.7C180.5,239,191,212,191,184c-0.5-14.7-3.4-29.2-8.7-42.9L91.8,131L121,207.9z
	 M151,160h16v16h-16V160z"/>
<path d="M294.4,331c-1.2,3-4.2,5-7.4,5h-16c-17.7,0-32,14.3-32,32h48c4.4,0,8,3.6,8,8v48c17.7,0,32-14.3,32-32v-16c0-4.4,3.6-8,8-8
	c41.1-0.1,75.4-31.1,79.6-72H308.4L294.4,331z"/>
<path d="M106,213.6l-29.3-76.9c-2.6-7.1-10.4-10.7-17.5-8s-10.7,10.4-8,17.5l5.1,13.8H71v16h-8.7l17.1,46.4
	c12.8,34.5,45.7,57.5,82.6,57.6h2.1C137.4,265.4,116.9,241.9,106,213.6z"/>
<path d="M294.9,153.7l-95-10.6c4.3,13.2,6.7,27,7.1,40.9c0.1,30.9-11.1,60.8-31.5,83.9c15.6,7.9,32.8,12,50.2,12.1h189.1
	C410.9,214.3,360.3,161,294.9,153.7z M287,248c0,4.4-3.6,8-8,8c-0.4,0-0.9,0-1.3-0.1l-48-8l2.6-15.8l38.7,6.4v-45.1l-38.7,6.4
	l-2.6-15.8l48-8c4.4-0.7,8.5,2.2,9.2,6.6c0.1,0.4,0.1,0.9,0.1,1.4V248z"/>
<path d="M47,96h340c15.5,0,28-12.5,28-28s-12.5-28-28-28H107c-6.6,0-12-5.4-12-12s5.4-12,12-12h148V0H107C91.5,0,79,12.5,79,28
	s12.5,28,28,28h280c6.6,0,12,5.4,12,12s-5.4,12-12,12H47c-26.5,0.6-47.5,22.5-47,49c0.5,25,20.2,45.4,45.1,46.9l-6.3-17.1
	C21.8,154.4,11.5,137,16,119.9C19.6,105.8,32.4,96,47,96L47,96z"/>
<path d="M271,0h16v16h-16V0z"/>
<path d="M303,0h16v16h-16V0z"/>
</svg>
