<?xml version="1.0" encoding="utf-8"?>
<!-- Generator: Adobe Illustrator 24.0.1, SVG Export Plug-In . SVG Version: 6.00 Build 0)  -->
<svg version="1.1" id="Capa_1" xmlns="http://www.w3.org/2000/svg" xmlns:xlink="http://www.w3.org/1999/xlink" x="0px" y="0px"
	 viewBox="0 0 53.6 35.5" style="enable-background:new 0 0 53.6 35.5;" xml:space="preserve">
<path d="M48.8,6.3C41.7-5.4,31.1,2.7,31.1,2.7c-0.7,0.5-2,1-2.8,1l-2.9,0c-0.9,0-2.1-0.4-2.8-1c0,0-10.7-8.1-17.8,3.5
	c-7.1,11.6-4.2,24.3-4.2,24.3c0.5,3.1,2.1,5.2,5.3,4.9c3.1-0.3,9.8-8.4,9.8-8.4c0.6-0.7,1.7-1.2,2.6-1.2l17.1,0c0.9,0,2,0.5,2.6,1.2
	c0,0,6.7,8.1,9.8,8.4c3.1,0.3,4.8-1.8,5.3-4.9C53.1,30.6,55.9,17.9,48.8,6.3z M20.4,15.8h-3.7v3.5c0,0-0.8,0.6-2,0.6
	c-1.2,0-1.7-0.6-1.7-0.6v-3.5H9.5c0,0-0.4-0.4-0.5-1.6C8.8,13,9.4,12,9.4,12h3.7V8.4c0,0,0.8-0.4,1.8-0.4c1.1,0,1.9,0.4,1.9,0.4
	l0,3.6h3.5c0,0,0.6,0.8,0.7,1.7C21,14.7,20.4,15.8,20.4,15.8z M37.2,19.8c-1.6,0-2.9-1.3-2.9-2.9c0-1.6,1.3-2.9,2.9-2.9
	c1.6,0,2.9,1.3,2.9,2.9C40.1,18.5,38.8,19.8,37.2,19.8z M37.2,11.8c-1.6,0-2.9-1.3-2.9-2.9c0-1.6,1.3-2.9,2.9-2.9
	c1.6,0,2.9,1.3,2.9,2.9C40.1,10.5,38.8,11.8,37.2,11.8z M44.5,16.1c-1.6,0-2.9-1.3-2.9-2.9c0-1.6,1.3-2.9,2.9-2.9
	c1.6,0,2.9,1.3,2.9,2.9C47.4,14.8,46.1,16.1,44.5,16.1z"/>
</svg>
