<?xml version="1.0" encoding="utf-8"?>
<!-- Generator: Adobe Illustrator 24.0.1, SVG Export Plug-In . SVG Version: 6.00 Build 0)  -->
<svg version="1.1" id="Capa_1" xmlns="http://www.w3.org/2000/svg" xmlns:xlink="http://www.w3.org/1999/xlink" x="0px" y="0px"
	 viewBox="0 0 110.7 66.9" style="enable-background:new 0 0 110.7 66.9;" xml:space="preserve">
<g>
	<path d="M23.6,22.7c0.3,0.4,0.5,0.9,0.5,1.3v4.6c0,0.9-0.7,1.6-1.6,1.6h-3.5c-0.9,0-1.6-0.7-1.6-1.6V24c0-0.5,0.3-1.2,0.7-1.5
		l2.2-2.4c0.2-0.2,0.6-0.2,0.8,0L23.6,22.7L23.6,22.7L23.6,22.7z M19.6,18.2L17,15.8v0c-0.4-0.3-0.9-0.5-1.3-0.5h-4.6
		c-0.9,0-1.6,0.7-1.6,1.6v3.5c0,0.9,0.7,1.6,1.6,1.6h4.6c0.5,0,1.2-0.3,1.5-0.7l2.4-2.2C19.9,18.8,19.9,18.5,19.6,18.2z M43.5,17.8
		h23.8c1.2,0,2.1-1,2.1-2.1v0V3.3V3.2c0-1.2-1-2.1-2.1-2.1H43.5c-1.2,0-2.1,1-2.1,2.1v0v12.3v0.1C41.3,16.9,42.3,17.8,43.5,17.8z
		 M20.4,17.8c0.2,0.2,0.6,0.2,0.8,0l2.4-2.6h0c0.3-0.4,0.5-0.9,0.5-1.3V9.2c0-0.9-0.7-1.6-1.6-1.6h-3.5c-0.9,0-1.6,0.7-1.6,1.6v4.6
		c0,0.5,0.3,1.2,0.7,1.5L20.4,17.8z M98.1,14.8c2,0,3.6,1.6,3.6,3.6c0,2-1.6,3.6-3.6,3.6c-2,0-3.6-1.6-3.6-3.6
		C94.5,16.4,96.1,14.8,98.1,14.8z M98.1,16c-1.3,0-2.4,1.1-2.4,2.4s1.1,2.4,2.4,2.4c1.3,0,2.4-1.1,2.4-2.4
		C100.5,17.1,99.4,16,98.1,16z M88.2,11.9h3.5l-1.7-3L88.2,11.9z M93.6,10.6c0,2-1.6,3.6-3.6,3.6c-2,0-3.6-1.6-3.6-3.6S87.9,7,90,7
		C92,7,93.6,8.6,93.6,10.6z M92.5,12.3L90,8l-2.5,4.3H92.5z M96.2,18.4c0,1.1,0.9,1.9,1.9,1.9s1.9-0.9,1.9-1.9
		c0-1.1-0.9-1.9-1.9-1.9S96.2,17.3,96.2,18.4z M93.6,26.3c0,2-1.6,3.6-3.6,3.6c-2,0-3.6-1.6-3.6-3.6c0-2,1.6-3.6,3.6-3.6
		C92,22.7,93.6,24.3,93.6,26.3z M90.5,26.3l1.7-1.7l-0.4-0.4l-1.7,1.7l-1.7-1.7l-0.4,0.4l1.7,1.7L87.9,28l0.4,0.4l1.7-1.7l1.7,1.7
		l0.4-0.4L90.5,26.3z M110.7,55.4c0,3.6-0.8,6.1-4.4,9c-6.1,4.7-14.4,1.6-16.1-0.9c-1.8-2.6-3.2-6.6-4.4-10.1
		c-1-2.8-1.9-5.7-2.9-8.5c-0.3-0.9-1.1-1.2-1.8-1.6c-0.1,0-0.3,0.1-0.4,0.1c-4.2,3.1-9.6,3-13.7-0.2c-0.2-0.2-0.5-0.3-0.8-0.3
		c-1.2,0-4.3,0-7.4,0v0c-0.7,0-1.9,0-3.4,0c-1.5,0-2.8,0-3.4,0v0c-3.1,0-6.2,0-7.4,0c-0.3,0-0.6,0.1-0.8,0.3
		c-4.1,3.2-9.5,3.3-13.7,0.2c-0.1-0.1-0.3-0.2-0.4-0.1c-0.8,0.3-1.5,0.7-1.8,1.6c-0.9,2.8-1.9,5.7-2.9,8.5
		c-1.2,3.5-2.7,7.5-4.4,10.1c-1.8,2.6-10,5.7-16.1,0.9c-3.5-2.9-4.3-5.4-4.4-9c0-2.7,0.1-5.5,0.4-8.2C1,41.7,2,36.3,3.2,30.8
		C4.2,25.5,5.5,20.2,7.1,15c0.7-2.4,1.6-4.7,2.9-6.7c1.1-1.6,2.1-3.3,3.2-4.9c0.2-0.3,0.6-0.5,0.9-0.7c0.2-0.1,0.4-0.2,0.4-0.6
		c0-0.2,0.2-0.4,0.3-0.5c0.2-0.2,0.5-0.3,0.8-0.4c3.9-1.6,7.8-1.7,11.7-0.2c0.3,0.1,0.5,0.4,0.5,0.7c0,0.5,0.2,0.8,0.7,0.9
		c0,0,0.1,0,0.1,0c0.9,0.5,1.9,0.6,2.9,0.6h8.7l0,12.3c0,1.8,1.4,3.2,3.2,3.2h23.8c1.8,0,3.2-1.4,3.2-3.2V3.3h8.7c1,0,2-0.2,2.9-0.6
		c0,0,0.1,0,0.1,0c0.5,0,0.8-0.3,0.7-0.9c0-0.3,0.2-0.6,0.5-0.7c3.9-1.5,7.8-1.4,11.7,0.2c0.3,0.1,0.5,0.3,0.8,0.4
		C96,1.8,96.2,2,96.2,2.2c0,0.3,0.2,0.4,0.4,0.6c0.3,0.2,0.7,0.4,0.9,0.7c1.1,1.6,2.2,3.2,3.2,4.9c1.4,2.1,2.2,4.4,2.9,6.7
		c1.6,5.2,2.8,10.5,3.9,15.8c1.1,5.4,2.1,10.9,2.7,16.4C110.6,49.9,110.8,52.7,110.7,55.4z M34.3,11.7c0,1.2,1,2.2,2.2,2.2
		s2.2-1,2.2-2.2V7.1c0-1.2-1-2.2-2.2-2.2c-1.2,0-2.2,1-2.2,2.2V11.7z M33.4,18.7c0-6.9-5.6-12.5-12.5-12.5C14,6.1,8.4,11.8,8.4,18.7
		c0,6.9,5.6,12.5,12.5,12.5C27.8,31.2,33.4,25.6,33.4,18.7z M43.5,37.2c0-3.6-2.9-6.5-6.5-6.5c-3.6,0-6.5,2.9-6.5,6.5
		s2.9,6.5,6.5,6.5C40.6,43.7,43.5,40.8,43.5,37.2z M55,37.3c0.1,0,0.3,0,0.4,0c0.4,0,0.7-0.2,0.9-0.6c0.1-0.2,0.2-0.5,0.1-0.8
		c0-0.6-0.5-1-1.1-1c-1.8,0-3.5,0-5.3,0c0,0-0.1,0-0.1,0c0,0.1,0,0.2,0,0.3c0,0.1,0,0.1,0.1,0.1c0.9,0,1.9,0,2.8,0c0.7,0,1.3,0,2,0
		c0.3,0,0.5,0.2,0.6,0.5c0,0.1,0,0.3,0,0.4c0,0.4-0.3,0.6-0.6,0.6c-1.3,0-2.5,0-3.8,0c-0.6,0-1.1,0.5-1.1,1c0,0.5,0,0.9,0,1.4
		c0,0.1,0,0.1,0.1,0.1c0.3,0,0.5,0,0.8,0c0.1,0,0.1,0,0.1-0.1c0-0.4,0-0.7,0-1.1c0-0.1,0-0.2,0-0.3c0-0.3,0.2-0.6,0.6-0.6
		C52.6,37.3,53.8,37.3,55,37.3z M62.3,34.9C62.3,34.9,62.3,34.9,62.3,34.9c-1.1,0-2.1,0-3.1,0c-0.3,0-0.6,0.2-0.8,0.4
		c-0.2,0.2-0.2,0.5-0.2,0.7c0,0.7,0,1.4,0,2.1c0,0.4-0.2,0.7-0.7,0.7c-0.8,0-1.7,0-2.5,0c0,0,0,0-0.1,0c-0.1,0-0.1,0-0.1,0.1
		c0,0.1,0,0.2,0,0.3c0,0.1,0,0.1,0.1,0.1c1,0,2,0,3,0c0.3,0,0.5-0.1,0.7-0.2c0.3-0.2,0.5-0.6,0.5-1c0-0.7,0-1.4,0-2
		c0-0.1,0-0.2,0-0.3c0-0.3,0.2-0.4,0.4-0.5c0.1,0,0.2,0,0.2,0c0.8,0,1.6,0,2.4,0c0,0,0,0,0.1,0c0,0,0.1,0,0.1-0.1
		C62.3,35.2,62.3,35.1,62.3,34.9z M71.9,11.7c0,1.2,1,2.2,2.2,2.2c1.2,0,2.2-1,2.2-2.2V7.1c0-1.2-1-2.2-2.2-2.2
		c-1.2,0-2.2,1-2.2,2.2V11.7z M80.3,37.2c0-3.6-2.9-6.5-6.5-6.5c-3.6,0-6.5,2.9-6.5,6.5s2.9,6.5,6.5,6.5
		C77.4,43.7,80.3,40.8,80.3,37.2z M102.4,18.7c0-6.9-5.6-12.5-12.5-12.5s-12.5,5.6-12.5,12.5c0,6.9,5.6,12.5,12.5,12.5
		S102.4,25.6,102.4,18.7z M85.7,18.5c0,2-1.6,3.6-3.6,3.6c-2,0-3.6-1.6-3.6-3.6c0-2,1.6-3.6,3.6-3.6C84.1,14.8,85.7,16.4,85.7,18.5z
		 M84,16.4h-4v4h4V16.4z M30.4,15.3h-4.6c-0.5,0-0.9,0.2-1.3,0.5v0l-2.6,2.4c-0.2,0.2-0.2,0.6,0,0.8l2.4,2.2c0.4,0.4,1,0.7,1.5,0.7
		h4.6c0.9,0,1.6-0.7,1.6-1.6v-3.5C32,16,31.3,15.3,30.4,15.3z M83.6,16.9h-3.1v3.1h3.1V16.9z"/>
</g>
</svg>
