<?xml version="1.0" encoding="utf-8"?>
<!-- Generator: Adobe Illustrator 24.0.1, SVG Export Plug-In . SVG Version: 6.00 Build 0)  -->
<svg version="1.1" id="Слой_1" xmlns="http://www.w3.org/2000/svg" xmlns:xlink="http://www.w3.org/1999/xlink" x="0px" y="0px"
	 viewBox="0 0 512 457.4" style="enable-background:new 0 0 512 457.4;" xml:space="preserve">
<path d="M448.3,329.2l63.7-63.7l-63.7-63.7l10.3-10.3c17.8-17.8,17.8-46.7,0-64.4c-8.6-8.6-20-13.3-32.2-13.3
	c-12.2,0-23.6,4.7-32.2,13.3l-10.3,10.3l-63.7-63.7l-18.8,18.8v29.7c33.3,7.9,58.1,37.9,58.1,73.5c0,35.7-24.8,65.6-58.1,73.5v92.2
	h-55.2l-11,11l85,84.9l63.7-63.7l8.8,8.9c17.8,17.8,46.7,17.8,64.4,0s17.8-46.7,0-64.4L448.3,329.2z"/>
<path d="M271.3,331.4v-90.1h12.5c25.1,0,45.6-20.4,45.6-45.6c0-25.1-20.4-45.6-45.6-45.6h-12.5V60.1h-90.1V45.6
	c0-25.1-20.4-45.6-45.6-45.6c-25.1,0-45.6,20.4-45.6,45.6v14.5H0v90.1h12.5c22,0,40.5,15.7,44.7,36.6c1.8,2.5,2.9,5.6,2.9,9
	s-1.1,6.5-2.9,9c-4.2,20.8-22.6,36.6-44.7,36.6H0v90.1h90.1v-14.5c0-25.1,20.4-45.6,45.6-45.6c25.1,0,45.6,20.4,45.6,45.6v14.5
	H271.3z"/>
</svg>
