<?xml version="1.0" encoding="utf-8"?>
<!-- Generator: Adobe Illustrator 24.0.1, SVG Export Plug-In . SVG Version: 6.00 Build 0)  -->
<svg version="1.1" id="Слой_1" xmlns="http://www.w3.org/2000/svg" xmlns:xlink="http://www.w3.org/1999/xlink" x="0px" y="0px"
	 viewBox="0 0 640 640" style="enable-background:new 0 0 640 640;" xml:space="preserve">
<style type="text/css">
	.st0{fill-opacity:0;}
</style>
<g>
	<path id="a" d="M22.1,0v22.1H0V0H22.1z"/>
</g>
<g>
	<path id="a_1_" class="st0" d="M22.1,0v22.1H0V0H22.1z"/>
</g>
<g>
	<path id="b" d="M22.1,22.1v22.1H0V22.1H22.1z"/>
</g>
<g>
	<path id="b_1_" class="st0" d="M22.1,22.1v22.1H0V22.1H22.1z"/>
</g>
<g>
	<path id="c" d="M22.1,44.1v22.1H0V44.1H22.1z"/>
</g>
<g>
	<path id="c_1_" class="st0" d="M22.1,44.1v22.1H0V44.1H22.1z"/>
</g>
<g>
	<path id="d" d="M22.1,66.2v22.1H0V66.2H22.1z"/>
</g>
<g>
	<path id="d_1_" class="st0" d="M22.1,66.2v22.1H0V66.2H22.1z"/>
</g>
<g>
	<path id="e" d="M22.1,88.3v22.1H0V88.3H22.1z"/>
</g>
<g>
	<path id="e_1_" class="st0" d="M22.1,88.3v22.1H0V88.3H22.1z"/>
</g>
<g>
	<path id="f" d="M22.1,110.3v22.1H0v-22.1C0,110.3,22.1,110.3,22.1,110.3z"/>
</g>
<g>
	<path id="f_1_" class="st0" d="M22.1,110.3v22.1H0v-22.1C0,110.3,22.1,110.3,22.1,110.3z"/>
</g>
<g>
	<path id="g" d="M22.1,132.4v22.1H0v-22.1H22.1z"/>
</g>
<g>
	<path id="g_1_" class="st0" d="M22.1,132.4v22.1H0v-22.1H22.1z"/>
</g>
<g>
	<path id="h" d="M22.1,176.6v22.1H0v-22.1L22.1,176.6L22.1,176.6z"/>
</g>
<g>
	<path id="h_1_" class="st0" d="M22.1,176.6v22.1H0v-22.1L22.1,176.6L22.1,176.6z"/>
</g>
<g>
	<path id="i" d="M22.1,220.7v22.1H0v-22.1H22.1z"/>
</g>
<g>
	<path id="i_1_" class="st0" d="M22.1,220.7v22.1H0v-22.1H22.1z"/>
</g>
<g>
	<path id="j" d="M22.1,264.8v22.1H0v-22.1H22.1z"/>
</g>
<g>
	<path id="j_1_" class="st0" d="M22.1,264.8v22.1H0v-22.1H22.1z"/>
</g>
<g>
	<path id="k" d="M22.1,286.9V309H0v-22.1H22.1z"/>
</g>
<g>
	<path id="k_1_" class="st0" d="M22.1,286.9V309H0v-22.1H22.1z"/>
</g>
<g>
	<path id="l" d="M22.1,331v22.1H0V331H22.1z"/>
</g>
<g>
	<path id="l_1_" class="st0" d="M22.1,331v22.1H0V331H22.1z"/>
</g>
<g>
	<path id="m" d="M22.1,353.1v22.1H0v-22.1H22.1z"/>
</g>
<g>
	<path id="m_1_" class="st0" d="M22.1,353.1v22.1H0v-22.1H22.1z"/>
</g>
<g>
	<path id="n" d="M22.1,375.2v22.1H0v-22.1H22.1z"/>
</g>
<g>
	<path id="n_1_" class="st0" d="M22.1,375.2v22.1H0v-22.1H22.1z"/>
</g>
<g>
	<path id="o" d="M22.1,419.3v22.1H0v-22.1H22.1z"/>
</g>
<g>
	<path id="o_1_" class="st0" d="M22.1,419.3v22.1H0v-22.1H22.1z"/>
</g>
<g>
	<path id="p" d="M22.1,441.4v22.1H0v-22.1H22.1z"/>
</g>
<g>
	<path id="p_1_" class="st0" d="M22.1,441.4v22.1H0v-22.1H22.1z"/>
</g>
<g>
	<path id="q" d="M22.1,485.5v22.1H0v-22.1H22.1z"/>
</g>
<g>
	<path id="q_1_" class="st0" d="M22.1,485.5v22.1H0v-22.1H22.1z"/>
</g>
<g>
	<path id="r" d="M22.1,507.6v22.1H0v-22.1L22.1,507.6L22.1,507.6z"/>
</g>
<g>
	<path id="r_1_" class="st0" d="M22.1,507.6v22.1H0v-22.1L22.1,507.6L22.1,507.6z"/>
</g>
<g>
	<path id="s" d="M22.1,529.7v22.1H0v-22.1H22.1z"/>
</g>
<g>
	<path id="s_1_" class="st0" d="M22.1,529.7v22.1H0v-22.1H22.1z"/>
</g>
<g>
	<path id="t" d="M22.1,551.7v22.1H0v-22.1H22.1z"/>
</g>
<g>
	<path id="t_1_" class="st0" d="M22.1,551.7v22.1H0v-22.1H22.1z"/>
</g>
<g>
	<path id="u" d="M22.1,573.8v22.1H0v-22.1H22.1z"/>
</g>
<g>
	<path id="u_1_" class="st0" d="M22.1,573.8v22.1H0v-22.1H22.1z"/>
</g>
<g>
	<path id="v" d="M22.1,595.9v22.1H0v-22.1H22.1z"/>
</g>
<g>
	<path id="v_1_" class="st0" d="M22.1,595.9v22.1H0v-22.1H22.1z"/>
</g>
<g>
	<path id="w" d="M22.1,617.9V640H0v-22.1H22.1z"/>
</g>
<g>
	<path id="w_1_" class="st0" d="M22.1,617.9V640H0v-22.1H22.1z"/>
</g>
<g>
	<path id="x" d="M44.1,0v22.1H22.1V0H44.1z"/>
</g>
<g>
	<path id="x_1_" class="st0" d="M44.1,0v22.1H22.1V0H44.1z"/>
</g>
<g>
	<path id="y" d="M44.1,132.4v22.1H22.1v-22.1H44.1z"/>
</g>
<g>
	<path id="y_1_" class="st0" d="M44.1,132.4v22.1H22.1v-22.1H44.1z"/>
</g>
<g>
	<path id="z" d="M44.1,176.6v22.1H22.1v-22.1L44.1,176.6L44.1,176.6z"/>
</g>
<g>
	<path id="z_1_" class="st0" d="M44.1,176.6v22.1H22.1v-22.1L44.1,176.6L44.1,176.6z"/>
</g>
<g>
	<path id="A" d="M44.1,198.6v22.1H22.1v-22.1H44.1z"/>
</g>
<g>
	<path id="A_1_" class="st0" d="M44.1,198.6v22.1H22.1v-22.1H44.1z"/>
</g>
<g>
	<path id="B" d="M44.1,264.8v22.1H22.1v-22.1H44.1z"/>
</g>
<g>
	<path id="B_1_" class="st0" d="M44.1,264.8v22.1H22.1v-22.1H44.1z"/>
</g>
<g>
	<path id="C" d="M44.1,309V331H22.1V309H44.1z"/>
</g>
<g>
	<path id="C_1_" class="st0" d="M44.1,309V331H22.1V309H44.1z"/>
</g>
<g>
	<path id="D" d="M44.1,353.1v22.1H22.1v-22.1H44.1z"/>
</g>
<g>
	<path id="D_1_" class="st0" d="M44.1,353.1v22.1H22.1v-22.1H44.1z"/>
</g>
<g>
	<path id="E" d="M44.1,397.2v22.1H22.1v-22.1H44.1z"/>
</g>
<g>
	<path id="E_1_" class="st0" d="M44.1,397.2v22.1H22.1v-22.1H44.1z"/>
</g>
<g>
	<path id="F" d="M44.1,419.3v22.1H22.1v-22.1H44.1z"/>
</g>
<g>
	<path id="F_1_" class="st0" d="M44.1,419.3v22.1H22.1v-22.1H44.1z"/>
</g>
<g>
	<path id="G" d="M44.1,485.5v22.1H22.1v-22.1H44.1z"/>
</g>
<g>
	<path id="G_1_" class="st0" d="M44.1,485.5v22.1H22.1v-22.1H44.1z"/>
</g>
<g>
	<path id="H" d="M44.1,617.9V640H22.1v-22.1H44.1z"/>
</g>
<g>
	<path id="H_1_" class="st0" d="M44.1,617.9V640H22.1v-22.1H44.1z"/>
</g>
<g>
	<path id="I" d="M66.2,0v22.1H44.1V0H66.2z"/>
</g>
<g>
	<path id="I_1_" class="st0" d="M66.2,0v22.1H44.1V0H66.2z"/>
</g>
<g>
	<path id="J" d="M66.2,44.1v22.1H44.1V44.1H66.2z"/>
</g>
<g>
	<path id="J_1_" class="st0" d="M66.2,44.1v22.1H44.1V44.1H66.2z"/>
</g>
<g>
	<path id="K" d="M66.2,66.2v22.1H44.1V66.2H66.2z"/>
</g>
<g>
	<path id="K_1_" class="st0" d="M66.2,66.2v22.1H44.1V66.2H66.2z"/>
</g>
<g>
	<path id="L" d="M66.2,88.3v22.1H44.1V88.3H66.2z"/>
</g>
<g>
	<path id="L_1_" class="st0" d="M66.2,88.3v22.1H44.1V88.3H66.2z"/>
</g>
<g>
	<path id="M" d="M66.2,132.4v22.1H44.1v-22.1H66.2z"/>
</g>
<g>
	<path id="M_1_" class="st0" d="M66.2,132.4v22.1H44.1v-22.1H66.2z"/>
</g>
<g>
	<path id="N" d="M66.2,176.6v22.1H44.1v-22.1L66.2,176.6L66.2,176.6z"/>
</g>
<g>
	<path id="N_1_" class="st0" d="M66.2,176.6v22.1H44.1v-22.1L66.2,176.6L66.2,176.6z"/>
</g>
<g>
	<path id="O" d="M66.2,220.7v22.1H44.1v-22.1H66.2z"/>
</g>
<g>
	<path id="O_1_" class="st0" d="M66.2,220.7v22.1H44.1v-22.1H66.2z"/>
</g>
<g>
	<path id="P" d="M66.2,264.8v22.1H44.1v-22.1H66.2z"/>
</g>
<g>
	<path id="P_1_" class="st0" d="M66.2,264.8v22.1H44.1v-22.1H66.2z"/>
</g>
<g>
	<path id="Q" d="M66.2,286.9V309H44.1v-22.1H66.2z"/>
</g>
<g>
	<path id="Q_1_" class="st0" d="M66.2,286.9V309H44.1v-22.1H66.2z"/>
</g>
<g>
	<path id="R" d="M66.2,353.1v22.1H44.1v-22.1H66.2z"/>
</g>
<g>
	<path id="R_1_" class="st0" d="M66.2,353.1v22.1H44.1v-22.1H66.2z"/>
</g>
<g>
	<path id="S" d="M66.2,397.2v22.1H44.1v-22.1H66.2z"/>
</g>
<g>
	<path id="S_1_" class="st0" d="M66.2,397.2v22.1H44.1v-22.1H66.2z"/>
</g>
<g>
	<path id="T" d="M66.2,419.3v22.1H44.1v-22.1H66.2z"/>
</g>
<g>
	<path id="T_1_" class="st0" d="M66.2,419.3v22.1H44.1v-22.1H66.2z"/>
</g>
<g>
	<path id="U" d="M66.2,485.5v22.1H44.1v-22.1H66.2z"/>
</g>
<g>
	<path id="U_1_" class="st0" d="M66.2,485.5v22.1H44.1v-22.1H66.2z"/>
</g>
<g>
	<path id="V" d="M66.2,529.7v22.1H44.1v-22.1H66.2z"/>
</g>
<g>
	<path id="V_1_" class="st0" d="M66.2,529.7v22.1H44.1v-22.1H66.2z"/>
</g>
<g>
	<path id="W" d="M66.2,551.7v22.1H44.1v-22.1H66.2z"/>
</g>
<g>
	<path id="W_1_" class="st0" d="M66.2,551.7v22.1H44.1v-22.1H66.2z"/>
</g>
<g>
	<path id="X" d="M66.2,573.8v22.1H44.1v-22.1H66.2z"/>
</g>
<g>
	<path id="X_1_" class="st0" d="M66.2,573.8v22.1H44.1v-22.1H66.2z"/>
</g>
<g>
	<path id="Y" d="M66.2,617.9V640H44.1v-22.1H66.2z"/>
</g>
<g>
	<path id="Y_1_" class="st0" d="M66.2,617.9V640H44.1v-22.1H66.2z"/>
</g>
<g>
	<path id="Z" d="M88.3,0v22.1H66.2V0H88.3z"/>
</g>
<g>
	<path id="Z_1_" class="st0" d="M88.3,0v22.1H66.2V0H88.3z"/>
</g>
<g>
	<path id="aa" d="M88.3,44.1v22.1H66.2V44.1H88.3z"/>
</g>
<g>
	<path id="aa_1_" class="st0" d="M88.3,44.1v22.1H66.2V44.1H88.3z"/>
</g>
<g>
	<path id="ab" d="M88.3,66.2v22.1H66.2V66.2H88.3z"/>
</g>
<g>
	<path id="ab_1_" class="st0" d="M88.3,66.2v22.1H66.2V66.2H88.3z"/>
</g>
<g>
	<path id="ac" d="M88.3,88.3v22.1H66.2V88.3H88.3z"/>
</g>
<g>
	<path id="ac_1_" class="st0" d="M88.3,88.3v22.1H66.2V88.3H88.3z"/>
</g>
<g>
	<path id="ad" d="M88.3,132.4v22.1H66.2v-22.1H88.3z"/>
</g>
<g>
	<path id="ad_1_" class="st0" d="M88.3,132.4v22.1H66.2v-22.1H88.3z"/>
</g>
<g>
	<path id="ae" d="M88.3,176.6v22.1H66.2v-22.1L88.3,176.6L88.3,176.6z"/>
</g>
<g>
	<path id="ae_1_" class="st0" d="M88.3,176.6v22.1H66.2v-22.1L88.3,176.6L88.3,176.6z"/>
</g>
<g>
	<path id="af" d="M88.3,198.6v22.1H66.2v-22.1H88.3z"/>
</g>
<g>
	<path id="af_1_" class="st0" d="M88.3,198.6v22.1H66.2v-22.1H88.3z"/>
</g>
<g>
	<path id="ag" d="M88.3,220.7v22.1H66.2v-22.1H88.3z"/>
</g>
<g>
	<path id="ag_1_" class="st0" d="M88.3,220.7v22.1H66.2v-22.1H88.3z"/>
</g>
<g>
	<path id="ah" d="M88.3,242.8v22.1H66.2v-22.1L88.3,242.8L88.3,242.8z"/>
</g>
<g>
	<path id="ah_1_" class="st0" d="M88.3,242.8v22.1H66.2v-22.1L88.3,242.8L88.3,242.8z"/>
</g>
<g>
	<path id="ai" d="M88.3,331v22.1H66.2V331H88.3z"/>
</g>
<g>
	<path id="ai_1_" class="st0" d="M88.3,331v22.1H66.2V331H88.3z"/>
</g>
<g>
	<path id="aj" d="M88.3,397.2v22.1H66.2v-22.1H88.3z"/>
</g>
<g>
	<path id="aj_1_" class="st0" d="M88.3,397.2v22.1H66.2v-22.1H88.3z"/>
</g>
<g>
	<path id="ak" d="M88.3,419.3v22.1H66.2v-22.1H88.3z"/>
</g>
<g>
	<path id="ak_1_" class="st0" d="M88.3,419.3v22.1H66.2v-22.1H88.3z"/>
</g>
<g>
	<path id="al" d="M88.3,441.4v22.1H66.2v-22.1H88.3z"/>
</g>
<g>
	<path id="al_1_" class="st0" d="M88.3,441.4v22.1H66.2v-22.1H88.3z"/>
</g>
<g>
	<path id="am" d="M88.3,485.5v22.1H66.2v-22.1H88.3z"/>
</g>
<g>
	<path id="am_1_" class="st0" d="M88.3,485.5v22.1H66.2v-22.1H88.3z"/>
</g>
<g>
	<path id="an" d="M88.3,529.7v22.1H66.2v-22.1H88.3z"/>
</g>
<g>
	<path id="an_1_" class="st0" d="M88.3,529.7v22.1H66.2v-22.1H88.3z"/>
</g>
<g>
	<path id="ao" d="M88.3,551.7v22.1H66.2v-22.1H88.3z"/>
</g>
<g>
	<path id="ao_1_" class="st0" d="M88.3,551.7v22.1H66.2v-22.1H88.3z"/>
</g>
<g>
	<path id="ap" d="M88.3,573.8v22.1H66.2v-22.1H88.3z"/>
</g>
<g>
	<path id="ap_1_" class="st0" d="M88.3,573.8v22.1H66.2v-22.1H88.3z"/>
</g>
<g>
	<path id="aq" d="M88.3,617.9V640H66.2v-22.1H88.3z"/>
</g>
<g>
	<path id="aq_1_" class="st0" d="M88.3,617.9V640H66.2v-22.1H88.3z"/>
</g>
<g>
	<path id="ar" d="M110.3,0v22.1H88.3V0H110.3z"/>
</g>
<g>
	<path id="ar_1_" class="st0" d="M110.3,0v22.1H88.3V0H110.3z"/>
</g>
<g>
	<path id="as" d="M110.3,44.1v22.1H88.3V44.1H110.3z"/>
</g>
<g>
	<path id="as_1_" class="st0" d="M110.3,44.1v22.1H88.3V44.1H110.3z"/>
</g>
<g>
	<path id="at" d="M110.3,66.2v22.1H88.3V66.2H110.3z"/>
</g>
<g>
	<path id="at_1_" class="st0" d="M110.3,66.2v22.1H88.3V66.2H110.3z"/>
</g>
<g>
	<path id="au" d="M110.3,88.3v22.1H88.3V88.3H110.3z"/>
</g>
<g>
	<path id="au_1_" class="st0" d="M110.3,88.3v22.1H88.3V88.3H110.3z"/>
</g>
<g>
	<path id="av" d="M110.3,132.4v22.1H88.3v-22.1H110.3z"/>
</g>
<g>
	<path id="av_1_" class="st0" d="M110.3,132.4v22.1H88.3v-22.1H110.3z"/>
</g>
<g>
	<path id="aw" d="M110.3,242.8v22.1H88.3v-22.1L110.3,242.8L110.3,242.8z"/>
</g>
<g>
	<path id="aw_1_" class="st0" d="M110.3,242.8v22.1H88.3v-22.1L110.3,242.8L110.3,242.8z"/>
</g>
<g>
	<path id="ax" d="M110.3,286.9V309H88.3v-22.1H110.3z"/>
</g>
<g>
	<path id="ax_1_" class="st0" d="M110.3,286.9V309H88.3v-22.1H110.3z"/>
</g>
<g>
	<path id="ay" d="M110.3,309V331H88.3V309H110.3z"/>
</g>
<g>
	<path id="ay_1_" class="st0" d="M110.3,309V331H88.3V309H110.3z"/>
</g>
<g>
	<path id="az" d="M110.3,331v22.1H88.3V331H110.3z"/>
</g>
<g>
	<path id="az_1_" class="st0" d="M110.3,331v22.1H88.3V331H110.3z"/>
</g>
<g>
	<path id="aA" d="M110.3,441.4v22.1H88.3v-22.1H110.3z"/>
</g>
<g>
	<path id="aA_1_" class="st0" d="M110.3,441.4v22.1H88.3v-22.1H110.3z"/>
</g>
<g>
	<path id="aB" d="M110.3,485.5v22.1H88.3v-22.1H110.3z"/>
</g>
<g>
	<path id="aB_1_" class="st0" d="M110.3,485.5v22.1H88.3v-22.1H110.3z"/>
</g>
<g>
	<path id="aC" d="M110.3,529.7v22.1H88.3v-22.1H110.3z"/>
</g>
<g>
	<path id="aC_1_" class="st0" d="M110.3,529.7v22.1H88.3v-22.1H110.3z"/>
</g>
<g>
	<path id="aD" d="M110.3,551.7v22.1H88.3v-22.1H110.3z"/>
</g>
<g>
	<path id="aD_1_" class="st0" d="M110.3,551.7v22.1H88.3v-22.1H110.3z"/>
</g>
<g>
	<path id="aE" d="M110.3,573.8v22.1H88.3v-22.1H110.3z"/>
</g>
<g>
	<path id="aE_1_" class="st0" d="M110.3,573.8v22.1H88.3v-22.1H110.3z"/>
</g>
<g>
	<path id="aF" d="M110.3,617.9V640H88.3v-22.1H110.3z"/>
</g>
<g>
	<path id="aF_1_" class="st0" d="M110.3,617.9V640H88.3v-22.1H110.3z"/>
</g>
<g>
	<path id="aG" d="M132.4,0v22.1h-22.1V0H132.4z"/>
</g>
<g>
	<path id="aG_1_" class="st0" d="M132.4,0v22.1h-22.1V0H132.4z"/>
</g>
<g>
	<path id="aH" d="M132.4,132.4v22.1h-22.1v-22.1H132.4z"/>
</g>
<g>
	<path id="aH_1_" class="st0" d="M132.4,132.4v22.1h-22.1v-22.1H132.4z"/>
</g>
<g>
	<path id="aI" d="M132.4,198.6v22.1h-22.1v-22.1H132.4z"/>
</g>
<g>
	<path id="aI_1_" class="st0" d="M132.4,198.6v22.1h-22.1v-22.1H132.4z"/>
</g>
<g>
	<path id="aJ" d="M132.4,242.8v22.1h-22.1v-22.1L132.4,242.8L132.4,242.8z"/>
</g>
<g>
	<path id="aJ_1_" class="st0" d="M132.4,242.8v22.1h-22.1v-22.1L132.4,242.8L132.4,242.8z"/>
</g>
<g>
	<path id="aK" d="M132.4,264.8v22.1h-22.1v-22.1H132.4z"/>
</g>
<g>
	<path id="aK_1_" class="st0" d="M132.4,264.8v22.1h-22.1v-22.1H132.4z"/>
</g>
<g>
	<path id="aL" d="M132.4,441.4v22.1h-22.1v-22.1H132.4z"/>
</g>
<g>
	<path id="aL_1_" class="st0" d="M132.4,441.4v22.1h-22.1v-22.1H132.4z"/>
</g>
<g>
	<path id="aM" d="M132.4,485.5v22.1h-22.1v-22.1H132.4z"/>
</g>
<g>
	<path id="aM_1_" class="st0" d="M132.4,485.5v22.1h-22.1v-22.1H132.4z"/>
</g>
<g>
	<path id="aN" d="M132.4,617.9V640h-22.1v-22.1H132.4z"/>
</g>
<g>
	<path id="aN_1_" class="st0" d="M132.4,617.9V640h-22.1v-22.1H132.4z"/>
</g>
<g>
	<path id="aO" d="M154.5,0v22.1h-22.1V0H154.5L154.5,0z"/>
</g>
<g>
	<path id="aO_1_" class="st0" d="M154.5,0v22.1h-22.1V0H154.5L154.5,0z"/>
</g>
<g>
	<path id="aP" d="M154.5,22.1v22.1h-22.1V22.1H154.5L154.5,22.1z"/>
</g>
<g>
	<path id="aP_1_" class="st0" d="M154.5,22.1v22.1h-22.1V22.1H154.5L154.5,22.1z"/>
</g>
<g>
	<path id="aQ" d="M154.5,44.1v22.1h-22.1V44.1H154.5L154.5,44.1z"/>
</g>
<g>
	<path id="aQ_1_" class="st0" d="M154.5,44.1v22.1h-22.1V44.1H154.5L154.5,44.1z"/>
</g>
<g>
	<path id="aR" d="M154.5,66.2v22.1h-22.1V66.2H154.5L154.5,66.2z"/>
</g>
<g>
	<path id="aR_1_" class="st0" d="M154.5,66.2v22.1h-22.1V66.2H154.5L154.5,66.2z"/>
</g>
<g>
	<path id="aS" d="M154.5,88.3v22.1h-22.1V88.3H154.5L154.5,88.3z"/>
</g>
<g>
	<path id="aS_1_" class="st0" d="M154.5,88.3v22.1h-22.1V88.3H154.5L154.5,88.3z"/>
</g>
<g>
	<path id="aT" d="M154.5,110.3v22.1h-22.1v-22.1L154.5,110.3L154.5,110.3z"/>
</g>
<g>
	<path id="aT_1_" class="st0" d="M154.5,110.3v22.1h-22.1v-22.1L154.5,110.3L154.5,110.3z"/>
</g>
<g>
	<path id="aU" d="M154.5,132.4v22.1h-22.1v-22.1H154.5L154.5,132.4z"/>
</g>
<g>
	<path id="aU_1_" class="st0" d="M154.5,132.4v22.1h-22.1v-22.1H154.5L154.5,132.4z"/>
</g>
<g>
	<path id="aV" d="M154.5,176.6v22.1h-22.1v-22.1L154.5,176.6L154.5,176.6z"/>
</g>
<g>
	<path id="aV_1_" class="st0" d="M154.5,176.6v22.1h-22.1v-22.1L154.5,176.6L154.5,176.6z"/>
</g>
<g>
	<path id="aW" d="M154.5,220.7v22.1h-22.1v-22.1H154.5L154.5,220.7z"/>
</g>
<g>
	<path id="aW_1_" class="st0" d="M154.5,220.7v22.1h-22.1v-22.1H154.5L154.5,220.7z"/>
</g>
<g>
	<path id="aX" d="M154.5,264.8v22.1h-22.1v-22.1H154.5L154.5,264.8z"/>
</g>
<g>
	<path id="aX_1_" class="st0" d="M154.5,264.8v22.1h-22.1v-22.1H154.5L154.5,264.8z"/>
</g>
<g>
	<path id="aY" d="M154.5,309V331h-22.1V309H154.5L154.5,309z"/>
</g>
<g>
	<path id="aY_1_" class="st0" d="M154.5,309V331h-22.1V309H154.5L154.5,309z"/>
</g>
<g>
	<path id="aZ" d="M154.5,353.1v22.1h-22.1v-22.1H154.5L154.5,353.1z"/>
</g>
<g>
	<path id="aZ_1_" class="st0" d="M154.5,353.1v22.1h-22.1v-22.1H154.5L154.5,353.1z"/>
</g>
<g>
	<path id="ba" d="M154.5,397.2v22.1h-22.1v-22.1H154.5L154.5,397.2z"/>
</g>
<g>
	<path id="ba_1_" class="st0" d="M154.5,397.2v22.1h-22.1v-22.1H154.5L154.5,397.2z"/>
</g>
<g>
	<path id="bb" d="M154.5,441.4v22.1h-22.1v-22.1H154.5L154.5,441.4z"/>
</g>
<g>
	<path id="bb_1_" class="st0" d="M154.5,441.4v22.1h-22.1v-22.1H154.5L154.5,441.4z"/>
</g>
<g>
	<path id="bc" d="M154.5,485.5v22.1h-22.1v-22.1H154.5L154.5,485.5z"/>
</g>
<g>
	<path id="bc_1_" class="st0" d="M154.5,485.5v22.1h-22.1v-22.1H154.5L154.5,485.5z"/>
</g>
<g>
	<path id="bd" d="M154.5,507.6v22.1h-22.1v-22.1L154.5,507.6L154.5,507.6z"/>
</g>
<g>
	<path id="bd_1_" class="st0" d="M154.5,507.6v22.1h-22.1v-22.1L154.5,507.6L154.5,507.6z"/>
</g>
<g>
	<path id="be" d="M154.5,529.7v22.1h-22.1v-22.1H154.5L154.5,529.7z"/>
</g>
<g>
	<path id="be_1_" class="st0" d="M154.5,529.7v22.1h-22.1v-22.1H154.5L154.5,529.7z"/>
</g>
<g>
	<path id="bf" d="M154.5,551.7v22.1h-22.1v-22.1H154.5L154.5,551.7z"/>
</g>
<g>
	<path id="bf_1_" class="st0" d="M154.5,551.7v22.1h-22.1v-22.1H154.5L154.5,551.7z"/>
</g>
<g>
	<path id="bg" d="M154.5,573.8v22.1h-22.1v-22.1H154.5L154.5,573.8z"/>
</g>
<g>
	<path id="bg_1_" class="st0" d="M154.5,573.8v22.1h-22.1v-22.1H154.5L154.5,573.8z"/>
</g>
<g>
	<path id="bh" d="M154.5,595.9v22.1h-22.1v-22.1H154.5L154.5,595.9z"/>
</g>
<g>
	<path id="bh_1_" class="st0" d="M154.5,595.9v22.1h-22.1v-22.1H154.5L154.5,595.9z"/>
</g>
<g>
	<path id="bi" d="M154.5,617.9V640h-22.1v-22.1H154.5L154.5,617.9z"/>
</g>
<g>
	<path id="bi_1_" class="st0" d="M154.5,617.9V640h-22.1v-22.1H154.5L154.5,617.9z"/>
</g>
<g>
	<path id="bj" d="M176.6,198.6v22.1h-22.1v-22.1H176.6L176.6,198.6z"/>
</g>
<g>
	<path id="bj_1_" class="st0" d="M176.6,198.6v22.1h-22.1v-22.1H176.6L176.6,198.6z"/>
</g>
<g>
	<path id="bk" d="M176.6,309V331h-22.1V309H176.6L176.6,309z"/>
</g>
<g>
	<path id="bk_1_" class="st0" d="M176.6,309V331h-22.1V309H176.6L176.6,309z"/>
</g>
<g>
	<path id="bl" d="M176.6,331v22.1h-22.1V331H176.6L176.6,331z"/>
</g>
<g>
	<path id="bl_1_" class="st0" d="M176.6,331v22.1h-22.1V331H176.6L176.6,331z"/>
</g>
<g>
	<path id="bm" d="M176.6,441.4v22.1h-22.1v-22.1H176.6L176.6,441.4z"/>
</g>
<g>
	<path id="bm_1_" class="st0" d="M176.6,441.4v22.1h-22.1v-22.1H176.6L176.6,441.4z"/>
</g>
<g>
	<path id="bn" d="M198.6,0v22.1h-22.1V0H198.6z"/>
</g>
<g>
	<path id="bn_1_" class="st0" d="M198.6,0v22.1h-22.1V0H198.6z"/>
</g>
<g>
	<path id="bo" d="M198.6,44.1v22.1h-22.1V44.1H198.6z"/>
</g>
<g>
	<path id="bo_1_" class="st0" d="M198.6,44.1v22.1h-22.1V44.1H198.6z"/>
</g>
<g>
	<path id="bp" d="M198.6,66.2v22.1h-22.1V66.2H198.6z"/>
</g>
<g>
	<path id="bp_1_" class="st0" d="M198.6,66.2v22.1h-22.1V66.2H198.6z"/>
</g>
<g>
	<path id="bq" d="M198.6,88.3v22.1h-22.1V88.3H198.6z"/>
</g>
<g>
	<path id="bq_1_" class="st0" d="M198.6,88.3v22.1h-22.1V88.3H198.6z"/>
</g>
<g>
	<path id="br" d="M198.6,132.4v22.1h-22.1v-22.1H198.6z"/>
</g>
<g>
	<path id="br_1_" class="st0" d="M198.6,132.4v22.1h-22.1v-22.1H198.6z"/>
</g>
<g>
	<path id="bs" d="M198.6,176.6v22.1h-22.1v-22.1L198.6,176.6L198.6,176.6z"/>
</g>
<g>
	<path id="bs_1_" class="st0" d="M198.6,176.6v22.1h-22.1v-22.1L198.6,176.6L198.6,176.6z"/>
</g>
<g>
	<path id="bt" d="M198.6,220.7v22.1h-22.1v-22.1H198.6z"/>
</g>
<g>
	<path id="bt_1_" class="st0" d="M198.6,220.7v22.1h-22.1v-22.1H198.6z"/>
</g>
<g>
	<path id="bu" d="M198.6,242.8v22.1h-22.1v-22.1L198.6,242.8L198.6,242.8z"/>
</g>
<g>
	<path id="bu_1_" class="st0" d="M198.6,242.8v22.1h-22.1v-22.1L198.6,242.8L198.6,242.8z"/>
</g>
<g>
	<path id="bv" d="M198.6,286.9V309h-22.1v-22.1H198.6z"/>
</g>
<g>
	<path id="bv_1_" class="st0" d="M198.6,286.9V309h-22.1v-22.1H198.6z"/>
</g>
<g>
	<path id="bw" d="M198.6,397.2v22.1h-22.1v-22.1H198.6z"/>
</g>
<g>
	<path id="bw_1_" class="st0" d="M198.6,397.2v22.1h-22.1v-22.1H198.6z"/>
</g>
<g>
	<path id="bx" d="M198.6,419.3v22.1h-22.1v-22.1H198.6z"/>
</g>
<g>
	<path id="bx_1_" class="st0" d="M198.6,419.3v22.1h-22.1v-22.1H198.6z"/>
</g>
<g>
	<path id="by" d="M198.6,463.5v22.1h-22.1v-22.1H198.6z"/>
</g>
<g>
	<path id="by_1_" class="st0" d="M198.6,463.5v22.1h-22.1v-22.1H198.6z"/>
</g>
<g>
	<path id="bz" d="M198.6,551.7v22.1h-22.1v-22.1H198.6z"/>
</g>
<g>
	<path id="bz_1_" class="st0" d="M198.6,551.7v22.1h-22.1v-22.1H198.6z"/>
</g>
<g>
	<path id="bA" d="M198.6,573.8v22.1h-22.1v-22.1H198.6z"/>
</g>
<g>
	<path id="bA_1_" class="st0" d="M198.6,573.8v22.1h-22.1v-22.1H198.6z"/>
</g>
<g>
	<path id="bB" d="M198.6,595.9v22.1h-22.1v-22.1H198.6z"/>
</g>
<g>
	<path id="bB_1_" class="st0" d="M198.6,595.9v22.1h-22.1v-22.1H198.6z"/>
</g>
<g>
	<path id="bC" d="M198.6,617.9V640h-22.1v-22.1H198.6z"/>
</g>
<g>
	<path id="bC_1_" class="st0" d="M198.6,617.9V640h-22.1v-22.1H198.6z"/>
</g>
<g>
	<path id="bD" d="M220.7,0v22.1h-22.1V0H220.7z"/>
</g>
<g>
	<path id="bD_1_" class="st0" d="M220.7,0v22.1h-22.1V0H220.7z"/>
</g>
<g>
	<path id="bE" d="M220.7,66.2v22.1h-22.1V66.2H220.7z"/>
</g>
<g>
	<path id="bE_1_" class="st0" d="M220.7,66.2v22.1h-22.1V66.2H220.7z"/>
</g>
<g>
	<path id="bF" d="M220.7,88.3v22.1h-22.1V88.3H220.7z"/>
</g>
<g>
	<path id="bF_1_" class="st0" d="M220.7,88.3v22.1h-22.1V88.3H220.7z"/>
</g>
<g>
	<path id="bG" d="M220.7,110.3v22.1h-22.1v-22.1C198.6,110.3,220.7,110.3,220.7,110.3z"/>
</g>
<g>
	<path id="bG_1_" class="st0" d="M220.7,110.3v22.1h-22.1v-22.1C198.6,110.3,220.7,110.3,220.7,110.3z"/>
</g>
<g>
	<path id="bH" d="M220.7,154.5v22.1h-22.1v-22.1L220.7,154.5L220.7,154.5z"/>
</g>
<g>
	<path id="bH_1_" class="st0" d="M220.7,154.5v22.1h-22.1v-22.1L220.7,154.5L220.7,154.5z"/>
</g>
<g>
	<path id="bI" d="M220.7,198.6v22.1h-22.1v-22.1H220.7z"/>
</g>
<g>
	<path id="bI_1_" class="st0" d="M220.7,198.6v22.1h-22.1v-22.1H220.7z"/>
</g>
<g>
	<path id="bJ" d="M220.7,264.8v22.1h-22.1v-22.1H220.7z"/>
</g>
<g>
	<path id="bJ_1_" class="st0" d="M220.7,264.8v22.1h-22.1v-22.1H220.7z"/>
</g>
<g>
	<path id="bK" d="M220.7,309V331h-22.1V309H220.7z"/>
</g>
<g>
	<path id="bK_1_" class="st0" d="M220.7,309V331h-22.1V309H220.7z"/>
</g>
<g>
	<path id="bL" d="M220.7,331v22.1h-22.1V331H220.7z"/>
</g>
<g>
	<path id="bL_1_" class="st0" d="M220.7,331v22.1h-22.1V331H220.7z"/>
</g>
<g>
	<path id="bM" d="M220.7,353.1v22.1h-22.1v-22.1H220.7z"/>
</g>
<g>
	<path id="bM_1_" class="st0" d="M220.7,353.1v22.1h-22.1v-22.1H220.7z"/>
</g>
<g>
	<path id="bN" d="M220.7,375.2v22.1h-22.1v-22.1H220.7z"/>
</g>
<g>
	<path id="bN_1_" class="st0" d="M220.7,375.2v22.1h-22.1v-22.1H220.7z"/>
</g>
<g>
	<path id="bO" d="M220.7,397.2v22.1h-22.1v-22.1H220.7z"/>
</g>
<g>
	<path id="bO_1_" class="st0" d="M220.7,397.2v22.1h-22.1v-22.1H220.7z"/>
</g>
<g>
	<path id="bP" d="M220.7,419.3v22.1h-22.1v-22.1H220.7z"/>
</g>
<g>
	<path id="bP_1_" class="st0" d="M220.7,419.3v22.1h-22.1v-22.1H220.7z"/>
</g>
<g>
	<path id="bQ" d="M220.7,441.4v22.1h-22.1v-22.1H220.7z"/>
</g>
<g>
	<path id="bQ_1_" class="st0" d="M220.7,441.4v22.1h-22.1v-22.1H220.7z"/>
</g>
<g>
	<path id="bR" d="M220.7,485.5v22.1h-22.1v-22.1H220.7z"/>
</g>
<g>
	<path id="bR_1_" class="st0" d="M220.7,485.5v22.1h-22.1v-22.1H220.7z"/>
</g>
<g>
	<path id="bS" d="M220.7,551.7v22.1h-22.1v-22.1H220.7z"/>
</g>
<g>
	<path id="bS_1_" class="st0" d="M220.7,551.7v22.1h-22.1v-22.1H220.7z"/>
</g>
<g>
	<path id="bT" d="M242.8,88.3v22.1h-22.1V88.3H242.8L242.8,88.3z"/>
</g>
<g>
	<path id="bT_1_" class="st0" d="M242.8,88.3v22.1h-22.1V88.3H242.8L242.8,88.3z"/>
</g>
<g>
	<path id="bU" d="M242.8,132.4v22.1h-22.1v-22.1H242.8L242.8,132.4z"/>
</g>
<g>
	<path id="bU_1_" class="st0" d="M242.8,132.4v22.1h-22.1v-22.1H242.8L242.8,132.4z"/>
</g>
<g>
	<path id="bV" d="M242.8,286.9V309h-22.1v-22.1H242.8L242.8,286.9z"/>
</g>
<g>
	<path id="bV_1_" class="st0" d="M242.8,286.9V309h-22.1v-22.1H242.8L242.8,286.9z"/>
</g>
<g>
	<path id="bW" d="M242.8,353.1v22.1h-22.1v-22.1H242.8L242.8,353.1z"/>
</g>
<g>
	<path id="bW_1_" class="st0" d="M242.8,353.1v22.1h-22.1v-22.1H242.8L242.8,353.1z"/>
</g>
<g>
	<path id="bX" d="M242.8,441.4v22.1h-22.1v-22.1H242.8L242.8,441.4z"/>
</g>
<g>
	<path id="bX_1_" class="st0" d="M242.8,441.4v22.1h-22.1v-22.1H242.8L242.8,441.4z"/>
</g>
<g>
	<path id="bY" d="M242.8,463.5v22.1h-22.1v-22.1H242.8L242.8,463.5z"/>
</g>
<g>
	<path id="bY_1_" class="st0" d="M242.8,463.5v22.1h-22.1v-22.1H242.8L242.8,463.5z"/>
</g>
<g>
	<path id="bZ" d="M242.8,551.7v22.1h-22.1v-22.1H242.8L242.8,551.7z"/>
</g>
<g>
	<path id="bZ_1_" class="st0" d="M242.8,551.7v22.1h-22.1v-22.1H242.8L242.8,551.7z"/>
</g>
<g>
	<path id="ca" d="M242.8,617.9V640h-22.1v-22.1H242.8L242.8,617.9z"/>
</g>
<g>
	<path id="ca_1_" class="st0" d="M242.8,617.9V640h-22.1v-22.1H242.8L242.8,617.9z"/>
</g>
<g>
	<path id="cb" d="M264.8,44.1v22.1h-22.1V44.1H264.8z"/>
</g>
<g>
	<path id="cb_1_" class="st0" d="M264.8,44.1v22.1h-22.1V44.1H264.8z"/>
</g>
<g>
	<path id="cc" d="M264.8,66.2v22.1h-22.1V66.2H264.8z"/>
</g>
<g>
	<path id="cc_1_" class="st0" d="M264.8,66.2v22.1h-22.1V66.2H264.8z"/>
</g>
<g>
	<path id="cd" d="M264.8,88.3v22.1h-22.1V88.3H264.8z"/>
</g>
<g>
	<path id="cd_1_" class="st0" d="M264.8,88.3v22.1h-22.1V88.3H264.8z"/>
</g>
<g>
	<path id="ce" d="M264.8,154.5v22.1h-22.1v-22.1L264.8,154.5L264.8,154.5z"/>
</g>
<g>
	<path id="ce_1_" class="st0" d="M264.8,154.5v22.1h-22.1v-22.1L264.8,154.5L264.8,154.5z"/>
</g>
<g>
	<path id="cf" d="M264.8,176.6v22.1h-22.1v-22.1L264.8,176.6L264.8,176.6z"/>
</g>
<g>
	<path id="cf_1_" class="st0" d="M264.8,176.6v22.1h-22.1v-22.1L264.8,176.6L264.8,176.6z"/>
</g>
<g>
	<path id="cg" d="M264.8,198.6v22.1h-22.1v-22.1H264.8z"/>
</g>
<g>
	<path id="cg_1_" class="st0" d="M264.8,198.6v22.1h-22.1v-22.1H264.8z"/>
</g>
<g>
	<path id="ch" d="M264.8,220.7v22.1h-22.1v-22.1H264.8z"/>
</g>
<g>
	<path id="ch_1_" class="st0" d="M264.8,220.7v22.1h-22.1v-22.1H264.8z"/>
</g>
<g>
	<path id="ci" d="M264.8,264.8v22.1h-22.1v-22.1H264.8z"/>
</g>
<g>
	<path id="ci_1_" class="st0" d="M264.8,264.8v22.1h-22.1v-22.1H264.8z"/>
</g>
<g>
	<path id="cj" d="M264.8,353.1v22.1h-22.1v-22.1H264.8z"/>
</g>
<g>
	<path id="cj_1_" class="st0" d="M264.8,353.1v22.1h-22.1v-22.1H264.8z"/>
</g>
<g>
	<path id="ck" d="M264.8,375.2v22.1h-22.1v-22.1H264.8z"/>
</g>
<g>
	<path id="ck_1_" class="st0" d="M264.8,375.2v22.1h-22.1v-22.1H264.8z"/>
</g>
<g>
	<path id="cl" d="M264.8,419.3v22.1h-22.1v-22.1H264.8z"/>
</g>
<g>
	<path id="cl_1_" class="st0" d="M264.8,419.3v22.1h-22.1v-22.1H264.8z"/>
</g>
<g>
	<path id="cm" d="M264.8,441.4v22.1h-22.1v-22.1H264.8z"/>
</g>
<g>
	<path id="cm_1_" class="st0" d="M264.8,441.4v22.1h-22.1v-22.1H264.8z"/>
</g>
<g>
	<path id="cn" d="M264.8,463.5v22.1h-22.1v-22.1H264.8z"/>
</g>
<g>
	<path id="cn_1_" class="st0" d="M264.8,463.5v22.1h-22.1v-22.1H264.8z"/>
</g>
<g>
	<path id="co" d="M264.8,485.5v22.1h-22.1v-22.1H264.8z"/>
</g>
<g>
	<path id="co_1_" class="st0" d="M264.8,485.5v22.1h-22.1v-22.1H264.8z"/>
</g>
<g>
	<path id="cp" d="M264.8,507.6v22.1h-22.1v-22.1L264.8,507.6L264.8,507.6z"/>
</g>
<g>
	<path id="cp_1_" class="st0" d="M264.8,507.6v22.1h-22.1v-22.1L264.8,507.6L264.8,507.6z"/>
</g>
<g>
	<path id="cq" d="M264.8,529.7v22.1h-22.1v-22.1H264.8z"/>
</g>
<g>
	<path id="cq_1_" class="st0" d="M264.8,529.7v22.1h-22.1v-22.1H264.8z"/>
</g>
<g>
	<path id="cr" d="M264.8,595.9v22.1h-22.1v-22.1H264.8z"/>
</g>
<g>
	<path id="cr_1_" class="st0" d="M264.8,595.9v22.1h-22.1v-22.1H264.8z"/>
</g>
<g>
	<path id="cs" d="M286.9,44.1v22.1h-22.1V44.1H286.9z"/>
</g>
<g>
	<path id="cs_1_" class="st0" d="M286.9,44.1v22.1h-22.1V44.1H286.9z"/>
</g>
<g>
	<path id="ct" d="M286.9,66.2v22.1h-22.1V66.2H286.9z"/>
</g>
<g>
	<path id="ct_1_" class="st0" d="M286.9,66.2v22.1h-22.1V66.2H286.9z"/>
</g>
<g>
	<path id="cu" d="M286.9,132.4v22.1h-22.1v-22.1H286.9z"/>
</g>
<g>
	<path id="cu_1_" class="st0" d="M286.9,132.4v22.1h-22.1v-22.1H286.9z"/>
</g>
<g>
	<path id="cv" d="M286.9,154.5v22.1h-22.1v-22.1L286.9,154.5L286.9,154.5z"/>
</g>
<g>
	<path id="cv_1_" class="st0" d="M286.9,154.5v22.1h-22.1v-22.1L286.9,154.5L286.9,154.5z"/>
</g>
<g>
	<path id="cw" d="M286.9,220.7v22.1h-22.1v-22.1H286.9z"/>
</g>
<g>
	<path id="cw_1_" class="st0" d="M286.9,220.7v22.1h-22.1v-22.1H286.9z"/>
</g>
<g>
	<path id="cx" d="M286.9,242.8v22.1h-22.1v-22.1L286.9,242.8L286.9,242.8z"/>
</g>
<g>
	<path id="cx_1_" class="st0" d="M286.9,242.8v22.1h-22.1v-22.1L286.9,242.8L286.9,242.8z"/>
</g>
<g>
	<path id="cy" d="M286.9,264.8v22.1h-22.1v-22.1H286.9z"/>
</g>
<g>
	<path id="cy_1_" class="st0" d="M286.9,264.8v22.1h-22.1v-22.1H286.9z"/>
</g>
<g>
	<path id="cz" d="M286.9,286.9V309h-22.1v-22.1H286.9z"/>
</g>
<g>
	<path id="cz_1_" class="st0" d="M286.9,286.9V309h-22.1v-22.1H286.9z"/>
</g>
<g>
	<path id="cA" d="M286.9,353.1v22.1h-22.1v-22.1H286.9z"/>
</g>
<g>
	<path id="cA_1_" class="st0" d="M286.9,353.1v22.1h-22.1v-22.1H286.9z"/>
</g>
<g>
	<path id="cB" d="M286.9,375.2v22.1h-22.1v-22.1H286.9z"/>
</g>
<g>
	<path id="cB_1_" class="st0" d="M286.9,375.2v22.1h-22.1v-22.1H286.9z"/>
</g>
<g>
	<path id="cC" d="M286.9,397.2v22.1h-22.1v-22.1H286.9z"/>
</g>
<g>
	<path id="cC_1_" class="st0" d="M286.9,397.2v22.1h-22.1v-22.1H286.9z"/>
</g>
<g>
	<path id="cD" d="M286.9,507.6v22.1h-22.1v-22.1L286.9,507.6L286.9,507.6z"/>
</g>
<g>
	<path id="cD_1_" class="st0" d="M286.9,507.6v22.1h-22.1v-22.1L286.9,507.6L286.9,507.6z"/>
</g>
<g>
	<path id="cE" d="M286.9,529.7v22.1h-22.1v-22.1H286.9z"/>
</g>
<g>
	<path id="cE_1_" class="st0" d="M286.9,529.7v22.1h-22.1v-22.1H286.9z"/>
</g>
<g>
	<path id="cF" d="M286.9,573.8v22.1h-22.1v-22.1H286.9z"/>
</g>
<g>
	<path id="cF_1_" class="st0" d="M286.9,573.8v22.1h-22.1v-22.1H286.9z"/>
</g>
<g>
	<path id="cG" d="M309,0v22.1h-22.1V0H309z"/>
</g>
<g>
	<path id="cG_1_" class="st0" d="M309,0v22.1h-22.1V0H309z"/>
</g>
<g>
	<path id="cH" d="M309,44.1v22.1h-22.1V44.1H309z"/>
</g>
<g>
	<path id="cH_1_" class="st0" d="M309,44.1v22.1h-22.1V44.1H309z"/>
</g>
<g>
	<path id="cI" d="M309,66.2v22.1h-22.1V66.2H309z"/>
</g>
<g>
	<path id="cI_1_" class="st0" d="M309,66.2v22.1h-22.1V66.2H309z"/>
</g>
<g>
	<path id="cJ" d="M309,88.3v22.1h-22.1V88.3H309z"/>
</g>
<g>
	<path id="cJ_1_" class="st0" d="M309,88.3v22.1h-22.1V88.3H309z"/>
</g>
<g>
	<path id="cK" d="M309,198.6v22.1h-22.1v-22.1H309z"/>
</g>
<g>
	<path id="cK_1_" class="st0" d="M309,198.6v22.1h-22.1v-22.1H309z"/>
</g>
<g>
	<path id="cL" d="M309,220.7v22.1h-22.1v-22.1H309z"/>
</g>
<g>
	<path id="cL_1_" class="st0" d="M309,220.7v22.1h-22.1v-22.1H309z"/>
</g>
<g>
	<path id="cM" d="M309,242.8v22.1h-22.1v-22.1L309,242.8L309,242.8z"/>
</g>
<g>
	<path id="cM_1_" class="st0" d="M309,242.8v22.1h-22.1v-22.1L309,242.8L309,242.8z"/>
</g>
<g>
	<path id="cN" d="M309,264.8v22.1h-22.1v-22.1H309z"/>
</g>
<g>
	<path id="cN_1_" class="st0" d="M309,264.8v22.1h-22.1v-22.1H309z"/>
</g>
<g>
	<path id="cO" d="M309,353.1v22.1h-22.1v-22.1H309z"/>
</g>
<g>
	<path id="cO_1_" class="st0" d="M309,353.1v22.1h-22.1v-22.1H309z"/>
</g>
<g>
	<path id="cP" d="M309,397.2v22.1h-22.1v-22.1H309z"/>
</g>
<g>
	<path id="cP_1_" class="st0" d="M309,397.2v22.1h-22.1v-22.1H309z"/>
</g>
<g>
	<path id="cQ" d="M309,463.5v22.1h-22.1v-22.1H309z"/>
</g>
<g>
	<path id="cQ_1_" class="st0" d="M309,463.5v22.1h-22.1v-22.1H309z"/>
</g>
<g>
	<path id="cR" d="M309,507.6v22.1h-22.1v-22.1L309,507.6L309,507.6z"/>
</g>
<g>
	<path id="cR_1_" class="st0" d="M309,507.6v22.1h-22.1v-22.1L309,507.6L309,507.6z"/>
</g>
<g>
	<path id="cS" d="M309,529.7v22.1h-22.1v-22.1H309z"/>
</g>
<g>
	<path id="cS_1_" class="st0" d="M309,529.7v22.1h-22.1v-22.1H309z"/>
</g>
<g>
	<path id="cT" d="M309,551.7v22.1h-22.1v-22.1H309z"/>
</g>
<g>
	<path id="cT_1_" class="st0" d="M309,551.7v22.1h-22.1v-22.1H309z"/>
</g>
<g>
	<path id="cU" d="M309,573.8v22.1h-22.1v-22.1H309z"/>
</g>
<g>
	<path id="cU_1_" class="st0" d="M309,573.8v22.1h-22.1v-22.1H309z"/>
</g>
<g>
	<path id="cV" d="M309,617.9V640h-22.1v-22.1H309z"/>
</g>
<g>
	<path id="cV_1_" class="st0" d="M309,617.9V640h-22.1v-22.1H309z"/>
</g>
<g>
	<path id="cW" d="M331,22.1v22.1H309V22.1H331z"/>
</g>
<g>
	<path id="cW_1_" class="st0" d="M331,22.1v22.1H309V22.1H331z"/>
</g>
<g>
	<path id="cX" d="M331,44.1v22.1H309V44.1H331z"/>
</g>
<g>
	<path id="cX_1_" class="st0" d="M331,44.1v22.1H309V44.1H331z"/>
</g>
<g>
	<path id="cY" d="M331,66.2v22.1H309V66.2H331z"/>
</g>
<g>
	<path id="cY_1_" class="st0" d="M331,66.2v22.1H309V66.2H331z"/>
</g>
<g>
	<path id="cZ" d="M331,88.3v22.1H309V88.3H331z"/>
</g>
<g>
	<path id="cZ_1_" class="st0" d="M331,88.3v22.1H309V88.3H331z"/>
</g>
<g>
	<path id="da" d="M331,110.3v22.1H309v-22.1C309,110.3,331,110.3,331,110.3z"/>
</g>
<g>
	<path id="da_1_" class="st0" d="M331,110.3v22.1H309v-22.1C309,110.3,331,110.3,331,110.3z"/>
</g>
<g>
	<path id="db" d="M331,132.4v22.1H309v-22.1H331z"/>
</g>
<g>
	<path id="db_1_" class="st0" d="M331,132.4v22.1H309v-22.1H331z"/>
</g>
<g>
	<path id="dc" d="M331,242.8v22.1H309v-22.1L331,242.8L331,242.8z"/>
</g>
<g>
	<path id="dc_1_" class="st0" d="M331,242.8v22.1H309v-22.1L331,242.8L331,242.8z"/>
</g>
<g>
	<path id="dd" d="M331,264.8v22.1H309v-22.1H331z"/>
</g>
<g>
	<path id="dd_1_" class="st0" d="M331,264.8v22.1H309v-22.1H331z"/>
</g>
<g>
	<path id="de" d="M331,286.9V309H309v-22.1H331z"/>
</g>
<g>
	<path id="de_1_" class="st0" d="M331,286.9V309H309v-22.1H331z"/>
</g>
<g>
	<path id="df" d="M331,309V331H309V309H331z"/>
</g>
<g>
	<path id="df_1_" class="st0" d="M331,309V331H309V309H331z"/>
</g>
<g>
	<path id="dg" d="M331,397.2v22.1H309v-22.1H331z"/>
</g>
<g>
	<path id="dg_1_" class="st0" d="M331,397.2v22.1H309v-22.1H331z"/>
</g>
<g>
	<path id="dh" d="M331,441.4v22.1H309v-22.1H331z"/>
</g>
<g>
	<path id="dh_1_" class="st0" d="M331,441.4v22.1H309v-22.1H331z"/>
</g>
<g>
	<path id="di" d="M331,529.7v22.1H309v-22.1H331z"/>
</g>
<g>
	<path id="di_1_" class="st0" d="M331,529.7v22.1H309v-22.1H331z"/>
</g>
<g>
	<g>
		<path id="dj" d="M331,551.7v22.1H309v-22.1H331z"/>
	</g>
	<g>
		<path id="dj_1_" class="st0" d="M331,551.7v22.1H309v-22.1H331z"/>
	</g>
</g>
<g>
	<g>
		<path id="dk" d="M331,595.9v22.1H309v-22.1H331z"/>
	</g>
	<g>
		<path id="dk_1_" class="st0" d="M331,595.9v22.1H309v-22.1H331z"/>
	</g>
</g>
<g>
	<g>
		<path id="dl" d="M353.1,88.3v22.1H331V88.3H353.1z"/>
	</g>
	<g>
		<path id="dl_1_" class="st0" d="M353.1,88.3v22.1H331V88.3H353.1z"/>
	</g>
</g>
<g>
	<g>
		<path id="dm" d="M353.1,154.5v22.1H331v-22.1L353.1,154.5L353.1,154.5z"/>
	</g>
	<g>
		<path id="dm_1_" class="st0" d="M353.1,154.5v22.1H331v-22.1L353.1,154.5L353.1,154.5z"/>
	</g>
</g>
<g>
	<g>
		<path id="dn" d="M353.1,176.6v22.1H331v-22.1L353.1,176.6L353.1,176.6z"/>
	</g>
	<g>
		<path id="dn_1_" class="st0" d="M353.1,176.6v22.1H331v-22.1L353.1,176.6L353.1,176.6z"/>
	</g>
</g>
<g>
	<g>
		<path id="do" d="M353.1,242.8v22.1H331v-22.1L353.1,242.8L353.1,242.8z"/>
	</g>
	<g>
		<path id="do_1_" class="st0" d="M353.1,242.8v22.1H331v-22.1L353.1,242.8L353.1,242.8z"/>
	</g>
</g>
<g>
	<g>
		<path id="dp" d="M353.1,264.8v22.1H331v-22.1H353.1z"/>
	</g>
	<g>
		<path id="dp_1_" class="st0" d="M353.1,264.8v22.1H331v-22.1H353.1z"/>
	</g>
</g>
<g>
	<g>
		<path id="dq" d="M353.1,286.9V309H331v-22.1H353.1z"/>
	</g>
	<g>
		<path id="dq_1_" class="st0" d="M353.1,286.9V309H331v-22.1H353.1z"/>
	</g>
</g>
<g>
	<g>
		<path id="dr" d="M353.1,353.1v22.1H331v-22.1H353.1z"/>
	</g>
	<g>
		<path id="dr_1_" class="st0" d="M353.1,353.1v22.1H331v-22.1H353.1z"/>
	</g>
</g>
<g>
	<g>
		<path id="ds" d="M353.1,375.2v22.1H331v-22.1H353.1z"/>
	</g>
	<g>
		<path id="ds_1_" class="st0" d="M353.1,375.2v22.1H331v-22.1H353.1z"/>
	</g>
</g>
<g>
	<g>
		<path id="dt" d="M353.1,397.2v22.1H331v-22.1H353.1z"/>
	</g>
	<g>
		<path id="dt_1_" class="st0" d="M353.1,397.2v22.1H331v-22.1H353.1z"/>
	</g>
</g>
<g>
	<g>
		<path id="du" d="M353.1,419.3v22.1H331v-22.1H353.1z"/>
	</g>
	<g>
		<path id="du_1_" class="st0" d="M353.1,419.3v22.1H331v-22.1H353.1z"/>
	</g>
</g>
<g>
	<g>
		<path id="dv" d="M353.1,441.4v22.1H331v-22.1H353.1z"/>
	</g>
	<g>
		<path id="dv_1_" class="st0" d="M353.1,441.4v22.1H331v-22.1H353.1z"/>
	</g>
</g>
<g>
	<g>
		<path id="dw" d="M353.1,551.7v22.1H331v-22.1H353.1z"/>
	</g>
	<g>
		<path id="dw_1_" class="st0" d="M353.1,551.7v22.1H331v-22.1H353.1z"/>
	</g>
</g>
<g>
	<g>
		<path id="dx" d="M353.1,617.9V640H331v-22.1H353.1z"/>
	</g>
	<g>
		<path id="dx_1_" class="st0" d="M353.1,617.9V640H331v-22.1H353.1z"/>
	</g>
</g>
<g>
	<g>
		<path id="dy" d="M375.2,0v22.1h-22.1V0H375.2z"/>
	</g>
	<g>
		<path id="dy_1_" class="st0" d="M375.2,0v22.1h-22.1V0H375.2z"/>
	</g>
</g>
<g>
	<g>
		<path id="dz" d="M375.2,88.3v22.1h-22.1V88.3H375.2z"/>
	</g>
	<g>
		<path id="dz_1_" class="st0" d="M375.2,88.3v22.1h-22.1V88.3H375.2z"/>
	</g>
</g>
<g>
	<g>
		<path id="dA" d="M375.2,132.4v22.1h-22.1v-22.1H375.2z"/>
	</g>
	<g>
		<path id="dA_1_" class="st0" d="M375.2,132.4v22.1h-22.1v-22.1H375.2z"/>
	</g>
</g>
<g>
	<g>
		<path id="dB" d="M375.2,154.5v22.1h-22.1v-22.1L375.2,154.5L375.2,154.5z"/>
	</g>
	<g>
		<path id="dB_1_" class="st0" d="M375.2,154.5v22.1h-22.1v-22.1L375.2,154.5L375.2,154.5z"/>
	</g>
</g>
<g>
	<g>
		<path id="dC" d="M375.2,176.6v22.1h-22.1v-22.1L375.2,176.6L375.2,176.6z"/>
	</g>
	<g>
		<path id="dC_1_" class="st0" d="M375.2,176.6v22.1h-22.1v-22.1L375.2,176.6L375.2,176.6z"/>
	</g>
</g>
<g>
	<g>
		<path id="dD" d="M375.2,198.6v22.1h-22.1v-22.1H375.2z"/>
	</g>
	<g>
		<path id="dD_1_" class="st0" d="M375.2,198.6v22.1h-22.1v-22.1H375.2z"/>
	</g>
</g>
<g>
	<g>
		<path id="dE" d="M375.2,286.9V309h-22.1v-22.1H375.2z"/>
	</g>
	<g>
		<path id="dE_1_" class="st0" d="M375.2,286.9V309h-22.1v-22.1H375.2z"/>
	</g>
</g>
<g>
	<g>
		<path id="dF" d="M375.2,331v22.1h-22.1V331H375.2z"/>
	</g>
	<g>
		<path id="dF_1_" class="st0" d="M375.2,331v22.1h-22.1V331H375.2z"/>
	</g>
</g>
<g>
	<g>
		<path id="dG" d="M375.2,375.2v22.1h-22.1v-22.1H375.2z"/>
	</g>
	<g>
		<path id="dG_1_" class="st0" d="M375.2,375.2v22.1h-22.1v-22.1H375.2z"/>
	</g>
</g>
<g>
	<g>
		<path id="dH" d="M375.2,397.2v22.1h-22.1v-22.1H375.2z"/>
	</g>
	<g>
		<path id="dH_1_" class="st0" d="M375.2,397.2v22.1h-22.1v-22.1H375.2z"/>
	</g>
</g>
<g>
	<g>
		<path id="dI" d="M375.2,419.3v22.1h-22.1v-22.1H375.2z"/>
	</g>
	<g>
		<path id="dI_1_" class="st0" d="M375.2,419.3v22.1h-22.1v-22.1H375.2z"/>
	</g>
</g>
<g>
	<g>
		<path id="dJ" d="M375.2,441.4v22.1h-22.1v-22.1H375.2z"/>
	</g>
	<g>
		<path id="dJ_1_" class="st0" d="M375.2,441.4v22.1h-22.1v-22.1H375.2z"/>
	</g>
</g>
<g>
	<g>
		<path id="dK" d="M375.2,463.5v22.1h-22.1v-22.1H375.2z"/>
	</g>
	<g>
		<path id="dK_1_" class="st0" d="M375.2,463.5v22.1h-22.1v-22.1H375.2z"/>
	</g>
</g>
<g>
	<g>
		<path id="dL" d="M375.2,485.5v22.1h-22.1v-22.1H375.2z"/>
	</g>
	<g>
		<path id="dL_1_" class="st0" d="M375.2,485.5v22.1h-22.1v-22.1H375.2z"/>
	</g>
</g>
<g>
	<g>
		<path id="dM" d="M375.2,507.6v22.1h-22.1v-22.1L375.2,507.6L375.2,507.6z"/>
	</g>
	<g>
		<path id="dM_1_" class="st0" d="M375.2,507.6v22.1h-22.1v-22.1L375.2,507.6L375.2,507.6z"/>
	</g>
</g>
<g>
	<g>
		<path id="dN" d="M375.2,551.7v22.1h-22.1v-22.1H375.2z"/>
	</g>
	<g>
		<path id="dN_1_" class="st0" d="M375.2,551.7v22.1h-22.1v-22.1H375.2z"/>
	</g>
</g>
<g>
	<g>
		<path id="dO" d="M375.2,573.8v22.1h-22.1v-22.1H375.2z"/>
	</g>
	<g>
		<path id="dO_1_" class="st0" d="M375.2,573.8v22.1h-22.1v-22.1H375.2z"/>
	</g>
</g>
<g>
	<g>
		<path id="dP" d="M375.2,595.9v22.1h-22.1v-22.1H375.2z"/>
	</g>
	<g>
		<path id="dP_1_" class="st0" d="M375.2,595.9v22.1h-22.1v-22.1H375.2z"/>
	</g>
</g>
<g>
	<g>
		<path id="dQ" d="M397.2,0v22.1h-22.1V0H397.2z"/>
	</g>
	<g>
		<path id="dQ_1_" class="st0" d="M397.2,0v22.1h-22.1V0H397.2z"/>
	</g>
</g>
<g>
	<g>
		<path id="dR" d="M397.2,66.2v22.1h-22.1V66.2H397.2z"/>
	</g>
	<g>
		<path id="dR_1_" class="st0" d="M397.2,66.2v22.1h-22.1V66.2H397.2z"/>
	</g>
</g>
<g>
	<g>
		<path id="dS" d="M397.2,88.3v22.1h-22.1V88.3H397.2z"/>
	</g>
	<g>
		<path id="dS_1_" class="st0" d="M397.2,88.3v22.1h-22.1V88.3H397.2z"/>
	</g>
</g>
<g>
	<g>
		<path id="dT" d="M397.2,110.3v22.1h-22.1v-22.1C375.2,110.3,397.2,110.3,397.2,110.3z"/>
	</g>
	<g>
		<path id="dT_1_" class="st0" d="M397.2,110.3v22.1h-22.1v-22.1C375.2,110.3,397.2,110.3,397.2,110.3z"/>
	</g>
</g>
<g>
	<g>
		<path id="dU" d="M397.2,154.5v22.1h-22.1v-22.1L397.2,154.5L397.2,154.5z"/>
	</g>
	<g>
		<path id="dU_1_" class="st0" d="M397.2,154.5v22.1h-22.1v-22.1L397.2,154.5L397.2,154.5z"/>
	</g>
</g>
<g>
	<g>
		<path id="dV" d="M397.2,176.6v22.1h-22.1v-22.1L397.2,176.6L397.2,176.6z"/>
	</g>
	<g>
		<path id="dV_1_" class="st0" d="M397.2,176.6v22.1h-22.1v-22.1L397.2,176.6L397.2,176.6z"/>
	</g>
</g>
<g>
	<g>
		<path id="dW" d="M397.2,198.6v22.1h-22.1v-22.1H397.2z"/>
	</g>
	<g>
		<path id="dW_1_" class="st0" d="M397.2,198.6v22.1h-22.1v-22.1H397.2z"/>
	</g>
</g>
<g>
	<g>
		<path id="dX" d="M397.2,220.7v22.1h-22.1v-22.1H397.2z"/>
	</g>
	<g>
		<path id="dX_1_" class="st0" d="M397.2,220.7v22.1h-22.1v-22.1H397.2z"/>
	</g>
</g>
<g>
	<g>
		<path id="dY" d="M397.2,264.8v22.1h-22.1v-22.1H397.2z"/>
	</g>
	<g>
		<path id="dY_1_" class="st0" d="M397.2,264.8v22.1h-22.1v-22.1H397.2z"/>
	</g>
</g>
<g>
	<g>
		<path id="dZ" d="M397.2,286.9V309h-22.1v-22.1H397.2z"/>
	</g>
	<g>
		<path id="dZ_1_" class="st0" d="M397.2,286.9V309h-22.1v-22.1H397.2z"/>
	</g>
</g>
<g>
	<g>
		<path id="ea" d="M397.2,375.2v22.1h-22.1v-22.1H397.2z"/>
	</g>
	<g>
		<path id="ea_1_" class="st0" d="M397.2,375.2v22.1h-22.1v-22.1H397.2z"/>
	</g>
</g>
<g>
	<g>
		<path id="eb" d="M397.2,419.3v22.1h-22.1v-22.1H397.2z"/>
	</g>
	<g>
		<path id="eb_1_" class="st0" d="M397.2,419.3v22.1h-22.1v-22.1H397.2z"/>
	</g>
</g>
<g>
	<g>
		<path id="ec" d="M397.2,441.4v22.1h-22.1v-22.1H397.2z"/>
	</g>
	<g>
		<path id="ec_1_" class="st0" d="M397.2,441.4v22.1h-22.1v-22.1H397.2z"/>
	</g>
</g>
<g>
	<g>
		<path id="ed" d="M397.2,485.5v22.1h-22.1v-22.1H397.2z"/>
	</g>
	<g>
		<path id="ed_1_" class="st0" d="M397.2,485.5v22.1h-22.1v-22.1H397.2z"/>
	</g>
</g>
<g>
	<g>
		<path id="ee" d="M397.2,529.7v22.1h-22.1v-22.1H397.2z"/>
	</g>
	<g>
		<path id="ee_1_" class="st0" d="M397.2,529.7v22.1h-22.1v-22.1H397.2z"/>
	</g>
</g>
<g>
	<g>
		<path id="ef" d="M397.2,551.7v22.1h-22.1v-22.1H397.2z"/>
	</g>
	<g>
		<path id="ef_1_" class="st0" d="M397.2,551.7v22.1h-22.1v-22.1H397.2z"/>
	</g>
</g>
<g>
	<g>
		<path id="eg" d="M397.2,573.8v22.1h-22.1v-22.1H397.2z"/>
	</g>
	<g>
		<path id="eg_1_" class="st0" d="M397.2,573.8v22.1h-22.1v-22.1H397.2z"/>
	</g>
</g>
<g>
	<g>
		<path id="eh" d="M419.3,0v22.1h-22.1V0H419.3z"/>
	</g>
	<g>
		<path id="eh_1_" class="st0" d="M419.3,0v22.1h-22.1V0H419.3z"/>
	</g>
</g>
<g>
	<g>
		<path id="ei" d="M419.3,22.1v22.1h-22.1V22.1H419.3z"/>
	</g>
	<g>
		<path id="ei_1_" class="st0" d="M419.3,22.1v22.1h-22.1V22.1H419.3z"/>
	</g>
</g>
<g>
	<g>
		<path id="ej" d="M419.3,110.3v22.1h-22.1v-22.1C397.2,110.3,419.3,110.3,419.3,110.3z"/>
	</g>
	<g>
		<path id="ej_1_" class="st0" d="M419.3,110.3v22.1h-22.1v-22.1C397.2,110.3,419.3,110.3,419.3,110.3z"/>
	</g>
</g>
<g>
	<g>
		<path id="ek" d="M419.3,132.4v22.1h-22.1v-22.1H419.3z"/>
	</g>
	<g>
		<path id="ek_1_" class="st0" d="M419.3,132.4v22.1h-22.1v-22.1H419.3z"/>
	</g>
</g>
<g>
	<g>
		<path id="el" d="M419.3,154.5v22.1h-22.1v-22.1L419.3,154.5L419.3,154.5z"/>
	</g>
	<g>
		<path id="el_1_" class="st0" d="M419.3,154.5v22.1h-22.1v-22.1L419.3,154.5L419.3,154.5z"/>
	</g>
</g>
<g>
	<g>
		<path id="em" d="M419.3,176.6v22.1h-22.1v-22.1L419.3,176.6L419.3,176.6z"/>
	</g>
	<g>
		<path id="em_1_" class="st0" d="M419.3,176.6v22.1h-22.1v-22.1L419.3,176.6L419.3,176.6z"/>
	</g>
</g>
<g>
	<g>
		<path id="en" d="M419.3,198.6v22.1h-22.1v-22.1H419.3z"/>
	</g>
	<g>
		<path id="en_1_" class="st0" d="M419.3,198.6v22.1h-22.1v-22.1H419.3z"/>
	</g>
</g>
<g>
	<g>
		<path id="eo" d="M419.3,242.8v22.1h-22.1v-22.1L419.3,242.8L419.3,242.8z"/>
	</g>
	<g>
		<path id="eo_1_" class="st0" d="M419.3,242.8v22.1h-22.1v-22.1L419.3,242.8L419.3,242.8z"/>
	</g>
</g>
<g>
	<g>
		<path id="ep" d="M419.3,286.9V309h-22.1v-22.1H419.3z"/>
	</g>
	<g>
		<path id="ep_1_" class="st0" d="M419.3,286.9V309h-22.1v-22.1H419.3z"/>
	</g>
</g>
<g>
	<g>
		<path id="eq" d="M419.3,309V331h-22.1V309H419.3z"/>
	</g>
	<g>
		<path id="eq_1_" class="st0" d="M419.3,309V331h-22.1V309H419.3z"/>
	</g>
</g>
<g>
	<g>
		<path id="er" d="M419.3,331v22.1h-22.1V331H419.3z"/>
	</g>
	<g>
		<path id="er_1_" class="st0" d="M419.3,331v22.1h-22.1V331H419.3z"/>
	</g>
</g>
<g>
	<g>
		<path id="es" d="M419.3,353.1v22.1h-22.1v-22.1H419.3z"/>
	</g>
	<g>
		<path id="es_1_" class="st0" d="M419.3,353.1v22.1h-22.1v-22.1H419.3z"/>
	</g>
</g>
<g>
	<g>
		<path id="et" d="M419.3,397.2v22.1h-22.1v-22.1H419.3z"/>
	</g>
	<g>
		<path id="et_1_" class="st0" d="M419.3,397.2v22.1h-22.1v-22.1H419.3z"/>
	</g>
</g>
<g>
	<g>
		<path id="eu" d="M419.3,441.4v22.1h-22.1v-22.1H419.3z"/>
	</g>
	<g>
		<path id="eu_1_" class="st0" d="M419.3,441.4v22.1h-22.1v-22.1H419.3z"/>
	</g>
</g>
<g>
	<g>
		<path id="ev" d="M419.3,485.5v22.1h-22.1v-22.1H419.3z"/>
	</g>
	<g>
		<path id="ev_1_" class="st0" d="M419.3,485.5v22.1h-22.1v-22.1H419.3z"/>
	</g>
</g>
<g>
	<g>
		<path id="ew" d="M419.3,507.6v22.1h-22.1v-22.1L419.3,507.6L419.3,507.6z"/>
	</g>
	<g>
		<path id="ew_1_" class="st0" d="M419.3,507.6v22.1h-22.1v-22.1L419.3,507.6L419.3,507.6z"/>
	</g>
</g>
<g>
	<g>
		<path id="ex" d="M419.3,595.9v22.1h-22.1v-22.1H419.3z"/>
	</g>
	<g>
		<path id="ex_1_" class="st0" d="M419.3,595.9v22.1h-22.1v-22.1H419.3z"/>
	</g>
</g>
<g>
	<g>
		<path id="ey" d="M441.4,0v22.1h-22.1V0H441.4z"/>
	</g>
	<g>
		<path id="ey_1_" class="st0" d="M441.4,0v22.1h-22.1V0H441.4z"/>
	</g>
</g>
<g>
	<g>
		<path id="ez" d="M441.4,88.3v22.1h-22.1V88.3H441.4z"/>
	</g>
	<g>
		<path id="ez_1_" class="st0" d="M441.4,88.3v22.1h-22.1V88.3H441.4z"/>
	</g>
</g>
<g>
	<g>
		<path id="eA" d="M441.4,110.3v22.1h-22.1v-22.1C419.3,110.3,441.4,110.3,441.4,110.3z"/>
	</g>
	<g>
		<path id="eA_1_" class="st0" d="M441.4,110.3v22.1h-22.1v-22.1C419.3,110.3,441.4,110.3,441.4,110.3z"/>
	</g>
</g>
<g>
	<g>
		<path id="eB" d="M441.4,176.6v22.1h-22.1v-22.1L441.4,176.6L441.4,176.6z"/>
	</g>
	<g>
		<path id="eB_1_" class="st0" d="M441.4,176.6v22.1h-22.1v-22.1L441.4,176.6L441.4,176.6z"/>
	</g>
</g>
<g>
	<g>
		<path id="eC" d="M441.4,198.6v22.1h-22.1v-22.1H441.4z"/>
	</g>
	<g>
		<path id="eC_1_" class="st0" d="M441.4,198.6v22.1h-22.1v-22.1H441.4z"/>
	</g>
</g>
<g>
	<g>
		<path id="eD" d="M441.4,264.8v22.1h-22.1v-22.1H441.4z"/>
	</g>
	<g>
		<path id="eD_1_" class="st0" d="M441.4,264.8v22.1h-22.1v-22.1H441.4z"/>
	</g>
</g>
<g>
	<g>
		<path id="eE" d="M441.4,286.9V309h-22.1v-22.1H441.4z"/>
	</g>
	<g>
		<path id="eE_1_" class="st0" d="M441.4,286.9V309h-22.1v-22.1H441.4z"/>
	</g>
</g>
<g>
	<g>
		<path id="eF" d="M441.4,309V331h-22.1V309H441.4z"/>
	</g>
	<g>
		<path id="eF_1_" class="st0" d="M441.4,309V331h-22.1V309H441.4z"/>
	</g>
</g>
<g>
	<g>
		<path id="eG" d="M441.4,441.4v22.1h-22.1v-22.1H441.4z"/>
	</g>
	<g>
		<path id="eG_1_" class="st0" d="M441.4,441.4v22.1h-22.1v-22.1H441.4z"/>
	</g>
</g>
<g>
	<g>
		<path id="eH" d="M441.4,485.5v22.1h-22.1v-22.1H441.4z"/>
	</g>
	<g>
		<path id="eH_1_" class="st0" d="M441.4,485.5v22.1h-22.1v-22.1H441.4z"/>
	</g>
</g>
<g>
	<g>
		<path id="eI" d="M441.4,551.7v22.1h-22.1v-22.1H441.4z"/>
	</g>
	<g>
		<path id="eI_1_" class="st0" d="M441.4,551.7v22.1h-22.1v-22.1H441.4z"/>
	</g>
</g>
<g>
	<g>
		<path id="eJ" d="M441.4,573.8v22.1h-22.1v-22.1H441.4z"/>
	</g>
	<g>
		<path id="eJ_1_" class="st0" d="M441.4,573.8v22.1h-22.1v-22.1H441.4z"/>
	</g>
</g>
<g>
	<g>
		<path id="eK" d="M441.4,595.9v22.1h-22.1v-22.1H441.4z"/>
	</g>
	<g>
		<path id="eK_1_" class="st0" d="M441.4,595.9v22.1h-22.1v-22.1H441.4z"/>
	</g>
</g>
<g>
	<g>
		<path id="eL" d="M441.4,617.9V640h-22.1v-22.1H441.4z"/>
	</g>
	<g>
		<path id="eL_1_" class="st0" d="M441.4,617.9V640h-22.1v-22.1H441.4z"/>
	</g>
</g>
<g>
	<g>
		<path id="eM" d="M463.5,22.1v22.1h-22.1V22.1H463.5z"/>
	</g>
	<g>
		<path id="eM_1_" class="st0" d="M463.5,22.1v22.1h-22.1V22.1H463.5z"/>
	</g>
</g>
<g>
	<g>
		<path id="eN" d="M463.5,66.2v22.1h-22.1V66.2H463.5z"/>
	</g>
	<g>
		<path id="eN_1_" class="st0" d="M463.5,66.2v22.1h-22.1V66.2H463.5z"/>
	</g>
</g>
<g>
	<g>
		<path id="eO" d="M463.5,110.3v22.1h-22.1v-22.1C441.4,110.3,463.5,110.3,463.5,110.3z"/>
	</g>
	<g>
		<path id="eO_1_" class="st0" d="M463.5,110.3v22.1h-22.1v-22.1C441.4,110.3,463.5,110.3,463.5,110.3z"/>
	</g>
</g>
<g>
	<g>
		<path id="eP" d="M463.5,132.4v22.1h-22.1v-22.1H463.5z"/>
	</g>
	<g>
		<path id="eP_1_" class="st0" d="M463.5,132.4v22.1h-22.1v-22.1H463.5z"/>
	</g>
</g>
<g>
	<g>
		<path id="eQ" d="M463.5,198.6v22.1h-22.1v-22.1H463.5z"/>
	</g>
	<g>
		<path id="eQ_1_" class="st0" d="M463.5,198.6v22.1h-22.1v-22.1H463.5z"/>
	</g>
</g>
<g>
	<g>
		<path id="eR" d="M463.5,309V331h-22.1V309H463.5z"/>
	</g>
	<g>
		<path id="eR_1_" class="st0" d="M463.5,309V331h-22.1V309H463.5z"/>
	</g>
</g>
<g>
	<g>
		<path id="eS" d="M463.5,331v22.1h-22.1V331H463.5z"/>
	</g>
	<g>
		<path id="eS_1_" class="st0" d="M463.5,331v22.1h-22.1V331H463.5z"/>
	</g>
</g>
<g>
	<g>
		<path id="eT" d="M463.5,353.1v22.1h-22.1v-22.1H463.5z"/>
	</g>
	<g>
		<path id="eT_1_" class="st0" d="M463.5,353.1v22.1h-22.1v-22.1H463.5z"/>
	</g>
</g>
<g>
	<g>
		<path id="eU" d="M463.5,375.2v22.1h-22.1v-22.1H463.5z"/>
	</g>
	<g>
		<path id="eU_1_" class="st0" d="M463.5,375.2v22.1h-22.1v-22.1H463.5z"/>
	</g>
</g>
<g>
	<g>
		<path id="eV" d="M463.5,397.2v22.1h-22.1v-22.1H463.5z"/>
	</g>
	<g>
		<path id="eV_1_" class="st0" d="M463.5,397.2v22.1h-22.1v-22.1H463.5z"/>
	</g>
</g>
<g>
	<g>
		<path id="eW" d="M463.5,441.4v22.1h-22.1v-22.1H463.5z"/>
	</g>
	<g>
		<path id="eW_1_" class="st0" d="M463.5,441.4v22.1h-22.1v-22.1H463.5z"/>
	</g>
</g>
<g>
	<g>
		<path id="eX" d="M463.5,463.5v22.1h-22.1v-22.1H463.5z"/>
	</g>
	<g>
		<path id="eX_1_" class="st0" d="M463.5,463.5v22.1h-22.1v-22.1H463.5z"/>
	</g>
</g>
<g>
	<g>
		<path id="eY" d="M463.5,485.5v22.1h-22.1v-22.1H463.5z"/>
	</g>
	<g>
		<path id="eY_1_" class="st0" d="M463.5,485.5v22.1h-22.1v-22.1H463.5z"/>
	</g>
</g>
<g>
	<g>
		<path id="eZ" d="M463.5,507.6v22.1h-22.1v-22.1L463.5,507.6L463.5,507.6z"/>
	</g>
	<g>
		<path id="eZ_1_" class="st0" d="M463.5,507.6v22.1h-22.1v-22.1L463.5,507.6L463.5,507.6z"/>
	</g>
</g>
<g>
	<g>
		<path id="fa" d="M463.5,529.7v22.1h-22.1v-22.1H463.5z"/>
	</g>
	<g>
		<path id="fa_1_" class="st0" d="M463.5,529.7v22.1h-22.1v-22.1H463.5z"/>
	</g>
</g>
<g>
	<g>
		<path id="fb" d="M463.5,595.9v22.1h-22.1v-22.1H463.5z"/>
	</g>
	<g>
		<path id="fb_1_" class="st0" d="M463.5,595.9v22.1h-22.1v-22.1H463.5z"/>
	</g>
</g>
<g>
	<g>
		<path id="fc" d="M463.5,617.9V640h-22.1v-22.1H463.5z"/>
	</g>
	<g>
		<path id="fc_1_" class="st0" d="M463.5,617.9V640h-22.1v-22.1H463.5z"/>
	</g>
</g>
<g>
	<g>
		<path id="fd" d="M485.5,176.6v22.1h-22.1v-22.1L485.5,176.6L485.5,176.6z"/>
	</g>
	<g>
		<path id="fd_1_" class="st0" d="M485.5,176.6v22.1h-22.1v-22.1L485.5,176.6L485.5,176.6z"/>
	</g>
</g>
<g>
	<g>
		<path id="fe" d="M485.5,198.6v22.1h-22.1v-22.1H485.5z"/>
	</g>
	<g>
		<path id="fe_1_" class="st0" d="M485.5,198.6v22.1h-22.1v-22.1H485.5z"/>
	</g>
</g>
<g>
	<g>
		<path id="ff" d="M485.5,220.7v22.1h-22.1v-22.1H485.5z"/>
	</g>
	<g>
		<path id="ff_1_" class="st0" d="M485.5,220.7v22.1h-22.1v-22.1H485.5z"/>
	</g>
</g>
<g>
	<g>
		<path id="fg" d="M485.5,353.1v22.1h-22.1v-22.1H485.5z"/>
	</g>
	<g>
		<path id="fg_1_" class="st0" d="M485.5,353.1v22.1h-22.1v-22.1H485.5z"/>
	</g>
</g>
<g>
	<g>
		<path id="fh" d="M485.5,375.2v22.1h-22.1v-22.1H485.5z"/>
	</g>
	<g>
		<path id="fh_1_" class="st0" d="M485.5,375.2v22.1h-22.1v-22.1H485.5z"/>
	</g>
</g>
<g>
	<g>
		<path id="fi" d="M485.5,397.2v22.1h-22.1v-22.1H485.5z"/>
	</g>
	<g>
		<path id="fi_1_" class="st0" d="M485.5,397.2v22.1h-22.1v-22.1H485.5z"/>
	</g>
</g>
<g>
	<g>
		<path id="fj" d="M485.5,419.3v22.1h-22.1v-22.1H485.5z"/>
	</g>
	<g>
		<path id="fj_1_" class="st0" d="M485.5,419.3v22.1h-22.1v-22.1H485.5z"/>
	</g>
</g>
<g>
	<g>
		<path id="fk" d="M485.5,441.4v22.1h-22.1v-22.1H485.5z"/>
	</g>
	<g>
		<path id="fk_1_" class="st0" d="M485.5,441.4v22.1h-22.1v-22.1H485.5z"/>
	</g>
</g>
<g>
	<g>
		<path id="fl" d="M485.5,529.7v22.1h-22.1v-22.1H485.5z"/>
	</g>
	<g>
		<path id="fl_1_" class="st0" d="M485.5,529.7v22.1h-22.1v-22.1H485.5z"/>
	</g>
</g>
<g>
	<g>
		<path id="fm" d="M485.5,551.7v22.1h-22.1v-22.1H485.5z"/>
	</g>
	<g>
		<path id="fm_1_" class="st0" d="M485.5,551.7v22.1h-22.1v-22.1H485.5z"/>
	</g>
</g>
<g>
	<g>
		<path id="fn" d="M485.5,617.9V640h-22.1v-22.1H485.5z"/>
	</g>
	<g>
		<path id="fn_1_" class="st0" d="M485.5,617.9V640h-22.1v-22.1H485.5z"/>
	</g>
</g>
<g>
	<g>
		<path id="fo" d="M507.6,0v22.1h-22.1V0H507.6z"/>
	</g>
	<g>
		<path id="fo_1_" class="st0" d="M507.6,0v22.1h-22.1V0H507.6z"/>
	</g>
</g>
<g>
	<g>
		<path id="fp" d="M507.6,22.1v22.1h-22.1V22.1H507.6z"/>
	</g>
	<g>
		<path id="fp_1_" class="st0" d="M507.6,22.1v22.1h-22.1V22.1H507.6z"/>
	</g>
</g>
<g>
	<g>
		<path id="fq" d="M507.6,44.1v22.1h-22.1V44.1H507.6z"/>
	</g>
	<g>
		<path id="fq_1_" class="st0" d="M507.6,44.1v22.1h-22.1V44.1H507.6z"/>
	</g>
</g>
<g>
	<g>
		<path id="fr" d="M507.6,66.2v22.1h-22.1V66.2H507.6z"/>
	</g>
	<g>
		<path id="fr_1_" class="st0" d="M507.6,66.2v22.1h-22.1V66.2H507.6z"/>
	</g>
</g>
<g>
	<g>
		<path id="fs" d="M507.6,88.3v22.1h-22.1V88.3H507.6z"/>
	</g>
	<g>
		<path id="fs_1_" class="st0" d="M507.6,88.3v22.1h-22.1V88.3H507.6z"/>
	</g>
</g>
<g>
	<g>
		<path id="ft" d="M507.6,110.3v22.1h-22.1v-22.1C485.5,110.3,507.6,110.3,507.6,110.3z"/>
	</g>
	<g>
		<path id="ft_1_" class="st0" d="M507.6,110.3v22.1h-22.1v-22.1C485.5,110.3,507.6,110.3,507.6,110.3z"/>
	</g>
</g>
<g>
	<g>
		<path id="fu" d="M507.6,132.4v22.1h-22.1v-22.1H507.6z"/>
	</g>
	<g>
		<path id="fu_1_" class="st0" d="M507.6,132.4v22.1h-22.1v-22.1H507.6z"/>
	</g>
</g>
<g>
	<g>
		<path id="fv" d="M507.6,198.6v22.1h-22.1v-22.1H507.6z"/>
	</g>
	<g>
		<path id="fv_1_" class="st0" d="M507.6,198.6v22.1h-22.1v-22.1H507.6z"/>
	</g>
</g>
<g>
	<g>
		<path id="fw" d="M507.6,242.8v22.1h-22.1v-22.1L507.6,242.8L507.6,242.8z"/>
	</g>
	<g>
		<path id="fw_1_" class="st0" d="M507.6,242.8v22.1h-22.1v-22.1L507.6,242.8L507.6,242.8z"/>
	</g>
</g>
<g>
	<g>
		<path id="fx" d="M507.6,286.9V309h-22.1v-22.1H507.6z"/>
	</g>
	<g>
		<path id="fx_1_" class="st0" d="M507.6,286.9V309h-22.1v-22.1H507.6z"/>
	</g>
</g>
<g>
	<g>
		<path id="fy" d="M507.6,419.3v22.1h-22.1v-22.1H507.6z"/>
	</g>
	<g>
		<path id="fy_1_" class="st0" d="M507.6,419.3v22.1h-22.1v-22.1H507.6z"/>
	</g>
</g>
<g>
	<g>
		<path id="fz" d="M507.6,441.4v22.1h-22.1v-22.1H507.6z"/>
	</g>
	<g>
		<path id="fz_1_" class="st0" d="M507.6,441.4v22.1h-22.1v-22.1H507.6z"/>
	</g>
</g>
<g>
	<g>
		<path id="fA" d="M507.6,485.5v22.1h-22.1v-22.1H507.6z"/>
	</g>
	<g>
		<path id="fA_1_" class="st0" d="M507.6,485.5v22.1h-22.1v-22.1H507.6z"/>
	</g>
</g>
<g>
	<g>
		<path id="fB" d="M507.6,529.7v22.1h-22.1v-22.1H507.6z"/>
	</g>
	<g>
		<path id="fB_1_" class="st0" d="M507.6,529.7v22.1h-22.1v-22.1H507.6z"/>
	</g>
</g>
<g>
	<g>
		<path id="fC" d="M529.7,0v22.1h-22.1V0H529.7z"/>
	</g>
	<g>
		<path id="fC_1_" class="st0" d="M529.7,0v22.1h-22.1V0H529.7z"/>
	</g>
</g>
<g>
	<g>
		<path id="fD" d="M529.7,132.4v22.1h-22.1v-22.1H529.7z"/>
	</g>
	<g>
		<path id="fD_1_" class="st0" d="M529.7,132.4v22.1h-22.1v-22.1H529.7z"/>
	</g>
</g>
<g>
	<g>
		<path id="fE" d="M529.7,198.6v22.1h-22.1v-22.1H529.7z"/>
	</g>
	<g>
		<path id="fE_1_" class="st0" d="M529.7,198.6v22.1h-22.1v-22.1H529.7z"/>
	</g>
</g>
<g>
	<g>
		<path id="fF" d="M529.7,375.2v22.1h-22.1v-22.1H529.7z"/>
	</g>
	<g>
		<path id="fF_1_" class="st0" d="M529.7,375.2v22.1h-22.1v-22.1H529.7z"/>
	</g>
</g>
<g>
	<g>
		<path id="fG" d="M529.7,397.2v22.1h-22.1v-22.1H529.7z"/>
	</g>
	<g>
		<path id="fG_1_" class="st0" d="M529.7,397.2v22.1h-22.1v-22.1H529.7z"/>
	</g>
</g>
<g>
	<g>
		<path id="fH" d="M529.7,419.3v22.1h-22.1v-22.1H529.7z"/>
	</g>
	<g>
		<path id="fH_1_" class="st0" d="M529.7,419.3v22.1h-22.1v-22.1H529.7z"/>
	</g>
</g>
<g>
	<g>
		<path id="fI" d="M529.7,441.4v22.1h-22.1v-22.1H529.7z"/>
	</g>
	<g>
		<path id="fI_1_" class="st0" d="M529.7,441.4v22.1h-22.1v-22.1H529.7z"/>
	</g>
</g>
<g>
	<g>
		<path id="fJ" d="M529.7,529.7v22.1h-22.1v-22.1H529.7z"/>
	</g>
	<g>
		<path id="fJ_1_" class="st0" d="M529.7,529.7v22.1h-22.1v-22.1H529.7z"/>
	</g>
</g>
<g>
	<g>
		<path id="fK" d="M529.7,551.7v22.1h-22.1v-22.1H529.7z"/>
	</g>
	<g>
		<path id="fK_1_" class="st0" d="M529.7,551.7v22.1h-22.1v-22.1H529.7z"/>
	</g>
</g>
<g>
	<g>
		<path id="fL" d="M529.7,573.8v22.1h-22.1v-22.1H529.7z"/>
	</g>
	<g>
		<path id="fL_1_" class="st0" d="M529.7,573.8v22.1h-22.1v-22.1H529.7z"/>
	</g>
</g>
<g>
	<g>
		<path id="fM" d="M529.7,617.9V640h-22.1v-22.1H529.7z"/>
	</g>
	<g>
		<path id="fM_1_" class="st0" d="M529.7,617.9V640h-22.1v-22.1H529.7z"/>
	</g>
</g>
<g>
	<g>
		<path id="fN" d="M551.7,0v22.1h-22.1V0H551.7z"/>
	</g>
	<g>
		<path id="fN_1_" class="st0" d="M551.7,0v22.1h-22.1V0H551.7z"/>
	</g>
</g>
<g>
	<g>
		<path id="fO" d="M551.7,44.1v22.1h-22.1V44.1H551.7z"/>
	</g>
	<g>
		<path id="fO_1_" class="st0" d="M551.7,44.1v22.1h-22.1V44.1H551.7z"/>
	</g>
</g>
<g>
	<g>
		<path id="fP" d="M551.7,66.2v22.1h-22.1V66.2H551.7z"/>
	</g>
	<g>
		<path id="fP_1_" class="st0" d="M551.7,66.2v22.1h-22.1V66.2H551.7z"/>
	</g>
</g>
<g>
	<g>
		<path id="fQ" d="M551.7,88.3v22.1h-22.1V88.3H551.7z"/>
	</g>
	<g>
		<path id="fQ_1_" class="st0" d="M551.7,88.3v22.1h-22.1V88.3H551.7z"/>
	</g>
</g>
<g>
	<g>
		<path id="fR" d="M551.7,132.4v22.1h-22.1v-22.1H551.7z"/>
	</g>
	<g>
		<path id="fR_1_" class="st0" d="M551.7,132.4v22.1h-22.1v-22.1H551.7z"/>
	</g>
</g>
<g>
	<g>
		<path id="fS" d="M551.7,176.6v22.1h-22.1v-22.1L551.7,176.6L551.7,176.6z"/>
	</g>
	<g>
		<path id="fS_1_" class="st0" d="M551.7,176.6v22.1h-22.1v-22.1L551.7,176.6L551.7,176.6z"/>
	</g>
</g>
<g>
	<g>
		<path id="fT" d="M551.7,198.6v22.1h-22.1v-22.1H551.7z"/>
	</g>
	<g>
		<path id="fT_1_" class="st0" d="M551.7,198.6v22.1h-22.1v-22.1H551.7z"/>
	</g>
</g>
<g>
	<g>
		<path id="fU" d="M551.7,309V331h-22.1V309H551.7z"/>
	</g>
	<g>
		<path id="fU_1_" class="st0" d="M551.7,309V331h-22.1V309H551.7z"/>
	</g>
</g>
<g>
	<g>
		<path id="fV" d="M551.7,331v22.1h-22.1V331H551.7z"/>
	</g>
	<g>
		<path id="fV_1_" class="st0" d="M551.7,331v22.1h-22.1V331H551.7z"/>
	</g>
</g>
<g>
	<g>
		<path id="fW" d="M551.7,353.1v22.1h-22.1v-22.1H551.7z"/>
	</g>
	<g>
		<path id="fW_1_" class="st0" d="M551.7,353.1v22.1h-22.1v-22.1H551.7z"/>
	</g>
</g>
<g>
	<g>
		<path id="fX" d="M551.7,397.2v22.1h-22.1v-22.1H551.7z"/>
	</g>
	<g>
		<path id="fX_1_" class="st0" d="M551.7,397.2v22.1h-22.1v-22.1H551.7z"/>
	</g>
</g>
<g>
	<g>
		<path id="fY" d="M551.7,441.4v22.1h-22.1v-22.1H551.7z"/>
	</g>
	<g>
		<path id="fY_1_" class="st0" d="M551.7,441.4v22.1h-22.1v-22.1H551.7z"/>
	</g>
</g>
<g>
	<g>
		<path id="fZ" d="M551.7,463.5v22.1h-22.1v-22.1H551.7z"/>
	</g>
	<g>
		<path id="fZ_1_" class="st0" d="M551.7,463.5v22.1h-22.1v-22.1H551.7z"/>
	</g>
</g>
<g>
	<g>
		<path id="ga" d="M551.7,485.5v22.1h-22.1v-22.1H551.7z"/>
	</g>
	<g>
		<path id="ga_1_" class="st0" d="M551.7,485.5v22.1h-22.1v-22.1H551.7z"/>
	</g>
</g>
<g>
	<g>
		<path id="gb" d="M551.7,507.6v22.1h-22.1v-22.1L551.7,507.6L551.7,507.6z"/>
	</g>
	<g>
		<path id="gb_1_" class="st0" d="M551.7,507.6v22.1h-22.1v-22.1L551.7,507.6L551.7,507.6z"/>
	</g>
</g>
<g>
	<g>
		<path id="gc" d="M551.7,529.7v22.1h-22.1v-22.1H551.7z"/>
	</g>
	<g>
		<path id="gc_1_" class="st0" d="M551.7,529.7v22.1h-22.1v-22.1H551.7z"/>
	</g>
</g>
<g>
	<g>
		<path id="gd" d="M551.7,551.7v22.1h-22.1v-22.1H551.7z"/>
	</g>
	<g>
		<path id="gd_1_" class="st0" d="M551.7,551.7v22.1h-22.1v-22.1H551.7z"/>
	</g>
</g>
<g>
	<g>
		<path id="ge" d="M551.7,595.9v22.1h-22.1v-22.1H551.7z"/>
	</g>
	<g>
		<path id="ge_1_" class="st0" d="M551.7,595.9v22.1h-22.1v-22.1H551.7z"/>
	</g>
</g>
<g>
	<g>
		<path id="gf" d="M573.8,0v22.1h-22.1V0H573.8z"/>
	</g>
	<g>
		<path id="gf_1_" class="st0" d="M573.8,0v22.1h-22.1V0H573.8z"/>
	</g>
</g>
<g>
	<g>
		<path id="gg" d="M573.8,44.1v22.1h-22.1V44.1H573.8z"/>
	</g>
	<g>
		<path id="gg_1_" class="st0" d="M573.8,44.1v22.1h-22.1V44.1H573.8z"/>
	</g>
</g>
<g>
	<g>
		<path id="gh" d="M573.8,66.2v22.1h-22.1V66.2H573.8z"/>
	</g>
	<g>
		<path id="gh_1_" class="st0" d="M573.8,66.2v22.1h-22.1V66.2H573.8z"/>
	</g>
</g>
<g>
	<g>
		<path id="gi" d="M573.8,88.3v22.1h-22.1V88.3H573.8z"/>
	</g>
	<g>
		<path id="gi_1_" class="st0" d="M573.8,88.3v22.1h-22.1V88.3H573.8z"/>
	</g>
</g>
<g>
	<g>
		<path id="gj" d="M573.8,132.4v22.1h-22.1v-22.1H573.8z"/>
	</g>
	<g>
		<path id="gj_1_" class="st0" d="M573.8,132.4v22.1h-22.1v-22.1H573.8z"/>
	</g>
</g>
<g>
	<g>
		<path id="gk" d="M573.8,176.6v22.1h-22.1v-22.1L573.8,176.6L573.8,176.6z"/>
	</g>
	<g>
		<path id="gk_1_" class="st0" d="M573.8,176.6v22.1h-22.1v-22.1L573.8,176.6L573.8,176.6z"/>
	</g>
</g>
<g>
	<g>
		<path id="gl" d="M573.8,264.8v22.1h-22.1v-22.1H573.8z"/>
	</g>
	<g>
		<path id="gl_1_" class="st0" d="M573.8,264.8v22.1h-22.1v-22.1H573.8z"/>
	</g>
</g>
<g>
	<g>
		<path id="gm" d="M573.8,353.1v22.1h-22.1v-22.1H573.8z"/>
	</g>
	<g>
		<path id="gm_1_" class="st0" d="M573.8,353.1v22.1h-22.1v-22.1H573.8z"/>
	</g>
</g>
<g>
	<g>
		<path id="gn" d="M573.8,375.2v22.1h-22.1v-22.1H573.8z"/>
	</g>
	<g>
		<path id="gn_1_" class="st0" d="M573.8,375.2v22.1h-22.1v-22.1H573.8z"/>
	</g>
</g>
<g>
	<g>
		<path id="go" d="M573.8,441.4v22.1h-22.1v-22.1H573.8z"/>
	</g>
	<g>
		<path id="go_1_" class="st0" d="M573.8,441.4v22.1h-22.1v-22.1H573.8z"/>
	</g>
</g>
<g>
	<g>
		<path id="gp" d="M573.8,463.5v22.1h-22.1v-22.1H573.8z"/>
	</g>
	<g>
		<path id="gp_1_" class="st0" d="M573.8,463.5v22.1h-22.1v-22.1H573.8z"/>
	</g>
</g>
<g>
	<g>
		<path id="gq" d="M573.8,485.5v22.1h-22.1v-22.1H573.8z"/>
	</g>
	<g>
		<path id="gq_1_" class="st0" d="M573.8,485.5v22.1h-22.1v-22.1H573.8z"/>
	</g>
</g>
<g>
	<g>
		<path id="gr" d="M573.8,507.6v22.1h-22.1v-22.1L573.8,507.6L573.8,507.6z"/>
	</g>
	<g>
		<path id="gr_1_" class="st0" d="M573.8,507.6v22.1h-22.1v-22.1L573.8,507.6L573.8,507.6z"/>
	</g>
</g>
<g>
	<g>
		<path id="gs" d="M573.8,551.7v22.1h-22.1v-22.1H573.8z"/>
	</g>
	<g>
		<path id="gs_1_" class="st0" d="M573.8,551.7v22.1h-22.1v-22.1H573.8z"/>
	</g>
</g>
<g>
	<g>
		<path id="gt" d="M573.8,595.9v22.1h-22.1v-22.1H573.8z"/>
	</g>
	<g>
		<path id="gt_1_" class="st0" d="M573.8,595.9v22.1h-22.1v-22.1H573.8z"/>
	</g>
</g>
<g>
	<g>
		<path id="gu" d="M573.8,617.9V640h-22.1v-22.1H573.8z"/>
	</g>
	<g>
		<path id="gu_1_" class="st0" d="M573.8,617.9V640h-22.1v-22.1H573.8z"/>
	</g>
</g>
<g>
	<g>
		<path id="gv" d="M595.9,0v22.1h-22.1V0H595.9z"/>
	</g>
	<g>
		<path id="gv_1_" class="st0" d="M595.9,0v22.1h-22.1V0H595.9z"/>
	</g>
</g>
<g>
	<g>
		<path id="gw" d="M595.9,44.1v22.1h-22.1V44.1H595.9z"/>
	</g>
	<g>
		<path id="gw_1_" class="st0" d="M595.9,44.1v22.1h-22.1V44.1H595.9z"/>
	</g>
</g>
<g>
	<g>
		<path id="gx" d="M595.9,66.2v22.1h-22.1V66.2H595.9z"/>
	</g>
	<g>
		<path id="gx_1_" class="st0" d="M595.9,66.2v22.1h-22.1V66.2H595.9z"/>
	</g>
</g>
<g>
	<g>
		<path id="gy" d="M595.9,88.3v22.1h-22.1V88.3H595.9z"/>
	</g>
	<g>
		<path id="gy_1_" class="st0" d="M595.9,88.3v22.1h-22.1V88.3H595.9z"/>
	</g>
</g>
<g>
	<g>
		<path id="gz" d="M595.9,132.4v22.1h-22.1v-22.1H595.9z"/>
	</g>
	<g>
		<path id="gz_1_" class="st0" d="M595.9,132.4v22.1h-22.1v-22.1H595.9z"/>
	</g>
</g>
<g>
	<g>
		<path id="gA" d="M595.9,176.6v22.1h-22.1v-22.1L595.9,176.6L595.9,176.6z"/>
	</g>
	<g>
		<path id="gA_1_" class="st0" d="M595.9,176.6v22.1h-22.1v-22.1L595.9,176.6L595.9,176.6z"/>
	</g>
</g>
<g>
	<g>
		<path id="gB" d="M595.9,220.7v22.1h-22.1v-22.1H595.9z"/>
	</g>
	<g>
		<path id="gB_1_" class="st0" d="M595.9,220.7v22.1h-22.1v-22.1H595.9z"/>
	</g>
</g>
<g>
	<g>
		<path id="gC" d="M595.9,264.8v22.1h-22.1v-22.1H595.9z"/>
	</g>
	<g>
		<path id="gC_1_" class="st0" d="M595.9,264.8v22.1h-22.1v-22.1H595.9z"/>
	</g>
</g>
<g>
	<g>
		<path id="gD" d="M595.9,286.9V309h-22.1v-22.1H595.9z"/>
	</g>
	<g>
		<path id="gD_1_" class="st0" d="M595.9,286.9V309h-22.1v-22.1H595.9z"/>
	</g>
</g>
<g>
	<g>
		<path id="gE" d="M595.9,309V331h-22.1V309H595.9z"/>
	</g>
	<g>
		<path id="gE_1_" class="st0" d="M595.9,309V331h-22.1V309H595.9z"/>
	</g>
</g>
<g>
	<g>
		<path id="gF" d="M595.9,375.2v22.1h-22.1v-22.1H595.9z"/>
	</g>
	<g>
		<path id="gF_1_" class="st0" d="M595.9,375.2v22.1h-22.1v-22.1H595.9z"/>
	</g>
</g>
<g>
	<g>
		<path id="gG" d="M595.9,397.2v22.1h-22.1v-22.1H595.9z"/>
	</g>
	<g>
		<path id="gG_1_" class="st0" d="M595.9,397.2v22.1h-22.1v-22.1H595.9z"/>
	</g>
</g>
<g>
	<g>
		<path id="gH" d="M595.9,419.3v22.1h-22.1v-22.1H595.9z"/>
	</g>
	<g>
		<path id="gH_1_" class="st0" d="M595.9,419.3v22.1h-22.1v-22.1H595.9z"/>
	</g>
</g>
<g>
	<g>
		<path id="gI" d="M595.9,441.4v22.1h-22.1v-22.1H595.9z"/>
	</g>
	<g>
		<path id="gI_1_" class="st0" d="M595.9,441.4v22.1h-22.1v-22.1H595.9z"/>
	</g>
</g>
<g>
	<g>
		<path id="gJ" d="M595.9,463.5v22.1h-22.1v-22.1H595.9z"/>
	</g>
	<g>
		<path id="gJ_1_" class="st0" d="M595.9,463.5v22.1h-22.1v-22.1H595.9z"/>
	</g>
</g>
<g>
	<g>
		<path id="gK" d="M595.9,529.7v22.1h-22.1v-22.1H595.9z"/>
	</g>
	<g>
		<path id="gK_1_" class="st0" d="M595.9,529.7v22.1h-22.1v-22.1H595.9z"/>
	</g>
</g>
<g>
	<g>
		<path id="gL" d="M595.9,573.8v22.1h-22.1v-22.1H595.9z"/>
	</g>
	<g>
		<path id="gL_1_" class="st0" d="M595.9,573.8v22.1h-22.1v-22.1H595.9z"/>
	</g>
</g>
<g>
	<g>
		<path id="gM" d="M617.9,0v22.1h-22.1V0H617.9z"/>
	</g>
	<g>
		<path id="gM_1_" class="st0" d="M617.9,0v22.1h-22.1V0H617.9z"/>
	</g>
</g>
<g>
	<g>
		<path id="gN" d="M617.9,132.4v22.1h-22.1v-22.1H617.9z"/>
	</g>
	<g>
		<path id="gN_1_" class="st0" d="M617.9,132.4v22.1h-22.1v-22.1H617.9z"/>
	</g>
</g>
<g>
	<g>
		<path id="gO" d="M617.9,220.7v22.1h-22.1v-22.1H617.9z"/>
	</g>
	<g>
		<path id="gO_1_" class="st0" d="M617.9,220.7v22.1h-22.1v-22.1H617.9z"/>
	</g>
</g>
<g>
	<g>
		<path id="gP" d="M617.9,286.9V309h-22.1v-22.1H617.9z"/>
	</g>
	<g>
		<path id="gP_1_" class="st0" d="M617.9,286.9V309h-22.1v-22.1H617.9z"/>
	</g>
</g>
<g>
	<g>
		<path id="gQ" d="M617.9,309V331h-22.1V309H617.9z"/>
	</g>
	<g>
		<path id="gQ_1_" class="st0" d="M617.9,309V331h-22.1V309H617.9z"/>
	</g>
</g>
<g>
	<g>
		<path id="gR" d="M617.9,331v22.1h-22.1V331H617.9z"/>
	</g>
	<g>
		<path id="gR_1_" class="st0" d="M617.9,331v22.1h-22.1V331H617.9z"/>
	</g>
</g>
<g>
	<g>
		<path id="gS" d="M617.9,353.1v22.1h-22.1v-22.1H617.9z"/>
	</g>
	<g>
		<path id="gS_1_" class="st0" d="M617.9,353.1v22.1h-22.1v-22.1H617.9z"/>
	</g>
</g>
<g>
	<g>
		<path id="gT" d="M617.9,375.2v22.1h-22.1v-22.1H617.9z"/>
	</g>
	<g>
		<path id="gT_1_" class="st0" d="M617.9,375.2v22.1h-22.1v-22.1H617.9z"/>
	</g>
</g>
<g>
	<g>
		<path id="gU" d="M617.9,463.5v22.1h-22.1v-22.1H617.9z"/>
	</g>
	<g>
		<path id="gU_1_" class="st0" d="M617.9,463.5v22.1h-22.1v-22.1H617.9z"/>
	</g>
</g>
<g>
	<g>
		<path id="gV" d="M617.9,485.5v22.1h-22.1v-22.1H617.9z"/>
	</g>
	<g>
		<path id="gV_1_" class="st0" d="M617.9,485.5v22.1h-22.1v-22.1H617.9z"/>
	</g>
</g>
<g>
	<g>
		<path id="gW" d="M617.9,507.6v22.1h-22.1v-22.1L617.9,507.6L617.9,507.6z"/>
	</g>
	<g>
		<path id="gW_1_" class="st0" d="M617.9,507.6v22.1h-22.1v-22.1L617.9,507.6L617.9,507.6z"/>
	</g>
</g>
<g>
	<g>
		<path id="gX" d="M617.9,529.7v22.1h-22.1v-22.1H617.9z"/>
	</g>
	<g>
		<path id="gX_1_" class="st0" d="M617.9,529.7v22.1h-22.1v-22.1H617.9z"/>
	</g>
</g>
<g>
	<g>
		<path id="gY" d="M617.9,551.7v22.1h-22.1v-22.1H617.9z"/>
	</g>
	<g>
		<path id="gY_1_" class="st0" d="M617.9,551.7v22.1h-22.1v-22.1H617.9z"/>
	</g>
</g>
<g>
	<g>
		<path id="gZ" d="M617.9,595.9v22.1h-22.1v-22.1H617.9z"/>
	</g>
	<g>
		<path id="gZ_1_" class="st0" d="M617.9,595.9v22.1h-22.1v-22.1H617.9z"/>
	</g>
</g>
<g>
	<g>
		<path id="ha" d="M617.9,617.9V640h-22.1v-22.1H617.9z"/>
	</g>
	<g>
		<path id="ha_1_" class="st0" d="M617.9,617.9V640h-22.1v-22.1H617.9z"/>
	</g>
</g>
<g>
	<g>
		<path id="hb" d="M640,0v22.1h-22.1V0H640z"/>
	</g>
	<g>
		<path id="hb_1_" class="st0" d="M640,0v22.1h-22.1V0H640z"/>
	</g>
</g>
<g>
	<g>
		<path id="hc" d="M640,22.1v22.1h-22.1V22.1H640z"/>
	</g>
	<g>
		<path id="hc_1_" class="st0" d="M640,22.1v22.1h-22.1V22.1H640z"/>
	</g>
</g>
<g>
	<g>
		<path id="hd" d="M640,44.1v22.1h-22.1V44.1H640z"/>
	</g>
	<g>
		<path id="hd_1_" class="st0" d="M640,44.1v22.1h-22.1V44.1H640z"/>
	</g>
</g>
<g>
	<g>
		<path id="he" d="M640,66.2v22.1h-22.1V66.2H640z"/>
	</g>
	<g>
		<path id="he_1_" class="st0" d="M640,66.2v22.1h-22.1V66.2H640z"/>
	</g>
</g>
<g>
	<g>
		<path id="hf" d="M640,88.3v22.1h-22.1V88.3H640z"/>
	</g>
	<g>
		<path id="hf_1_" class="st0" d="M640,88.3v22.1h-22.1V88.3H640z"/>
	</g>
</g>
<g>
	<g>
		<path id="hg" d="M640,110.3v22.1h-22.1v-22.1C617.9,110.3,640,110.3,640,110.3z"/>
	</g>
	<g>
		<path id="hg_1_" class="st0" d="M640,110.3v22.1h-22.1v-22.1C617.9,110.3,640,110.3,640,110.3z"/>
	</g>
</g>
<g>
	<g>
		<path id="hh" d="M640,132.4v22.1h-22.1v-22.1H640z"/>
	</g>
	<g>
		<path id="hh_1_" class="st0" d="M640,132.4v22.1h-22.1v-22.1H640z"/>
	</g>
</g>
<g>
	<g>
		<path id="hi" d="M640,176.6v22.1h-22.1v-22.1L640,176.6L640,176.6z"/>
	</g>
	<g>
		<path id="hi_1_" class="st0" d="M640,176.6v22.1h-22.1v-22.1L640,176.6L640,176.6z"/>
	</g>
</g>
<g>
	<g>
		<path id="hj" d="M640,198.6v22.1h-22.1v-22.1H640z"/>
	</g>
	<g>
		<path id="hj_1_" class="st0" d="M640,198.6v22.1h-22.1v-22.1H640z"/>
	</g>
</g>
<g>
	<g>
		<path id="hk" d="M640,242.8v22.1h-22.1v-22.1L640,242.8L640,242.8z"/>
	</g>
	<g>
		<path id="hk_1_" class="st0" d="M640,242.8v22.1h-22.1v-22.1L640,242.8L640,242.8z"/>
	</g>
</g>
<g>
	<g>
		<path id="hl" d="M640,286.9V309h-22.1v-22.1H640z"/>
	</g>
	<g>
		<path id="hl_1_" class="st0" d="M640,286.9V309h-22.1v-22.1H640z"/>
	</g>
</g>
<g>
	<g>
		<path id="hm" d="M640,309V331h-22.1V309H640z"/>
	</g>
	<g>
		<path id="hm_1_" class="st0" d="M640,309V331h-22.1V309H640z"/>
	</g>
</g>
<g>
	<g>
		<path id="hn" d="M640,463.5v22.1h-22.1v-22.1H640z"/>
	</g>
	<g>
		<path id="hn_1_" class="st0" d="M640,463.5v22.1h-22.1v-22.1H640z"/>
	</g>
</g>
<g>
	<g>
		<path id="ho" d="M640,507.6v22.1h-22.1v-22.1L640,507.6L640,507.6z"/>
	</g>
	<g>
		<path id="ho_1_" class="st0" d="M640,507.6v22.1h-22.1v-22.1L640,507.6L640,507.6z"/>
	</g>
</g>
<g>
	<g>
		<path id="hp" d="M640,551.7v22.1h-22.1v-22.1H640z"/>
	</g>
	<g>
		<path id="hp_1_" class="st0" d="M640,551.7v22.1h-22.1v-22.1H640z"/>
	</g>
</g>
<g>
	<g>
		<path id="hq" d="M640,573.8v22.1h-22.1v-22.1H640z"/>
	</g>
	<g>
		<path id="hq_1_" class="st0" d="M640,573.8v22.1h-22.1v-22.1H640z"/>
	</g>
</g>
</svg>
