<?xml version="1.0" encoding="utf-8"?>
<!-- Generator: Adobe Illustrator 24.0.1, SVG Export Plug-In . SVG Version: 6.00 Build 0)  -->
<svg version="1.1" id="Слой_1" xmlns:ev="http://www.w3.org/2001/xml-events"
	 xmlns="http://www.w3.org/2000/svg" xmlns:xlink="http://www.w3.org/1999/xlink" x="0px" y="0px" viewBox="0 0 296 296"
	 style="enable-background:new 0 0 296 296;" xml:space="preserve">
<style type="text/css">
	.st0{fill:#FFFFFF;}
</style>
<rect class="st0" width="296" height="296"/>
<g>
	<g>
		<rect id="p" width="10.2" height="10.2"/>
	</g>
	<g>
		<rect id="p_1_" y="10.2" width="10.2" height="10.2"/>
	</g>
	<g>
		<rect id="p_2_" y="20.4" width="10.2" height="10.2"/>
	</g>
	<g>
		<rect id="p_3_" y="30.6" width="10.2" height="10.2"/>
	</g>
	<g>
		<rect id="p_4_" y="40.8" width="10.2" height="10.2"/>
	</g>
	<g>
		<rect id="p_5_" y="51" width="10.2" height="10.2"/>
	</g>
	<g>
		<rect id="p_6_" y="61.2" width="10.2" height="10.2"/>
	</g>
	<g>
		<rect id="p_7_" y="81.7" width="10.2" height="10.2"/>
	</g>
	<g>
		<rect id="p_8_" y="122.5" width="10.2" height="10.2"/>
	</g>
	<g>
		<rect id="p_9_" y="132.7" width="10.2" height="10.2"/>
	</g>
	<g>
		<rect id="p_10_" y="142.9" width="10.2" height="10.2"/>
	</g>
	<g>
		<rect id="p_11_" y="163.3" width="10.2" height="10.2"/>
	</g>
	<g>
		<rect id="p_12_" y="224.6" width="10.2" height="10.2"/>
	</g>
	<g>
		<rect id="p_13_" y="234.8" width="10.2" height="10.2"/>
	</g>
	<g>
		<rect id="p_14_" y="245" width="10.2" height="10.2"/>
	</g>
	<g>
		<rect id="p_15_" y="255.2" width="10.2" height="10.2"/>
	</g>
	<g>
		<rect id="p_16_" y="265.4" width="10.2" height="10.2"/>
	</g>
	<g>
		<rect id="p_17_" y="275.6" width="10.2" height="10.2"/>
	</g>
	<g>
		<rect id="p_18_" y="285.8" width="10.2" height="10.2"/>
	</g>
	<g>
		<rect id="p_19_" x="10.2" width="10.2" height="10.2"/>
	</g>
	<g>
		<rect id="p_20_" x="10.2" y="61.2" width="10.2" height="10.2"/>
	</g>
	<g>
		<rect id="p_21_" x="10.2" y="81.7" width="10.2" height="10.2"/>
	</g>
	<g>
		<rect id="p_22_" x="10.2" y="91.9" width="10.2" height="10.2"/>
	</g>
	<g>
		<rect id="p_23_" x="10.2" y="122.5" width="10.2" height="10.2"/>
	</g>
	<g>
		<rect id="p_24_" x="10.2" y="132.7" width="10.2" height="10.2"/>
	</g>
	<g>
		<rect id="p_25_" x="10.2" y="142.9" width="10.2" height="10.2"/>
	</g>
	<g>
		<rect id="p_26_" x="10.2" y="163.3" width="10.2" height="10.2"/>
	</g>
	<g>
		<rect id="p_27_" x="10.2" y="173.5" width="10.2" height="10.2"/>
	</g>
	<g>
		<rect id="p_28_" x="10.2" y="224.6" width="10.2" height="10.2"/>
	</g>
	<g>
		<rect id="p_29_" x="10.2" y="285.8" width="10.2" height="10.2"/>
	</g>
	<g>
		<rect id="p_30_" x="20.4" width="10.2" height="10.2"/>
	</g>
	<g>
		<rect id="p_31_" x="20.4" y="20.4" width="10.2" height="10.2"/>
	</g>
	<g>
		<rect id="p_32_" x="20.4" y="30.6" width="10.2" height="10.2"/>
	</g>
	<g>
		<rect id="p_33_" x="20.4" y="40.8" width="10.2" height="10.2"/>
	</g>
	<g>
		<rect id="p_34_" x="20.4" y="61.2" width="10.2" height="10.2"/>
	</g>
	<g>
		<rect id="p_35_" x="20.4" y="91.9" width="10.2" height="10.2"/>
	</g>
	<g>
		<rect id="p_36_" x="20.4" y="102.1" width="10.2" height="10.2"/>
	</g>
	<g>
		<rect id="p_37_" x="20.4" y="142.9" width="10.2" height="10.2"/>
	</g>
	<g>
		<rect id="p_38_" x="20.4" y="153.1" width="10.2" height="10.2"/>
	</g>
	<g>
		<rect id="p_39_" x="20.4" y="183.7" width="10.2" height="10.2"/>
	</g>
	<g>
		<rect id="p_40_" x="20.4" y="204.1" width="10.2" height="10.2"/>
	</g>
	<g>
		<rect id="p_41_" x="20.4" y="224.6" width="10.2" height="10.2"/>
	</g>
	<g>
		<rect id="p_42_" x="20.4" y="245" width="10.2" height="10.2"/>
	</g>
	<g>
		<rect id="p_43_" x="20.4" y="255.2" width="10.2" height="10.2"/>
	</g>
	<g>
		<rect id="p_44_" x="20.4" y="265.4" width="10.2" height="10.2"/>
	</g>
	<g>
		<rect id="p_45_" x="20.4" y="285.8" width="10.2" height="10.2"/>
	</g>
	<g>
		<rect id="p_46_" x="30.6" width="10.2" height="10.2"/>
	</g>
	<g>
		<rect id="p_47_" x="30.6" y="20.4" width="10.2" height="10.2"/>
	</g>
	<g>
		<rect id="p_48_" x="30.6" y="30.6" width="10.2" height="10.2"/>
	</g>
	<g>
		<rect id="p_49_" x="30.6" y="40.8" width="10.2" height="10.2"/>
	</g>
	<g>
		<rect id="p_50_" x="30.6" y="61.2" width="10.2" height="10.2"/>
	</g>
	<g>
		<rect id="p_51_" x="30.6" y="81.7" width="10.2" height="10.2"/>
	</g>
	<g>
		<rect id="p_52_" x="30.6" y="102.1" width="10.2" height="10.2"/>
	</g>
	<g>
		<rect id="p_53_" x="30.6" y="112.3" width="10.2" height="10.2"/>
	</g>
	<g>
		<rect id="p_54_" x="30.6" y="122.5" width="10.2" height="10.2"/>
	</g>
	<g>
		<rect id="p_55_" x="30.6" y="163.3" width="10.2" height="10.2"/>
	</g>
	<g>
		<rect id="p_56_" x="30.6" y="173.5" width="10.2" height="10.2"/>
	</g>
	<g>
		<rect id="p_57_" x="30.6" y="183.7" width="10.2" height="10.2"/>
	</g>
	<g>
		<rect id="p_58_" x="30.6" y="193.9" width="10.2" height="10.2"/>
	</g>
	<g>
		<rect id="p_59_" x="30.6" y="204.1" width="10.2" height="10.2"/>
	</g>
	<g>
		<rect id="p_60_" x="30.6" y="224.6" width="10.2" height="10.2"/>
	</g>
	<g>
		<rect id="p_61_" x="30.6" y="245" width="10.2" height="10.2"/>
	</g>
	<g>
		<rect id="p_62_" x="30.6" y="255.2" width="10.2" height="10.2"/>
	</g>
	<g>
		<rect id="p_63_" x="30.6" y="265.4" width="10.2" height="10.2"/>
	</g>
	<g>
		<rect id="p_64_" x="30.6" y="285.8" width="10.2" height="10.2"/>
	</g>
	<g>
		<rect id="p_65_" x="40.8" width="10.2" height="10.2"/>
	</g>
	<g>
		<rect id="p_66_" x="40.8" y="20.4" width="10.2" height="10.2"/>
	</g>
	<g>
		<rect id="p_67_" x="40.8" y="30.6" width="10.2" height="10.2"/>
	</g>
	<g>
		<rect id="p_68_" x="40.8" y="40.8" width="10.2" height="10.2"/>
	</g>
	<g>
		<rect id="p_69_" x="40.8" y="61.2" width="10.2" height="10.2"/>
	</g>
	<g>
		<rect id="p_70_" x="40.8" y="81.7" width="10.2" height="10.2"/>
	</g>
	<g>
		<rect id="p_71_" x="40.8" y="91.9" width="10.2" height="10.2"/>
	</g>
	<g>
		<rect id="p_72_" x="40.8" y="112.3" width="10.2" height="10.2"/>
	</g>
	<g>
		<rect id="p_73_" x="40.8" y="122.5" width="10.2" height="10.2"/>
	</g>
	<g>
		<rect id="p_74_" x="40.8" y="132.7" width="10.2" height="10.2"/>
	</g>
	<g>
		<rect id="p_75_" x="40.8" y="163.3" width="10.2" height="10.2"/>
	</g>
	<g>
		<rect id="p_76_" x="40.8" y="183.7" width="10.2" height="10.2"/>
	</g>
	<g>
		<rect id="p_77_" x="40.8" y="224.6" width="10.2" height="10.2"/>
	</g>
	<g>
		<rect id="p_78_" x="40.8" y="245" width="10.2" height="10.2"/>
	</g>
	<g>
		<rect id="p_79_" x="40.8" y="255.2" width="10.2" height="10.2"/>
	</g>
	<g>
		<rect id="p_80_" x="40.8" y="265.4" width="10.2" height="10.2"/>
	</g>
	<g>
		<rect id="p_81_" x="40.8" y="285.8" width="10.2" height="10.2"/>
	</g>
	<g>
		<rect id="p_82_" x="51" width="10.2" height="10.2"/>
	</g>
	<g>
		<rect id="p_83_" x="51" y="61.2" width="10.2" height="10.2"/>
	</g>
	<g>
		<rect id="p_84_" x="51" y="102.1" width="10.2" height="10.2"/>
	</g>
	<g>
		<rect id="p_85_" x="51" y="122.5" width="10.2" height="10.2"/>
	</g>
	<g>
		<rect id="p_86_" x="51" y="142.9" width="10.2" height="10.2"/>
	</g>
	<g>
		<rect id="p_87_" x="51" y="153.1" width="10.2" height="10.2"/>
	</g>
	<g>
		<rect id="p_88_" x="51" y="173.5" width="10.2" height="10.2"/>
	</g>
	<g>
		<rect id="p_89_" x="51" y="183.7" width="10.2" height="10.2"/>
	</g>
	<g>
		<rect id="p_90_" x="51" y="224.6" width="10.2" height="10.2"/>
	</g>
	<g>
		<rect id="p_91_" x="51" y="285.8" width="10.2" height="10.2"/>
	</g>
	<g>
		<rect id="p_92_" x="61.2" width="10.2" height="10.2"/>
	</g>
	<g>
		<rect id="p_93_" x="61.2" y="10.2" width="10.2" height="10.2"/>
	</g>
	<g>
		<rect id="p_94_" x="61.2" y="20.4" width="10.2" height="10.2"/>
	</g>
	<g>
		<rect id="p_95_" x="61.2" y="30.6" width="10.2" height="10.2"/>
	</g>
	<g>
		<rect id="p_96_" x="61.2" y="40.8" width="10.2" height="10.2"/>
	</g>
	<g>
		<rect id="p_97_" x="61.2" y="51" width="10.2" height="10.2"/>
	</g>
	<g>
		<rect id="p_98_" x="61.2" y="61.2" width="10.2" height="10.2"/>
	</g>
	<g>
		<rect id="p_99_" x="61.2" y="81.7" width="10.2" height="10.2"/>
	</g>
	<g>
		<rect id="p_100_" x="61.2" y="102.1" width="10.2" height="10.2"/>
	</g>
	<g>
		<rect id="p_101_" x="61.2" y="122.5" width="10.2" height="10.2"/>
	</g>
	<g>
		<rect id="p_102_" x="61.2" y="142.9" width="10.2" height="10.2"/>
	</g>
	<g>
		<rect id="p_103_" x="61.2" y="163.3" width="10.2" height="10.2"/>
	</g>
	<g>
		<rect id="p_104_" x="61.2" y="183.7" width="10.2" height="10.2"/>
	</g>
	<g>
		<rect id="p_105_" x="61.2" y="204.1" width="10.2" height="10.2"/>
	</g>
	<g>
		<rect id="p_106_" x="61.2" y="224.6" width="10.2" height="10.2"/>
	</g>
	<g>
		<rect id="p_107_" x="61.2" y="234.8" width="10.2" height="10.2"/>
	</g>
	<g>
		<rect id="p_108_" x="61.2" y="245" width="10.2" height="10.2"/>
	</g>
	<g>
		<rect id="p_109_" x="61.2" y="255.2" width="10.2" height="10.2"/>
	</g>
	<g>
		<rect id="p_110_" x="61.2" y="265.4" width="10.2" height="10.2"/>
	</g>
	<g>
		<rect id="p_111_" x="61.2" y="275.6" width="10.2" height="10.2"/>
	</g>
	<g>
		<rect id="p_112_" x="61.2" y="285.8" width="10.2" height="10.2"/>
	</g>
	<g>
		<rect id="p_113_" x="71.4" y="91.9" width="10.2" height="10.2"/>
	</g>
	<g>
		<rect id="p_114_" x="71.4" y="102.1" width="10.2" height="10.2"/>
	</g>
	<g>
		<rect id="p_115_" x="71.4" y="122.5" width="10.2" height="10.2"/>
	</g>
	<g>
		<rect id="p_116_" x="71.4" y="132.7" width="10.2" height="10.2"/>
	</g>
	<g>
		<rect id="p_117_" x="71.4" y="153.1" width="10.2" height="10.2"/>
	</g>
	<g>
		<rect id="p_118_" x="71.4" y="163.3" width="10.2" height="10.2"/>
	</g>
	<g>
		<rect id="p_119_" x="71.4" y="183.7" width="10.2" height="10.2"/>
	</g>
	<g>
		<rect id="p_120_" x="71.4" y="193.9" width="10.2" height="10.2"/>
	</g>
	<g>
		<rect id="p_121_" x="81.7" width="10.2" height="10.2"/>
	</g>
	<g>
		<rect id="p_122_" x="81.7" y="61.2" width="10.2" height="10.2"/>
	</g>
	<g>
		<rect id="p_123_" x="81.7" y="71.4" width="10.2" height="10.2"/>
	</g>
	<g>
		<rect id="p_124_" x="81.7" y="132.7" width="10.2" height="10.2"/>
	</g>
	<g>
		<rect id="p_125_" x="81.7" y="163.3" width="10.2" height="10.2"/>
	</g>
	<g>
		<rect id="p_126_" x="81.7" y="183.7" width="10.2" height="10.2"/>
	</g>
	<g>
		<rect id="p_127_" x="81.7" y="204.1" width="10.2" height="10.2"/>
	</g>
	<g>
		<rect id="p_128_" x="81.7" y="214.3" width="10.2" height="10.2"/>
	</g>
	<g>
		<rect id="p_129_" x="81.7" y="245" width="10.2" height="10.2"/>
	</g>
	<g>
		<rect id="p_130_" x="81.7" y="255.2" width="10.2" height="10.2"/>
	</g>
	<g>
		<rect id="p_131_" x="81.7" y="275.6" width="10.2" height="10.2"/>
	</g>
	<g>
		<rect id="p_132_" x="81.7" y="285.8" width="10.2" height="10.2"/>
	</g>
	<g>
		<rect id="p_133_" x="91.9" width="10.2" height="10.2"/>
	</g>
	<g>
		<rect id="p_134_" x="91.9" y="20.4" width="10.2" height="10.2"/>
	</g>
	<g>
		<rect id="p_135_" x="91.9" y="51" width="10.2" height="10.2"/>
	</g>
	<g>
		<rect id="p_136_" x="91.9" y="71.4" width="10.2" height="10.2"/>
	</g>
	<g>
		<rect id="p_137_" x="91.9" y="81.7" width="10.2" height="10.2"/>
	</g>
	<g>
		<rect id="p_138_" x="91.9" y="102.1" width="10.2" height="10.2"/>
	</g>
	<g>
		<rect id="p_139_" x="91.9" y="122.5" width="10.2" height="10.2"/>
	</g>
	<g>
		<rect id="p_140_" x="91.9" y="153.1" width="10.2" height="10.2"/>
	</g>
	<g>
		<rect id="p_141_" x="91.9" y="163.3" width="10.2" height="10.2"/>
	</g>
	<g>
		<rect id="p_142_" x="91.9" y="173.5" width="10.2" height="10.2"/>
	</g>
	<g>
		<rect id="p_143_" x="91.9" y="224.6" width="10.2" height="10.2"/>
	</g>
	<g>
		<rect id="p_144_" x="91.9" y="234.8" width="10.2" height="10.2"/>
	</g>
	<g>
		<rect id="p_145_" x="91.9" y="255.2" width="10.2" height="10.2"/>
	</g>
	<g>
		<rect id="p_146_" x="91.9" y="265.4" width="10.2" height="10.2"/>
	</g>
	<g>
		<rect id="p_147_" x="91.9" y="285.8" width="10.2" height="10.2"/>
	</g>
	<g>
		<rect id="p_148_" x="102.1" width="10.2" height="10.2"/>
	</g>
	<g>
		<rect id="p_149_" x="102.1" y="30.6" width="10.2" height="10.2"/>
	</g>
	<g>
		<rect id="p_150_" x="102.1" y="40.8" width="10.2" height="10.2"/>
	</g>
	<g>
		<rect id="p_151_" x="102.1" y="61.2" width="10.2" height="10.2"/>
	</g>
	<g>
		<rect id="p_152_" x="102.1" y="91.9" width="10.2" height="10.2"/>
	</g>
	<g>
		<rect id="p_153_" x="102.1" y="122.5" width="10.2" height="10.2"/>
	</g>
	<g>
		<rect id="p_154_" x="102.1" y="132.7" width="10.2" height="10.2"/>
	</g>
	<g>
		<rect id="p_155_" x="102.1" y="163.3" width="10.2" height="10.2"/>
	</g>
	<g>
		<rect id="p_156_" x="102.1" y="224.6" width="10.2" height="10.2"/>
	</g>
	<g>
		<rect id="p_157_" x="102.1" y="265.4" width="10.2" height="10.2"/>
	</g>
	<g>
		<rect id="p_158_" x="112.3" width="10.2" height="10.2"/>
	</g>
	<g>
		<rect id="p_159_" x="112.3" y="10.2" width="10.2" height="10.2"/>
	</g>
	<g>
		<rect id="p_160_" x="112.3" y="20.4" width="10.2" height="10.2"/>
	</g>
	<g>
		<rect id="p_161_" x="112.3" y="30.6" width="10.2" height="10.2"/>
	</g>
	<g>
		<rect id="p_162_" x="112.3" y="40.8" width="10.2" height="10.2"/>
	</g>
	<g>
		<rect id="p_163_" x="112.3" y="51" width="10.2" height="10.2"/>
	</g>
	<g>
		<rect id="p_164_" x="112.3" y="163.3" width="10.2" height="10.2"/>
	</g>
	<g>
		<rect id="p_165_" x="112.3" y="173.5" width="10.2" height="10.2"/>
	</g>
	<g>
		<rect id="p_166_" x="112.3" y="193.9" width="10.2" height="10.2"/>
	</g>
	<g>
		<rect id="p_167_" x="112.3" y="204.1" width="10.2" height="10.2"/>
	</g>
	<g>
		<rect id="p_168_" x="112.3" y="224.6" width="10.2" height="10.2"/>
	</g>
	<g>
		<rect id="p_169_" x="112.3" y="234.8" width="10.2" height="10.2"/>
	</g>
	<g>
		<rect id="p_170_" x="112.3" y="255.2" width="10.2" height="10.2"/>
	</g>
	<g>
		<rect id="p_171_" x="122.5" y="10.2" width="10.2" height="10.2"/>
	</g>
	<g>
		<rect id="p_172_" x="122.5" y="40.8" width="10.2" height="10.2"/>
	</g>
	<g>
		<rect id="p_173_" x="122.5" y="61.2" width="10.2" height="10.2"/>
	</g>
	<g>
		<rect id="p_174_" x="122.5" y="71.4" width="10.2" height="10.2"/>
	</g>
	<g>
		<rect id="p_175_" x="122.5" y="81.7" width="10.2" height="10.2"/>
	</g>
	<g>
		<rect id="p_176_" x="122.5" y="102.1" width="10.2" height="10.2"/>
	</g>
	<g>
		<rect id="p_177_" x="122.5" y="132.7" width="10.2" height="10.2"/>
	</g>
	<g>
		<rect id="p_178_" x="122.5" y="153.1" width="10.2" height="10.2"/>
	</g>
	<g>
		<rect id="p_179_" x="122.5" y="163.3" width="10.2" height="10.2"/>
	</g>
	<g>
		<rect id="p_180_" x="122.5" y="183.7" width="10.2" height="10.2"/>
	</g>
	<g>
		<rect id="p_181_" x="122.5" y="204.1" width="10.2" height="10.2"/>
	</g>
	<g>
		<rect id="p_182_" x="122.5" y="214.3" width="10.2" height="10.2"/>
	</g>
	<g>
		<rect id="p_183_" x="122.5" y="224.6" width="10.2" height="10.2"/>
	</g>
	<g>
		<rect id="p_184_" x="122.5" y="245" width="10.2" height="10.2"/>
	</g>
	<g>
		<rect id="p_185_" x="122.5" y="285.8" width="10.2" height="10.2"/>
	</g>
	<g>
		<rect id="p_186_" x="132.7" y="20.4" width="10.2" height="10.2"/>
	</g>
	<g>
		<rect id="p_187_" x="132.7" y="30.6" width="10.2" height="10.2"/>
	</g>
	<g>
		<rect id="p_188_" x="132.7" y="40.8" width="10.2" height="10.2"/>
	</g>
	<g>
		<rect id="p_189_" x="132.7" y="71.4" width="10.2" height="10.2"/>
	</g>
	<g>
		<rect id="p_190_" x="132.7" y="91.9" width="10.2" height="10.2"/>
	</g>
	<g>
		<rect id="p_191_" x="132.7" y="163.3" width="10.2" height="10.2"/>
	</g>
	<g>
		<rect id="p_192_" x="132.7" y="173.5" width="10.2" height="10.2"/>
	</g>
	<g>
		<rect id="p_193_" x="132.7" y="193.9" width="10.2" height="10.2"/>
	</g>
	<g>
		<rect id="p_194_" x="132.7" y="214.3" width="10.2" height="10.2"/>
	</g>
	<g>
		<rect id="p_195_" x="132.7" y="255.2" width="10.2" height="10.2"/>
	</g>
	<g>
		<rect id="p_196_" x="132.7" y="265.4" width="10.2" height="10.2"/>
	</g>
	<g>
		<rect id="p_197_" x="132.7" y="285.8" width="10.2" height="10.2"/>
	</g>
	<g>
		<rect id="p_198_" x="142.9" width="10.2" height="10.2"/>
	</g>
	<g>
		<rect id="p_199_" x="142.9" y="20.4" width="10.2" height="10.2"/>
	</g>
	<g>
		<rect id="p_200_" x="142.9" y="40.8" width="10.2" height="10.2"/>
	</g>
	<g>
		<rect id="p_201_" x="142.9" y="51" width="10.2" height="10.2"/>
	</g>
	<g>
		<rect id="p_202_" x="142.9" y="61.2" width="10.2" height="10.2"/>
	</g>
	<g>
		<rect id="p_203_" x="142.9" y="71.4" width="10.2" height="10.2"/>
	</g>
	<g>
		<rect id="p_204_" x="142.9" y="81.7" width="10.2" height="10.2"/>
	</g>
	<g>
		<rect id="p_205_" x="142.9" y="91.9" width="10.2" height="10.2"/>
	</g>
	<g>
		<rect id="p_206_" x="142.9" y="102.1" width="10.2" height="10.2"/>
	</g>
	<g>
		<rect id="p_207_" x="142.9" y="112.3" width="10.2" height="10.2"/>
	</g>
	<g>
		<rect id="p_208_" x="142.9" y="132.7" width="10.2" height="10.2"/>
	</g>
	<g>
		<rect id="p_209_" x="142.9" y="142.9" width="10.2" height="10.2"/>
	</g>
	<g>
		<rect id="p_210_" x="142.9" y="163.3" width="10.2" height="10.2"/>
	</g>
	<g>
		<rect id="p_211_" x="142.9" y="193.9" width="10.2" height="10.2"/>
	</g>
	<g>
		<rect id="p_212_" x="142.9" y="204.1" width="10.2" height="10.2"/>
	</g>
	<g>
		<rect id="p_213_" x="142.9" y="214.3" width="10.2" height="10.2"/>
	</g>
	<g>
		<rect id="p_214_" x="142.9" y="224.6" width="10.2" height="10.2"/>
	</g>
	<g>
		<rect id="p_215_" x="142.9" y="265.4" width="10.2" height="10.2"/>
	</g>
	<g>
		<rect id="p_216_" x="142.9" y="275.6" width="10.2" height="10.2"/>
	</g>
	<g>
		<rect id="p_217_" x="153.1" y="71.4" width="10.2" height="10.2"/>
	</g>
	<g>
		<rect id="p_218_" x="153.1" y="91.9" width="10.2" height="10.2"/>
	</g>
	<g>
		<rect id="p_219_" x="153.1" y="102.1" width="10.2" height="10.2"/>
	</g>
	<g>
		<rect id="p_220_" x="153.1" y="112.3" width="10.2" height="10.2"/>
	</g>
	<g>
		<rect id="p_221_" x="153.1" y="132.7" width="10.2" height="10.2"/>
	</g>
	<g>
		<rect id="p_222_" x="153.1" y="142.9" width="10.2" height="10.2"/>
	</g>
	<g>
		<rect id="p_223_" x="153.1" y="173.5" width="10.2" height="10.2"/>
	</g>
	<g>
		<rect id="p_224_" x="153.1" y="183.7" width="10.2" height="10.2"/>
	</g>
	<g>
		<rect id="p_225_" x="153.1" y="214.3" width="10.2" height="10.2"/>
	</g>
	<g>
		<rect id="p_226_" x="153.1" y="224.6" width="10.2" height="10.2"/>
	</g>
	<g>
		<rect id="p_227_" x="153.1" y="234.8" width="10.2" height="10.2"/>
	</g>
	<g>
		<rect id="p_228_" x="153.1" y="255.2" width="10.2" height="10.2"/>
	</g>
	<g>
		<rect id="p_229_" x="153.1" y="265.4" width="10.2" height="10.2"/>
	</g>
	<g>
		<rect id="p_230_" x="153.1" y="275.6" width="10.2" height="10.2"/>
	</g>
	<g>
		<rect id="p_231_" x="153.1" y="285.8" width="10.2" height="10.2"/>
	</g>
	<g>
		<rect id="p_232_" x="163.3" y="30.6" width="10.2" height="10.2"/>
	</g>
	<g>
		<rect id="p_233_" x="163.3" y="40.8" width="10.2" height="10.2"/>
	</g>
	<g>
		<rect id="p_234_" x="163.3" y="61.2" width="10.2" height="10.2"/>
	</g>
	<g>
		<rect id="p_235_" x="163.3" y="71.4" width="10.2" height="10.2"/>
	</g>
	<g>
		<rect id="p_236_" x="163.3" y="81.7" width="10.2" height="10.2"/>
	</g>
	<g>
		<rect id="p_237_" x="163.3" y="91.9" width="10.2" height="10.2"/>
	</g>
	<g>
		<rect id="p_238_" x="163.3" y="102.1" width="10.2" height="10.2"/>
	</g>
	<g>
		<rect id="p_239_" x="163.3" y="122.5" width="10.2" height="10.2"/>
	</g>
	<g>
		<rect id="p_240_" x="163.3" y="132.7" width="10.2" height="10.2"/>
	</g>
	<g>
		<rect id="p_241_" x="163.3" y="153.1" width="10.2" height="10.2"/>
	</g>
	<g>
		<rect id="p_242_" x="163.3" y="183.7" width="10.2" height="10.2"/>
	</g>
	<g>
		<rect id="p_243_" x="163.3" y="193.9" width="10.2" height="10.2"/>
	</g>
	<g>
		<rect id="p_244_" x="163.3" y="204.1" width="10.2" height="10.2"/>
	</g>
	<g>
		<rect id="p_245_" x="163.3" y="224.6" width="10.2" height="10.2"/>
	</g>
	<g>
		<rect id="p_246_" x="163.3" y="245" width="10.2" height="10.2"/>
	</g>
	<g>
		<rect id="p_247_" x="163.3" y="255.2" width="10.2" height="10.2"/>
	</g>
	<g>
		<rect id="p_248_" x="163.3" y="265.4" width="10.2" height="10.2"/>
	</g>
	<g>
		<rect id="p_249_" x="173.5" y="30.6" width="10.2" height="10.2"/>
	</g>
	<g>
		<rect id="p_250_" x="173.5" y="40.8" width="10.2" height="10.2"/>
	</g>
	<g>
		<rect id="p_251_" x="173.5" y="51" width="10.2" height="10.2"/>
	</g>
	<g>
		<rect id="p_252_" x="173.5" y="81.7" width="10.2" height="10.2"/>
	</g>
	<g>
		<rect id="p_253_" x="173.5" y="112.3" width="10.2" height="10.2"/>
	</g>
	<g>
		<rect id="p_254_" x="173.5" y="132.7" width="10.2" height="10.2"/>
	</g>
	<g>
		<rect id="p_255_" x="173.5" y="142.9" width="10.2" height="10.2"/>
	</g>
	<g>
		<rect id="p_256_" x="173.5" y="183.7" width="10.2" height="10.2"/>
	</g>
	<g>
		<rect id="p_257_" x="173.5" y="204.1" width="10.2" height="10.2"/>
	</g>
	<g>
		<rect id="p_258_" x="173.5" y="214.3" width="10.2" height="10.2"/>
	</g>
	<g>
		<rect id="p_259_" x="173.5" y="234.8" width="10.2" height="10.2"/>
	</g>
	<g>
		<rect id="p_260_" x="173.5" y="255.2" width="10.2" height="10.2"/>
	</g>
	<g>
		<rect id="p_261_" x="173.5" y="265.4" width="10.2" height="10.2"/>
	</g>
	<g>
		<rect id="p_262_" x="183.7" width="10.2" height="10.2"/>
	</g>
	<g>
		<rect id="p_263_" x="183.7" y="10.2" width="10.2" height="10.2"/>
	</g>
	<g>
		<rect id="p_264_" x="183.7" y="20.4" width="10.2" height="10.2"/>
	</g>
	<g>
		<rect id="p_265_" x="183.7" y="61.2" width="10.2" height="10.2"/>
	</g>
	<g>
		<rect id="p_266_" x="183.7" y="91.9" width="10.2" height="10.2"/>
	</g>
	<g>
		<rect id="p_267_" x="183.7" y="102.1" width="10.2" height="10.2"/>
	</g>
	<g>
		<rect id="p_268_" x="183.7" y="112.3" width="10.2" height="10.2"/>
	</g>
	<g>
		<rect id="p_269_" x="183.7" y="122.5" width="10.2" height="10.2"/>
	</g>
	<g>
		<rect id="p_270_" x="183.7" y="132.7" width="10.2" height="10.2"/>
	</g>
	<g>
		<rect id="p_271_" x="183.7" y="153.1" width="10.2" height="10.2"/>
	</g>
	<g>
		<rect id="p_272_" x="183.7" y="173.5" width="10.2" height="10.2"/>
	</g>
	<g>
		<rect id="p_273_" x="183.7" y="183.7" width="10.2" height="10.2"/>
	</g>
	<g>
		<rect id="p_274_" x="183.7" y="214.3" width="10.2" height="10.2"/>
	</g>
	<g>
		<rect id="p_275_" x="183.7" y="245" width="10.2" height="10.2"/>
	</g>
	<g>
		<rect id="p_276_" x="183.7" y="255.2" width="10.2" height="10.2"/>
	</g>
	<g>
		<rect id="p_277_" x="193.9" y="10.2" width="10.2" height="10.2"/>
	</g>
	<g>
		<rect id="p_278_" x="193.9" y="20.4" width="10.2" height="10.2"/>
	</g>
	<g>
		<rect id="p_279_" x="193.9" y="40.8" width="10.2" height="10.2"/>
	</g>
	<g>
		<rect id="p_280_" x="193.9" y="71.4" width="10.2" height="10.2"/>
	</g>
	<g>
		<rect id="p_281_" x="193.9" y="91.9" width="10.2" height="10.2"/>
	</g>
	<g>
		<rect id="p_282_" x="193.9" y="112.3" width="10.2" height="10.2"/>
	</g>
	<g>
		<rect id="p_283_" x="193.9" y="122.5" width="10.2" height="10.2"/>
	</g>
	<g>
		<rect id="p_284_" x="193.9" y="142.9" width="10.2" height="10.2"/>
	</g>
	<g>
		<rect id="p_285_" x="193.9" y="153.1" width="10.2" height="10.2"/>
	</g>
	<g>
		<rect id="p_286_" x="193.9" y="163.3" width="10.2" height="10.2"/>
	</g>
	<g>
		<rect id="p_287_" x="193.9" y="173.5" width="10.2" height="10.2"/>
	</g>
	<g>
		<rect id="p_288_" x="193.9" y="183.7" width="10.2" height="10.2"/>
	</g>
	<g>
		<rect id="p_289_" x="193.9" y="224.6" width="10.2" height="10.2"/>
	</g>
	<g>
		<rect id="p_290_" x="193.9" y="234.8" width="10.2" height="10.2"/>
	</g>
	<g>
		<rect id="p_291_" x="193.9" y="245" width="10.2" height="10.2"/>
	</g>
	<g>
		<rect id="p_292_" x="193.9" y="255.2" width="10.2" height="10.2"/>
	</g>
	<g>
		<rect id="p_293_" x="193.9" y="275.6" width="10.2" height="10.2"/>
	</g>
	<g>
		<rect id="p_294_" x="193.9" y="285.8" width="10.2" height="10.2"/>
	</g>
	<g>
		<rect id="p_295_" x="204.1" y="10.2" width="10.2" height="10.2"/>
	</g>
	<g>
		<rect id="p_296_" x="204.1" y="20.4" width="10.2" height="10.2"/>
	</g>
	<g>
		<rect id="p_297_" x="204.1" y="51" width="10.2" height="10.2"/>
	</g>
	<g>
		<rect id="p_298_" x="204.1" y="61.2" width="10.2" height="10.2"/>
	</g>
	<g>
		<rect id="p_299_" x="204.1" y="71.4" width="10.2" height="10.2"/>
	</g>
	<g>
		<rect id="p_300_" x="204.1" y="112.3" width="10.2" height="10.2"/>
	</g>
	<g>
		<rect id="p_301_" x="204.1" y="122.5" width="10.2" height="10.2"/>
	</g>
	<g>
		<rect id="p_302_" x="204.1" y="163.3" width="10.2" height="10.2"/>
	</g>
	<g>
		<rect id="p_303_" x="204.1" y="204.1" width="10.2" height="10.2"/>
	</g>
	<g>
		<rect id="p_304_" x="204.1" y="214.3" width="10.2" height="10.2"/>
	</g>
	<g>
		<rect id="p_305_" x="204.1" y="224.6" width="10.2" height="10.2"/>
	</g>
	<g>
		<rect id="p_306_" x="204.1" y="234.8" width="10.2" height="10.2"/>
	</g>
	<g>
		<rect id="p_307_" x="204.1" y="245" width="10.2" height="10.2"/>
	</g>
	<g>
		<rect id="p_308_" x="204.1" y="285.8" width="10.2" height="10.2"/>
	</g>
	<g>
		<rect id="p_309_" x="214.3" y="102.1" width="10.2" height="10.2"/>
	</g>
	<g>
		<rect id="p_310_" x="214.3" y="153.1" width="10.2" height="10.2"/>
	</g>
	<g>
		<rect id="p_311_" x="214.3" y="173.5" width="10.2" height="10.2"/>
	</g>
	<g>
		<rect id="p_312_" x="214.3" y="183.7" width="10.2" height="10.2"/>
	</g>
	<g>
		<rect id="p_313_" x="214.3" y="193.9" width="10.2" height="10.2"/>
	</g>
	<g>
		<rect id="p_314_" x="214.3" y="204.1" width="10.2" height="10.2"/>
	</g>
	<g>
		<rect id="p_315_" x="214.3" y="245" width="10.2" height="10.2"/>
	</g>
	<g>
		<rect id="p_316_" x="214.3" y="255.2" width="10.2" height="10.2"/>
	</g>
	<g>
		<rect id="p_317_" x="214.3" y="275.6" width="10.2" height="10.2"/>
	</g>
	<g>
		<rect id="p_318_" x="214.3" y="285.8" width="10.2" height="10.2"/>
	</g>
	<g>
		<rect id="p_319_" x="224.6" width="10.2" height="10.2"/>
	</g>
	<g>
		<rect id="p_320_" x="224.6" y="10.2" width="10.2" height="10.2"/>
	</g>
	<g>
		<rect id="p_321_" x="224.6" y="20.4" width="10.2" height="10.2"/>
	</g>
	<g>
		<rect id="p_322_" x="224.6" y="30.6" width="10.2" height="10.2"/>
	</g>
	<g>
		<rect id="p_323_" x="224.6" y="40.8" width="10.2" height="10.2"/>
	</g>
	<g>
		<rect id="p_324_" x="224.6" y="51" width="10.2" height="10.2"/>
	</g>
	<g>
		<rect id="p_325_" x="224.6" y="61.2" width="10.2" height="10.2"/>
	</g>
	<g>
		<rect id="p_326_" x="224.6" y="81.7" width="10.2" height="10.2"/>
	</g>
	<g>
		<rect id="p_327_" x="224.6" y="102.1" width="10.2" height="10.2"/>
	</g>
	<g>
		<rect id="p_328_" x="224.6" y="122.5" width="10.2" height="10.2"/>
	</g>
	<g>
		<rect id="p_329_" x="224.6" y="132.7" width="10.2" height="10.2"/>
	</g>
	<g>
		<rect id="p_330_" x="224.6" y="142.9" width="10.2" height="10.2"/>
	</g>
	<g>
		<rect id="p_331_" x="224.6" y="153.1" width="10.2" height="10.2"/>
	</g>
	<g>
		<rect id="p_332_" x="224.6" y="183.7" width="10.2" height="10.2"/>
	</g>
	<g>
		<rect id="p_333_" x="224.6" y="193.9" width="10.2" height="10.2"/>
	</g>
	<g>
		<rect id="p_334_" x="224.6" y="204.1" width="10.2" height="10.2"/>
	</g>
	<g>
		<rect id="p_335_" x="224.6" y="224.6" width="10.2" height="10.2"/>
	</g>
	<g>
		<rect id="p_336_" x="224.6" y="245" width="10.2" height="10.2"/>
	</g>
	<g>
		<rect id="p_337_" x="224.6" y="275.6" width="10.2" height="10.2"/>
	</g>
	<g>
		<rect id="p_338_" x="234.8" width="10.2" height="10.2"/>
	</g>
	<g>
		<rect id="p_339_" x="234.8" y="61.2" width="10.2" height="10.2"/>
	</g>
	<g>
		<rect id="p_340_" x="234.8" y="91.9" width="10.2" height="10.2"/>
	</g>
	<g>
		<rect id="p_341_" x="234.8" y="122.5" width="10.2" height="10.2"/>
	</g>
	<g>
		<rect id="p_342_" x="234.8" y="132.7" width="10.2" height="10.2"/>
	</g>
	<g>
		<rect id="p_343_" x="234.8" y="153.1" width="10.2" height="10.2"/>
	</g>
	<g>
		<rect id="p_344_" x="234.8" y="193.9" width="10.2" height="10.2"/>
	</g>
	<g>
		<rect id="p_345_" x="234.8" y="204.1" width="10.2" height="10.2"/>
	</g>
	<g>
		<rect id="p_346_" x="234.8" y="245" width="10.2" height="10.2"/>
	</g>
	<g>
		<rect id="p_347_" x="234.8" y="265.4" width="10.2" height="10.2"/>
	</g>
	<g>
		<rect id="p_348_" x="245" width="10.2" height="10.2"/>
	</g>
	<g>
		<rect id="p_349_" x="245" y="20.4" width="10.2" height="10.2"/>
	</g>
	<g>
		<rect id="p_350_" x="245" y="30.6" width="10.2" height="10.2"/>
	</g>
	<g>
		<rect id="p_351_" x="245" y="40.8" width="10.2" height="10.2"/>
	</g>
	<g>
		<rect id="p_352_" x="245" y="61.2" width="10.2" height="10.2"/>
	</g>
	<g>
		<rect id="p_353_" x="245" y="91.9" width="10.2" height="10.2"/>
	</g>
	<g>
		<rect id="p_354_" x="245" y="102.1" width="10.2" height="10.2"/>
	</g>
	<g>
		<rect id="p_355_" x="245" y="112.3" width="10.2" height="10.2"/>
	</g>
	<g>
		<rect id="p_356_" x="245" y="132.7" width="10.2" height="10.2"/>
	</g>
	<g>
		<rect id="p_357_" x="245" y="153.1" width="10.2" height="10.2"/>
	</g>
	<g>
		<rect id="p_358_" x="245" y="173.5" width="10.2" height="10.2"/>
	</g>
	<g>
		<rect id="p_359_" x="245" y="183.7" width="10.2" height="10.2"/>
	</g>
	<g>
		<rect id="p_360_" x="245" y="193.9" width="10.2" height="10.2"/>
	</g>
	<g>
		<rect id="p_361_" x="245" y="204.1" width="10.2" height="10.2"/>
	</g>
	<g>
		<rect id="p_362_" x="245" y="214.3" width="10.2" height="10.2"/>
	</g>
	<g>
		<rect id="p_363_" x="245" y="224.6" width="10.2" height="10.2"/>
	</g>
	<g>
		<rect id="p_364_" x="245" y="234.8" width="10.2" height="10.2"/>
	</g>
	<g>
		<rect id="p_365_" x="245" y="245" width="10.2" height="10.2"/>
	</g>
	<g>
		<rect id="p_366_" x="245" y="265.4" width="10.2" height="10.2"/>
	</g>
	<g>
		<rect id="p_367_" x="255.2" width="10.2" height="10.2"/>
	</g>
	<g>
		<rect id="p_368_" x="255.2" y="20.4" width="10.2" height="10.2"/>
	</g>
	<g>
		<rect id="p_369_" x="255.2" y="30.6" width="10.2" height="10.2"/>
	</g>
	<g>
		<rect id="p_370_" x="255.2" y="40.8" width="10.2" height="10.2"/>
	</g>
	<g>
		<rect id="p_371_" x="255.2" y="61.2" width="10.2" height="10.2"/>
	</g>
	<g>
		<rect id="p_372_" x="255.2" y="112.3" width="10.2" height="10.2"/>
	</g>
	<g>
		<rect id="p_373_" x="255.2" y="132.7" width="10.2" height="10.2"/>
	</g>
	<g>
		<rect id="p_374_" x="255.2" y="163.3" width="10.2" height="10.2"/>
	</g>
	<g>
		<rect id="p_375_" x="255.2" y="183.7" width="10.2" height="10.2"/>
	</g>
	<g>
		<rect id="p_376_" x="255.2" y="193.9" width="10.2" height="10.2"/>
	</g>
	<g>
		<rect id="p_377_" x="255.2" y="204.1" width="10.2" height="10.2"/>
	</g>
	<g>
		<rect id="p_378_" x="255.2" y="214.3" width="10.2" height="10.2"/>
	</g>
	<g>
		<rect id="p_379_" x="255.2" y="224.6" width="10.2" height="10.2"/>
	</g>
	<g>
		<rect id="p_380_" x="255.2" y="245" width="10.2" height="10.2"/>
	</g>
	<g>
		<rect id="p_381_" x="255.2" y="275.6" width="10.2" height="10.2"/>
	</g>
	<g>
		<rect id="p_382_" x="265.4" width="10.2" height="10.2"/>
	</g>
	<g>
		<rect id="p_383_" x="265.4" y="20.4" width="10.2" height="10.2"/>
	</g>
	<g>
		<rect id="p_384_" x="265.4" y="30.6" width="10.2" height="10.2"/>
	</g>
	<g>
		<rect id="p_385_" x="265.4" y="40.8" width="10.2" height="10.2"/>
	</g>
	<g>
		<rect id="p_386_" x="265.4" y="61.2" width="10.2" height="10.2"/>
	</g>
	<g>
		<rect id="p_387_" x="265.4" y="91.9" width="10.2" height="10.2"/>
	</g>
	<g>
		<rect id="p_388_" x="265.4" y="102.1" width="10.2" height="10.2"/>
	</g>
	<g>
		<rect id="p_389_" x="265.4" y="132.7" width="10.2" height="10.2"/>
	</g>
	<g>
		<rect id="p_390_" x="265.4" y="142.9" width="10.2" height="10.2"/>
	</g>
	<g>
		<rect id="p_391_" x="265.4" y="153.1" width="10.2" height="10.2"/>
	</g>
	<g>
		<rect id="p_392_" x="265.4" y="173.5" width="10.2" height="10.2"/>
	</g>
	<g>
		<rect id="p_393_" x="265.4" y="193.9" width="10.2" height="10.2"/>
	</g>
	<g>
		<rect id="p_394_" x="265.4" y="204.1" width="10.2" height="10.2"/>
	</g>
	<g>
		<rect id="p_395_" x="265.4" y="265.4" width="10.2" height="10.2"/>
	</g>
	<g>
		<rect id="p_396_" x="265.4" y="275.6" width="10.2" height="10.2"/>
	</g>
	<g>
		<rect id="p_397_" x="275.6" width="10.2" height="10.2"/>
	</g>
	<g>
		<rect id="p_398_" x="275.6" y="61.2" width="10.2" height="10.2"/>
	</g>
	<g>
		<rect id="p_399_" x="275.6" y="91.9" width="10.2" height="10.2"/>
	</g>
	<g>
		<rect id="p_400_" x="275.6" y="132.7" width="10.2" height="10.2"/>
	</g>
	<g>
		<rect id="p_401_" x="275.6" y="173.5" width="10.2" height="10.2"/>
	</g>
	<g>
		<rect id="p_402_" x="275.6" y="204.1" width="10.2" height="10.2"/>
	</g>
	<g>
		<rect id="p_403_" x="275.6" y="234.8" width="10.2" height="10.2"/>
	</g>
	<g>
		<rect id="p_404_" x="275.6" y="265.4" width="10.2" height="10.2"/>
	</g>
	<g>
		<rect id="p_405_" x="285.8" width="10.2" height="10.2"/>
	</g>
	<g>
		<rect id="p_406_" x="285.8" y="10.2" width="10.2" height="10.2"/>
	</g>
	<g>
		<rect id="p_407_" x="285.8" y="20.4" width="10.2" height="10.2"/>
	</g>
	<g>
		<rect id="p_408_" x="285.8" y="30.6" width="10.2" height="10.2"/>
	</g>
	<g>
		<rect id="p_409_" x="285.8" y="40.8" width="10.2" height="10.2"/>
	</g>
	<g>
		<rect id="p_410_" x="285.8" y="51" width="10.2" height="10.2"/>
	</g>
	<g>
		<rect id="p_411_" x="285.8" y="61.2" width="10.2" height="10.2"/>
	</g>
	<g>
		<rect id="p_412_" x="285.8" y="81.7" width="10.2" height="10.2"/>
	</g>
	<g>
		<rect id="p_413_" x="285.8" y="112.3" width="10.2" height="10.2"/>
	</g>
	<g>
		<rect id="p_414_" x="285.8" y="122.5" width="10.2" height="10.2"/>
	</g>
	<g>
		<rect id="p_415_" x="285.8" y="132.7" width="10.2" height="10.2"/>
	</g>
	<g>
		<rect id="p_416_" x="285.8" y="142.9" width="10.2" height="10.2"/>
	</g>
	<g>
		<rect id="p_417_" x="285.8" y="153.1" width="10.2" height="10.2"/>
	</g>
	<g>
		<rect id="p_418_" x="285.8" y="183.7" width="10.2" height="10.2"/>
	</g>
	<g>
		<rect id="p_419_" x="285.8" y="234.8" width="10.2" height="10.2"/>
	</g>
	<g>
		<rect id="p_420_" x="285.8" y="255.2" width="10.2" height="10.2"/>
	</g>
	<g>
		<rect id="p_421_" x="285.8" y="265.4" width="10.2" height="10.2"/>
	</g>
	<g>
		<rect id="p_422_" x="285.8" y="275.6" width="10.2" height="10.2"/>
	</g>
</g>
</svg>
