<?xml version="1.0" encoding="utf-8"?>
<!-- Generator: Adobe Illustrator 24.0.1, SVG Export Plug-In . SVG Version: 6.00 Build 0)  -->
<svg version="1.1" id="Слой_1" xmlns="http://www.w3.org/2000/svg" xmlns:xlink="http://www.w3.org/1999/xlink" x="0px" y="0px"
	 viewBox="0 0 474.2 440.6" style="enable-background:new 0 0 474.2 440.6;" xml:space="preserve">
<path d="M474.2,163.1l-7.6-2.5l-2.6-7.6l-1.5,0.5l2.6-3.8l-19.8-13.6l-9.1,13.1l12.8,8.8l-43.8,15.1c-4.8-7.3-12.4-12.3-21-13.9
	s-17.4,0.5-24.5,5.7l-96.3-79.1c2-4.2,3-8.8,3.1-13.4c-0.1-14.6-9.9-27.2-24-30.9V15.9l15.8,10.9l9.1-13.2L247.7,0l-5.1,7.4V0.6h-16
	V13l-7.7-11.2l-19.8,13.6l9.1,13.2l18.4-12.7v25.9c-8.5,2-15.7,7.5-20,15.1c-4.3,7.6-5.2,16.7-2.5,25L80.8,157
	c-6.8-6.6-16.2-9.9-25.7-8.9c-9.5,1-18,6.2-23.2,14.2l-11.8-4.1l10.2-7L21.3,138L1.6,151.6l2.8,4L0,168.2l26.9,9.3
	c-0.1,0.8-0.2,1.6-0.2,2.5c0,17.7,14.3,32,32,32c2.8,0,5.7-0.5,8.4-1.3l65.3,113.8c-11.8,11.4-13,30-2.6,42.7l-36.2,48.3l-3.3-10.2
	L75,410.2l7.4,22.8l6.2-2l8.5,6.4l45.4-60.6c15.9,6.6,34.2-0.7,41.3-16.4l123.2,21.4c0.8,10.2,6.4,19.4,15.1,24.7
	c8.7,5.3,19.4,6.2,28.8,2.3l11.8,15.8h-10.1v16h24v-6.4l8.5-6.4l-21.5-28.7c6.1-7.5,8.4-17.3,6.4-26.8c-2.1-9.4-8.3-17.4-17-21.6
	L380,222.8c17.1-0.8,30.5-14.8,30.6-31.9c0-0.8-0.2-1.6-0.3-2.5l43.7-15.1l-2.5,7.6l15.2,4.9L474.2,163.1z M58.6,196
	c-8.8,0-16-7.2-16-16c0-8.8,7.2-16,16-16c8.8,0,16,7.2,16,16C74.6,188.8,67.4,196,58.6,196z M349.7,177.6c-2,4.2-3,8.8-3.1,13.4
	c0,0.8,0.2,1.7,0.2,2.5l-104.2,36V103.5c3.9-1,7.5-2.7,10.8-5.1L349.7,177.6z M234.6,56.6c8.8,0,16,7.2,16,16c0,8.8-7.2,16-16,16
	c-8.8,0-16-7.2-16-16C218.6,63.8,225.8,56.6,234.6,56.6z M212.4,95.6c4,3.8,8.9,6.6,14.2,7.9v125.9l-136.3-47
	c0.1-0.8,0.3-1.6,0.3-2.5c0-3.1-0.6-6.2-1.5-9.2L212.4,95.6z M154.6,363.3c-8.8,0-16-7.2-16-16c0-8.8,7.2-16,16-16
	c8.8,0,16,7.2,16,16C170.6,356.1,163.4,363.3,154.6,363.3z M166.8,317.7c-3.9-1.6-8-2.4-12.2-2.4c-2.8,0-5.7,0.5-8.4,1.3L80.9,202.8
	c1.6-1.6,3.1-3.3,4.3-5.2l136.4,47L166.8,317.7z M309.5,366.1l-123.2-21.4c-0.5-6.3-2.9-12.3-6.8-17.3l55.1-73.4l79.1,105.5
	C312,361.5,310.6,363.7,309.5,366.1L309.5,366.1z M354.6,379.3c0,8.8-7.2,16-16,16c-8.8,0-16-7.2-16-16c0-8.8,7.2-16,16-16
	C347.4,363.3,354.6,370.5,354.6,379.3z M337.2,347.5c-3.7,0.1-7.3,0.9-10.8,2.3l-78.8-105.1l104.4-36c3.1,4.6,7.4,8.4,12.4,10.9
	L337.2,347.5z M378.6,207c-8.8,0-16-7.2-16-16c0-8.8,7.2-16,16-16c8.8,0,16,7.2,16,16C394.6,199.8,387.4,207,378.6,207z"/>
<path d="M392.5,363.7l7.4-22.8l15.2,4.9l-7.4,22.8L392.5,363.7z"/>
<path d="M407.3,318l7.4-22.8l15.2,4.9l-7.4,22.8L407.3,318z"/>
<path d="M377.7,409.4l7.4-22.8l15.2,4.9l-7.4,22.8L377.7,409.4z"/>
<path d="M422.1,272.4l7.4-22.8l15.2,4.9l-7.4,22.8L422.1,272.4z"/>
<path d="M436.8,226.7l7.4-22.8l15.2,4.9l-7.4,22.8L436.8,226.7z"/>
<path d="M357.2,94.9l9.1-13.2L386,95.4l-9.1,13.2L357.2,94.9z"/>
<path d="M45.4,318.9l15.2-4.9l7.4,22.8l-15.2,4.9L45.4,318.9z"/>
<path d="M159.6,42.7L179.4,29l9.1,13.2l-19.8,13.6L159.6,42.7z"/>
<path d="M120.1,69.9l19.8-13.6l9.1,13.2l-19.8,13.6L120.1,69.9z"/>
<path d="M60.2,364.6l15.2-4.9l7.4,22.8l-15.2,4.9L60.2,364.6z"/>
<path d="M41.1,124.4l19.8-13.6l9.1,13.2l-19.8,13.6L41.1,124.4z"/>
<path d="M278.2,40.4l9.1-13.2L307,40.9L297.9,54L278.2,40.4z"/>
<path d="M396.7,122.1l9.1-13.2l19.8,13.6l-9.1,13.2L396.7,122.1z"/>
<path d="M317.7,67.6l9.1-13.2l19.8,13.6l-9.1,13.2L317.7,67.6z"/>
<path d="M1.1,181.9l15.2-4.9l7.4,22.8l-15.2,4.9L1.1,181.9z"/>
<path d="M208.5,424.6h24v16h-24V424.6z"/>
<path d="M160.5,424.6h24v16h-24V424.6z"/>
<path d="M256.5,424.6h24v16h-24V424.6z"/>
<path d="M30.6,273.3l15.2-4.9l7.4,22.8L38,296.1L30.6,273.3z"/>
<path d="M112.5,424.6h24v16h-24V424.6z"/>
<path d="M304.5,424.6h24v16h-24V424.6z"/>
<path d="M15.9,227.6l15.2-4.9l7.4,22.8l-15.2,4.9L15.9,227.6z"/>
<path d="M80.6,97.2l19.8-13.6l9.1,13.2l-19.8,13.6L80.6,97.2z"/>
</svg>
