<?xml version="1.0" encoding="utf-8"?>
<!-- Generator: Adobe Illustrator 24.0.1, SVG Export Plug-In . SVG Version: 6.00 Build 0)  -->
<svg version="1.1" id="Слой_1" xmlns="http://www.w3.org/2000/svg" xmlns:xlink="http://www.w3.org/1999/xlink" x="0px" y="0px"
	 viewBox="0 0 512 510" style="enable-background:new 0 0 512 510;" xml:space="preserve">
<path d="M97.3,510c4.1,0,7.5-3.4,7.5-7.5V311.8c0-11.2-9.1-20.3-20.3-20.3H20.3C9.1,291.5,0,300.6,0,311.8v190.6
	c0,4.1,3.4,7.5,7.5,7.5H97.3z M15,311.8c0-2.9,2.4-5.3,5.3-5.3h64.1c2.9,0,5.3,2.4,5.3,5.3V495H15V311.8z"/>
<path d="M156.1,241.2c-11.2,0-20.3,9.1-20.3,20.3v240.9c0,4.1,3.4,7.5,7.5,7.5H233c4.1,0,7.5-3.4,7.5-7.5V261.5
	c0-11.2-9.1-20.3-20.3-20.3H156.1z M225.5,261.5V495h-74.8V261.5c0-2.9,2.4-5.3,5.3-5.3h64.1C223.1,256.2,225.5,258.6,225.5,261.5z"
	/>
<path d="M376.3,502.5V211.2c0-11.2-9.1-20.3-20.3-20.3h-64.1c-11.2,0-20.3,9.1-20.3,20.3v291.2c0,4.1,3.4,7.5,7.5,7.5h89.8
	C372.9,510,376.3,506.6,376.3,502.5z M361.3,495h-74.8V211.2c0-2.9,2.4-5.3,5.3-5.3h64.1c2.9,0,5.3,2.4,5.3,5.3L361.3,495L361.3,495
	z"/>
<path d="M414.7,510h89.8c4.1,0,7.5-3.4,7.5-7.5V161c0-11.2-9.1-20.3-20.3-20.3h-64.1c-11.2,0-20.3,9.1-20.3,20.3v341.5
	C407.2,506.6,410.5,510,414.7,510z M422.2,161c0-2.9,2.4-5.3,5.3-5.3h64.1c2.9,0,5.3,2.4,5.3,5.3v334h-74.8V161z"/>
<path d="M442.6,104.5c3.4,4.9,9.2,7.4,15.1,6.6c5.9-0.9,10.7-4.9,12.6-10.6l25.6-77c1.6-4.7,0.8-9.8-2-13.9
	c-2.8-4.1-7.3-6.5-12.3-6.7L400.5,0c-6-0.2-11.4,2.9-14.3,8.1c-2.9,5.2-2.5,11.5,0.9,16.4l8.5,12.2c-43.8,25.3-147.2,76.4-288,91.3
	c-4.1,0.4-7.1,4.1-6.7,8.3c0.4,3.9,3.7,6.7,7.4,6.7c0.3,0,0.5,0,0.8,0C261,126.9,370.3,69.5,410.2,45.6c3.7-2.2,4.7-7.2,2.3-10.7
	c0,0-12.9-18.5-13.1-18.8c-0.3-0.5,0-1,0.6-1c0,0,80.8,2.9,81.1,2.9c0.4,0,0.7,0.4,0.6,0.9c0,0-25.6,76.9-25.6,77
	c-0.2,0.5-0.9,0.6-1.2,0.2l-11.6-16.7c-2.3-3.3-6.7-4.2-10.1-2.1c-17.5,10.7-46.8,27-86.8,44.1c-3.8,1.6-5.6,6-4,9.8
	c1.6,3.8,6,5.6,9.8,4c36.6-15.6,64.4-30.6,82.7-41.4L442.6,104.5z"/>
<path d="M78.9,145.6c4.1-0.3,7.3-3.8,7-8c-0.3-4.1-3.8-7.3-8-7c-16.3,1.1-32.7,1.6-48.7,1.6c-4.1,0-7.5,3.4-7.5,7.5v53.9
	c0,4.1,3.4,7.5,7.5,7.5c124.2,0,227.8-29.4,292.9-54c3.9-1.5,5.8-5.8,4.4-9.7c-1.5-3.9-5.8-5.8-9.7-4.4
	c-62.6,23.7-161.5,51.8-280,53v-38.9C50.6,147.1,64.8,146.5,78.9,145.6z"/>
</svg>
