<svg xmlns="http://www.w3.org/2000/svg" viewBox="0 0 23.12 9.22" width="23.12" height="9.22" ><defs><style>.cls-1{fill:#fff;}.cls-2{fill:red;}</style></defs><title>Ресурс 1</title><g id="Слой_2" data-name="Слой 2"><g id="Layer_1" data-name="Layer 1"><path class="cls-1" d="M0,.81A.53.53,0,0,1,.52.27a.54.54,0,1,1,0,1.07A.52.52,0,0,1,0,.81ZM.1,3a.18.18,0,0,1,.17-.17H.79A.18.18,0,0,1,1,3V6.31a.18.18,0,0,1-.18.17H.27A.18.18,0,0,1,.1,6.31Z"/><path class="cls-1" d="M1.81,3A.18.18,0,0,1,2,2.83h.26a.15.15,0,0,1,.15.11l.11.31a1.85,1.85,0,0,1,1.27-.51c1.12,0,1.53.78,1.53,1.73V6.31a.18.18,0,0,1-.18.17H4.61a.17.17,0,0,1-.17-.17V4.43c0-.58-.28-.9-.76-.9a1.21,1.21,0,0,0-1,.55V6.31c0,.11,0,.17-.21.17H2a.18.18,0,0,1-.18-.17Z"/><path class="cls-1" d="M7.9,2.74a1.62,1.62,0,0,1,1.32.65.17.17,0,0,1,0,.25l-.3.27c-.11.1-.17,0-.24,0a1,1,0,0,0-.73-.35A1.08,1.08,0,0,0,6.85,4.65,1.08,1.08,0,0,0,7.9,5.79a1.12,1.12,0,0,0,.85-.42.15.15,0,0,1,.24,0l.25.2c.09.07.13.16.06.25a1.6,1.6,0,0,1-1.41.77A1.9,1.9,0,0,1,6,4.66,1.94,1.94,0,0,1,7.9,2.74Z"/><path class="cls-1" d="M10.05,3a.18.18,0,0,1,.17-.17h.27a.17.17,0,0,1,.15.13l.1.31a1.3,1.3,0,0,1,1.07-.53c.34,0,.76.09.66.34l-.22.44A.14.14,0,0,1,12,3.6a1.13,1.13,0,0,0-.31-.06A1,1,0,0,0,10.9,4V6.31c0,.15-.1.17-.24.17h-.44a.18.18,0,0,1-.17-.17Z"/><path class="cls-1" d="M13,.81a.53.53,0,1,1,1.06,0A.53.53,0,1,1,13,.81ZM13.11,3a.18.18,0,0,1,.18-.17h.52A.18.18,0,0,1,14,3V6.31a.18.18,0,0,1-.17.17h-.52a.18.18,0,0,1-.18-.17Z"/><path class="cls-1" d="M15.45,3.59H13.51a.18.18,0,0,1-.17-.18V3a.16.16,0,0,1,.17-.17h1.94V1.7A1.51,1.51,0,0,1,17,0a1.65,1.65,0,0,1,1,.36.16.16,0,0,1,0,.21L17.85,1c0,.08-.14.09-.23,0A1.26,1.26,0,0,0,17,.79c-.4,0-.68.3-.68.91V2.83h.34A.25.25,0,0,1,17,3l.22.41a.18.18,0,0,1-.17.18h-.67V6.31a.18.18,0,0,1-.18.17h-.54a.18.18,0,0,1-.17-.17Z"/><path class="cls-1" d="M17.52,3.07a.16.16,0,0,1,.15-.24h.6a.19.19,0,0,1,.16.1l1.13,2.43h0l1.09-2.43a.19.19,0,0,1,.2-.1h.52a.16.16,0,0,1,.15.24l-2.79,6a.19.19,0,0,1-.16.11H18A.17.17,0,0,1,17.88,9L19.1,6.35Z"/><polygon class="cls-2" points="23.12 6.02 21.56 6.02 23.12 7.58 23.12 6.02"/></g></g></svg>
