<svg xmlns="http://www.w3.org/2000/svg" xmlns:xlink="http://www.w3.org/1999/xlink" viewBox="0 0 99.93 99.82" width="500">
    <defs>
        <style>
            .cls-1{fill:#313131}.cls-2{fill:url(#grd1)}.cls-3{fill:url(#grd2)}.cls-4{opacity:.2;fill:url(#grd3)}.cls-5{fill:url(#grd4)}.cls-6{fill:url(#grd5)}.cls-7{opacity:.4;fill:url(#grd6)}.cls-8{fill:#313131}
        </style>
        <radialGradient id="grd1" cx="49.86" cy="49.86" r="89.92" gradientUnits="userSpaceOnUse">
            <stop offset="0" stop-color="#fff"/>
            <stop offset="1" stop-color="#313131"/>
        </radialGradient>
        <radialGradient id="grd2" cx="56.48" cy="32.19" fx="41.302" fy="44.115" r="84.48" gradientUnits="userSpaceOnUse">
            <stop offset="0" stop-color="#C3C2C5"/>
            <stop offset="1" stop-color="#fff"/>
        </radialGradient>
        <linearGradient id="grd3" x1="63.63" y1="21.42" x2="22.58" y2="72.4" gradientUnits="userSpaceOnUse">
            <stop offset="0" stop-opacity="0"/>
            <stop offset="1" stop-opacity=".7"/>
        </linearGradient>
        <linearGradient id="grd4" x1="1.24" y1="47.09" x2="90.04" y2="47.09" gradientUnits="userSpaceOnUse">
            <stop offset="0" stop-color="#fff" stop-opacity=".5"/>
            <stop offset="1" stop-color="#313131" stop-opacity="0"/>
        </linearGradient>
        <radialGradient id="grd5" cx="54.13" cy="56.91" fx="54.135" fy="56.91" r="47.54" xlink:href="#grd2"/>
        <linearGradient id="grd6" x1="29.81" y1="78.12" x2="73.49" y2="54.39" gradientUnits="userSpaceOnUse">
            <stop offset="0" stop-opacity="0"/>
            <stop offset="1" stop-opacity=".4"/>
        </linearGradient>
    </defs>
    <title>
        Logo
    </title>
    <g>
        <g>
            <path class="cls-1" d="M99.86 23.52s.76 3.53-4.14 6.63c-1.09-2.56-1-1.88-2.43-4.8 1.09-.35 6.57-1.83 6.57-1.83z"/>
            <path class="cls-2" d="M99.72 49.86a49.83 49.83 0 0 1-93.07 24.8 41 41 0 0 1-4.12-9.24l-.07-.07c-.33-1.13-.66-2.26-.93-3.39 0-.13-.07-.2-.07-.33A26.84 26.84 0 0 1 .8 58.5a36.75 36.75 0 0 1-.73-6.78A16.52 16.52 0 0 1 0 49.86 49.88 49.88 0 0 1 49.86 0a11 11 0 0 1 2.06.13 42.91 42.91 0 0 1 12.37 2.06 36.72 36.72 0 0 1 4 1.4l1.92.8c.2.06.47.2.67.26s.06.07.13.07a24.3 24.3 0 0 1 2.33 1.2c1.06.59 2.12 1.19 3.19 1.92.53.27 1.06.67 1.59 1A42.51 42.51 0 0 1 82 11.9a9.09 9.09 0 0 1 1.3 1.1 32.69 32.69 0 0 1 2.59 2.53l.4.4c.13.13.27.33.4.46.6.67 1.2 1.27 1.73 1.93a6.62 6.62 0 0 1 1 1.33 4.46 4.46 0 0 1 .46.67H90l1.19 1.59a49.89 49.89 0 0 1 8.53 27.95z"/>
            <path class="cls-3" d="M14.12 74c3.53.71 7.87-.51 12.1-3.64a57.88 57.88 0 0 0 11.68-11.9c7.19-9.86 15.35-20.39 25.68-28.34A47.74 47.74 0 0 1 81.21 21a27.24 27.24 0 0 1 8.79-.67A49.87 49.87 0 0 0 2.48 65.41C6 69.93 10.12 73.39 14.12 74z"/>
            <path class="cls-4" d="M86.51 20c-7.05 1.8-12.9 3.62-18.43 7.94C57 36.42 55.82 38.5 40.69 59.68c-3.66 5.11-8 10.46-12.54 13.73s-9.24 4.9-13 4.17a19.35 19.35 0 0 1-9.5-4.38 42 42 0 0 1-3.09-7.72C6.06 70 10.12 73.4 14.11 74c3.53.73 7.85-.47 12.11-3.59a62 62 0 0 0 11.71-11.92c7.19-9.91 15.31-20.43 25.62-28.34A47.89 47.89 0 0 1 81.19 21a29.64 29.64 0 0 1 8.81-.7c.44.53-2.16-.67-3.49-.3z"/>
            <path class="cls-5" d="M83.62 20.3a48.64 48.64 0 0 0-18.53 8c-11 7.36-20 17.49-28 27-3.91 4.46-9 9.63-13.54 12.41s-8.16 3.51-11.69 2.55c-3.78-.86-8.4-4.74-10.59-9.5.35 1.57.75 3.12 1.24 4.64 3.52 4.52 7.64 8 11.64 8.62 3.53.71 7.87-.51 12.1-3.64A57.88 57.88 0 0 0 37.9 58.46c7.19-9.86 15.35-20.39 25.68-28.34A47.74 47.74 0 0 1 81.21 21a27.24 27.24 0 0 1 8.79-.67c-.09-.12-.19-.22-.28-.34a28.59 28.59 0 0 0-6.1.31z"/>
            <path class="cls-6" d="M91 25.1a21.66 21.66 0 0 0-8.17 1.36 41.4 41.4 0 0 0-14.27 9.43 91.19 91.19 0 0 0-11.49 13.57q-2.56 3.69-4.93 7.54l-4.78 8a70 70 0 0 1-12.84 15.77 34.5 34.5 0 0 1-9.59 6.16 27.42 27.42 0 0 1-6.31 1.83 49.87 49.87 0 0 0 74.72-63.39A16.35 16.35 0 0 0 91 25.1z"/>
            <path class="cls-7" d="M35.31 96.15a36 36 0 0 0 8.49-8.28 72.89 72.89 0 0 0 9.75-18.8L56.74 60q1.6-4.39 3.45-8.69a96.8 96.8 0 0 1 8.13-15.18 91.92 91.92 0 0 0-11.25 13.33q-2.56 3.69-4.93 7.54l-4.78 8a70 70 0 0 1-12.84 15.77 34.5 34.5 0 0 1-9.59 6.16 27.42 27.42 0 0 1-6.31 1.83 49.9 49.9 0 0 0 15.13 8.35c.52-.32 1.07-.61 1.56-.96z"/>
            <path class="cls-8" d="M99.86 23.52c-1-3-9.9-3.19-9.9-3.19.73 1.09 1.58 4.58 3.38 5 0 .04 7.37.82 6.52-1.81z"/>
        </g>
    </g>
</svg>
