<svg xmlns="http://www.w3.org/2000/svg" viewBox="0 0 51.6 47.6" width="51.6" height="47.6" fill="#fff">

        <path class="st0" d="M8.5,17.8C8.6,17.9,8.6,18,8.7,18c0.1,0,0.3,0,0.4,0c0.8-0.1,1.6,0.6,2.4,0.6c0.1,0,0.2,0,0.2,0
        c0.2-0.1,0.4-0.3,0.5-0.4c0.7-1.2,1.4-2.1,2.1-3.3c1-1.5,2-3.1,3.1-4.5c0.5,0.4,0.5,1.1,0.4,1.8c-0.1,1-0.2,2,0,2.9
        c0.1,0.5,0.6,1.2,0.8,1.6c0.4,0.8,0.5,1.3,1.2,2c0.2,0.2,0.5,0.4,0.8,0.6c0.5,0.2,1.1,0,1.6-0.2c0.6-0.3,0.9-1,1.3-1.6
        c0.5-0.6,0.7-0.4,1.6-2.1c0.6-1.3,1-2.3,1.7-3.4c0.2,0.1,0.3,0.3,0.3,0.5c0.2-0.5,0.2-1.1-0.1-1.6c0.4-0.7,1.1-1.1,1.6-1.6
        c0,0.1-0.1,0.2-0.1,0.3c-0.2,0.3-0.8,1-0.5,1.4c0,0,0.1,0,0,0c-0.1,0.3-0.1,0.7-0.2,1.1c0,0.1,0,0.4-0.1,0.5
        c-0.1,0.1-0.3,0.1-0.5,0.1c0.4,0.3,0.4,0.9,0.5,1.4c0.1,0.5,0.1,1,0.2,1.4c0.1,1,0.7,2,1.6,2.5c1.2,0.8,2.9,0.5,4.3,0.2
        c0.7-0.2,1.5-0.4,2.1-0.8c0.8-0.5,1.5-1.1,2.2-1.6c0.3-0.3,0.5-0.7,0.8-1c0.4-0.4,0.8-0.8,1.1-1.3c0.3-0.5,0.9-0.8,1-1.4
        c0.1-0.5,0.3-0.9,0.4-1.4c0.1-0.2,0.1-0.3,0.1-0.5c0,0,0,0.1-0.1,0.1c0-0.3,0.3-0.7,0.4-1c0.1-0.3,0.1-0.5,0.1-0.8
        c0-0.5-0.1-1-0.3-1.5c-0.2-0.4-0.5-0.8-0.7-1.2c-0.3-0.5-0.6-0.9-1-1.4c-0.2-0.2-0.3-0.4-0.5-0.6c-0.2-0.2-0.4-0.2-0.6-0.3
        c-0.3-0.2-0.4-0.4-0.6-0.6c-0.3-0.2-0.6-0.4-0.9-0.5C36.8,2.1,36.5,2.1,36,2c-0.4,0-0.7-0.2-1-0.3c-0.4-0.2-0.6-0.4-1-0.4
        c-0.1,0-0.5,0-0.6,0.2c0,0.1,0.2,0.3,0.2,0.5c0.1,0.4-0.6,0.6-0.8,0.8c-0.4,0.3-0.7,0.7-1,1.1c-0.6,0.8-1.1,1.8-1.6,2.6
        C30.1,6.6,30,6.7,30,6.9c0,0-0.1,0-0.1,0c0-0.1,0-0.3,0.1-0.4c0.2-0.6,0.5-1.3,0.7-1.9c-0.1,0.1-0.2,0.2-0.3,0.3
        c-0.2-0.6-0.1-1.2,0.3-1.7c0.1-0.1,0.2-0.2,0.2-0.3c0-0.2-0.3-0.3-0.3-0.6c-0.1-0.3,0.5-0.7,0.3-0.9c-0.1-0.1-0.2-0.1-0.3-0.2
        c-0.1-0.1-0.1-0.4-0.3-0.4c-0.2,0-0.3,0-0.4,0.1c-1.3,1.4-2.2,3.1-3.2,4.8c-0.4,0.8-0.8,1.6-1.4,2.2c-0.2,0.3-0.5,0.5-0.7,0.8
        c-0.3,0.3-0.4,0.7-0.6,1.1c-0.5,1.1-1.2,2.1-2,3c0,0-0.1,0-0.1,0c0.1-1.1-0.1-2.1-0.2-3.1c0-1,0.1-2.1,0.1-3.1
        c0-0.4-0.2-1.5-0.3-1.9c-0.1-0.4-0.3-0.7-0.6-1c-0.3-0.4-0.6-0.8-1-1.1c-0.1-0.1-0.4-0.3-0.6-0.3c-0.5-0.1-0.7,0.6-1.1,0.8
        C18,3,17.9,3,17.8,3.1c-0.3-0.1-0.5-0.2-0.8-0.4c-0.1,0-0.1-0.1-0.2,0c0,0-0.1,0-0.1,0.1c-0.1,0-0.1,0.1-0.2,0.1
        c-0.1,0-0.1,0.1-0.1,0.1c-0.1,0.1-0.1,0.3,0,0.4c0.2-0.2,0.5-0.3,0.7-0.3c0.1,0,0.3,0,0.4,0.1c-0.1,0.1-0.2,0.3-0.3,0.4
        c-2,2.7-3.4,4.9-5.3,7.4c-0.9,1.2-1.8,2.6-2.7,3.7c-0.5,0.7-1,1.4-1.8,1.7C7.7,17,8.1,17.5,8.5,17.8z M33.9,2.4L33.9,2.4
        c-0.2,0-0.2,0.2-0.1,0.3c-0.1,0.1-0.2,0.1-0.4,0.1C33.2,2.5,33.7,2.4,33.9,2.4z M30.9,12c0.2-0.4,0.5-0.9,0.8-1.3
        c0.5-0.6,1-1.1,1.5-1.6c0.2-0.2,0.3-0.4,0.5-0.6c0-0.1,0.1-0.1,0.1-0.2C34,8,34.3,7.8,34.6,7.5c0.2-0.3,0.4-0.6,0.8-0.8
        c0.2-0.1,0.4-0.2,0.6-0.2c0,0.3-0.1,0.4,0.3,0.3c0.2-0.1,0.4-0.1,0.6-0.2c-0.2-0.1-0.5-0.2-0.5-0.4c0.7-0.1,1,0.4,1.4,0.9
        c0.1,0.2,0.3,0.4,0.4,0.5c0.1,0.1,0.3,0.2,0.3,0.4C38.7,8.5,38,9,37.9,9.5c-0.1,0.4-0.2,0.9-0.4,1.3c-0.2,0.4-0.8,0.7-1.2,1.1
        c-0.7,0.8-1.6,1.3-2.5,1.8c-0.1,0.1-0.5,0.3-0.7,0.3c-0.3-0.1,0.1-0.4,0.2-0.5c0.3-0.3,0.7-0.6,1.1-0.8c0.2-0.1,0.5-0.3,0.6-0.5
        c-0.3-0.1-0.5,0-0.7,0.2c-0.3,0.2-0.5,0.4-0.8,0.6c-0.5,0.4-0.9,0.7-1.5,0.9c-0.3,0.1-1.1,0.3-1.4,0.1
        C30.1,13.6,30.8,12.3,30.9,12z M29.2,7.5c0.1-0.1,0.2-0.2,0.4-0.2c0.2,0.1,0.2,0.2,0.1,0.4c-0.1,0.3-0.4,0.5-0.6,0.7c0,0,0,0,0,0
        c0,0,0,0,0-0.1C29.2,8.1,29.1,7.8,29.2,7.5z"></path>
        <path class="st0" d="M23.2,8.5c0.1-0.1,0.4-0.9,0.5-0.9c-0.1,0-0.2,0-0.3,0c0,0.2-0.2,0.5-0.3,0.7C22.9,8.5,22.8,9.5,23.2,8.5z"></path>
        <path class="st0" d="M25.3,4.5c0.1-0.1,0.2-0.3,0.2-0.4l-0.1,0c0,0,0,0,0-0.1c-0.1,0-0.2,0.1-0.2,0.1c0,0.1,0,0.2,0,0.2
        C25.3,4.4,25.3,4.4,25.3,4.5z"></path>
        <path class="st0" d="M27.8,0.7c0.3-0.3,0.8-0.4,1.1-0.2c0,0,0,0,0,0l0,0c0,0,0,0,0,0c0,0.1-0.1,0.2,0,0.2c0.1,0,0.3,0,0.4,0
        c0,0,0.1,0,0.1,0c0-0.1,0-0.1,0-0.2c-0.1-0.1-0.3-0.1-0.4-0.1C28.8,0.3,28.7,0,28.5,0c-0.2,0-0.3,0.1-0.4,0.2
        c-0.7,0.5-1.5,1.8-1.7,2.6c0.4-0.6,0.7-0.8,0.8-1C27.3,1.4,27.5,1,27.8,0.7z"></path>
        <path class="st0" d="M9.8,12.6c-0.1,0.1-0.3,0-0.4,0.1c-0.1,0-0.2,0.1-0.3,0.3c-0.2,0.3-0.4,0.6-0.6,0.9
        c-0.3,0.6-0.6,1.2-0.9,1.8c0,0.1-0.1,0.2,0,0.3C8.2,14.7,8.9,13.6,9.8,12.6z"></path>
        <path class="st0" d="M11.5,10.1c0.1-0.2,0.3-0.4,0.4-0.6c-0.1,0-0.2,0-0.2,0.1c-0.2,0.2-0.4,0.4-0.5,0.6
        C11.3,10.1,11.4,10.1,11.5,10.1L11.5,10.1z"></path>
        <path class="st0" d="M12.1,9.2c0.1,0,0.2-0.2,0.3-0.3c0.1-0.1,0.2-0.3,0.3-0.4c0.3-0.4,0.6-0.9,0.8-1.4c-0.2,0.1-0.4,0.3-0.5,0.5
        c-0.3,0.5-0.7,0.9-1,1.4C12,9.1,11.9,9.2,12.1,9.2z"></path>
        <path class="st0" d="M14.1,6.1c0,0,0,0.1,0,0.1L14.1,6.1c-0.2,0.2-0.4,0.5-0.4,0.7C14,6.7,14.2,6.4,14.1,6.1z"></path>
        <path class="st0" d="M15,4.9c-0.4-0.4-0.5,0.8-0.6,0.9C14.5,5.6,15.4,5.2,15,4.9z"></path>
        <path class="st0" d="M15.6,4.2c-0.2,0.1-0.3,0.3-0.4,0.5c0,0,0,0,0.1,0C15.4,4.5,15.5,4.4,15.6,4.2z"></path>
        <path class="st0" d="M15.3,4.6c0,0,0.1,0,0.1-0.1L15.3,4.6z"></path>
        <path class="st0" d="M15.3,4.6C15.3,4.6,15.3,4.6,15.3,4.6C15.3,4.6,15.3,4.6,15.3,4.6L15.3,4.6z"></path>
        <polygon class="st0" points="16.4,3.4 16.4,3.4 16.4,3.4                         "></polygon>
        <path class="st0" d="M16.3,3.5C16.3,3.5,16.4,3.5,16.3,3.5C16.4,3.4,16.3,3.4,16.3,3.5z"></path>
        <path class="st0" d="M16.2,3.6c-0.2,0-0.4,0.2-0.4,0.4c0.1,0,0.2,0,0.2,0c0.1,0,0.1-0.1,0.1-0.2C16.2,3.7,16.2,3.7,16.2,3.6
        C16.2,3.6,16.3,3.5,16.2,3.6C16.3,3.5,16.3,3.5,16.2,3.6z"></path>
        <path class="st0" d="M30.9,4.5c0,0,0-0.1,0-0.2c0-0.1,0-0.2,0-0.3L31,4c-0.1,0.1-0.2,0.3-0.2,0.5c0,0,0,0.1,0,0.1
        C30.8,4.6,30.9,4.5,30.9,4.5z"></path>
        <path class="st0" d="M31.5,3.7c0.1-0.1,0.1-0.3,0.2-0.5c-0.3,0.2-0.6,0.5-0.5,0.9C31.2,4,31.4,3.8,31.5,3.7z"></path>
        <path class="st0" d="M35.7,7c-0.2,0.1-1.1,0.5-1,0.7c0.1-0.1,0.4-0.2,0.6-0.2C35.5,7.3,35.6,7.2,35.7,7z"></path>
        <path class="st0" d="M36.3,10.9c0.2-0.2,0.3-0.4,0.3-0.7c-0.2,0.1-0.4,0.2-0.4,0.3c-0.2,0.1-0.5,0.8-0.5,1
        C35.9,11.4,36.1,11.1,36.3,10.9z"></path>
        <path class="st0" d="M2.7,21.2c-0.1,0.5,0.1,1,0.2,1.4c0.1,0.5,0.1,1,0.2,1.5c0.1,0.5,0.3,1.1,0.3,1.7c0,0.6,0.1,1.2,0.2,1.7
        C3.6,28,3.9,28.5,4.1,29c0.1,0.3,0.2,0.5,0.3,0.8c0.2,0.6,0.6,1.8,1.3,2.1c0.8,0.4,2,0.3,2.6-0.4c0.2-0.2,0.4-0.3,0.6-0.5
        c0.2-0.2,0.3-0.3,0.4-0.6c0.3-0.6,0.8-1,1.1-1.6c0.2-0.3,0.4-0.7,0.6-1c0.1-0.1,0.2-0.3,0.3-0.3c0.2-0.1,0.2,0.1,0.3,0.2
        c0.3,0.5,0.6,0.9,0.8,1.5c0.2,0.4,0.4,1.2,0.8,1.5c0.3,0.2,0.7,0.3,1,0.4c0.3,0.1,0.6,0,0.9,0.1c0.1-0.3,0.5-0.6,0.7-0.9
        c0.2-0.4,0.5-0.8,0.7-1.2c0.5-1.2,1.2-2.4,1.7-3.7c0.2-0.5,0.3-1,0.5-1.5c0.1-0.2,0.2-0.5,0.3-0.8c0-0.2,0-0.7,0-0.8
        c0.1-0.2-0.1-0.8-0.2-1c-0.2-0.3-0.3-0.5-0.6-0.7c-1.1-0.9-1.9,1.3-2.3,2c-0.3,0.5-0.5,1.1-0.7,1.6c-0.2,0.4-0.5,1-1,1.2
        c0-0.2-0.1-0.3-0.1-0.5c0-0.3,0-0.4,0.2-0.7c0.2-0.4,0.3-0.8,0.5-1.1c0.2-0.3,0.4-0.6,0.6-1c0.4-0.7,0.8-1.5,1.5-1.8
        C16.6,20.1,16.2,20,16,20c-0.1,0.3-0.3,0.6-0.4,1c-0.1,0.3-0.2,0.6-0.4,0.9c-0.1,0.1-0.1,0.3-0.2,0.4c-0.1,0.2-0.1,0.2-0.3,0.3
        c-0.2,0.1-0.2,0.1-0.3,0.3c-0.1,0.1-0.1,0.3-0.2,0.4c-0.2,0.3-0.3,0.5-0.4,0.8c0,0,0,0,0,0.1c0-0.1-0.1-0.3-0.1-0.4
        c-0.1-0.1-0.2,0-0.3,0c-0.3-0.1-0.3-0.6-0.5-0.9c-0.1-0.2-0.3-0.5-0.4-0.7c-0.1-0.2-0.3-0.3-0.5-0.3c-0.3,0-0.5,0.1-0.8,0.2
        c-0.3,0-0.7,0-1,0c-0.5-0.1-0.7,0.4-0.9,0.8C9,23,8.7,23.3,8.6,23.7c0.1-0.2,0.3-0.3,0.4-0.4c0.1-0.1,0.2-0.3,0.3-0.5
        c0.2-0.3,0.4-0.5,0.8-0.5c0.1,0.4-0.2,1-0.4,1.4c-0.4,0.7-1,1.4-1.5,2.1c-0.2,0.3-0.5,0.6-0.7,0.9C7.3,26.9,7.1,27,7,27.2
        c-0.1,0.1-0.3,0.2-0.4,0.3c0-0.2,0.1-0.4,0.2-0.6c0.1-0.4,0.4-0.6,0.6-0.9c0.1-0.2,0.2-0.4,0.3-0.6c0.1-0.2,0.2-0.3,0.3-0.5
        c-0.3,0-0.7,0.2-0.8,0.5c-0.1,0.1-0.1,0.3-0.2,0.4C6.7,26,6.6,26,6.5,26.2c-0.3-0.5-0.5-1-0.6-1.5c-0.1-0.4-0.2-0.9-0.2-1.4
        c0-0.5,0.1-1.1,0.1-1.6c0-0.5,0-1-0.1-1.4c-0.1-0.3-0.2-0.7-0.4-0.9c0-0.1-0.4-0.6-0.4-0.5c-0.1,0.2-0.1,0.6-0.3,0.8
        c-0.2-0.2-0.2-0.4-0.4-0.5c0,0.2,0.1,0.5-0.2,0.5c-0.4-0.1-0.3-0.7-0.6-0.9c-0.2-0.2-0.9-0.1-1.2,0c0.3,0.3,0.6,0.8,0.7,1.1
        C2.9,20.3,2.7,20.7,2.7,21.2z"></path>
        <path class="st0" d="M15.1,31.2C15.1,31.2,15.1,31.2,15.1,31.2C15.1,31.2,15.1,31.2,15.1,31.2C15.1,31.2,15.1,31.2,15.1,31.2z"></path>
        <path class="st0" d="M15.1,31.2c0,0,0.1,0,0.1,0C15.2,31.2,15.2,31.2,15.1,31.2z"></path>
        <path class="st0" d="M8,24.4c0,0.1-0.1,0.3-0.1,0.4c0.1-0.1,0.2-0.3,0.4-0.4c0,0-0.1-0.1-0.1-0.1C8,24.3,8,24.3,8,24.4z"></path>
        <path class="st0" d="M31.1,24.7c0.4-0.3,0.7-0.6,0.3-1.1c-0.2-0.3-0.6-0.6-1-0.8c-0.3-0.2-0.6-0.2-0.8-0.6
        c-0.1-0.3-0.2-0.7-0.3-1.1c-0.3-0.7-0.6-1.9-1.3-2.3c-0.4-0.2-0.7-0.1-1,0c-0.4,0-0.5-0.3-0.8-0.4c-0.2,0-0.4,0.1-0.5,0.3
        c-0.3,0.2-0.6,0.5-0.9,0.8c-0.4,0.4-0.6,0.9-0.9,1.3c-0.5,0.7-1,1.4-1.6,2c-0.1,0.1-0.3,0.2-0.5,0.4c-0.2,0.2-0.2,0.5-0.4,0.8
        c-0.2,0.3-0.3,0.7-0.5,1c-0.2,0.4-0.6,0.7-0.8,1.1c-0.2,0.3-0.5,0.6-0.6,0.8c-0.2-0.1-0.5,0-0.6,0.1c-0.1,0.2-0.1,0.5-0.2,0.7
        c-0.1,0.2-0.2,0.5-0.2,0.7c0.1,0.3,0.3,0.2,0.5,0.4c0.2,0.2,0.2,0.6,0.1,0.8c0.2,0.2,0.4,0.4,0.7,0.6c0.2,0.1,0.2,0.1,0.1,0.4
        c0,0.1-0.1,0.3-0.2,0.4c0.4,0.2,0.6,0.4,0.9,0.7c0.4-0.3,0.7-1,1-1.4c0.4-0.6,0.7-1.2,1.1-1.7c0.2-0.3,0.4-0.5,0.5-0.8
        c0.1-0.1,0.2-0.4,0.3-0.5c0.2-0.1,0.5,0.1,0.6,0.2c0.4,0.1,0.7,0,1-0.1C26,27,26.9,27,27.8,27c0.1,0.2,0.1,0.4,0.1,0.6
        c0,0.2,0.1,0.3,0.2,0.5c0.2,0.4,0.6,0.5,1,0.7c0.4,0.2,0.6,0.1,0.9-0.3c0.3-0.4,0.5-0.8,0.5-1.3c0.1-0.5-0.1-0.9-0.1-1.4
        C30.5,25.2,30.7,25,31.1,24.7z M21.4,25.4c-0.1,0.3-0.4,0.5-0.6,0.8c-0.2,0.2-0.5,0.4-0.4,0.7c-0.1,0-0.2,0-0.3,0
        c0.1,0,0-0.2,0.1-0.3c0-0.1,0.1-0.1,0.2-0.2c0.3-0.2,0.4-0.5,0.5-0.8c0.2-0.3,0.2-0.8,0.7-0.8C21.4,25,21.4,25.2,21.4,25.4z
        M22.4,23.9c-0.1,0.4-0.7,0.5-0.8,0.8c0-0.2,0-0.4,0.2-0.6c0.1-0.1,0.2-0.4,0.3-0.5C22.2,23.6,22.5,23.8,22.4,23.9z M26,19.4
        c-0.3,0.2-0.5,0.4-0.8,0.7c-0.5,0.4-0.9,1-1.3,1.5c-0.3,0.6-0.7,1-1.2,1.4c0,0,0,0,0,0c0,0,0,0,0,0c0,0,0,0,0,0
        c0-0.1,0.1-0.1,0.1-0.2c0.1-0.2,0.2-0.3,0.3-0.5c0.1-0.2,0.2-0.5,0.4-0.7c0.3-0.3,0.5-0.7,0.8-1.1c0.3-0.4,0.6-0.7,0.9-1
        c0.2-0.1,0.3-0.3,0.5-0.4c0.1-0.1,0.3-0.3,0.4-0.3c0.1,0,0.2,0.2,0.2,0.3C26.4,19.4,26.2,19.3,26,19.4z"></path>
        <path class="st0" d="M41.2,18.6c-0.2,0.1-0.3,0.2-0.4,0.4c-0.2,0.2-0.3,0.4-0.5,0.6c-0.5,0.6-0.9,1.2-1.4,1.7
        c-0.3,0.3-0.5,0.7-0.8,1.1c-0.2,0.3-0.3,0.5-0.4,0.8c-0.2,0.3-0.4,0.5-0.6,0.8c-0.5-0.1-1-0.3-1.4-0.6c-0.7-0.5-1.2-1.3-1.8-2
        c-0.1-0.1-0.2-0.3-0.3-0.3c-0.2-0.1-0.4-0.1-0.6-0.2c-0.2-0.1-0.4-0.1-0.5-0.2c-0.1-0.1-0.4-0.2-0.5-0.2c0,0.2,0.1,0.4,0.1,0.6
        c-0.1-0.2-0.3-0.3-0.4-0.4c-0.2-0.2-0.4-0.2-0.7-0.2c0.1,0.4,0.3,0.8,0.5,1.2c0.2,0.3,0.4,0.7,0.6,1.1c0.1,0.2,0.3,0.4,0.4,0.6
        c0,0,0.1,0,0,0c0.1,0.1,0.1,0.2,0.1,0.4c0,0.7,0.8,1.2,1.2,1.6c0.3,0.3,0.6,0.5,0.8,0.7c0.2,0.2,0.5,0.3,0.4,0.6
        c0,0.3-0.2,0.6-0.3,0.9c-0.2,0.3-0.3,0.7-0.5,1c-0.4,0.8-0.7,1.8-1.3,2.4c-0.3,0.3-0.6,0.6-0.8,0.9c-0.2,0.4-0.3,0.8-0.3,1.3
        c0,0.4,0.2,0.6,0.4,0.8c0.2,0.2,0.4,0.5,0.6,0.6c0.3,0.2,0.9,0,1.3,0c0.2,0,0.4,0,0.6-0.1c0.1-0.1,0.1-0.2,0.2-0.3
        c0.3-0.5,0.7-0.9,1-1.4c0.3-0.4,0.5-0.9,0.8-1.4c0.1-0.2,0.3-0.4,0.4-0.5c0.1-0.1,0.2-0.5,0.3-0.6c0.2-0.1,0.3-0.4,0.4-0.6
        c0.1-0.2,0.2-0.5,0.4-0.7c0.4-0.6,0.7-1.1,1.1-1.7c0.3-0.5,0.6-0.9,0.9-1.4c0.3-0.4,0.6-0.9,0.9-1.3c0.3-0.4,0.6-0.8,0.9-1.1
        c0.4-0.5,0.6-1,0.9-1.5c0.3-0.4,0.5-0.9,0.8-1.4c0.3-0.4,0.5-0.8,0.8-1.2c0.3-0.5,0.4-1.2,0.7-1.7c-0.2,0-0.4,0-0.5,0
        c0.1-0.3,0.2-0.6,0.1-0.9c-0.3,0-0.4,0.1-0.7-0.1c-0.2-0.2-0.1-0.3,0-0.5c-0.1-0.1-0.3-0.3-0.4-0.3c-0.1,0.5-0.6,0.8-1,1
        c-0.2,0.1-0.3,0.1-0.5,0.2c-0.2,0.1-0.4,0.3-0.5,0.5C41.5,18.1,41.4,18.4,41.2,18.6z"></path>
        <path class="st0" d="M46.8,34.9c-0.3-0.1-0.2-0.1-0.3-0.4c-0.1-0.4-0.5-0.9,0.2-1c-0.2,0-0.4,0-0.6,0c-1,0.1-1.8,0.5-2.8,0.7
        c-1.1,0.2-2.2,0.5-3.3,0.7c-0.4,0.1-0.9,0.2-1.3,0.3c-0.4,0.1-0.8,0.1-1.2,0.1c-0.7,0.1-1.5,0.1-2.2,0.3
        c-1.3,0.2-2.6,0.4-3.8,0.8c-0.5,0.2-1,0.4-1.6,0.5c-0.5,0.1-1,0.2-1.5,0.2c-0.5,0.1-1.1,0-1.6,0.2c-0.4,0.1-0.9,0.4-1,0.8
        c0-0.3,1.1,0,0.6,0.4c-0.2,0.1-0.3,0.1-0.1,0.4c0.2,0.2,0.2,0.2,0.5,0.1c0.2-0.1,0.3-0.1,0.6-0.1c0.2,0,0.6,0,0.5,0.2
        c-0.1,0.3-0.9,0.2-1,0.7C26.7,40,27.1,40,27.3,40c0.2,0.1,0.4,0.2,0.6,0.3c0.2,0.1,0.2,0.3,0.5,0.2c0.3,0,0.7-0.1,0.9-0.3
        c0.2-0.1,0.3-0.4,0.5-0.1c0.2,0.2,0.2,0.4,0.4,0.6c0.3,0.3,0.8,0,1.2-0.1c0.3-0.1,0.5-0.1,0.8-0.2c0.1-0.1,0.2-0.1,0.4-0.1
        c0.3,0.1,0.3,0.3,0.2,0.5c-0.1,0.3-0.2,0.6-0.3,0.8c-0.1,0.2-0.3,0.4-0.3,0.7c-0.1,0.2-0.1,0.4-0.2,0.6c-0.2,0.5-0.5,1-0.5,1.5
        c0,0.1,0,0.3,0,0.5c-0.7-0.1-0.4,0.7-0.4,1.1c0.2-0.2,0.3-0.4,0.4-0.6c0.2,0.4,0.1,1.1,0.1,1.6c0.3,0,0.7-0.1,1-0.3
        c0.1,0,0.6-0.3,0.5,0.1c0.2-0.1,0.2-0.4,0.3-0.6c0.1-0.4,0.2-0.7,0.3-1c0-0.1,0.2-0.7,0.4-0.5c0.2,0.2-0.1,0.6-0.2,0.8
        c0.3,0.1,0.4-0.2,0.5-0.4c0.2-0.5,0.4-0.9,0.6-1.4c0.2-0.5,0.3-1,0.5-1.5c0.1-0.4,0.3-0.8,0.5-1.2c0.2-0.3,0.4-0.8,0.7-1
        c0.4-0.3,1-0.4,1.4-0.6c1-0.3,2.1-0.5,3.2-0.7c0.6-0.1,1.1-0.2,1.7-0.3c0.3-0.1,0.7,0,0.9-0.3c-0.1,0,0-0.1,0-0.2
        c-0.2,0-0.5-0.2-0.5-0.4c0.1-0.2,0.6-0.2,0.8-0.3c0.4-0.1,0.5-0.3,0.8-0.6c0.2-0.2,0.5-0.2,0.7-0.4c0.3-0.2,0.3-0.4,0.5-0.6
        c0.2-0.3,0.4-0.4,0.7-0.6C47.1,35.1,47.1,35,46.8,34.9z"></path>
        <path class="st0" d="M43.7,38C43.7,38,43.7,38,43.7,38C43.8,38,43.8,38,43.7,38C43.8,38,43.8,38,43.7,38z"></path>
        <path class="st0" d="M43.7,38C43.7,38,43.7,38,43.7,38C43.7,38,43.7,38,43.7,38z"></path>
        <path class="st0" d="M23.9,34.9C23.9,34.9,23.9,34.9,23.9,34.9c-0.2-0.3-0.9,0.1-1.3-0.1c-0.4-0.2-0.6-0.3-1-0.1
        c0,0.3,0.1,0.2,0.2,0.4c0.1,0.1,0,0.4,0,0.5c-0.1,0.3-0.2,0.6-0.3,0.9c-0.1,0.2-0.2,0.3-0.3,0.5c0.1,0.1,0.2,0,0.3,0
        c-0.2,0.4-0.2,0.8-0.4,1.2c-0.4,0.7-1,1.5-1.6,2.1c-0.4,0.3-0.9,0.4-1.3,0.8c-0.3,0.3-0.5,0.5-0.9,0.5c0.4-0.2,0.6-0.6,0.9-0.8
        c0.6-0.4,1-1.1,1.5-1.5c0.3-0.2,0.5-0.5,0.7-0.8c0.2-0.3,0.3-0.7,0.6-0.9c-0.5,0.2-0.8,0.5-1.1,0.9c-0.4,0.6-0.9,1.2-1.5,1.7
        c-0.3,0.3-0.6,0.4-0.8,0.7c-0.2,0.2-0.5,0.9-0.7,0.8c-0.3-0.1-0.4-0.5-0.3-0.8c0.1-0.3,0.3-0.5,0.4-0.8c0.1-0.3,0.3-0.6,0.5-0.8
        c0.2-0.3,0.8-1.2,0.6-1.5c0,0,0.1,0,0.1,0C18,37.6,18,37,18,36.8c0-0.4,0.1-0.7,0.3-1.1c0.1-0.2,0.4-0.9,0.1-0.9
        c-0.1,0-0.2,0.3-0.4,0.2c-0.1,0,0-0.4-0.1-0.5c0-0.3-0.1-0.6-0.3-0.8c-0.1,0.2-0.1,0.4-0.3,0.5c-0.2,0.1-0.4,0.1-0.6,0.2
        c-0.1,0.1-0.2,0.2-0.3,0.1c-0.1,0-0.1-0.2-0.1-0.3c0-0.3,0-0.4,0.1-0.6c-0.2,0-0.5-0.1-0.6,0c-0.5,0.4-0.5,1.3-0.9,1.8
        c-0.1,0.1-0.2,0.2-0.3,0.3c-0.1,0.2,0,0.3-0.3,0.2c-0.3,0-0.5-0.4-0.8-0.5c-0.3-0.2-0.7-0.5-1.1-0.6c-0.5-0.1-1-0.2-1.5-0.4
        C10,34.1,8.8,33.9,7.6,34c-0.6,0-1.1,0.1-1.7,0.3c-0.3,0.1-0.5,0.2-0.8,0.2c-0.3,0.1-0.7,0.1-1,0.3c-0.4,0.2-0.7,0.7-0.9,1
        C3,36,2.9,36.3,2.8,36.4c-0.2,0.2-0.4,0.4-0.4,0.7c-0.1,0.6,0.2,1.1-0.1,1.6c-0.2,0.6-0.7,1-0.9,1.5c-0.2,0.4,0,1,0,1.5
        c0,0.9,0,1.6,0.4,2.4c0.2,0.4,0.5,0.8,0.8,1.1C2.7,45.5,2.8,45.8,3,46c0.3,0.3,0.7,0.5,1,0.7c0.4,0.2,0.8,0.4,1.2,0.6
        c1.1,0.4,2.3,0.5,3.4,0.2c1.5-0.4,2.6-1.4,3.7-2.7c0.3-0.3,0.9-1,1.3-1.3c0,0,0,0.1,0,0c0.4,0.2,0.3,0.7,0.4,1.1
        c0.3,1.1,1,1.8,2.2,1.8c1,0,1.8-0.3,2.7-0.6c0.4-0.1,1.2-0.3,1.2-0.7c0,0,0.1,0,0.2,0c0,0.1,0.1,0.2,0.1,0.3
        c0.1,0.3,0.1,0.5,0.4,0.6c0.2,0.1,0.4,0.3,0.6,0.4c0.5,0.2,1.1,0.1,1.4-0.3c0.4-0.4,0.4-0.9,0.5-1.5c0.2-0.9,0.4-1.4,0.5-2
        c0.1-0.6,0.3-1.1,0.4-1.7c0.1-0.6,0.2-1.2,0.4-1.9c0.3-0.8,0.5-1.8,0.3-2.6C24.9,35.8,24.5,35.2,23.9,34.9z M2.9,37.2
        c-0.1,0.1,0,0.7-0.3,0.6C2.6,37.7,2.7,37.1,2.9,37.2C3,37.2,3,37.2,2.9,37.2L2.9,37.2C3,37.2,3,37.2,2.9,37.2z M4.1,35.5
        L4.1,35.5c0-0.1,0.1-0.3,0.2-0.4c0.2-0.1,0.3,0,0.5-0.1c0,0.1-0.1,0.3-0.2,0.4C4.5,35.5,4.3,35.5,4.1,35.5z M9.4,41.9
        c-0.5,0.4-0.9,0.9-1.5,1.2c-0.5,0.3-1.1,0.3-1.7,0.3c-0.5,0-1.1-0.2-1.7-0.4c-0.1,0.1,0,0,0,0c0,0,0,0,0,0c0,0,0,0,0,0
        c0,0,0,0,0,0c0-0.7,0.3-1,0.6-1.6c0.3-0.4,0.7-1.1,1.1-1.4c0.6-0.5,1-0.9,1.7-1.1c0.6-0.2,1.6-0.4,2.3-0.3c0.6,0.1,1,0.1,1.6,0.6
        C11.4,40.3,10.3,41.1,9.4,41.9z M23.8,34.9c0,0,0.1,0,0.1,0.1C23.9,34.9,23.7,34.9,23.8,34.9z"></path>
        <path class="st0" d="M7.5,42.6c0.4,0.1,1-0.4,1.2-0.8c0.1-0.1,0.2-0.3,0.2-0.4c-0.4,0.3-0.8,0.5-1.2,0.8
        C7.6,42.4,7.6,42.5,7.5,42.6z"></path>
        <path class="st1" fill='#f00' d="M51.5,10.4C51.5,10.4,51.6,10.4,51.5,10.4C51.6,10.4,51.6,10.3,51.5,10.4c-0.2-0.3-0.5-0.5-0.8-0.8
        c0.2-0.3,0.5-0.5,0.8-0.4c0-0.1-0.1-0.3-0.2-0.3c-0.1-0.1-0.3,0-0.4,0c-0.1,0-0.3,0-0.4-0.1c-0.1-0.1-0.1-0.2-0.1-0.4
        c0-0.1,0.2,0,0.3,0c0,0,0-0.2,0-0.3c0,0-0.1,0-0.2,0c-0.2-0.1-0.2,0-0.4-0.1c0.1-0.1,0.1-0.3,0.2-0.4c-16.9,0-31.9,2.3-48,2.7
        c-0.2,0.3-0.5,0.4-0.7,0.7c-0.1,0.2-0.1,0.4-0.3,0.6C1.2,12.4,0.3,12.4,0,13C16.8,13.1,30.2,9.9,51.5,10.4z"></path>

</svg>
